<?xml version="1.0" encoding="utf-8"?>
<!-- Generator: Adobe Illustrator 19.0.0, SVG Export Plug-In . SVG Version: 6.00 Build 0)  -->
<svg version="1.1" id="Layer_1" xmlns="http://www.w3.org/2000/svg" xmlns:xlink="http://www.w3.org/1999/xlink" x="0px" y="0px"
	 viewBox="0 0 110.7 123.2" style="enable-background:new 0 0 110.7 123.2;" xml:space="preserve">
<style type="text/css">
	.st0{fill:#FFFFFF;}
</style>
<g>
	<path class="st0" d="M4.5,30.5c6.9-3,14.8-3.6,22.1-1.7c8.2,2.1,15.5,7.1,21.5,13c4.8,4.7,9,9.9,12.5,15.6
		c2.6,4.4,5.7,8.5,9.1,12.3c4.5,4.8,9.8,9.2,16.1,11.4c4.6,1.6,9.8,1.5,14.4-0.3c4.4-1.7,8.2-5.1,10.4-9.2c0-3.3,0-6.6,0-9.9
		c0-3.3,0-6.6,0-9.9c-1.9-3.4-4.8-6.3-8.2-8.2c-4.4-2.4-9.7-3.1-14.6-1.9c-7.8,1.9-14.2,7.3-19.4,13.2c-2.3-4-5-7.7-7.8-11.3
		c6.6-6.9,14.7-12.7,24.1-15c7.1-1.7,14.7-1,21.4,1.9c1.1,0.5,2.2,1,3.2,1.6c-0.7-1.7-1.8-3.2-3.1-4.5c-1.7-1.5-3.8-2.5-5.7-3.7
		c-10.5-6-20.9-12.1-31.4-18c-3.6-2-7-4.4-10.8-5.9h-6.2c-1.6,0.5-3.2,1.3-4.6,2.1C34,10,20.5,17.8,6.9,25.6
		c-2.6,1.4-4.6,3.8-5.8,6.6C2.2,31.5,3.3,31,4.5,30.5z"/>
	<path class="st0" d="M87.8,95.1c-7.5-1.1-14.5-4.8-20.4-9.5c-6.1-4.9-11.3-10.8-15.7-17.2c-1.5-2.2-2.8-4.6-4.3-6.7
		c-3.7-5.3-8-10.3-13.2-14.3c-4.1-3.1-8.9-5.7-14.1-6.3c-5.8-0.7-11.8,1.3-16.1,5.3c-1.6,1.5-3,3.3-4.1,5.2c0,3.3,0,6.6,0,9.8
		c0,3.3,0,6.6,0,9.9c0.2,0.4,0.5,0.8,0.7,1.2c2.7,4.2,7,7.4,11.8,8.7c4.5,1.3,9.3,0.9,13.6-0.8c6.4-2.5,11.6-7.2,16.1-12.2
		c2.3,4,4.9,7.7,7.8,11.3c-6.4,6.6-14.1,12.3-23.1,14.7c-7.7,2.1-16.2,1.4-23.4-2.1c-0.8-0.4-1.7-0.8-2.5-1.3
		c1.2,2.8,3.2,5.2,5.8,6.6c13.6,7.8,27.2,15.6,40.7,23.5c1.5,0.9,3,1.6,4.6,2.1h6.2c3.9-1.4,7.2-3.9,10.8-5.9
		c10.5-5.9,20.9-12.1,31.4-18c1.9-1.2,4-2.2,5.7-3.7c1.3-1.3,2.3-2.9,3.1-4.5C103,94.8,95.2,96.3,87.8,95.1z"/>
</g>
</svg>
