<?xml version="1.0" encoding="utf-8"?>
<!-- Generator: Adobe Illustrator 19.0.0, SVG Export Plug-In . SVG Version: 6.00 Build 0)  -->
<svg version="1.1" id="Layer_1" xmlns="http://www.w3.org/2000/svg" xmlns:xlink="http://www.w3.org/1999/xlink" x="0px" y="0px"
	 viewBox="-287 474.1 788.9 135.8" style="enable-background:new -287 474.1 788.9 135.8;" xml:space="preserve">
<style type="text/css">
	.st0{fill:#FFFFFF;}
</style>
<g>
	<path class="st0" d="M-58.5,522.4c0,5.1-0.6,9.7-1.9,13.8c-1.3,4.1-3.2,7.5-5.7,10.3c-2.5,2.8-5.6,5-9.4,6.5
		c-3.7,1.5-8,2.2-12.9,2.2c-4.8,0-9-0.6-12.6-1.9c-3.6-1.3-6.6-3.2-9-5.8c-2.4-2.6-4.2-5.9-5.4-9.9c-1.2-4-1.8-8.7-1.8-14.2
		c0-5,0.6-9.5,1.9-13.5c1.3-4,3.2-7.4,5.7-10.2c2.5-2.8,5.6-5,9.4-6.5c3.7-1.5,8-2.3,13-2.3c4.7,0,8.8,0.6,12.4,1.9
		c3.6,1.2,6.6,3.2,9,5.8c2.4,2.6,4.2,5.9,5.5,9.8C-59.1,512.4-58.5,517-58.5,522.4z M-71.7,523.1c0-3.3-0.3-6.2-0.8-8.9
		c-0.5-2.7-1.4-5-2.6-6.9c-1.2-1.9-2.9-3.4-4.9-4.4c-2-1-4.6-1.6-7.7-1.6c-3.1,0-5.7,0.6-7.8,1.7c-2.1,1.2-3.8,2.7-5,4.7
		c-1.3,1.9-2.2,4.2-2.7,6.8c-0.5,2.6-0.8,5.4-0.8,8.3c0,3.4,0.3,6.4,0.8,9.1c0.5,2.7,1.4,5,2.6,6.9c1.2,1.9,2.8,3.4,4.9,4.4
		c2,1,4.6,1.5,7.7,1.5c3.1,0,5.7-0.6,7.8-1.7c2.1-1.2,3.8-2.7,5-4.7c1.3-2,2.2-4.3,2.7-6.9C-72,528.9-71.7,526.1-71.7,523.1z"/>
	<path class="st0" d="M-7.8,552.5c0,0.3-0.1,0.6-0.3,0.8c-0.2,0.2-0.5,0.4-1,0.6c-0.4,0.2-1.1,0.3-1.8,0.4c-0.8,0.1-1.7,0.1-2.9,0.1
		c-1.2,0-2.2,0-2.9-0.1c-0.8-0.1-1.4-0.2-1.8-0.4c-0.4-0.2-0.8-0.4-1-0.6c-0.2-0.2-0.3-0.5-0.3-0.8v-24.4c0-2.1-0.2-3.7-0.5-4.9
		c-0.3-1.2-0.7-2.2-1.3-3s-1.3-1.5-2.2-2c-0.9-0.5-2-0.7-3.2-0.7c-1.5,0-3.1,0.6-4.6,1.7c-1.6,1.1-3.2,2.7-4.9,4.9v28.4
		c0,0.3-0.1,0.6-0.3,0.8c-0.2,0.2-0.5,0.4-1,0.6c-0.5,0.2-1.1,0.3-1.8,0.4c-0.8,0.1-1.7,0.1-2.9,0.1c-1.2,0-2.2,0-2.9-0.1
		c-0.8-0.1-1.4-0.2-1.8-0.4c-0.5-0.2-0.8-0.4-1-0.6c-0.2-0.2-0.3-0.5-0.3-0.8v-42.7c0-0.3,0.1-0.6,0.2-0.8c0.2-0.2,0.4-0.4,0.9-0.6
		c0.4-0.2,1-0.3,1.6-0.4c0.7-0.1,1.5-0.1,2.5-0.1c1,0,1.9,0,2.5,0.1s1.2,0.2,1.6,0.4c0.4,0.2,0.6,0.4,0.8,0.6
		c0.2,0.2,0.2,0.5,0.2,0.8v4.9c2.4-2.6,4.8-4.5,7.2-5.8s5-1.9,7.6-1.9c2.9,0,5.4,0.5,7.4,1.4c2,1,3.6,2.3,4.8,3.9
		c1.2,1.6,2.1,3.6,2.7,5.8c0.5,2.2,0.8,4.9,0.8,8V552.5z"/>
	<path class="st0" d="M43.6,529.9c0,1.5-0.3,2.6-1,3.3c-0.7,0.7-1.6,1.1-2.7,1.1h-26c0,1.8,0.2,3.5,0.6,5c0.4,1.5,1.1,2.7,2.1,3.8
		c0.9,1,2.2,1.8,3.6,2.4c1.5,0.5,3.3,0.8,5.3,0.8c2.1,0,4-0.2,5.6-0.5c1.6-0.3,3-0.6,4.1-1c1.2-0.4,2.1-0.7,2.9-1
		c0.8-0.3,1.4-0.5,1.9-0.5c0.3,0,0.5,0.1,0.7,0.2c0.2,0.1,0.4,0.3,0.5,0.6c0.1,0.3,0.2,0.7,0.3,1.2c0,0.5,0.1,1.2,0.1,2
		c0,0.7,0,1.3,0,1.8c0,0.5-0.1,0.9-0.1,1.3c-0.1,0.4-0.2,0.6-0.3,0.9c-0.1,0.2-0.3,0.5-0.5,0.7c-0.2,0.2-0.8,0.5-1.7,0.9
		c-0.9,0.4-2.1,0.8-3.5,1.1c-1.4,0.4-3.1,0.7-4.9,1c-1.9,0.3-3.8,0.4-5.9,0.4c-3.8,0-7.1-0.5-10-1.4c-2.9-1-5.2-2.4-7.2-4.4
		c-1.9-1.9-3.3-4.4-4.3-7.4c-0.9-3-1.4-6.5-1.4-10.4c0-3.8,0.5-7.2,1.5-10.3c1-3,2.4-5.6,4.3-7.8c1.9-2.1,4.2-3.7,6.9-4.9
		c2.7-1.1,5.7-1.7,9.1-1.7c3.6,0,6.6,0.5,9.2,1.6c2.5,1.1,4.6,2.5,6.3,4.4c1.6,1.9,2.8,4.1,3.6,6.6c0.8,2.6,1.2,5.3,1.2,8.3V529.9z
		 M31.9,526.4c0.1-3.4-0.6-6-2-8c-1.5-1.9-3.7-2.9-6.7-2.9c-1.5,0-2.9,0.3-4,0.9c-1.1,0.6-2.1,1.3-2.8,2.3c-0.8,1-1.3,2.1-1.7,3.5
		c-0.4,1.3-0.6,2.7-0.7,4.2H31.9z"/>
	<path class="st0" d="M119.3,544.7c0,0.8,0,1.5-0.1,2c0,0.6-0.1,1-0.2,1.4s-0.2,0.7-0.4,1c-0.2,0.3-0.4,0.6-0.8,1s-1,0.8-2,1.4
		c-1,0.6-2.2,1.1-3.7,1.7c-1.5,0.5-3.1,1-5,1.3c-1.9,0.4-3.9,0.5-6.1,0.5c-4.2,0-8.1-0.7-11.5-2c-3.4-1.3-6.3-3.3-8.7-5.9
		c-2.4-2.6-4.2-5.9-5.5-9.8c-1.3-3.9-1.9-8.4-1.9-13.6c0-5.3,0.7-10,2.1-14c1.4-4.1,3.4-7.5,5.9-10.3c2.5-2.8,5.6-4.9,9.1-6.3
		c3.5-1.4,7.4-2.2,11.7-2.2c1.7,0,3.4,0.1,5,0.4c1.6,0.3,3.1,0.7,4.4,1.1c1.4,0.5,2.6,1,3.7,1.6c1.1,0.6,1.8,1.1,2.3,1.6
		c0.4,0.4,0.7,0.8,0.9,1.1c0.2,0.3,0.3,0.7,0.4,1.1c0.1,0.4,0.2,1,0.2,1.6c0,0.6,0.1,1.4,0.1,2.3c0,1,0,1.8-0.1,2.4
		c-0.1,0.7-0.2,1.2-0.3,1.6c-0.2,0.4-0.4,0.7-0.6,0.9c-0.2,0.2-0.5,0.3-0.8,0.3c-0.5,0-1.1-0.3-1.8-0.8c-0.7-0.6-1.7-1.2-2.9-1.9
		c-1.2-0.7-2.6-1.3-4.2-1.9c-1.6-0.6-3.5-0.8-5.8-0.8c-2.5,0-4.7,0.5-6.6,1.5c-1.9,1-3.6,2.4-4.9,4.3c-1.4,1.9-2.4,4.1-3.1,6.8
		c-0.7,2.7-1.1,5.6-1.1,9c0,3.6,0.4,6.8,1.1,9.5c0.8,2.7,1.8,4.9,3.2,6.6c1.4,1.7,3.1,3,5,3.9c2,0.8,4.2,1.3,6.6,1.3
		c2.2,0,4.2-0.3,5.8-0.8s3-1.1,4.2-1.7c1.2-0.6,2.1-1.2,2.9-1.7c0.8-0.5,1.3-0.8,1.7-0.8c0.3,0,0.6,0.1,0.8,0.2
		c0.2,0.1,0.4,0.4,0.5,0.8c0.1,0.4,0.2,0.9,0.3,1.6C119.2,542.7,119.3,543.6,119.3,544.7z"/>
	<path class="st0" d="M139.7,552.5c0,0.3-0.1,0.6-0.3,0.8c-0.2,0.2-0.5,0.4-1,0.6s-1.1,0.3-1.8,0.4c-0.8,0.1-1.7,0.1-2.9,0.1
		c-1.2,0-2.2,0-2.9-0.1c-0.8-0.1-1.4-0.2-1.8-0.4s-0.8-0.4-1-0.6c-0.2-0.2-0.3-0.5-0.3-0.8v-63c0-0.3,0.1-0.6,0.3-0.9
		c0.2-0.3,0.5-0.5,1-0.6c0.5-0.2,1.1-0.3,1.8-0.4c0.8-0.1,1.7-0.1,2.9-0.1c1.2,0,2.2,0,2.9,0.1s1.4,0.2,1.8,0.4
		c0.5,0.2,0.8,0.4,1,0.6s0.3,0.5,0.3,0.9V552.5z"/>
	<path class="st0" d="M164.7,495.3c0,2.4-0.5,4.1-1.5,5c-1,0.9-2.8,1.4-5.5,1.4c-2.7,0-4.5-0.4-5.5-1.3c-0.9-0.9-1.4-2.5-1.4-4.8
		c0-2.4,0.5-4.1,1.5-5.1c1-0.9,2.8-1.4,5.5-1.4c2.7,0,4.5,0.5,5.5,1.4C164.2,491.3,164.7,493,164.7,495.3z M163.8,552.5
		c0,0.3-0.1,0.6-0.3,0.8c-0.2,0.2-0.5,0.4-1,0.6s-1.1,0.3-1.8,0.4c-0.8,0.1-1.7,0.1-2.9,0.1c-1.2,0-2.2,0-2.9-0.1
		c-0.8-0.1-1.4-0.2-1.8-0.4s-0.8-0.4-1-0.6c-0.2-0.2-0.3-0.5-0.3-0.8v-42.6c0-0.3,0.1-0.6,0.3-0.8c0.2-0.2,0.5-0.4,1-0.6
		c0.5-0.2,1.1-0.3,1.8-0.4c0.8-0.1,1.7-0.1,2.9-0.1c1.2,0,2.2,0,2.9,0.1s1.4,0.2,1.8,0.4c0.5,0.2,0.8,0.4,1,0.6
		c0.2,0.2,0.3,0.5,0.3,0.8V552.5z"/>
	<path class="st0" d="M208.2,545.7c0,0.8,0,1.5-0.1,2.1c0,0.6-0.1,1-0.2,1.4c-0.1,0.4-0.2,0.7-0.3,0.9c-0.1,0.2-0.4,0.5-0.7,0.9
		c-0.4,0.4-1,0.8-2,1.3c-0.9,0.5-2,1-3.2,1.4c-1.2,0.4-2.5,0.8-3.9,1c-1.4,0.3-2.8,0.4-4.3,0.4c-3.3,0-6.2-0.5-8.7-1.5
		c-2.5-1-4.7-2.5-6.4-4.5c-1.7-2-3-4.4-3.9-7.3s-1.3-6.2-1.3-9.9c0-4.3,0.5-8,1.6-11.1c1.1-3.1,2.6-5.7,4.5-7.7
		c1.9-2,4.2-3.6,6.8-4.6c2.6-1,5.5-1.5,8.6-1.5c1.3,0,2.5,0.1,3.8,0.3c1.2,0.2,2.4,0.5,3.5,0.9c1.1,0.4,2,0.8,2.9,1.3
		c0.8,0.5,1.4,0.9,1.8,1.2s0.6,0.6,0.7,0.9c0.1,0.2,0.3,0.6,0.3,0.9c0.1,0.4,0.1,0.9,0.2,1.4c0,0.6,0.1,1.2,0.1,2
		c0,1.9-0.2,3.2-0.5,3.9c-0.3,0.8-0.7,1.1-1.2,1.1c-0.5,0-1.1-0.2-1.7-0.7c-0.6-0.4-1.3-0.9-2.2-1.5c-0.8-0.5-1.8-1-3-1.5
		c-1.1-0.4-2.5-0.7-4.1-0.7c-3.1,0-5.5,1.2-7.2,3.6c-1.7,2.4-2.5,6-2.5,10.6c0,2.3,0.2,4.3,0.6,6.1c0.4,1.8,1,3.2,1.8,4.4
		c0.8,1.2,1.8,2.1,3.1,2.7c1.2,0.6,2.7,0.9,4.3,0.9c1.7,0,3.1-0.2,4.3-0.7c1.2-0.5,2.2-1,3.1-1.7c0.9-0.6,1.6-1.2,2.3-1.7
		c0.6-0.5,1.1-0.7,1.5-0.7c0.3,0,0.5,0.1,0.7,0.2c0.2,0.2,0.3,0.5,0.5,0.9s0.2,1,0.3,1.7C208.1,543.8,208.2,544.7,208.2,545.7z"/>
	<path class="st0" d="M256.6,552.6c0,0.3-0.1,0.6-0.3,0.8c-0.2,0.2-0.5,0.4-1,0.6c-0.5,0.1-1.1,0.3-1.9,0.3
		c-0.8,0.1-1.8,0.1-3.1,0.1c-1.3,0-2.4,0-3.2-0.1c-0.8-0.1-1.5-0.2-2-0.3c-0.5-0.1-0.9-0.3-1.2-0.6c-0.3-0.3-0.5-0.6-0.8-1
		L229,529.9v22.6c0,0.3-0.1,0.6-0.3,0.8c-0.2,0.2-0.5,0.4-1,0.6s-1.1,0.3-1.8,0.4c-0.8,0.1-1.7,0.1-2.9,0.1c-1.2,0-2.2,0-2.9-0.1
		c-0.8-0.1-1.4-0.2-1.8-0.4s-0.8-0.4-1-0.6c-0.2-0.2-0.3-0.5-0.3-0.8v-63c0-0.3,0.1-0.6,0.3-0.9c0.2-0.3,0.5-0.5,1-0.6
		c0.5-0.2,1.1-0.3,1.8-0.4c0.8-0.1,1.7-0.1,2.9-0.1c1.2,0,2.2,0,2.9,0.1s1.4,0.2,1.8,0.4c0.5,0.2,0.8,0.4,1,0.6s0.3,0.5,0.3,0.9V527
		l12.7-17c0.3-0.4,0.5-0.7,0.9-1c0.3-0.3,0.7-0.5,1.3-0.7s1.2-0.3,2-0.4c0.8-0.1,1.8-0.1,3-0.1c1.2,0,2.2,0,3,0.1
		c0.8,0.1,1.5,0.2,2,0.4s0.8,0.4,1,0.6c0.2,0.2,0.3,0.5,0.3,0.9c0,0.5-0.1,1-0.4,1.5c-0.2,0.5-0.6,1.1-1.1,1.7L241,527.3l14.5,22.4
		c0.4,0.6,0.7,1.2,0.8,1.7C256.5,551.8,256.6,552.2,256.6,552.6z"/>
	<path class="st0" d="M359.2,552.4c0,0.3-0.1,0.6-0.3,0.9c-0.2,0.3-0.5,0.5-1,0.6c-0.5,0.2-1.1,0.3-1.8,0.4
		c-0.8,0.1-1.7,0.1-2.9,0.1c-1.2,0-2.1,0-2.9-0.1s-1.4-0.2-1.8-0.4s-0.8-0.4-1-0.6s-0.3-0.5-0.3-0.9V502h-0.1l-18,50.4
		c-0.1,0.4-0.3,0.8-0.6,1c-0.3,0.3-0.7,0.5-1.2,0.6c-0.5,0.2-1.1,0.3-1.9,0.3c-0.8,0-1.7,0.1-2.8,0.1s-2,0-2.8-0.1
		c-0.8-0.1-1.4-0.2-1.9-0.4c-0.5-0.2-0.9-0.4-1.2-0.6c-0.3-0.3-0.5-0.6-0.6-0.9L298.9,502h-0.1v50.5c0,0.3-0.1,0.6-0.3,0.9
		c-0.2,0.3-0.5,0.5-1,0.6c-0.5,0.2-1.1,0.3-1.8,0.4s-1.7,0.1-2.9,0.1c-1.2,0-2.1,0-2.9-0.1c-0.8-0.1-1.4-0.2-1.8-0.4s-0.8-0.4-1-0.6
		c-0.2-0.3-0.3-0.5-0.3-0.9v-55.3c0-1.6,0.4-2.9,1.3-3.7s2-1.3,3.5-1.3h8.2c1.5,0,2.7,0.1,3.8,0.4c1.1,0.2,2,0.6,2.7,1.2
		c0.8,0.6,1.4,1.3,1.9,2.2s1,2,1.3,3.4l13.4,36.9h0.2l13.9-36.9c0.4-1.3,0.9-2.5,1.4-3.4s1.1-1.7,1.7-2.3c0.7-0.6,1.4-1,2.3-1.2
		c0.9-0.2,1.9-0.4,3.1-0.4h8.5c0.9,0,1.6,0.1,2.2,0.3s1.1,0.6,1.5,1c0.4,0.4,0.7,1,0.9,1.6c0.2,0.6,0.3,1.3,0.3,2.1V552.4z"/>
	<path class="st0" d="M415.2,530.7c0,3.6-0.5,7-1.4,10c-1,3-2.4,5.6-4.4,7.8c-1.9,2.2-4.4,3.8-7.3,5c-2.9,1.2-6.4,1.8-10.3,1.8
		c-3.8,0-7.1-0.5-9.9-1.6c-2.8-1.1-5.1-2.6-7-4.6c-1.9-2-3.2-4.5-4.1-7.4c-0.9-2.9-1.3-6.3-1.3-10.1c0-3.6,0.5-7,1.5-10
		c1-3,2.4-5.6,4.4-7.8c1.9-2.2,4.4-3.8,7.3-5c2.9-1.2,6.3-1.8,10.3-1.8c3.8,0,7.2,0.5,10,1.6c2.8,1,5.1,2.6,7,4.6
		c1.8,2,3.2,4.5,4.1,7.4S415.2,526.9,415.2,530.7z M402.8,531.2c0-2.1-0.2-4-0.5-5.8c-0.3-1.8-0.9-3.3-1.7-4.6
		c-0.8-1.3-1.9-2.3-3.2-3.1c-1.3-0.7-3-1.1-5-1.1c-1.8,0-3.4,0.3-4.7,1c-1.3,0.7-2.4,1.6-3.3,2.9c-0.9,1.3-1.5,2.8-1.9,4.6
		c-0.4,1.8-0.6,3.8-0.6,6.1c0,2.1,0.2,4,0.5,5.8c0.4,1.8,0.9,3.3,1.7,4.6c0.8,1.3,1.8,2.3,3.2,3s3,1.1,5,1.1c1.8,0,3.4-0.3,4.7-1
		c1.3-0.7,2.4-1.6,3.3-2.9c0.9-1.2,1.5-2.8,1.9-4.5C402.6,535.5,402.8,533.5,402.8,531.2z"/>
	<path class="st0" d="M452.2,513.7c0,1.1,0,2.1-0.1,2.8c-0.1,0.7-0.2,1.3-0.3,1.7c-0.1,0.4-0.3,0.7-0.5,0.9s-0.5,0.2-0.8,0.2
		c-0.3,0-0.5-0.1-0.9-0.2c-0.3-0.1-0.7-0.2-1.1-0.4c-0.4-0.1-0.8-0.2-1.3-0.4c-0.5-0.1-1-0.2-1.6-0.2c-0.7,0-1.3,0.1-2,0.4
		s-1.4,0.7-2.1,1.3s-1.5,1.3-2.3,2.3c-0.8,1-1.6,2.1-2.5,3.5v26.6c0,0.3-0.1,0.6-0.3,0.8c-0.2,0.2-0.5,0.4-1,0.6s-1.1,0.3-1.8,0.4
		c-0.8,0.1-1.7,0.1-2.9,0.1c-1.2,0-2.2,0-2.9-0.1c-0.8-0.1-1.4-0.2-1.8-0.4s-0.8-0.4-1-0.6c-0.2-0.2-0.3-0.5-0.3-0.8v-42.7
		c0-0.3,0.1-0.6,0.2-0.8c0.2-0.2,0.4-0.4,0.9-0.6s1-0.3,1.6-0.4c0.7-0.1,1.5-0.1,2.5-0.1c1,0,1.9,0,2.5,0.1s1.2,0.2,1.6,0.4
		s0.6,0.4,0.8,0.6c0.2,0.2,0.2,0.5,0.2,0.8v5.3c1.1-1.6,2.2-2.9,3.2-4c1-1,1.9-1.9,2.8-2.5c0.9-0.6,1.8-1,2.7-1.3
		c0.9-0.2,1.8-0.4,2.7-0.4c0.4,0,0.9,0,1.3,0.1c0.5,0,1,0.1,1.5,0.2c0.5,0.1,1,0.2,1.3,0.4c0.4,0.1,0.7,0.3,0.8,0.5s0.3,0.3,0.4,0.5
		c0.1,0.2,0.2,0.5,0.2,0.8c0.1,0.3,0.1,0.8,0.1,1.5C452.2,511.7,452.2,512.6,452.2,513.7z"/>
	<path class="st0" d="M498,529.9c0,1.5-0.3,2.6-1,3.3c-0.7,0.7-1.6,1.1-2.7,1.1h-26c0,1.8,0.2,3.5,0.6,5c0.4,1.5,1.1,2.7,2.1,3.8
		c0.9,1,2.2,1.8,3.6,2.4c1.5,0.5,3.3,0.8,5.3,0.8c2.1,0,4-0.2,5.6-0.5c1.6-0.3,3-0.6,4.1-1s2.1-0.7,2.9-1c0.8-0.3,1.4-0.5,1.9-0.5
		c0.3,0,0.5,0.1,0.7,0.2c0.2,0.1,0.4,0.3,0.5,0.6c0.1,0.3,0.2,0.7,0.3,1.2c0,0.5,0.1,1.2,0.1,2c0,0.7,0,1.3,0,1.8
		c0,0.5-0.1,0.9-0.1,1.3c-0.1,0.4-0.2,0.6-0.3,0.9c-0.1,0.2-0.3,0.5-0.5,0.7c-0.2,0.2-0.8,0.5-1.7,0.9c-0.9,0.4-2.1,0.8-3.5,1.1
		s-3.1,0.7-4.9,1c-1.9,0.3-3.8,0.4-5.9,0.4c-3.8,0-7.1-0.5-10-1.4c-2.9-1-5.2-2.4-7.2-4.4c-1.9-1.9-3.3-4.4-4.3-7.4
		c-0.9-3-1.4-6.5-1.4-10.4c0-3.8,0.5-7.2,1.5-10.3c1-3,2.4-5.6,4.3-7.8c1.9-2.1,4.2-3.7,6.9-4.9c2.7-1.1,5.7-1.7,9.1-1.7
		c3.6,0,6.6,0.5,9.2,1.6c2.5,1.1,4.6,2.5,6.3,4.4c1.6,1.9,2.8,4.1,3.6,6.6c0.8,2.6,1.2,5.3,1.2,8.3V529.9z M486.3,526.4
		c0.1-3.4-0.6-6-2-8c-1.5-1.9-3.7-2.9-6.7-2.9c-1.5,0-2.9,0.3-4,0.9s-2.1,1.3-2.8,2.3s-1.3,2.1-1.7,3.5c-0.4,1.3-0.6,2.7-0.7,4.2
		H486.3z"/>
</g>
<g>
	<path class="st0" d="M-104.2,596.4c0,0.4,0,0.7,0,0.9s-0.1,0.4-0.1,0.6c-0.1,0.1-0.1,0.3-0.2,0.3s-0.2,0.1-0.3,0.1h-12
		c-0.4,0-0.7-0.1-1-0.4c-0.3-0.2-0.4-0.6-0.4-1.2v-20.9c0-0.5,0.1-0.9,0.4-1.2c0.3-0.2,0.6-0.4,1-0.4h11.9c0.1,0,0.2,0,0.3,0.1
		c0.1,0.1,0.2,0.2,0.2,0.3s0.1,0.4,0.1,0.6s0,0.5,0,0.9c0,0.3,0,0.6,0,0.9s-0.1,0.4-0.1,0.6c-0.1,0.1-0.1,0.3-0.2,0.3
		c-0.1,0.1-0.2,0.1-0.3,0.1h-8.5v5.8h7.2c0.1,0,0.2,0,0.3,0.1c0.1,0.1,0.2,0.2,0.2,0.3c0.1,0.1,0.1,0.3,0.1,0.6c0,0.2,0,0.5,0,0.9
		c0,0.4,0,0.7,0,0.9c0,0.2-0.1,0.4-0.1,0.6c-0.1,0.1-0.1,0.2-0.2,0.3c-0.1,0.1-0.2,0.1-0.3,0.1h-7.2v6.7h8.6c0.1,0,0.2,0,0.3,0.1
		c0.1,0.1,0.2,0.2,0.2,0.3c0.1,0.1,0.1,0.3,0.1,0.6S-104.2,596-104.2,596.4z"/>
	<path class="st0" d="M-86,581.2c0,0.1,0,0.1,0,0.2c0,0.1,0,0.2,0,0.3c0,0.1,0,0.2-0.1,0.4c0,0.1-0.1,0.3-0.1,0.5l-5,14.9
		c-0.1,0.2-0.1,0.4-0.2,0.5c-0.1,0.1-0.3,0.2-0.5,0.3c-0.2,0.1-0.6,0.1-1,0.1c-0.4,0-1,0-1.6,0c-0.7,0-1.2,0-1.6,0
		c-0.4,0-0.7-0.1-1-0.2c-0.2-0.1-0.4-0.2-0.5-0.3c-0.1-0.1-0.2-0.3-0.2-0.5l-5-14.9c-0.1-0.2-0.1-0.5-0.2-0.7c0-0.2-0.1-0.3-0.1-0.4
		c0-0.1,0-0.2,0-0.2c0-0.1,0-0.2,0.1-0.3c0.1-0.1,0.2-0.2,0.4-0.2c0.2-0.1,0.4-0.1,0.7-0.1c0.3,0,0.7,0,1.1,0c0.5,0,0.9,0,1.2,0
		c0.3,0,0.6,0.1,0.7,0.1c0.2,0.1,0.3,0.1,0.4,0.2c0.1,0.1,0.1,0.2,0.2,0.4l3.8,12.1l0.1,0.5l0.1-0.5l3.7-12.1c0-0.1,0.1-0.3,0.2-0.4
		c0.1-0.1,0.2-0.2,0.4-0.2c0.2-0.1,0.4-0.1,0.7-0.1c0.3,0,0.7,0,1.1,0c0.5,0,0.8,0,1.1,0c0.3,0,0.5,0.1,0.7,0.1s0.3,0.1,0.3,0.2
		C-86,580.9-86,581-86,581.2z"/>
	<path class="st0" d="M-68.4,588.9c0,0.6-0.1,1-0.4,1.3c-0.3,0.3-0.6,0.4-1,0.4h-10c0,0.7,0.1,1.3,0.2,1.9c0.2,0.6,0.4,1.1,0.8,1.5
		c0.4,0.4,0.8,0.7,1.4,0.9c0.6,0.2,1.3,0.3,2.1,0.3c0.8,0,1.5-0.1,2.1-0.2s1.1-0.2,1.6-0.4c0.4-0.1,0.8-0.3,1.1-0.4s0.5-0.2,0.7-0.2
		c0.1,0,0.2,0,0.3,0.1c0.1,0,0.1,0.1,0.2,0.2c0,0.1,0.1,0.3,0.1,0.5c0,0.2,0,0.5,0,0.8c0,0.3,0,0.5,0,0.7s0,0.4-0.1,0.5
		c0,0.1-0.1,0.2-0.1,0.3c0,0.1-0.1,0.2-0.2,0.3c-0.1,0.1-0.3,0.2-0.7,0.4c-0.4,0.1-0.8,0.3-1.4,0.4s-1.2,0.3-1.9,0.4
		c-0.7,0.1-1.5,0.2-2.3,0.2c-1.5,0-2.8-0.2-3.9-0.6c-1.1-0.4-2-0.9-2.8-1.7c-0.7-0.8-1.3-1.7-1.7-2.8c-0.4-1.1-0.5-2.5-0.5-4
		c0-1.5,0.2-2.8,0.6-4c0.4-1.2,0.9-2.2,1.7-3s1.6-1.4,2.7-1.9c1-0.4,2.2-0.6,3.5-0.6c1.4,0,2.6,0.2,3.5,0.6c1,0.4,1.8,1,2.4,1.7
		c0.6,0.7,1.1,1.6,1.4,2.6c0.3,1,0.4,2.1,0.4,3.2V588.9z M-72.9,587.6c0-1.3-0.2-2.3-0.8-3.1c-0.6-0.7-1.4-1.1-2.6-1.1
		c-0.6,0-1.1,0.1-1.5,0.3c-0.4,0.2-0.8,0.5-1.1,0.9c-0.3,0.4-0.5,0.8-0.7,1.3c-0.2,0.5-0.2,1.1-0.3,1.6H-72.9z"/>
	<path class="st0" d="M-54,582.7c0,0.4,0,0.8,0,1.1c0,0.3-0.1,0.5-0.1,0.7c0,0.2-0.1,0.3-0.2,0.3c-0.1,0.1-0.2,0.1-0.3,0.1
		c-0.1,0-0.2,0-0.3-0.1c-0.1,0-0.3-0.1-0.4-0.1c-0.2,0-0.3-0.1-0.5-0.1s-0.4-0.1-0.6-0.1c-0.3,0-0.5,0.1-0.8,0.2
		c-0.3,0.1-0.5,0.3-0.8,0.5s-0.6,0.5-0.9,0.9c-0.3,0.4-0.6,0.8-1,1.4v10.3c0,0.1,0,0.2-0.1,0.3c-0.1,0.1-0.2,0.2-0.4,0.2
		c-0.2,0.1-0.4,0.1-0.7,0.1c-0.3,0-0.7,0-1.1,0s-0.8,0-1.1,0c-0.3,0-0.5-0.1-0.7-0.1c-0.2-0.1-0.3-0.1-0.4-0.2
		c-0.1-0.1-0.1-0.2-0.1-0.3v-16.5c0-0.1,0-0.2,0.1-0.3c0.1-0.1,0.2-0.2,0.3-0.2s0.4-0.1,0.6-0.1c0.3,0,0.6,0,1,0c0.4,0,0.7,0,1,0
		c0.3,0,0.5,0.1,0.6,0.1s0.2,0.1,0.3,0.2c0.1,0.1,0.1,0.2,0.1,0.3v2.1c0.4-0.6,0.8-1.1,1.2-1.5c0.4-0.4,0.7-0.7,1.1-1
		c0.3-0.2,0.7-0.4,1-0.5c0.3-0.1,0.7-0.1,1-0.1c0.2,0,0.3,0,0.5,0c0.2,0,0.4,0,0.6,0.1s0.4,0.1,0.5,0.1c0.1,0.1,0.3,0.1,0.3,0.2
		s0.1,0.1,0.1,0.2s0.1,0.2,0.1,0.3c0,0.1,0,0.3,0.1,0.6S-54,582.3-54,582.7z"/>
	<path class="st0" d="M-41.4,598.3l-2,5.8c-0.1,0.3-0.4,0.5-0.9,0.7c-0.5,0.1-1.2,0.2-2.2,0.2c-0.5,0-0.9,0-1.2-0.1
		c-0.3,0-0.5-0.1-0.7-0.2s-0.2-0.2-0.2-0.4c0-0.1,0-0.3,0.1-0.5l2.2-5.5c-0.2-0.1-0.3-0.2-0.4-0.3s-0.2-0.3-0.3-0.5l-5.7-15.2
		c-0.2-0.4-0.2-0.8-0.2-1c0-0.2,0.1-0.4,0.2-0.5c0.1-0.1,0.4-0.2,0.7-0.3c0.4,0,0.8-0.1,1.4-0.1c0.5,0,0.9,0,1.3,0s0.5,0.1,0.7,0.1
		c0.2,0.1,0.3,0.2,0.4,0.3c0.1,0.2,0.2,0.4,0.3,0.7l3.9,11h0.1l3.5-11.3c0.1-0.3,0.2-0.5,0.3-0.6s0.3-0.2,0.6-0.2
		c0.3,0,0.7-0.1,1.4-0.1c0.5,0,1,0,1.3,0.1c0.4,0,0.6,0.1,0.8,0.3c0.2,0.1,0.3,0.3,0.3,0.5c0,0.2,0,0.5-0.1,0.8L-41.4,598.3z"/>
	<path class="st0" d="M-23.1,596c0,0.5,0,1-0.1,1.2c-0.1,0.3-0.2,0.5-0.3,0.6s-0.3,0.2-0.5,0.3c-0.2,0.1-0.5,0.2-0.8,0.2
		c-0.3,0.1-0.6,0.1-0.9,0.2s-0.7,0.1-1,0.1c-0.9,0-1.7-0.1-2.4-0.4c-0.7-0.2-1.2-0.6-1.7-1.1c-0.4-0.5-0.8-1.1-1-1.8
		s-0.3-1.6-0.3-2.6v-8.4h-2c-0.2,0-0.4-0.1-0.5-0.4c-0.1-0.3-0.2-0.8-0.2-1.5c0-0.4,0-0.7,0-0.9c0-0.2,0.1-0.4,0.1-0.6
		s0.1-0.2,0.2-0.3c0.1-0.1,0.2-0.1,0.3-0.1h2v-3.7c0-0.1,0-0.2,0.1-0.3c0.1-0.1,0.2-0.2,0.4-0.3c0.2-0.1,0.4-0.1,0.7-0.1
		c0.3,0,0.7,0,1.1,0c0.5,0,0.8,0,1.1,0c0.3,0,0.5,0.1,0.7,0.1c0.2,0.1,0.3,0.2,0.4,0.3s0.1,0.2,0.1,0.3v3.7h3.6c0.1,0,0.2,0,0.3,0.1
		s0.2,0.2,0.2,0.3s0.1,0.3,0.1,0.6c0,0.2,0,0.5,0,0.9c0,0.7-0.1,1.2-0.2,1.5c-0.1,0.3-0.3,0.4-0.5,0.4h-3.6v7.7c0,0.9,0.1,1.6,0.4,2
		c0.3,0.5,0.8,0.7,1.5,0.7c0.2,0,0.5,0,0.7-0.1c0.2,0,0.4-0.1,0.5-0.1c0.2-0.1,0.3-0.1,0.4-0.1c0.1,0,0.2-0.1,0.3-0.1
		c0.1,0,0.1,0,0.2,0.1s0.1,0.1,0.2,0.3c0,0.1,0.1,0.3,0.1,0.5C-23.1,595.4-23.1,595.7-23.1,596z"/>
	<path class="st0" d="M-3.9,597.7c0,0.1,0,0.2-0.1,0.3c-0.1,0.1-0.2,0.2-0.4,0.2c-0.2,0.1-0.4,0.1-0.7,0.1c-0.3,0-0.7,0-1.1,0
		c-0.5,0-0.8,0-1.1,0c-0.3,0-0.5-0.1-0.7-0.1c-0.2-0.1-0.3-0.1-0.4-0.2c-0.1-0.1-0.1-0.2-0.1-0.3v-9.4c0-0.8-0.1-1.4-0.2-1.9
		c-0.1-0.5-0.3-0.8-0.5-1.2c-0.2-0.3-0.5-0.6-0.9-0.8c-0.4-0.2-0.8-0.3-1.2-0.3c-0.6,0-1.2,0.2-1.8,0.6c-0.6,0.4-1.2,1.1-1.9,1.9v11
		c0,0.1,0,0.2-0.1,0.3c-0.1,0.1-0.2,0.2-0.4,0.2c-0.2,0.1-0.4,0.1-0.7,0.1c-0.3,0-0.7,0-1.1,0s-0.8,0-1.1,0c-0.3,0-0.5-0.1-0.7-0.1
		c-0.2-0.1-0.3-0.1-0.4-0.2c-0.1-0.1-0.1-0.2-0.1-0.3v-24.3c0-0.1,0-0.2,0.1-0.3c0.1-0.1,0.2-0.2,0.4-0.3c0.2-0.1,0.4-0.1,0.7-0.2
		c0.3,0,0.7-0.1,1.1-0.1s0.8,0,1.1,0.1c0.3,0,0.5,0.1,0.7,0.2c0.2,0.1,0.3,0.2,0.4,0.3c0.1,0.1,0.1,0.2,0.1,0.3v9.1
		c0.8-0.8,1.6-1.4,2.4-1.8s1.7-0.6,2.6-0.6c1.1,0,2.1,0.2,2.8,0.6c0.8,0.4,1.4,0.9,1.9,1.5s0.8,1.4,1,2.2c0.2,0.9,0.3,1.9,0.3,3.1
		V597.7z"/>
	<path class="st0" d="M5.6,575.6c0,0.9-0.2,1.6-0.6,1.9c-0.4,0.4-1.1,0.5-2.1,0.5c-1,0-1.8-0.2-2.1-0.5c-0.4-0.3-0.5-1-0.5-1.9
		c0-0.9,0.2-1.6,0.6-2s1.1-0.5,2.1-0.5c1,0,1.7,0.2,2.1,0.5C5.5,574.1,5.6,574.7,5.6,575.6z M5.3,597.7c0,0.1,0,0.2-0.1,0.3
		c-0.1,0.1-0.2,0.2-0.4,0.2c-0.2,0.1-0.4,0.1-0.7,0.1c-0.3,0-0.7,0-1.1,0s-0.8,0-1.1,0c-0.3,0-0.5-0.1-0.7-0.1
		c-0.2-0.1-0.3-0.1-0.4-0.2c-0.1-0.1-0.1-0.2-0.1-0.3v-16.5c0-0.1,0-0.2,0.1-0.3c0.1-0.1,0.2-0.2,0.4-0.2c0.2-0.1,0.4-0.1,0.7-0.2
		s0.7-0.1,1.1-0.1s0.8,0,1.1,0.1s0.5,0.1,0.7,0.2c0.2,0.1,0.3,0.1,0.4,0.2c0.1,0.1,0.1,0.2,0.1,0.3V597.7z"/>
	<path class="st0" d="M25.7,597.7c0,0.1,0,0.2-0.1,0.3c-0.1,0.1-0.2,0.2-0.4,0.2c-0.2,0.1-0.4,0.1-0.7,0.1c-0.3,0-0.7,0-1.1,0
		c-0.5,0-0.8,0-1.1,0c-0.3,0-0.5-0.1-0.7-0.1c-0.2-0.1-0.3-0.1-0.4-0.2c-0.1-0.1-0.1-0.2-0.1-0.3v-9.4c0-0.8-0.1-1.4-0.2-1.9
		c-0.1-0.5-0.3-0.8-0.5-1.2c-0.2-0.3-0.5-0.6-0.9-0.8c-0.4-0.2-0.8-0.3-1.2-0.3c-0.6,0-1.2,0.2-1.8,0.6c-0.6,0.4-1.2,1.1-1.9,1.9v11
		c0,0.1,0,0.2-0.1,0.3c-0.1,0.1-0.2,0.2-0.4,0.2c-0.2,0.1-0.4,0.1-0.7,0.1c-0.3,0-0.7,0-1.1,0s-0.8,0-1.1,0c-0.3,0-0.5-0.1-0.7-0.1
		c-0.2-0.1-0.3-0.1-0.4-0.2c-0.1-0.1-0.1-0.2-0.1-0.3v-16.5c0-0.1,0-0.2,0.1-0.3c0.1-0.1,0.2-0.2,0.3-0.2s0.4-0.1,0.6-0.1
		c0.3,0,0.6,0,1,0c0.4,0,0.7,0,1,0c0.3,0,0.5,0.1,0.6,0.1s0.2,0.1,0.3,0.2c0.1,0.1,0.1,0.2,0.1,0.3v1.9c0.9-1,1.8-1.7,2.8-2.2
		s1.9-0.7,2.9-0.7c1.1,0,2.1,0.2,2.8,0.6c0.8,0.4,1.4,0.9,1.9,1.5c0.5,0.6,0.8,1.4,1,2.2c0.2,0.9,0.3,1.9,0.3,3.1V597.7z"/>
	<path class="st0" d="M45.1,582.3c0,0.6-0.1,1-0.2,1.3c-0.1,0.3-0.3,0.4-0.5,0.4h-1.9c0.3,0.3,0.5,0.6,0.6,1s0.2,0.8,0.2,1.2
		c0,1-0.2,1.8-0.5,2.6c-0.3,0.7-0.8,1.4-1.4,1.9c-0.6,0.5-1.3,0.9-2.2,1.2c-0.8,0.3-1.8,0.4-2.8,0.4c-0.5,0-1-0.1-1.5-0.2
		c-0.5-0.1-0.9-0.3-1.1-0.5c-0.1,0.2-0.3,0.4-0.4,0.6s-0.2,0.5-0.2,0.7c0,0.4,0.2,0.7,0.5,0.9c0.3,0.2,0.8,0.4,1.3,0.4l4,0.1
		c0.9,0,1.8,0.2,2.5,0.4c0.7,0.2,1.3,0.5,1.8,1c0.5,0.4,0.9,0.9,1.1,1.5c0.3,0.6,0.4,1.2,0.4,2c0,0.8-0.2,1.6-0.5,2.3
		c-0.4,0.7-0.9,1.3-1.6,1.9c-0.7,0.5-1.6,0.9-2.7,1.3c-1.1,0.3-2.3,0.5-3.8,0.5c-1.4,0-2.6-0.1-3.6-0.3c-1-0.2-1.8-0.5-2.4-0.9
		c-0.6-0.4-1.1-0.9-1.4-1.4c-0.3-0.5-0.4-1.1-0.4-1.8c0-0.4,0.1-0.8,0.2-1.2c0.1-0.4,0.3-0.7,0.5-1.1c0.2-0.3,0.5-0.7,0.7-1
		c0.3-0.3,0.6-0.6,1-0.9c-0.5-0.3-0.9-0.7-1.2-1.2c-0.3-0.5-0.4-1-0.4-1.6c0-0.7,0.2-1.4,0.5-2c0.3-0.6,0.8-1.1,1.3-1.6
		c-0.4-0.4-0.8-0.9-1-1.6c-0.3-0.6-0.4-1.4-0.4-2.3c0-1,0.2-1.8,0.5-2.6c0.3-0.8,0.8-1.4,1.4-1.9c0.6-0.5,1.3-0.9,2.2-1.2
		c0.8-0.3,1.8-0.4,2.8-0.4c0.5,0,1,0,1.5,0.1c0.5,0.1,0.9,0.1,1.3,0.3h5.2c0.2,0,0.4,0.1,0.5,0.4C45,581.2,45.1,581.7,45.1,582.3z
		 M40.2,599.4c0-0.6-0.2-1-0.7-1.3c-0.4-0.3-1.1-0.5-1.8-0.5l-3.3-0.1c-0.3,0.2-0.6,0.5-0.8,0.7c-0.2,0.2-0.3,0.4-0.5,0.6
		c-0.1,0.2-0.2,0.4-0.2,0.6c0,0.2-0.1,0.4-0.1,0.6c0,0.6,0.3,1.1,0.9,1.4c0.6,0.3,1.5,0.5,2.6,0.5c0.7,0,1.3-0.1,1.8-0.2
		c0.5-0.1,0.9-0.3,1.2-0.6c0.3-0.2,0.5-0.5,0.6-0.8C40.2,600,40.2,599.7,40.2,599.4z M39.1,586.2c0-0.9-0.2-1.6-0.7-2.1
		c-0.5-0.5-1.2-0.7-2.1-0.7c-0.5,0-0.9,0.1-1.2,0.2c-0.3,0.2-0.6,0.4-0.9,0.6c-0.2,0.3-0.4,0.6-0.5,0.9c-0.1,0.4-0.2,0.7-0.2,1.1
		c0,0.8,0.2,1.5,0.7,2c0.5,0.5,1.2,0.7,2.1,0.7c0.5,0,0.9-0.1,1.2-0.2c0.3-0.1,0.6-0.4,0.9-0.6c0.2-0.3,0.4-0.6,0.5-0.9
		C39.1,586.9,39.1,586.6,39.1,586.2z"/>
	<path class="st0" d="M55,574.4c0,0.5,0,0.9-0.1,1.3s-0.1,0.8-0.2,1.1s-0.3,0.7-0.4,1c-0.2,0.3-0.4,0.7-0.6,1l-2.5,3.5
		c-0.1,0.1-0.2,0.2-0.3,0.3c-0.1,0.1-0.2,0.2-0.4,0.2c-0.1,0.1-0.3,0.1-0.5,0.1c-0.2,0-0.5,0-0.8,0c-0.4,0-0.6,0-0.9,0
		c-0.2,0-0.4-0.1-0.5-0.1c-0.1-0.1-0.2-0.1-0.2-0.3c0-0.1,0-0.2,0.1-0.4l2.3-5.1v-2.9c0-0.4,0-0.8,0.1-1s0.3-0.5,0.5-0.6
		c0.2-0.1,0.5-0.2,0.8-0.3c0.3,0,0.7-0.1,1.2-0.1c0.4,0,0.8,0,1.1,0.1s0.6,0.1,0.8,0.3c0.2,0.1,0.4,0.3,0.4,0.6S55,573.9,55,574.4z"
		/>
	<path class="st0" d="M68.7,593c0,0.9-0.2,1.8-0.5,2.5c-0.4,0.7-0.8,1.3-1.5,1.8c-0.6,0.5-1.4,0.8-2.3,1.1s-1.8,0.4-2.8,0.4
		c-0.6,0-1.2,0-1.8-0.1c-0.6-0.1-1.1-0.2-1.5-0.4c-0.4-0.1-0.8-0.3-1.1-0.4c-0.3-0.1-0.5-0.3-0.6-0.4c-0.1-0.1-0.2-0.3-0.3-0.6
		c-0.1-0.3-0.1-0.7-0.1-1.2c0-0.4,0-0.6,0-0.9c0-0.2,0.1-0.4,0.1-0.5c0-0.1,0.1-0.2,0.2-0.3c0.1,0,0.2-0.1,0.3-0.1
		c0.1,0,0.3,0.1,0.6,0.2c0.3,0.2,0.6,0.3,1,0.5c0.4,0.2,0.9,0.4,1.4,0.5s1.1,0.2,1.8,0.2c0.4,0,0.8,0,1.1-0.1
		c0.3-0.1,0.6-0.2,0.9-0.4c0.2-0.2,0.4-0.4,0.5-0.6c0.1-0.2,0.2-0.5,0.2-0.9c0-0.4-0.1-0.7-0.3-1c-0.2-0.3-0.5-0.5-0.9-0.7
		c-0.4-0.2-0.8-0.4-1.3-0.6c-0.5-0.2-1-0.4-1.5-0.6c-0.5-0.2-1-0.5-1.5-0.7c-0.5-0.3-0.9-0.6-1.3-1s-0.7-0.9-0.9-1.4
		c-0.2-0.6-0.3-1.2-0.3-2c0-0.8,0.2-1.5,0.5-2.2c0.3-0.7,0.8-1.2,1.3-1.7c0.6-0.5,1.3-0.8,2.1-1.1s1.8-0.4,2.8-0.4
		c0.5,0,1,0,1.5,0.1s0.9,0.2,1.3,0.3c0.4,0.1,0.7,0.2,1,0.4c0.3,0.1,0.5,0.2,0.6,0.3c0.1,0.1,0.2,0.2,0.2,0.3c0,0.1,0.1,0.2,0.1,0.3
		c0,0.1,0,0.3,0.1,0.5c0,0.2,0,0.4,0,0.7c0,0.3,0,0.6,0,0.8s0,0.4-0.1,0.5c0,0.1-0.1,0.2-0.2,0.3c-0.1,0-0.2,0.1-0.3,0.1
		c-0.1,0-0.3-0.1-0.5-0.2c-0.2-0.1-0.5-0.3-0.9-0.4c-0.4-0.1-0.8-0.3-1.2-0.4c-0.5-0.1-1-0.2-1.6-0.2c-0.4,0-0.8,0-1.1,0.1
		c-0.3,0.1-0.6,0.2-0.8,0.4s-0.3,0.3-0.4,0.6c-0.1,0.2-0.1,0.4-0.1,0.7c0,0.4,0.1,0.7,0.4,1c0.2,0.3,0.5,0.5,0.9,0.7
		c0.4,0.2,0.8,0.4,1.3,0.6s1,0.4,1.5,0.6c0.5,0.2,1,0.4,1.5,0.7s0.9,0.6,1.3,1c0.4,0.4,0.7,0.9,0.9,1.4
		C68.6,591.6,68.7,592.3,68.7,593z"/>
	<path class="st0" d="M93.3,595c0,0.3,0,0.6,0,0.8s0,0.4-0.1,0.5c0,0.1-0.1,0.3-0.1,0.4c0,0.1-0.1,0.2-0.3,0.4
		c-0.1,0.1-0.4,0.3-0.8,0.5s-0.8,0.4-1.2,0.5c-0.5,0.2-1,0.3-1.5,0.4s-1.1,0.1-1.7,0.1c-1.3,0-2.4-0.2-3.4-0.6c-1-0.4-1.8-1-2.5-1.7
		s-1.2-1.7-1.5-2.8s-0.5-2.4-0.5-3.8c0-1.7,0.2-3.1,0.6-4.3c0.4-1.2,1-2.2,1.7-3c0.7-0.8,1.6-1.4,2.6-1.8c1-0.4,2.1-0.6,3.3-0.6
		c0.5,0,1,0,1.5,0.1c0.5,0.1,0.9,0.2,1.3,0.4c0.4,0.1,0.8,0.3,1.1,0.5s0.6,0.3,0.7,0.5s0.2,0.3,0.3,0.3c0.1,0.1,0.1,0.2,0.1,0.4
		c0,0.1,0.1,0.3,0.1,0.5c0,0.2,0,0.5,0,0.8c0,0.7-0.1,1.2-0.2,1.5c-0.1,0.3-0.3,0.4-0.5,0.4c-0.2,0-0.4-0.1-0.7-0.3
		c-0.2-0.2-0.5-0.4-0.8-0.6c-0.3-0.2-0.7-0.4-1.1-0.6c-0.4-0.2-1-0.3-1.6-0.3c-1.2,0-2.1,0.5-2.8,1.4c-0.6,0.9-1,2.3-1,4.1
		c0,0.9,0.1,1.7,0.2,2.3c0.2,0.7,0.4,1.2,0.7,1.7c0.3,0.5,0.7,0.8,1.2,1c0.5,0.2,1,0.3,1.7,0.3c0.6,0,1.2-0.1,1.7-0.3
		c0.5-0.2,0.9-0.4,1.2-0.6c0.3-0.2,0.6-0.4,0.9-0.6c0.2-0.2,0.4-0.3,0.6-0.3c0.1,0,0.2,0,0.3,0.1c0.1,0.1,0.1,0.2,0.2,0.3
		c0,0.2,0.1,0.4,0.1,0.6C93.3,594.3,93.3,594.6,93.3,595z"/>
	<path class="st0" d="M113.1,589.2c0,1.4-0.2,2.7-0.6,3.8c-0.4,1.2-0.9,2.2-1.7,3c-0.8,0.8-1.7,1.5-2.8,1.9s-2.5,0.7-4,0.7
		c-1.5,0-2.7-0.2-3.8-0.6c-1.1-0.4-2-1-2.7-1.8s-1.2-1.7-1.6-2.9s-0.5-2.4-0.5-3.9c0-1.4,0.2-2.7,0.6-3.9c0.4-1.2,0.9-2.2,1.7-3
		s1.7-1.5,2.8-1.9c1.1-0.5,2.4-0.7,4-0.7c1.5,0,2.8,0.2,3.8,0.6s2,1,2.7,1.8c0.7,0.8,1.2,1.7,1.6,2.9S113.1,587.8,113.1,589.2z
		 M108.3,589.4c0-0.8-0.1-1.6-0.2-2.2c-0.1-0.7-0.3-1.3-0.7-1.8c-0.3-0.5-0.7-0.9-1.2-1.2c-0.5-0.3-1.2-0.4-1.9-0.4
		c-0.7,0-1.3,0.1-1.8,0.4c-0.5,0.3-0.9,0.6-1.3,1.1c-0.3,0.5-0.6,1.1-0.7,1.8c-0.2,0.7-0.3,1.5-0.3,2.3c0,0.8,0.1,1.6,0.2,2.2
		c0.1,0.7,0.4,1.3,0.7,1.8c0.3,0.5,0.7,0.9,1.2,1.2s1.2,0.4,1.9,0.4c0.7,0,1.3-0.1,1.8-0.4c0.5-0.3,0.9-0.6,1.3-1.1
		c0.3-0.5,0.6-1.1,0.7-1.7C108.3,591.1,108.3,590.3,108.3,589.4z"/>
	<path class="st0" d="M132.6,597.7c0,0.1,0,0.2-0.1,0.3c-0.1,0.1-0.2,0.2-0.4,0.2c-0.2,0.1-0.4,0.1-0.7,0.1c-0.3,0-0.7,0-1.1,0
		c-0.5,0-0.8,0-1.1,0c-0.3,0-0.5-0.1-0.7-0.1c-0.2-0.1-0.3-0.1-0.4-0.2c-0.1-0.1-0.1-0.2-0.1-0.3v-9.4c0-0.8-0.1-1.4-0.2-1.9
		c-0.1-0.5-0.3-0.8-0.5-1.2c-0.2-0.3-0.5-0.6-0.9-0.8s-0.8-0.3-1.2-0.3c-0.6,0-1.2,0.2-1.8,0.6c-0.6,0.4-1.2,1.1-1.9,1.9v11
		c0,0.1,0,0.2-0.1,0.3c-0.1,0.1-0.2,0.2-0.4,0.2c-0.2,0.1-0.4,0.1-0.7,0.1c-0.3,0-0.7,0-1.1,0s-0.8,0-1.1,0c-0.3,0-0.5-0.1-0.7-0.1
		c-0.2-0.1-0.3-0.1-0.4-0.2c-0.1-0.1-0.1-0.2-0.1-0.3v-16.5c0-0.1,0-0.2,0.1-0.3c0.1-0.1,0.2-0.2,0.3-0.2s0.4-0.1,0.6-0.1
		c0.3,0,0.6,0,1,0c0.4,0,0.7,0,1,0c0.3,0,0.5,0.1,0.6,0.1s0.2,0.1,0.3,0.2c0.1,0.1,0.1,0.2,0.1,0.3v1.9c0.9-1,1.8-1.7,2.8-2.2
		s1.9-0.7,2.9-0.7c1.1,0,2.1,0.2,2.8,0.6c0.8,0.4,1.4,0.9,1.9,1.5c0.5,0.6,0.8,1.4,1,2.2s0.3,1.9,0.3,3.1V597.7z"/>
	<path class="st0" d="M152.9,597.7c0,0.1,0,0.2-0.1,0.3c-0.1,0.1-0.2,0.2-0.4,0.2c-0.2,0.1-0.4,0.1-0.7,0.1c-0.3,0-0.7,0-1.1,0
		c-0.5,0-0.8,0-1.1,0c-0.3,0-0.5-0.1-0.7-0.1c-0.2-0.1-0.3-0.1-0.4-0.2c-0.1-0.1-0.1-0.2-0.1-0.3v-9.4c0-0.8-0.1-1.4-0.2-1.9
		c-0.1-0.5-0.3-0.8-0.5-1.2c-0.2-0.3-0.5-0.6-0.9-0.8c-0.4-0.2-0.8-0.3-1.2-0.3c-0.6,0-1.2,0.2-1.8,0.6c-0.6,0.4-1.2,1.1-1.9,1.9v11
		c0,0.1,0,0.2-0.1,0.3c-0.1,0.1-0.2,0.2-0.4,0.2c-0.2,0.1-0.4,0.1-0.7,0.1c-0.3,0-0.7,0-1.1,0c-0.5,0-0.8,0-1.1,0
		c-0.3,0-0.5-0.1-0.7-0.1c-0.2-0.1-0.3-0.1-0.4-0.2c-0.1-0.1-0.1-0.2-0.1-0.3v-16.5c0-0.1,0-0.2,0.1-0.3c0.1-0.1,0.2-0.2,0.3-0.2
		s0.4-0.1,0.6-0.1c0.3,0,0.6,0,1,0c0.4,0,0.7,0,1,0c0.3,0,0.5,0.1,0.6,0.1c0.1,0.1,0.2,0.1,0.3,0.2c0.1,0.1,0.1,0.2,0.1,0.3v1.9
		c0.9-1,1.8-1.7,2.8-2.2c0.9-0.5,1.9-0.7,2.9-0.7c1.1,0,2.1,0.2,2.8,0.6c0.8,0.4,1.4,0.9,1.9,1.5c0.5,0.6,0.8,1.4,1,2.2
		c0.2,0.9,0.3,1.9,0.3,3.1V597.7z"/>
	<path class="st0" d="M172.7,588.9c0,0.6-0.1,1-0.4,1.3c-0.3,0.3-0.6,0.4-1,0.4h-10c0,0.7,0.1,1.3,0.3,1.9c0.2,0.6,0.4,1.1,0.8,1.5
		c0.4,0.4,0.8,0.7,1.4,0.9c0.6,0.2,1.3,0.3,2.1,0.3c0.8,0,1.5-0.1,2.1-0.2c0.6-0.1,1.1-0.2,1.6-0.4s0.8-0.3,1.1-0.4
		c0.3-0.1,0.5-0.2,0.7-0.2c0.1,0,0.2,0,0.3,0.1c0.1,0,0.1,0.1,0.2,0.2c0,0.1,0.1,0.3,0.1,0.5c0,0.2,0,0.5,0,0.8c0,0.3,0,0.5,0,0.7
		c0,0.2,0,0.4-0.1,0.5c0,0.1-0.1,0.2-0.1,0.3c0,0.1-0.1,0.2-0.2,0.3c-0.1,0.1-0.3,0.2-0.7,0.4s-0.8,0.3-1.4,0.4
		c-0.6,0.1-1.2,0.3-1.9,0.4c-0.7,0.1-1.5,0.2-2.3,0.2c-1.5,0-2.8-0.2-3.9-0.6c-1.1-0.4-2-0.9-2.8-1.7c-0.7-0.8-1.3-1.7-1.7-2.8
		c-0.4-1.1-0.5-2.5-0.5-4c0-1.5,0.2-2.8,0.6-4c0.4-1.2,0.9-2.2,1.7-3c0.7-0.8,1.6-1.4,2.7-1.9c1-0.4,2.2-0.6,3.5-0.6
		c1.4,0,2.6,0.2,3.5,0.6c1,0.4,1.8,1,2.4,1.7c0.6,0.7,1.1,1.6,1.4,2.6c0.3,1,0.4,2.1,0.4,3.2V588.9z M168.2,587.6
		c0-1.3-0.2-2.3-0.8-3.1c-0.6-0.7-1.4-1.1-2.6-1.1c-0.6,0-1.1,0.1-1.5,0.3s-0.8,0.5-1.1,0.9c-0.3,0.4-0.5,0.8-0.7,1.3
		c-0.2,0.5-0.2,1.1-0.3,1.6H168.2z"/>
	<path class="st0" d="M189,595c0,0.3,0,0.6,0,0.8c0,0.2,0,0.4-0.1,0.5c0,0.1-0.1,0.3-0.1,0.4c0,0.1-0.1,0.2-0.3,0.4
		c-0.1,0.1-0.4,0.3-0.8,0.5c-0.4,0.2-0.8,0.4-1.2,0.5c-0.5,0.2-1,0.3-1.5,0.4s-1.1,0.1-1.7,0.1c-1.3,0-2.4-0.2-3.4-0.6
		c-1-0.4-1.8-1-2.5-1.7c-0.7-0.8-1.2-1.7-1.5-2.8c-0.3-1.1-0.5-2.4-0.5-3.8c0-1.7,0.2-3.1,0.6-4.3c0.4-1.2,1-2.2,1.7-3
		c0.7-0.8,1.6-1.4,2.6-1.8c1-0.4,2.1-0.6,3.3-0.6c0.5,0,1,0,1.5,0.1c0.5,0.1,0.9,0.2,1.3,0.4c0.4,0.1,0.8,0.3,1.1,0.5
		s0.6,0.3,0.7,0.5s0.2,0.3,0.3,0.3c0.1,0.1,0.1,0.2,0.1,0.4c0,0.1,0.1,0.3,0.1,0.5s0,0.5,0,0.8c0,0.7-0.1,1.2-0.2,1.5
		c-0.1,0.3-0.3,0.4-0.5,0.4c-0.2,0-0.4-0.1-0.7-0.3c-0.2-0.2-0.5-0.4-0.8-0.6c-0.3-0.2-0.7-0.4-1.1-0.6c-0.4-0.2-1-0.3-1.6-0.3
		c-1.2,0-2.1,0.5-2.8,1.4c-0.6,0.9-1,2.3-1,4.1c0,0.9,0.1,1.7,0.2,2.3c0.2,0.7,0.4,1.2,0.7,1.7s0.7,0.8,1.2,1c0.5,0.2,1,0.3,1.7,0.3
		c0.6,0,1.2-0.1,1.7-0.3c0.5-0.2,0.9-0.4,1.2-0.6c0.3-0.2,0.6-0.4,0.9-0.6c0.2-0.2,0.4-0.3,0.6-0.3c0.1,0,0.2,0,0.3,0.1
		c0.1,0.1,0.1,0.2,0.2,0.3c0,0.2,0.1,0.4,0.1,0.6S189,594.6,189,595z"/>
	<path class="st0" d="M202.1,596c0,0.5,0,1-0.1,1.2c-0.1,0.3-0.2,0.5-0.3,0.6c-0.1,0.1-0.3,0.2-0.5,0.3c-0.2,0.1-0.5,0.2-0.8,0.2
		c-0.3,0.1-0.6,0.1-0.9,0.2s-0.7,0.1-1,0.1c-0.9,0-1.7-0.1-2.4-0.4s-1.2-0.6-1.7-1.1c-0.4-0.5-0.8-1.1-1-1.8s-0.3-1.6-0.3-2.6v-8.4
		h-2c-0.2,0-0.4-0.1-0.5-0.4c-0.1-0.3-0.2-0.8-0.2-1.5c0-0.4,0-0.7,0-0.9c0-0.2,0.1-0.4,0.1-0.6c0.1-0.1,0.1-0.2,0.2-0.3
		c0.1-0.1,0.2-0.1,0.3-0.1h2v-3.7c0-0.1,0-0.2,0.1-0.3c0.1-0.1,0.2-0.2,0.4-0.3c0.2-0.1,0.4-0.1,0.7-0.1c0.3,0,0.7,0,1.1,0
		c0.5,0,0.8,0,1.1,0c0.3,0,0.5,0.1,0.7,0.1c0.2,0.1,0.3,0.2,0.4,0.3c0.1,0.1,0.1,0.2,0.1,0.3v3.7h3.6c0.1,0,0.2,0,0.3,0.1
		s0.2,0.2,0.2,0.3c0.1,0.1,0.1,0.3,0.1,0.6c0,0.2,0,0.5,0,0.9c0,0.7-0.1,1.2-0.2,1.5c-0.1,0.3-0.3,0.4-0.5,0.4h-3.6v7.7
		c0,0.9,0.1,1.6,0.4,2c0.3,0.5,0.8,0.7,1.5,0.7c0.2,0,0.5,0,0.7-0.1s0.4-0.1,0.5-0.1c0.2-0.1,0.3-0.1,0.4-0.1c0.1,0,0.2-0.1,0.3-0.1
		c0.1,0,0.1,0,0.2,0.1c0.1,0,0.1,0.1,0.2,0.3c0,0.1,0.1,0.3,0.1,0.5C202.1,595.4,202.1,595.7,202.1,596z"/>
	<path class="st0" d="M220.2,588.9c0,0.6-0.1,1-0.4,1.3c-0.3,0.3-0.6,0.4-1,0.4h-10c0,0.7,0.1,1.3,0.3,1.9c0.2,0.6,0.4,1.1,0.8,1.5
		c0.4,0.4,0.8,0.7,1.4,0.9c0.6,0.2,1.3,0.3,2.1,0.3c0.8,0,1.5-0.1,2.1-0.2c0.6-0.1,1.1-0.2,1.6-0.4s0.8-0.3,1.1-0.4
		c0.3-0.1,0.5-0.2,0.7-0.2c0.1,0,0.2,0,0.3,0.1c0.1,0,0.1,0.1,0.2,0.2c0,0.1,0.1,0.3,0.1,0.5c0,0.2,0,0.5,0,0.8c0,0.3,0,0.5,0,0.7
		c0,0.2,0,0.4-0.1,0.5c0,0.1-0.1,0.2-0.1,0.3c0,0.1-0.1,0.2-0.2,0.3c-0.1,0.1-0.3,0.2-0.7,0.4s-0.8,0.3-1.4,0.4
		c-0.6,0.1-1.2,0.3-1.9,0.4c-0.7,0.1-1.5,0.2-2.3,0.2c-1.5,0-2.8-0.2-3.9-0.6c-1.1-0.4-2-0.9-2.8-1.7c-0.7-0.8-1.3-1.7-1.7-2.8
		c-0.4-1.1-0.5-2.5-0.5-4c0-1.5,0.2-2.8,0.6-4c0.4-1.2,0.9-2.2,1.7-3c0.7-0.8,1.6-1.4,2.7-1.9c1-0.4,2.2-0.6,3.5-0.6
		c1.4,0,2.6,0.2,3.5,0.6c1,0.4,1.8,1,2.4,1.7c0.6,0.7,1.1,1.6,1.4,2.6c0.3,1,0.4,2.1,0.4,3.2V588.9z M215.7,587.6
		c0-1.3-0.2-2.3-0.8-3.1c-0.6-0.7-1.4-1.1-2.6-1.1c-0.6,0-1.1,0.1-1.5,0.3s-0.8,0.5-1.1,0.9c-0.3,0.4-0.5,0.8-0.7,1.3
		c-0.2,0.5-0.2,1.1-0.3,1.6H215.7z"/>
	<path class="st0" d="M239.7,597.7c0,0.1,0,0.3-0.1,0.3c-0.1,0.1-0.2,0.2-0.3,0.2c-0.1,0.1-0.3,0.1-0.6,0.1c-0.3,0-0.6,0-0.9,0
		c-0.4,0-0.7,0-1,0c-0.2,0-0.4-0.1-0.6-0.1c-0.2-0.1-0.3-0.1-0.3-0.2c-0.1-0.1-0.1-0.2-0.1-0.3v-1.8c-0.9,0.9-1.7,1.6-2.7,2.1
		c-0.9,0.5-2,0.8-3.1,0.8c-1.3,0-2.3-0.2-3.2-0.7c-0.9-0.5-1.6-1.1-2.1-2c-0.5-0.8-0.9-1.8-1.2-2.9c-0.2-1.1-0.4-2.3-0.4-3.5
		c0-1.5,0.2-2.8,0.5-4c0.3-1.2,0.8-2.2,1.4-3c0.6-0.8,1.4-1.5,2.3-1.9c0.9-0.4,1.9-0.7,3.1-0.7c0.9,0,1.8,0.2,2.5,0.6
		c0.8,0.4,1.5,0.9,2.2,1.7v-8.9c0-0.1,0-0.2,0.1-0.3c0.1-0.1,0.2-0.2,0.4-0.3c0.2-0.1,0.4-0.1,0.7-0.2s0.7-0.1,1.1-0.1
		s0.8,0,1.1,0.1c0.3,0,0.5,0.1,0.7,0.2c0.2,0.1,0.3,0.2,0.4,0.3c0.1,0.1,0.1,0.2,0.1,0.3V597.7z M235.1,586.6
		c-0.7-0.8-1.3-1.5-1.9-1.9c-0.6-0.4-1.2-0.7-1.9-0.7c-0.6,0-1.1,0.2-1.6,0.5s-0.8,0.7-1.1,1.2c-0.3,0.5-0.5,1.1-0.6,1.7
		s-0.2,1.3-0.2,1.9c0,0.7,0.1,1.4,0.2,2c0.1,0.7,0.3,1.2,0.5,1.7s0.6,0.9,1,1.2c0.4,0.3,0.9,0.5,1.6,0.5c0.3,0,0.6,0,0.9-0.1
		s0.6-0.2,0.9-0.5c0.3-0.2,0.6-0.5,1-0.8c0.3-0.3,0.7-0.8,1.1-1.2V586.6z"/>
	<path class="st0" d="M249.9,595.6c0,1.1-0.2,1.9-0.6,2.3c-0.4,0.4-1.1,0.6-2.2,0.6s-1.8-0.2-2.1-0.6c-0.4-0.4-0.6-1.1-0.6-2.2
		c0-1.2,0.2-1.9,0.6-2.3c0.4-0.4,1.1-0.6,2.2-0.6c1,0,1.7,0.2,2.1,0.6C249.7,593.8,249.9,594.5,249.9,595.6z"/>
</g>
<g>
	<path class="st0" d="M-266.6,507.9c6.9-3,14.8-3.6,22.1-1.7c8.2,2.1,15.5,7.1,21.5,13c4.8,4.7,9,9.9,12.5,15.6
		c2.6,4.4,5.7,8.5,9.1,12.3c4.5,4.8,9.8,9.2,16.1,11.4c4.6,1.6,9.8,1.5,14.4-0.3c4.4-1.7,8.2-5.1,10.4-9.2c0-3.3,0-6.6,0-9.9
		c0-3.3,0-6.6,0-9.9c-1.9-3.4-4.8-6.3-8.2-8.2c-4.4-2.4-9.7-3.1-14.6-1.9c-7.8,1.9-14.2,7.3-19.4,13.2c-2.3-4-5-7.7-7.8-11.3
		c6.6-6.9,14.7-12.7,24.1-15c7.1-1.7,14.7-1,21.4,1.9c1.1,0.5,2.2,1,3.2,1.6c-0.7-1.7-1.8-3.2-3.1-4.5c-1.7-1.5-3.8-2.5-5.7-3.7
		c-10.5-6-20.9-12.1-31.4-18c-3.6-2-7-4.4-10.8-5.9h-6.2c-1.6,0.5-3.2,1.3-4.6,2.1c-13.6,7.8-27.1,15.7-40.7,23.5
		c-2.6,1.4-4.6,3.8-5.8,6.6C-268.9,509-267.8,508.4-266.6,507.9z"/>
	<path class="st0" d="M-183.3,572.6c-7.5-1.1-14.5-4.8-20.4-9.5c-6.1-4.9-11.3-10.8-15.7-17.2c-1.5-2.2-2.8-4.6-4.3-6.7
		c-3.7-5.3-8-10.3-13.2-14.3c-4.1-3.1-8.9-5.7-14.1-6.3c-5.8-0.7-11.8,1.3-16.1,5.3c-1.6,1.5-3,3.3-4.1,5.2c0,3.3,0,6.6,0,9.8
		c0,3.3,0,6.6,0,9.9c0.2,0.4,0.5,0.8,0.7,1.2c2.7,4.2,7,7.4,11.8,8.7c4.5,1.3,9.3,0.9,13.6-0.8c6.4-2.5,11.6-7.2,16.1-12.2
		c2.3,4,4.9,7.7,7.8,11.3c-6.4,6.6-14.1,12.3-23.1,14.7c-7.7,2.1-16.2,1.4-23.4-2.1c-0.8-0.4-1.7-0.8-2.5-1.3
		c1.2,2.8,3.2,5.2,5.8,6.6c13.6,7.8,27.2,15.6,40.7,23.5c1.5,0.9,3,1.6,4.6,2.1h6.2c3.9-1.4,7.2-3.9,10.8-5.9
		c10.5-5.9,20.9-12.1,31.4-18c1.9-1.2,4-2.2,5.7-3.7c1.3-1.3,2.3-2.9,3.1-4.5C-168.1,572.2-175.9,573.7-183.3,572.6z"/>
</g>
</svg>
