<?xml version="1.0" encoding="utf-8"?>
<!-- Generator: Adobe Illustrator 17.0.0, SVG Export Plug-In . SVG Version: 6.00 Build 0)  -->
<!DOCTYPE svg PUBLIC "-//W3C//DTD SVG 1.1//EN" "http://www.w3.org/Graphics/SVG/1.1/DTD/svg11.dtd">
<svg version="1.1" id="Layer_1" xmlns="http://www.w3.org/2000/svg" xmlns:xlink="http://www.w3.org/1999/xlink" x="0px" y="0px"
	 width="333.18px" height="46.455px" viewBox="0 0 333.18 46.455" enable-background="new 0 0 333.18 46.455" xml:space="preserve">
<g>
	<path fill="#025384" d="M21.467,41.82c-0.337,0.581-0.742,1.131-1.216,1.652c-0.475,0.52-0.926,0.902-1.354,1.147
		c-1.53,0.979-3.06,1.53-4.589,1.652c-1.53,0.122-2.976-0.039-4.337-0.482c-1.362-0.444-2.57-1.109-3.625-1.997
		c-1.056-0.888-1.859-1.866-2.41-2.937c-0.429-0.826-0.888-1.775-1.377-2.846c-0.49-1.071-0.979-2.325-1.468-3.763
		c-0.459-1.836-0.728-3.687-0.803-5.553c-0.077-1.866-0.115-3.748-0.115-5.645c0-0.459-0.023-0.895-0.069-1.308
		s-0.077-0.833-0.092-1.262c-0.016-0.428-0.016-0.887,0-1.377c0.015-0.489,0.069-1.056,0.161-1.698
		c0.122-0.643,0.236-1.277,0.344-1.904c0.107-0.627,0.161-1.186,0.161-1.675c0.122-0.489,0.213-0.979,0.275-1.469
		c0.061-0.489,0.138-0.948,0.229-1.377c0.092-0.428,0.198-0.81,0.321-1.147c0.122-0.336,0.305-0.627,0.55-0.872
		c0.704-0.918,1.377-1.92,2.02-3.006C4.716,4.868,5.45,3.888,6.276,3.016S8.073,1.456,9.19,0.951
		c1.117-0.505,2.501-0.634,4.153-0.39c0.918,0,1.736,0.062,2.456,0.184c0.718,0.123,1.369,0.329,1.951,0.62
		c0.581,0.291,1.116,0.681,1.606,1.17c0.489,0.49,0.964,1.086,1.423,1.79c1.438,0.949,2.646,2.409,3.625,4.383
		c0.979,1.973,1.591,4.169,1.836,6.586c0.03,0.459,0.061,0.88,0.092,1.262c0.03,0.383,0.053,0.757,0.069,1.125
		c0.015,0.367,0.023,0.757,0.023,1.17s0,0.88,0,1.4c0,1.408-0.016,2.945-0.046,4.612c-0.031,1.668-0.275,3.45-0.734,5.347
		c-0.49,2.326-1.071,4.414-1.744,6.265C23.226,38.324,22.415,40.106,21.467,41.82z M17.383,41.177
		c0.184-0.459,0.39-1.018,0.62-1.675c0.229-0.658,0.458-1.347,0.688-2.065c0.229-0.72,0.451-1.439,0.666-2.157
		c0.214-0.719,0.382-1.354,0.505-1.905c0.459-1.407,0.727-2.814,0.803-4.222c0.076-1.407,0.115-2.814,0.115-4.222
		c0-0.948,0.053-1.751,0.161-2.41c0.107-0.657,0.161-1.445,0.161-2.363c0-0.948-0.054-1.874-0.161-2.777
		c-0.107-0.902-0.161-1.828-0.161-2.776c-0.245-0.459-0.429-0.925-0.551-1.4c-0.123-0.474-0.245-0.948-0.367-1.423
		c-0.123-0.474-0.252-0.948-0.39-1.422c-0.138-0.474-0.329-0.941-0.574-1.4c-0.245-0.459-0.482-0.956-0.711-1.492
		c-0.229-0.535-0.481-1.056-0.757-1.561s-0.59-0.963-0.941-1.376c-0.352-0.413-0.757-0.742-1.216-0.987
		c-0.459,0-0.826-0.007-1.102-0.023c-0.275-0.015-0.536-0.038-0.78-0.069c-0.245-0.03-0.513-0.053-0.803-0.069
		c-0.292-0.015-0.666-0.023-1.125-0.023c-0.949,0.949-1.698,1.92-2.249,2.914C8.663,7.269,8.158,8.47,7.699,9.877
		c-0.49,0.949-0.773,1.889-0.849,2.822c-0.077,0.934-0.115,1.875-0.115,2.823c-0.246,1.897-0.375,3.771-0.39,5.622
		c-0.016,1.851,0.038,3.656,0.161,5.416c0.122,1.76,0.29,3.45,0.505,5.071c0.213,1.622,0.443,3.121,0.688,4.498
		c0.214,0.459,0.39,0.925,0.528,1.399c0.138,0.474,0.268,0.918,0.39,1.331c0.122,0.413,0.252,0.788,0.39,1.125
		c0.138,0.336,0.329,0.627,0.574,0.872c0.214,0,0.367,0.046,0.459,0.138s0.153,0.207,0.184,0.344
		c0.03,0.138,0.069,0.298,0.115,0.482s0.145,0.351,0.298,0.505c0.367,0.367,0.887,0.588,1.561,0.665
		c0.672,0.076,1.369,0.053,2.088-0.069c0.719-0.123,1.369-0.337,1.951-0.642C16.816,41.973,17.199,41.606,17.383,41.177z"/>
	<path fill="#025384" d="M56.072,0.974c0,0.246-0.046,0.482-0.138,0.711s-0.2,0.421-0.321,0.574
		c-0.123,0.214-0.275,0.398-0.459,0.551h-1.882c-0.245,0.245-0.375,0.482-0.39,0.711c-0.016,0.229,0,0.49,0.046,0.78
		c0.046,0.291,0.115,0.62,0.207,0.986c0.092,0.367,0.138,0.78,0.138,1.239c0,5.997,0.007,12.155,0.023,18.473
		c0.015,6.318,0.252,12.705,0.711,19.161c0.03,0.704-0.13,1.216-0.482,1.538c-0.352,0.321-0.765,0.505-1.239,0.551
		c-0.475,0.046-0.957-0.008-1.445-0.161c-0.49-0.153-0.842-0.352-1.056-0.597c-0.459-1.377-0.979-2.93-1.561-4.658
		c-0.582-1.729-1.178-3.511-1.79-5.347c-0.612-1.836-1.209-3.664-1.79-5.484c-0.582-1.82-1.086-3.495-1.515-5.025
		c-0.123-0.428-0.275-0.895-0.459-1.4s-0.383-1.01-0.597-1.515c-0.214-0.505-0.421-0.979-0.62-1.422
		c-0.199-0.443-0.36-0.818-0.482-1.125c-0.092-0.214-0.176-0.405-0.252-0.574c-0.077-0.168-0.146-0.329-0.207-0.482l-0.138-0.413
		c-0.215-0.459-0.36-0.933-0.436-1.423c-0.077-0.489-0.161-0.956-0.252-1.399c-0.092-0.443-0.237-0.849-0.436-1.216
		c-0.199-0.367-0.528-0.673-0.987-0.918v6.425v7.343v7.389v2.754v4.589c0.459,0.459,0.918,0.726,1.377,0.803
		c0.459,0.076,0.902,0.115,1.331,0.115c0,0.458,0.03,0.91,0.092,1.354c0.061,0.443,0.084,0.841,0.069,1.193
		c-0.016,0.352-0.1,0.627-0.252,0.826c-0.153,0.199-0.458,0.298-0.917,0.298c-0.214,0.03-0.444,0.046-0.688,0.046h-1.377
		c-0.245,0-0.658,0.007-1.239,0.023c-0.582,0.015-1.193,0.03-1.835,0.046c-0.643,0.015-1.262,0.03-1.859,0.046
		c-0.597,0.015-1.002,0.023-1.216,0.023c-0.245,0-0.406-0.1-0.482-0.298c-0.077-0.199-0.115-0.459-0.115-0.78
		s0.015-0.704,0.046-1.147c0.03-0.444,0.046-0.895,0.046-1.354c0.275,0.122,0.52,0.198,0.734,0.229
		c0.184,0.03,0.359,0.015,0.528-0.046c0.168-0.062,0.252-0.214,0.252-0.458c0.214-0.459,0.352-0.964,0.413-1.515
		c0.061-0.551,0.084-1.109,0.069-1.675c-0.016-0.566-0.046-1.132-0.092-1.698c-0.046-0.566-0.069-1.078-0.069-1.537
		c0-0.673-0.016-1.4-0.046-2.18c-0.031-0.78-0.069-1.544-0.115-2.294c-0.046-0.75-0.084-1.453-0.115-2.111
		c-0.031-0.658-0.046-1.216-0.046-1.675c0-0.948-0.008-2.003-0.023-3.167c-0.016-1.163-0.023-2.264-0.023-3.305
		c0-1.009-0.062-1.927-0.184-2.753c-0.123-0.826-0.184-1.713-0.184-2.662c0-0.458-0.084-0.933-0.252-1.422
		c-0.168-0.489-0.252-0.964-0.252-1.423v-0.918V9.373c0-0.459-0.016-0.803-0.046-1.033c-0.031-0.229-0.046-0.666-0.046-1.308
		s-0.138-1.216-0.413-1.721c-0.275-0.504-0.413-0.986-0.413-1.445c-0.949,0-1.652-0.191-2.111-0.574
		c-0.459-0.382-0.688-0.803-0.688-1.262s0.153-0.856,0.459-1.193c0.305-0.336,0.688-0.505,1.147-0.505
		c0.244,0,0.428-0.007,0.55-0.023c0.122-0.015,0.237-0.03,0.344-0.046c0.107-0.015,0.252-0.03,0.436-0.046
		c0.184-0.015,0.443-0.038,0.78-0.069c0.459-0.03,0.91-0.007,1.354,0.069c0.443,0.077,0.987,0.115,1.629,0.115
		c0.336,0,0.604,0.092,0.803,0.275c0.199,0.184,0.359,0.383,0.482,0.597c0.122,0.245,0.229,0.521,0.321,0.826
		c0.918,1.377,1.736,2.808,2.456,4.291c0.718,1.484,1.4,3.006,2.042,4.566c0.643,1.561,1.262,3.144,1.859,4.75
		c0.597,1.606,1.231,3.205,1.905,4.796c0.459,1.408,0.918,2.601,1.377,3.58c0.458,0.979,0.933,1.928,1.422,2.845
		c0,0.49,0.069,0.934,0.207,1.331c0.138,0.398,0.329,0.903,0.574,1.515c0.092,0.214,0.214,0.574,0.367,1.079
		c0.153,0.505,0.321,1.048,0.505,1.629c0.184,0.582,0.382,1.147,0.597,1.698c0.213,0.551,0.443,0.979,0.688,1.285
		c0.122,0.153,0.176-0.016,0.161-0.505c-0.016-0.489-0.054-1.117-0.115-1.882c-0.062-0.764-0.123-1.552-0.184-2.363
		c-0.062-0.811-0.092-1.446-0.092-1.905c0-2.294,0.061-4.803,0.184-7.526c0.122-2.723,0.184-5.477,0.184-8.261v-0.918
		c0-0.704-0.046-1.354-0.138-1.95c-0.092-0.597-0.2-1.186-0.321-1.767c-0.123-0.581-0.229-1.163-0.321-1.744
		c-0.092-0.581-0.138-1.223-0.138-1.927c-0.459-0.459-0.926-0.879-1.4-1.262c-0.475-0.382-0.941-0.574-1.4-0.574
		c-0.245-0.214-0.467-0.397-0.665-0.551c-0.2-0.153-0.36-0.313-0.482-0.482c-0.123-0.168-0.177-0.39-0.161-0.666
		c0.015-0.275,0.145-0.643,0.39-1.102c0.213,0,0.359,0.016,0.436,0.046c0.076,0.031,0.153,0.062,0.229,0.092
		c0.076,0.031,0.176,0.062,0.298,0.092c0.122,0.031,0.352,0.046,0.688,0.046c0.673,0,1.193-0.046,1.561-0.138
		c0.184-0.03,0.352-0.076,0.505-0.138c0.489,0.154,1.063,0.2,1.721,0.138c0.657-0.061,1.292-0.106,1.904-0.138
		c0.612-0.03,1.17,0.008,1.675,0.115C55.452,0.232,55.826,0.515,56.072,0.974z"/>
	<path fill="#025384" d="M77.641,7.812c-0.245-0.245-0.39-0.535-0.436-0.872c-0.046-0.336-0.069-0.681-0.069-1.033
		c0-0.351-0.016-0.688-0.046-1.009c-0.031-0.321-0.168-0.589-0.413-0.803c-0.245,0-0.429-0.007-0.551-0.023
		c-0.123-0.015-0.245-0.053-0.367-0.115c-0.123-0.061-0.252-0.153-0.39-0.275c-0.138-0.122-0.329-0.306-0.574-0.551
		c-0.949,0-2.035,0.039-3.259,0.115c-1.224,0.077-2.311,0.36-3.258,0.849c-0.49,0.429-0.75,1.002-0.78,1.721
		c-0.031,0.719-0.046,1.614-0.046,2.685c0,1.316-0.023,2.386-0.069,3.212s-0.069,1.698-0.069,2.616c0,0.704,0.046,1.362,0.138,1.973
		c0.092,0.613,0.168,1.178,0.229,1.698c0.061,0.521,0.076,1.025,0.046,1.515c-0.031,0.49-0.168,0.964-0.413,1.423
		c0.245,0.214,0.589,0.383,1.033,0.504c0.443,0.123,0.925,0.207,1.446,0.252c0.52,0.046,1.055,0.077,1.606,0.092
		c0.551,0.016,1.056,0.023,1.515,0.023c0-0.213,0.007-0.482,0.023-0.803c0.015-0.321,0.053-0.627,0.115-0.918
		c0.061-0.291,0.153-0.535,0.275-0.734c0.122-0.199,0.306-0.298,0.551-0.298c0.214,0,0.39,0.008,0.528,0.023
		c0.138,0.016,0.268,0.046,0.39,0.092c0.122,0.046,0.252,0.138,0.39,0.275s0.328,0.314,0.574,0.528
		c-0.246,0.459-0.344,1.109-0.298,1.95c0.046,0.842,0.099,1.675,0.161,2.501c0.061,0.826,0.053,1.545-0.023,2.157
		c-0.077,0.612-0.344,0.917-0.803,0.917c-0.367-0.184-0.688-0.382-0.964-0.597c-0.245-0.184-0.459-0.382-0.643-0.596
		c-0.184-0.214-0.275-0.443-0.275-0.688v-0.964h-4.635c-0.245,0.704-0.398,1.469-0.459,2.294c-0.062,0.826-0.077,1.66-0.046,2.501
		c0.03,0.842,0.076,1.668,0.138,2.479c0.061,0.811,0.092,1.553,0.092,2.226c0,0.704,0.015,1.446,0.046,2.226
		c0.03,0.78,0.061,1.544,0.092,2.294c0.03,0.75,0.061,1.453,0.092,2.111c0.03,0.658,0.046,1.216,0.046,1.675
		c0.704,0.244,1.354,0.428,1.951,0.55c0.596,0.122,1.185,0.207,1.767,0.252c0.581,0.046,1.178,0.076,1.79,0.092
		c0.612,0.015,1.269,0.023,1.974,0.023c0.458-0.214,0.726-0.536,0.803-0.963c0.076-0.429,0.115-0.88,0.115-1.354
		c0-0.475,0.046-0.918,0.138-1.331s0.367-0.742,0.826-0.987c0.459,0,0.818,0.153,1.079,0.459c0.26,0.306,0.451,0.688,0.574,1.147
		c0.122,0.459,0.191,0.964,0.207,1.515c0.015,0.551,0.023,1.055,0.023,1.514c0,0.489-0.199,0.964-0.597,1.423
		c-0.398,0.459-0.826,0.933-1.285,1.423h-4.727c-2.326,0-4.697-0.039-7.114-0.115c-2.417-0.077-5.033-0.36-7.848-0.849V43.38h3.763
		c0.245-1.407,0.382-2.753,0.413-4.039c0.03-1.285,0.015-2.57-0.046-3.855c-0.062-1.285-0.138-2.577-0.229-3.878
		c-0.092-1.3-0.138-2.669-0.138-4.108v-1.881V16.21v-3.717V4.095h-3.763V2.213c0.948-0.245,1.889-0.436,2.822-0.574
		c0.933-0.138,1.866-0.268,2.8-0.39c0.933-0.122,1.866-0.245,2.799-0.367c0.933-0.122,1.874-0.305,2.823-0.551h9.362
		c0.184,0.184,0.336,0.383,0.459,0.597c0.122,0.184,0.237,0.383,0.344,0.597c0.107,0.214,0.161,0.444,0.161,0.688
		c0,0.459,0.076,1.01,0.229,1.652c0.153,0.643,0.229,1.255,0.229,1.835c0,0.582-0.154,1.079-0.459,1.492
		C79.217,7.606,78.589,7.812,77.641,7.812z"/>
	<path fill="#2081BF" d="M115.503,3.177c0,0.245,0.053,0.429,0.161,0.551c0.107,0.123,0.222,0.245,0.344,0.367
		c0.122,0.123,0.237,0.252,0.344,0.39c0.107,0.138,0.161,0.314,0.161,0.528c0,0.49-0.008,1.017-0.023,1.583
		c-0.016,0.566-0.054,1.086-0.115,1.561c-0.062,0.475-0.161,0.865-0.298,1.17c-0.138,0.306-0.329,0.459-0.574,0.459
		c-0.459,0-0.773-0.207-0.941-0.62c-0.168-0.413-0.283-0.887-0.344-1.423c-0.062-0.535-0.123-1.063-0.184-1.583
		c-0.062-0.52-0.199-0.902-0.413-1.147c-1.468-0.459-2.868-0.688-4.199-0.688c-1.331,0-2.471,0.229-3.419,0.688
		c-0.245,0.245-0.49,0.589-0.734,1.032c-0.245,0.444-0.49,0.903-0.734,1.377c-0.245,0.475-0.482,0.934-0.711,1.377
		c-0.229,0.444-0.467,0.773-0.711,0.987c-0.031,0.214-0.077,0.429-0.138,0.642c-0.062,0.184-0.146,0.383-0.252,0.597
		c-0.108,0.215-0.284,0.444-0.528,0.688c-0.246,0.949-0.436,1.859-0.574,2.731s-0.237,1.752-0.298,2.639
		c-0.062,0.888-0.1,1.829-0.115,2.823c-0.016,0.995-0.023,2.088-0.023,3.281v5.691c0.245,1.438,0.558,2.899,0.941,4.383
		c0.382,1.484,0.841,2.884,1.376,4.199c0.535,1.315,1.163,2.486,1.882,3.511c0.719,1.025,1.553,1.782,2.501,2.271
		c0.979,0.459,1.935,0.535,2.868,0.229c0.933-0.306,1.889-0.719,2.868-1.239c0.214-0.459,0.344-0.98,0.39-1.561
		c0.046-0.582,0.069-1.17,0.069-1.767s0.015-1.186,0.046-1.767c0.03-0.582,0.168-1.118,0.413-1.606c0.489,0,0.872,0.053,1.147,0.161
		c0.275,0.107,0.505,0.222,0.688,0.344c0.184,0.122,0.344,0.236,0.482,0.344c0.138,0.107,0.329,0.161,0.574,0.161v6.7
		c-0.49,1.193-1.331,2.004-2.524,2.433c-1.193,0.428-2.54,0.635-4.039,0.62c-1.5-0.016-3.022-0.161-4.566-0.436
		c-1.545-0.275-2.915-0.536-4.107-0.78c-0.49-0.459-0.98-0.88-1.469-1.262c-0.49-0.383-0.972-0.788-1.446-1.216
		c-0.475-0.429-0.949-0.895-1.423-1.4c-0.475-0.505-0.94-1.125-1.399-1.859c-0.246-1.193-0.536-2.432-0.872-3.717
		c-0.337-1.285-0.65-2.616-0.941-3.993c-0.291-1.377-0.543-2.769-0.757-4.177c-0.214-1.407-0.321-2.83-0.321-4.268
		c0.459-2.386,0.865-4.803,1.216-7.251c0.352-2.447,0.91-4.803,1.675-7.067c0.213-0.245,0.382-0.482,0.505-0.711
		c0.122-0.229,0.236-0.459,0.344-0.688c0.106-0.229,0.229-0.466,0.367-0.711c0.138-0.245,0.344-0.505,0.62-0.78
		c0.489-0.703,1.094-1.392,1.813-2.065c0.719-0.673,1.521-1.277,2.41-1.813c0.887-0.535,1.858-0.971,2.914-1.308
		c1.056-0.336,2.18-0.505,3.373-0.505c0.734,0.246,1.407,0.436,2.02,0.574c0.612,0.138,1.186,0.298,1.721,0.482
		c0.535,0.184,1.047,0.413,1.537,0.688C114.57,2.305,115.044,2.688,115.503,3.177z"/>
	<path fill="#2081BF" d="M131.475,1.708c-0.246,0.49-0.475,0.865-0.688,1.125c-0.214,0.26-0.406,0.482-0.574,0.666
		c-0.168,0.184-0.306,0.352-0.413,0.505c-0.107,0.153-0.161,0.337-0.161,0.551c0,3.09-0.1,6.143-0.298,9.156
		c-0.199,3.014-0.39,6.035-0.574,9.064c-0.184,3.029-0.314,6.112-0.39,9.248c-0.077,3.136,0.007,6.371,0.252,9.707
		c0,0.459,0.038,0.718,0.115,0.78c0.076,0.061,0.375,0.106,0.895,0.138c0.245,0,0.436,0,0.574,0s0.259,0,0.367,0
		c0.107,0,0.222,0,0.344,0c0.122,0,0.305,0,0.551,0h0.504c0.153,0,0.344,0.007,0.574,0.023c0.229,0.015,0.497,0.007,0.803-0.023
		h1.01v-5.691v-3.81c0.245-0.245,0.474-0.374,0.688-0.39c0.214-0.015,0.413,0.008,0.597,0.069c0.213,0.092,0.428,0.2,0.643,0.321
		c0.459,0.459,0.764,1.033,0.917,1.721c0.153,0.688,0.229,1.423,0.229,2.203c0,0.78-0.039,1.575-0.115,2.386
		c-0.077,0.811-0.115,1.568-0.115,2.272c0,0.245,0.046,0.528,0.138,0.849c0.092,0.321,0.161,0.657,0.207,1.009
		c0.046,0.352,0.053,0.704,0.023,1.056c-0.031,0.352-0.153,0.65-0.367,0.895c-1.438,0.245-2.868,0.382-4.291,0.413
		c-1.422,0.03-2.815,0.046-4.176,0.046c-1.362,0-2.685,0.023-3.97,0.069s-2.524,0.176-3.718,0.39
		c-0.245-0.214-0.481-0.39-0.711-0.528s-0.436-0.268-0.62-0.39c-0.184-0.123-0.329-0.26-0.436-0.413
		c-0.107-0.153-0.161-0.352-0.161-0.597c0-0.459,0.19-0.727,0.574-0.803c0.382-0.077,0.833-0.115,1.354-0.115
		c0.459-0.49,0.727-1.002,0.803-1.537c0.076-0.536,0.115-1.293,0.115-2.272c0.245-1.193,0.428-2.486,0.551-3.878
		c0.122-1.392,0.214-2.8,0.275-4.222c0.061-1.423,0.099-2.823,0.115-4.2c0.015-1.376,0.023-2.662,0.023-3.855v-1.01v-8.49
		c0-0.734-0.008-1.515-0.023-2.341c-0.016-0.826-0.054-1.652-0.115-2.478c-0.062-0.826-0.153-1.645-0.275-2.456
		c-0.123-0.81-0.306-1.583-0.551-2.317c0-0.214-0.054-0.39-0.161-0.528c-0.107-0.138-0.252-0.268-0.436-0.39
		c-0.184-0.122-0.39-0.245-0.619-0.367c-0.229-0.122-0.467-0.306-0.711-0.551V0.79h1.009c0.704,0,1.461-0.038,2.272-0.115
		c0.811-0.076,1.645-0.145,2.501-0.207c0.856-0.061,1.705-0.106,2.547-0.138c0.841-0.03,1.629,0,2.364,0.092
		c0.459,0.062,0.695,0.154,0.711,0.275C131.467,0.821,131.475,1.157,131.475,1.708z"/>
	<path fill="#2081BF" d="M148.271,3.773c-0.245,0.704-0.375,1.408-0.39,2.111c-0.016,0.705,0.007,1.408,0.069,2.111
		c0.061,0.704,0.138,1.416,0.229,2.134c0.092,0.719,0.122,1.43,0.092,2.134c-0.153,4.773-0.352,9.692-0.597,14.755
		c-0.245,5.064-0.367,10.212-0.367,15.444c0.245,0.244,0.489,0.436,0.734,0.573c0.245,0.138,0.482,0.268,0.711,0.39
		c0.229,0.122,0.459,0.245,0.688,0.367c0.229,0.122,0.451,0.291,0.666,0.505c0,0.245-0.054,0.436-0.161,0.574
		c-0.107,0.138-0.245,0.268-0.413,0.39c-0.168,0.122-0.36,0.252-0.574,0.39c-0.214,0.138-0.444,0.329-0.688,0.574
		c-0.49-0.245-1.071-0.383-1.744-0.413c-0.674-0.031-1.393-0.046-2.157-0.046c-0.765,0-1.545-0.023-2.341-0.069
		c-0.796-0.046-1.545-0.191-2.249-0.436c-0.154-0.184-0.275-0.383-0.367-0.597c-0.062-0.184-0.077-0.375-0.046-0.574
		c0.03-0.199,0.168-0.421,0.413-0.666c0-0.245,0.053-0.383,0.161-0.413c0.107-0.031,0.252-0.046,0.436-0.046
		s0.382-0.023,0.597-0.069c0.213-0.045,0.428-0.191,0.642-0.436c0.245-0.246,0.382-0.536,0.413-0.872
		c0.03-0.337,0.015-0.673-0.046-1.01c-0.062-0.337-0.138-0.673-0.229-1.01c-0.092-0.337-0.138-0.627-0.138-0.872
		c0-1.468,0.023-2.853,0.069-4.153s0.069-2.654,0.069-4.062c-0.031-0.245-0.062-0.489-0.092-0.734
		c-0.031-0.214-0.046-0.451-0.046-0.711c0-0.26,0-0.512,0-0.757v-8.49V3.773c-0.429,0-0.842-0.038-1.239-0.115
		c-0.398-0.076-0.597-0.359-0.597-0.849V0.928c0-0.213,0.061-0.336,0.184-0.367c0.122-0.03,0.298-0.023,0.528,0.023
		s0.52,0.115,0.872,0.207c0.352,0.092,0.757,0.138,1.216,0.138c0.489,0,1.071-0.046,1.744-0.138
		c0.673-0.092,1.361-0.161,2.065-0.207c0.703-0.046,1.384-0.053,2.042-0.023c0.658,0.031,1.216,0.154,1.675,0.367
		c0.245,0.246,0.374,0.528,0.39,0.849c0.015,0.321-0.069,0.635-0.252,0.941c-0.184,0.306-0.444,0.559-0.78,0.757
		C149.128,3.674,148.73,3.773,148.271,3.773z"/>
	<path fill="#2081BF" d="M172.32,3.177c0,0.245,0.054,0.429,0.161,0.551c0.106,0.123,0.222,0.245,0.344,0.367
		c0.122,0.123,0.237,0.252,0.345,0.39c0.106,0.138,0.16,0.314,0.16,0.528c0,0.49-0.008,1.017-0.022,1.583
		c-0.016,0.566-0.054,1.086-0.115,1.561c-0.062,0.475-0.16,0.865-0.298,1.17c-0.138,0.306-0.329,0.459-0.574,0.459
		c-0.459,0-0.772-0.207-0.94-0.62c-0.169-0.413-0.283-0.887-0.345-1.423c-0.062-0.535-0.122-1.063-0.184-1.583
		c-0.062-0.52-0.199-0.902-0.413-1.147c-1.468-0.459-2.868-0.688-4.199-0.688c-1.331,0-2.471,0.229-3.419,0.688
		c-0.245,0.245-0.49,0.589-0.734,1.032c-0.245,0.444-0.49,0.903-0.734,1.377c-0.245,0.475-0.482,0.934-0.711,1.377
		c-0.229,0.444-0.467,0.773-0.711,0.987c-0.031,0.214-0.077,0.429-0.138,0.642c-0.062,0.184-0.146,0.383-0.252,0.597
		c-0.108,0.215-0.284,0.444-0.528,0.688c-0.246,0.949-0.436,1.859-0.574,2.731s-0.237,1.752-0.298,2.639
		c-0.062,0.888-0.1,1.829-0.115,2.823c-0.016,0.995-0.023,2.088-0.023,3.281v5.691c0.245,1.438,0.558,2.899,0.941,4.383
		c0.382,1.484,0.841,2.884,1.376,4.199c0.535,1.315,1.163,2.486,1.882,3.511c0.719,1.025,1.553,1.782,2.501,2.271
		c0.979,0.459,1.935,0.535,2.868,0.229c0.934-0.306,1.889-0.719,2.868-1.239c0.214-0.459,0.345-0.98,0.391-1.561
		c0.046-0.582,0.068-1.17,0.068-1.767s0.016-1.186,0.046-1.767c0.03-0.582,0.168-1.118,0.413-1.606c0.489,0,0.872,0.053,1.147,0.161
		c0.275,0.107,0.505,0.222,0.688,0.344c0.184,0.122,0.345,0.236,0.482,0.344c0.138,0.107,0.328,0.161,0.573,0.161v6.7
		c-0.489,1.193-1.331,2.004-2.524,2.433c-1.193,0.428-2.54,0.635-4.038,0.62c-1.5-0.016-3.022-0.161-4.567-0.436
		c-1.545-0.275-2.915-0.536-4.107-0.78c-0.49-0.459-0.98-0.88-1.469-1.262c-0.49-0.383-0.972-0.788-1.446-1.216
		c-0.475-0.429-0.949-0.895-1.423-1.4c-0.475-0.505-0.94-1.125-1.399-1.859c-0.246-1.193-0.536-2.432-0.872-3.717
		c-0.337-1.285-0.65-2.616-0.941-3.993c-0.291-1.377-0.543-2.769-0.757-4.177c-0.214-1.407-0.321-2.83-0.321-4.268
		c0.459-2.386,0.865-4.803,1.216-7.251c0.352-2.447,0.91-4.803,1.675-7.067c0.213-0.245,0.382-0.482,0.505-0.711
		c0.122-0.229,0.236-0.459,0.344-0.688c0.106-0.229,0.229-0.466,0.367-0.711c0.138-0.245,0.344-0.505,0.62-0.78
		c0.489-0.703,1.094-1.392,1.813-2.065c0.719-0.673,1.521-1.277,2.41-1.813c0.887-0.535,1.858-0.971,2.914-1.308
		c1.056-0.336,2.18-0.505,3.373-0.505c0.735,0.246,1.408,0.436,2.02,0.574c0.611,0.138,1.186,0.298,1.721,0.482
		s1.048,0.413,1.537,0.688S171.861,2.688,172.32,3.177z"/>
	<path fill="#2081BF" d="M195.681,4.232c0,1.835-0.199,3.496-0.597,4.979c-0.398,1.484-0.812,2.914-1.239,4.291
		c-0.459,0.949-0.926,1.882-1.399,2.799c-0.475,0.918-0.941,1.836-1.4,2.754c0,0.49,0.038,0.773,0.115,0.849
		c0.076,0.077,0.344,0.115,0.803,0.115c0.489,0.459,1.108,0.918,1.859,1.376c0.749,0.459,1.368,0.918,1.858,1.377
		c0.703,0.918,1.246,1.951,1.629,3.098c0.383,1.147,0.688,2.325,0.918,3.534c0.229,1.209,0.42,2.44,0.574,3.694
		c0.152,1.255,0.351,2.463,0.597,3.626c0,0.459-0.046,0.917-0.138,1.376s-0.161,0.887-0.207,1.285
		c-0.046,0.397-0.062,0.765-0.046,1.102c0.015,0.336,0.145,0.627,0.391,0.872c0,0.245,0.106,0.474,0.32,0.688
		c0.214,0.213,0.459,0.428,0.734,0.643c0.275,0.213,0.521,0.436,0.734,0.665s0.321,0.466,0.321,0.711
		c0,0.245-0.038,0.474-0.114,0.688c-0.077,0.214-0.146,0.397-0.207,0.551c-0.122,0.184-0.229,0.367-0.321,0.551
		c-0.704,0-1.453,0.007-2.248,0.023c-0.797,0.015-1.584,0.03-2.364,0.046c-0.78,0.015-1.515,0.03-2.203,0.046
		c-0.688,0.015-1.262,0.023-1.721,0.023c-0.245-0.245-0.405-0.482-0.481-0.711c-0.077-0.229-0.1-0.421-0.069-0.574
		c0-0.184,0.062-0.367,0.184-0.551l1.882-1.881c0.214-0.459,0.336-0.918,0.367-1.377c0.03-0.459,0.015-0.918-0.046-1.377
		c-0.062-0.459-0.131-0.926-0.206-1.4c-0.077-0.475-0.115-0.94-0.115-1.399v-5.599v-0.918c0-0.673-0.062-1.4-0.184-2.18
		c-0.123-0.78-0.298-1.521-0.527-2.226c-0.229-0.704-0.521-1.323-0.872-1.859c-0.353-0.535-0.758-0.925-1.217-1.17
		c-1.866-0.918-3.733-0.918-5.599,0c-0.459,0.459-0.766,1.125-0.918,1.997c-0.153,0.872-0.229,1.829-0.229,2.868
		c0,1.041,0.038,2.111,0.114,3.213s0.115,2.111,0.115,3.029c0,0.459-0.054,0.879-0.161,1.262c-0.107,0.382-0.214,0.75-0.321,1.102
		c-0.107,0.351-0.214,0.718-0.321,1.102c-0.107,0.382-0.16,0.803-0.16,1.262v3.672c0.459,0.244,0.856,0.528,1.193,0.849
		c0.336,0.321,0.565,0.65,0.688,0.987c0.122,0.336,0.114,0.673-0.023,1.01c-0.138,0.336-0.436,0.627-0.895,0.872
		c-0.704-0.245-1.354-0.337-1.95-0.275c-0.597,0.061-1.179,0.145-1.744,0.252c-0.566,0.107-1.155,0.199-1.768,0.275
		c-0.612,0.076-1.255-0.008-1.927-0.252c-0.246-0.245-0.43-0.436-0.551-0.574c-0.123-0.138-0.215-0.26-0.275-0.367
		c-0.063-0.107-0.1-0.229-0.115-0.367s-0.022-0.314-0.022-0.528c0.244-0.245,0.474-0.436,0.688-0.574
		c0.213-0.138,0.404-0.268,0.573-0.39c0.168-0.123,0.306-0.245,0.413-0.367c0.106-0.123,0.16-0.307,0.16-0.551v-4.636v-7.435
		l0.046-0.138c0-0.061,0.008-0.161,0.023-0.298c0.015-0.138,0.022-0.329,0.022-0.574l-0.092-0.872c0-0.213,0.054-0.489,0.161-0.826
		c0.106-0.336,0.214-0.711,0.321-1.124c0.106-0.413,0.214-0.849,0.321-1.308c0.106-0.459,0.16-0.918,0.16-1.377
		c0-1.377-0.008-2.807-0.022-4.291c-0.016-1.484-0.054-2.944-0.115-4.383c-0.062-1.438-0.153-2.846-0.275-4.223
		c-0.122-1.376-0.306-2.646-0.551-3.809V4.232c-0.429,0-0.842-0.038-1.238-0.115c-0.398-0.076-0.597-0.359-0.597-0.849
		c-0.245,0-0.413-0.107-0.505-0.321c-0.092-0.214-0.138-0.466-0.138-0.757c0-0.291,0.053-0.589,0.16-0.895
		c0.107-0.305,0.237-0.535,0.391-0.688c0.152-0.152,0.344-0.244,0.573-0.275c0.229-0.03,0.489-0.03,0.78,0
		c0.29,0.031,0.627,0.069,1.01,0.115c0.382,0.046,0.803,0.069,1.262,0.069s1.071-0.03,1.836-0.092
		c0.765-0.061,1.507-0.069,2.226-0.023s1.339,0.214,1.859,0.505c0.52,0.292,0.78,0.773,0.78,1.446c0,0.245-0.054,0.429-0.161,0.551
		c-0.107,0.123-0.252,0.245-0.436,0.367c-0.184,0.123-0.391,0.252-0.62,0.39s-0.451,0.329-0.665,0.574
		c0,0.917,0.046,1.79,0.138,2.616s0.198,1.652,0.321,2.479c0.122,0.826,0.229,1.652,0.321,2.478s0.138,1.698,0.138,2.616
		c0,0.245-0.046,0.536-0.138,0.872c-0.092,0.337-0.161,0.673-0.207,1.009c-0.046,0.337-0.062,0.673-0.046,1.01
		c0.016,0.337,0.146,0.612,0.391,0.826c0.918-0.214,1.736-0.597,2.455-1.147s1.338-1.208,1.858-1.973
		c0.521-0.765,0.956-1.599,1.309-2.501c0.352-0.902,0.649-1.813,0.895-2.73c0-0.948,0.161-1.874,0.482-2.777
		c0.321-0.902,0.481-1.828,0.481-2.776h-1.882c0-0.245-0.054-0.436-0.16-0.574c-0.107-0.138-0.215-0.268-0.321-0.39
		c-0.107-0.122-0.215-0.245-0.321-0.367c-0.107-0.122-0.161-0.306-0.161-0.551c0.245-0.459,0.589-0.772,1.033-0.941
		c0.443-0.167,0.925-0.275,1.445-0.321s1.056-0.092,1.606-0.138s1.056-0.19,1.515-0.436c0.703,0.246,1.186,0.574,1.445,0.987
		s0.359,0.819,0.299,1.216c-0.062,0.398-0.253,0.75-0.574,1.056C196.529,4.08,196.14,4.232,195.681,4.232z"/>
	<path fill="#4994D0" d="M237.398,25.022c0.459-1.438,0.826-2.869,1.102-4.291c0.275-1.423,0.535-2.853,0.78-4.292
		c0.092-0.551,0.198-1.063,0.321-1.537c0.122-0.474,0.252-0.964,0.39-1.469s0.291-1.056,0.459-1.652s0.345-1.308,0.528-2.134
		c0.244-0.948,0.497-1.859,0.757-2.731s0.391-1.797,0.391-2.776c0-0.459,0.106-0.91,0.321-1.354
		c0.213-0.443,0.505-0.841,0.872-1.193c0.366-0.351,0.779-0.635,1.238-0.849c0.459-0.213,0.918-0.321,1.377-0.321h5.646
		c0.244,0,0.436,0.054,0.573,0.161c0.138,0.108,0.268,0.246,0.391,0.413c0.121,0.168,0.252,0.367,0.39,0.597
		s0.328,0.467,0.574,0.711c-0.49,0.49-1.01,0.88-1.561,1.17c-0.551,0.291-1.301,0.222-2.249-0.207
		c-0.245,0.704-0.383,1.354-0.413,1.95c-0.031,0.597-0.016,1.193,0.046,1.79c0.061,0.597,0.138,1.201,0.229,1.813
		c0.092,0.612,0.138,1.27,0.138,1.973v3.81v4.727v7.572c0,1.408-0.031,2.601-0.092,3.58c-0.062,0.979-0.031,1.989,0.092,3.029
		c0.122,0.979,0.19,1.889,0.206,2.731c0.016,0.841,0.008,1.644-0.022,2.409c-0.031,0.765-0.069,1.499-0.115,2.203
		c-0.046,0.704-0.068,1.407-0.068,2.111c0.703,0,1.354,0.13,1.95,0.39c0.597,0.26,1.071,0.566,1.423,0.918
		c0.352,0.352,0.528,0.719,0.528,1.102c0,0.382-0.229,0.696-0.688,0.941c-0.49,0-0.826-0.046-1.01-0.138s-0.521-0.138-1.01-0.138
		c-0.459,0-0.796,0.053-1.01,0.161c-0.215,0.107-0.566,0.161-1.056,0.161l-1.652-0.321c0.122-0.092,0.13-0.13,0.023-0.115
		c-0.107,0.015-0.314,0.053-0.62,0.115c-0.306,0.061-0.681,0.122-1.124,0.184c-0.444,0.061-0.926,0.092-1.446,0.092
		c0-0.245-0.046-0.413-0.138-0.505s-0.199-0.168-0.321-0.229c-0.122-0.062-0.229-0.13-0.32-0.207
		c-0.092-0.077-0.138-0.237-0.138-0.482c0-0.245,0.099-0.436,0.298-0.574c0.198-0.138,0.451-0.268,0.757-0.39
		c0.306-0.123,0.62-0.252,0.941-0.39s0.604-0.329,0.849-0.574c-0.245-1.652-0.413-3.327-0.505-5.025
		c-0.092-1.698-0.138-3.434-0.138-5.209c0-1.774,0.023-3.587,0.069-5.438c0.046-1.851,0.084-3.771,0.114-5.76
		c0-0.336,0.023-0.749,0.069-1.239c0.046-0.489,0.099-1.01,0.16-1.561s0.115-1.102,0.161-1.652s0.068-1.056,0.068-1.514v-3.81
		c0.03-0.122,0.03-0.259,0-0.413c-0.03-0.152-0.068-0.336-0.114-0.551c-0.046-0.213-0.131-0.489-0.253-0.826
		c0-0.214,0.016-0.397,0.046-0.551c0.03-0.153,0.038-0.298,0.023-0.436c-0.016-0.138-0.069-0.283-0.161-0.436
		c-0.092-0.153-0.26-0.352-0.505-0.597c0.03,0.214,0.046,0.429,0.046,0.643c0,0.184-0.008,0.39-0.022,0.62
		c-0.016,0.229-0.069,0.452-0.161,0.666c-0.521,1.255-0.979,2.815-1.376,4.681c-0.398,1.867-0.843,3.763-1.331,5.691
		c-0.123,0.398-0.246,0.765-0.367,1.101c-0.092,0.307-0.177,0.62-0.253,0.941s-0.146,0.604-0.206,0.849
		c-0.275,1.377-0.482,2.456-0.62,3.236c-0.138,0.78-0.26,1.43-0.367,1.95c-0.107,0.521-0.206,1.002-0.298,1.446
		c-0.092,0.444-0.215,1.033-0.367,1.767c-0.092,0.459-0.169,1.018-0.229,1.675c-0.062,0.658-0.138,1.293-0.229,1.905
		s-0.199,1.131-0.321,1.561c-0.123,0.428-0.307,0.643-0.551,0.643c-0.459,0-0.926-0.161-1.399-0.482
		c-0.475-0.321-0.926-0.482-1.354-0.482c0-0.949-0.1-1.767-0.298-2.456c-0.199-0.688-0.421-1.446-0.666-2.271
		c-0.429-1.469-0.818-2.861-1.17-4.177c-0.353-1.315-0.742-2.692-1.17-4.13c-0.275-0.887-0.551-1.759-0.826-2.616
		c-0.275-0.856-0.643-1.882-1.102-3.075c-0.184-0.459-0.353-0.956-0.505-1.492c-0.153-0.535-0.475-1.047-0.964-1.537v6.609
		c0,0.55-0.046,1.17-0.138,1.858s-0.199,1.408-0.321,2.157c-0.123,0.75-0.229,1.507-0.321,2.271c-0.092,0.765-0.138,1.5-0.138,2.203
		v4.773v8.49c0.459,0,0.887,0.038,1.285,0.115c0.397,0.076,0.597,0.359,0.597,0.849c0,0.704-0.353,1.201-1.056,1.492
		c-0.704,0.291-1.53,0.466-2.479,0.528c-0.949,0.061-1.897,0.053-2.846-0.023c-0.948-0.077-1.652-0.115-2.111-0.115
		c-0.245,0-0.436-0.054-0.573-0.161c-0.138-0.107-0.269-0.245-0.391-0.413c-0.122-0.168-0.252-0.367-0.39-0.597
		s-0.329-0.467-0.574-0.711c0.245-0.245,0.443-0.475,0.597-0.688c0.153-0.214,0.321-0.383,0.505-0.504
		c0.184-0.123,0.405-0.177,0.666-0.161c0.26,0.015,0.635,0.145,1.124,0.39v-9.454V21.213v-1.882V9.877V3.269
		c-0.245,0-0.429,0.016-0.551,0.046c-0.122,0.031-0.229,0.069-0.321,0.115s-0.199,0.084-0.321,0.115
		c-0.122,0.031-0.291,0.046-0.505,0.046c-0.429,0-0.772-0.053-1.032-0.161c-0.261-0.107-0.619-0.161-1.078-0.161
		c-0.246-0.245-0.43-0.443-0.551-0.597c-0.123-0.153-0.215-0.313-0.275-0.482c-0.063-0.168-0.1-0.39-0.115-0.666
		s-0.022-0.643-0.022-1.102c0.703-0.244,1.506-0.374,2.409-0.39c0.902-0.015,1.828,0.031,2.776,0.138
		c0.948,0.108,1.874,0.275,2.776,0.505s1.722,0.452,2.456,0.666c0.459,0.979,0.925,1.928,1.399,2.846
		c0.475,0.917,0.956,1.852,1.446,2.799V7.95c0.947,1.928,1.773,4,2.478,6.219c0.704,2.219,1.393,4.337,2.065,6.356
		c0.184,0.551,0.352,1.009,0.505,1.376s0.306,0.705,0.459,1.01c0.153,0.306,0.313,0.62,0.482,0.941
		C236.946,24.173,237.153,24.564,237.398,25.022z"/>
	<path fill="#4994D0" d="M277.097,41.82c-0.337,0.581-0.742,1.131-1.216,1.652c-0.476,0.52-0.926,0.902-1.354,1.147
		c-1.53,0.979-3.06,1.53-4.589,1.652c-1.53,0.122-2.977-0.039-4.338-0.482c-1.361-0.444-2.569-1.109-3.625-1.997
		c-1.056-0.888-1.858-1.866-2.409-2.937c-0.43-0.826-0.889-1.775-1.377-2.846c-0.49-1.071-0.979-2.325-1.469-3.763
		c-0.459-1.836-0.728-3.687-0.804-5.553c-0.076-1.866-0.114-3.748-0.114-5.645c0-0.459-0.023-0.895-0.069-1.308
		s-0.076-0.833-0.092-1.262c-0.016-0.428-0.016-0.887,0-1.377c0.016-0.489,0.069-1.056,0.161-1.698
		c0.122-0.643,0.236-1.277,0.344-1.904c0.107-0.627,0.161-1.186,0.161-1.675c0.122-0.489,0.214-0.979,0.275-1.469
		c0.061-0.489,0.138-0.948,0.229-1.377c0.092-0.428,0.198-0.81,0.321-1.147c0.122-0.336,0.306-0.627,0.551-0.872
		c0.703-0.918,1.377-1.92,2.02-3.006c0.642-1.085,1.376-2.065,2.202-2.937s1.798-1.561,2.915-2.065
		c1.116-0.505,2.501-0.634,4.153-0.39c0.918,0,1.735,0.062,2.455,0.184c0.719,0.123,1.369,0.329,1.95,0.62
		c0.581,0.291,1.117,0.681,1.606,1.17c0.489,0.49,0.964,1.086,1.423,1.79c1.438,0.949,2.646,2.409,3.626,4.383
		c0.979,1.973,1.59,4.169,1.835,6.586c0.03,0.459,0.062,0.88,0.092,1.262c0.03,0.383,0.054,0.757,0.069,1.125
		c0.015,0.367,0.022,0.757,0.022,1.17s0,0.88,0,1.4c0,1.408-0.016,2.945-0.046,4.612c-0.03,1.668-0.274,3.45-0.733,5.347
		c-0.49,2.326-1.072,4.414-1.744,6.265C278.855,38.324,278.045,40.106,277.097,41.82z M273.012,41.177
		c0.184-0.459,0.391-1.018,0.62-1.675c0.229-0.658,0.459-1.347,0.688-2.065c0.229-0.72,0.451-1.439,0.665-2.157
		c0.214-0.719,0.383-1.354,0.505-1.905c0.459-1.407,0.727-2.814,0.804-4.222c0.075-1.407,0.114-2.814,0.114-4.222
		c0-0.948,0.053-1.751,0.16-2.41c0.107-0.657,0.161-1.445,0.161-2.363c0-0.948-0.054-1.874-0.161-2.777
		c-0.107-0.902-0.16-1.828-0.16-2.776c-0.245-0.459-0.429-0.925-0.551-1.4c-0.123-0.474-0.245-0.948-0.367-1.423
		c-0.122-0.474-0.252-0.948-0.39-1.422c-0.138-0.474-0.329-0.941-0.574-1.4s-0.481-0.956-0.711-1.492
		c-0.229-0.535-0.482-1.056-0.758-1.561s-0.589-0.963-0.94-1.376c-0.353-0.413-0.758-0.742-1.216-0.987
		c-0.459,0-0.826-0.007-1.102-0.023c-0.275-0.015-0.536-0.038-0.78-0.069c-0.245-0.03-0.513-0.053-0.804-0.069
		c-0.291-0.015-0.665-0.023-1.124-0.023c-0.949,0.949-1.698,1.92-2.249,2.914c-0.551,0.995-1.056,2.196-1.515,3.603
		c-0.489,0.949-0.772,1.889-0.849,2.822c-0.077,0.934-0.115,1.875-0.115,2.823c-0.245,1.897-0.375,3.771-0.39,5.622
		c-0.016,1.851,0.038,3.656,0.16,5.416c0.122,1.76,0.291,3.45,0.505,5.071c0.214,1.622,0.443,3.121,0.688,4.498
		c0.214,0.459,0.391,0.925,0.528,1.399c0.138,0.474,0.268,0.918,0.39,1.331s0.253,0.788,0.391,1.125
		c0.138,0.336,0.328,0.627,0.573,0.872c0.214,0,0.367,0.046,0.459,0.138s0.152,0.207,0.184,0.344
		c0.03,0.138,0.068,0.298,0.114,0.482s0.146,0.351,0.299,0.505c0.367,0.367,0.887,0.588,1.561,0.665
		c0.673,0.076,1.369,0.053,2.088-0.069c0.719-0.123,1.369-0.337,1.95-0.642C272.445,41.973,272.828,41.606,273.012,41.177z"/>
	<path fill="#4994D0" d="M303.165,20.709c0.979,1.255,1.69,2.792,2.134,4.612c0.443,1.821,0.765,3.756,0.964,5.806
		s0.345,4.107,0.437,6.173c0.092,2.065,0.26,3.97,0.505,5.713c0.52,0,0.971,0.038,1.354,0.115c0.383,0.076,0.574,0.359,0.574,0.849
		c0,0.734-0.223,1.262-0.666,1.583s-1.01,0.52-1.698,0.597c-0.688,0.076-1.431,0.076-2.226,0c-0.796-0.077-1.545-0.161-2.249-0.252
		c-0.521-0.49-0.772-0.972-0.757-1.446c0.015-0.475,0.099-1.056,0.252-1.744c0.153-0.688,0.299-1.522,0.437-2.501
		c0.138-0.979,0.084-2.219-0.161-3.717c-0.153-0.918-0.229-1.866-0.229-2.846c0-0.979-0.03-1.95-0.092-2.914
		s-0.199-1.912-0.413-2.846c-0.214-0.933-0.612-1.813-1.193-2.639c-0.367-0.52-0.658-0.956-0.872-1.308
		c-0.214-0.352-0.566-0.788-1.055-1.308c0-0.245-0.063-0.443-0.184-0.597c-0.123-0.152-0.275-0.29-0.459-0.413
		c-0.184-0.122-0.391-0.244-0.62-0.367c-0.229-0.122-0.467-0.305-0.711-0.55c-0.521,0-0.972,0.039-1.354,0.115
		c-0.383,0.077-0.573,0.344-0.573,0.803c-0.245,1.255-0.383,2.54-0.413,3.855c-0.031,1.316-0.016,2.624,0.046,3.924
		c0.061,1.301,0.138,2.547,0.229,3.74c0.092,1.193,0.138,2.279,0.138,3.259c0,1.01,0.038,2.003,0.114,2.983
		c0.076,0.979,0.345,1.974,0.804,2.983c0,0.244,0.099,0.436,0.298,0.573c0.199,0.138,0.429,0.268,0.688,0.39
		c0.26,0.122,0.489,0.252,0.688,0.39s0.299,0.313,0.299,0.528c0,0.52-0.016,0.941-0.046,1.262c-0.031,0.321-0.291,0.482-0.78,0.482
		c-0.49,0-1.095-0.031-1.813-0.092c-0.719-0.062-1.453-0.107-2.202-0.138c-0.75-0.031-1.484-0.016-2.203,0.046
		c-0.72,0.061-1.309,0.214-1.768,0.459c-0.521,0-0.963-0.008-1.33-0.023c-0.367-0.016-0.704-0.092-1.01-0.229
		c-0.307-0.138-0.59-0.337-0.85-0.597c-0.26-0.26-0.513-0.65-0.757-1.17c0.52-0.459,1.01-0.727,1.469-0.803
		c0.459-0.077,0.947-0.115,1.469-0.115V26.583c0-0.489,0.046-0.979,0.138-1.469c0.092-0.489,0.167-0.979,0.229-1.469
		c0.061-0.489,0.075-0.979,0.046-1.469c-0.031-0.489-0.169-0.979-0.413-1.468c0-0.245,0.015-0.451,0.046-0.62
		c0.029-0.168,0.061-0.344,0.092-0.528c0.029-0.184,0.061-0.382,0.092-0.597c0.029-0.214,0.061-0.489,0.092-0.826
		c0.061-1.04,0.083-2.026,0.068-2.96c-0.016-0.933-0.054-1.882-0.114-2.846c-0.063-0.964-0.123-1.958-0.184-2.983
		c-0.063-1.025-0.092-2.165-0.092-3.419c-0.979,0-1.821-0.106-2.524-0.321c-0.704-0.213-1.056-0.581-1.056-1.101
		c0-0.734,0.084-1.3,0.252-1.698c0.168-0.397,0.421-0.688,0.758-0.872c0.336-0.184,0.78-0.291,1.331-0.321
		c0.551-0.03,1.193-0.046,1.928-0.046c0.488,0,0.863-0.092,1.124-0.275c0.26-0.184,0.619-0.275,1.078-0.275
		c1.499-0.245,3.099-0.397,4.796-0.459c1.698-0.061,3.305,0.069,4.819,0.39s2.838,0.88,3.97,1.675
		c1.132,0.796,1.866,1.897,2.203,3.304c0.122,0.459,0.236,1.002,0.344,1.629c0.107,0.627,0.184,1.293,0.229,1.997
		c0.046,0.704,0.03,1.416-0.046,2.134c-0.076,0.719-0.252,1.416-0.527,2.088c-0.275,0.673-0.712,1.385-1.309,2.134
		c-0.596,0.75-1.124,1.354-1.583,1.813l-1.01,1.01c0,0.245,0.054,0.436,0.161,0.574c0.106,0.138,0.222,0.268,0.344,0.39
		c0.122,0.123,0.236,0.26,0.345,0.413C303.111,20.265,303.165,20.464,303.165,20.709z M293.39,4.049
		c0,0.979,0.007,1.943,0.023,2.891c0.015,0.949,0.037,1.905,0.068,2.869c0.03,0.963,0.069,1.966,0.115,3.006
		c0.046,1.041,0.099,2.157,0.16,3.35c0,0.337,0.236,0.498,0.711,0.482c0.475-0.015,1.025-0.115,1.652-0.298s1.239-0.428,1.836-0.734
		c0.597-0.306,1.017-0.581,1.262-0.826c0-0.52,0.122-1.132,0.367-1.836c0.245-0.704,0.429-1.392,0.551-2.065
		c0.092-0.55,0.146-0.979,0.161-1.285c0.015-0.306,0.007-0.574-0.023-0.803s-0.062-0.474-0.092-0.734
		c-0.03-0.26-0.046-0.635-0.046-1.125c0-0.704-0.191-1.254-0.573-1.652c-0.383-0.397-0.834-0.841-1.354-1.331
		c-0.246,0-0.597,0.008-1.056,0.023c-0.459,0.016-0.926,0.023-1.4,0.023s-0.934,0.008-1.377,0.023
		C293.933,4.042,293.604,4.049,293.39,4.049z"/>
	<path fill="#4994D0" d="M330.839,7.812c-0.245-0.245-0.39-0.535-0.436-0.872c-0.046-0.336-0.069-0.681-0.069-1.033
		c0-0.351-0.016-0.688-0.046-1.009c-0.03-0.321-0.168-0.589-0.413-0.803c-0.245,0-0.429-0.007-0.551-0.023
		c-0.122-0.015-0.245-0.053-0.367-0.115c-0.122-0.061-0.252-0.153-0.39-0.275c-0.138-0.122-0.329-0.306-0.574-0.551
		c-0.948,0-2.035,0.039-3.258,0.115c-1.225,0.077-2.311,0.36-3.259,0.849c-0.49,0.429-0.75,1.002-0.78,1.721
		c-0.031,0.719-0.046,1.614-0.046,2.685c0,1.316-0.022,2.386-0.068,3.212s-0.069,1.698-0.069,2.616c0,0.704,0.046,1.362,0.138,1.973
		c0.092,0.613,0.168,1.178,0.229,1.698c0.061,0.521,0.076,1.025,0.046,1.515c-0.031,0.49-0.169,0.964-0.413,1.423
		c0.244,0.214,0.589,0.383,1.032,0.504c0.443,0.123,0.926,0.207,1.446,0.252c0.52,0.046,1.056,0.077,1.606,0.092
		c0.551,0.016,1.056,0.023,1.515,0.023c0-0.213,0.007-0.482,0.022-0.803c0.015-0.321,0.053-0.627,0.115-0.918
		c0.061-0.291,0.152-0.535,0.274-0.734c0.122-0.199,0.306-0.298,0.551-0.298c0.214,0,0.391,0.008,0.528,0.023
		c0.138,0.016,0.268,0.046,0.39,0.092s0.253,0.138,0.391,0.275s0.328,0.314,0.573,0.528c-0.245,0.459-0.344,1.109-0.298,1.95
		c0.046,0.842,0.099,1.675,0.16,2.501s0.054,1.545-0.022,2.157c-0.077,0.612-0.345,0.917-0.804,0.917
		c-0.367-0.184-0.688-0.382-0.964-0.597c-0.245-0.184-0.459-0.382-0.642-0.596c-0.184-0.214-0.275-0.443-0.275-0.688v-0.964h-4.636
		c-0.245,0.704-0.398,1.469-0.459,2.294c-0.062,0.826-0.077,1.66-0.046,2.501c0.03,0.842,0.076,1.668,0.138,2.479
		c0.061,0.811,0.092,1.553,0.092,2.226c0,0.704,0.015,1.446,0.046,2.226c0.03,0.78,0.061,1.544,0.092,2.294
		c0.03,0.75,0.061,1.453,0.092,2.111c0.03,0.658,0.046,1.216,0.046,1.675c0.703,0.244,1.354,0.428,1.95,0.55
		c0.597,0.122,1.186,0.207,1.768,0.252c0.58,0.046,1.177,0.076,1.789,0.092c0.612,0.015,1.27,0.023,1.974,0.023
		c0.459-0.214,0.727-0.536,0.804-0.963c0.076-0.429,0.114-0.88,0.114-1.354c0-0.475,0.046-0.918,0.138-1.331
		s0.367-0.742,0.826-0.987c0.459,0,0.818,0.153,1.078,0.459c0.26,0.306,0.451,0.688,0.574,1.147c0.122,0.459,0.19,0.964,0.206,1.515
		s0.023,1.055,0.023,1.514c0,0.489-0.199,0.964-0.597,1.423c-0.398,0.459-0.826,0.933-1.285,1.423h-4.727
		c-2.326,0-4.697-0.039-7.114-0.115c-2.417-0.077-5.033-0.36-7.848-0.849V43.38h3.764c0.244-1.407,0.382-2.753,0.413-4.039
		c0.029-1.285,0.015-2.57-0.046-3.855c-0.063-1.285-0.138-2.577-0.229-3.878c-0.092-1.3-0.138-2.669-0.138-4.108v-1.881V16.21
		v-3.717V4.095h-3.764V2.213c0.948-0.245,1.889-0.436,2.822-0.574c0.933-0.138,1.866-0.268,2.8-0.39
		c0.933-0.122,1.866-0.245,2.8-0.367c0.933-0.122,1.873-0.305,2.822-0.551h9.362c0.184,0.184,0.336,0.383,0.459,0.597
		c0.122,0.184,0.236,0.383,0.344,0.597c0.107,0.214,0.161,0.444,0.161,0.688c0,0.459,0.076,1.01,0.229,1.652
		c0.152,0.643,0.229,1.255,0.229,1.835c0,0.582-0.153,1.079-0.459,1.492C332.414,7.606,331.787,7.812,330.839,7.812z"/>
</g>
</svg>
