<?xml version="1.0" encoding="utf-8"?>
<!-- Generator: Adobe Illustrator 19.0.0, SVG Export Plug-In . SVG Version: 6.00 Build 0)  -->
<svg version="1.1" id="Layer_1" xmlns="http://www.w3.org/2000/svg" xmlns:xlink="http://www.w3.org/1999/xlink" x="0px" y="0px"
	 viewBox="-292.7 377.4 39.5 39.5" style="enable-background:new -292.7 377.4 39.5 39.5;" xml:space="preserve">
<style type="text/css">
	.st0{fill:#FFFFFF;}
	.st1{fill:none;stroke:#FFFFFF;stroke-width:3;stroke-miterlimit:10;}
</style>
<path class="st0" d="M-262.7,395.4h-16.5l4-4c0.3-0.3,0.5-0.7,0.5-1.2c0-0.8-0.7-1.7-1.7-1.7c-0.5,0-0.9,0.2-1.2,0.5l-6.8,6.8
	c-0.3,0.3-0.6,0.6-0.6,1.3s0.2,0.9,0.6,1.2l6.8,6.8c0.3,0.3,0.7,0.5,1.2,0.5c1,0,1.7-0.9,1.7-1.7c0-0.4-0.2-0.8-0.5-1.2l-4-4h16.5
	c0.9,0,1.7-0.8,1.7-1.7S-261.7,395.4-262.7,395.4z"/>
<circle class="st1" cx="-273" cy="397.1" r="18.3"/>
</svg>
