<?xml version="1.0" encoding="UTF-8" standalone="no"?>
<!-- Generator: Adobe Illustrator 19.0.0, SVG Export Plug-In . SVG Version: 6.00 Build 0)  -->
<svg id="Layer_1" xmlns="http://www.w3.org/2000/svg" xml:space="preserve" viewBox="0 0 200.9 200.9" version="1.1" y="0px" x="0px" xmlns:xlink="http://www.w3.org/1999/xlink" enable-background="new 0 0 200.9 200.9">
<circle cy="556.3" cx="1102.3" r="189.7" fill="#8198CD"/>
<circle cy="531.7" cx="165.5" r="189.7" fill="#7BCA7F"/>
<circle cy="547.9" cx="615.8" r="189.7" fill="#09C5C5"/>
<path d="m291.1 587.5h-251.2c-0.5 1.4-0.7 2.8-0.7 4.4v10.3c0 7.3 6 13.3 13.3 13.3h226.1c7.3 0 13.3-6 13.3-13.3v-10.3c-0.1-1.6-0.3-3.1-0.8-4.4z" fill="#fff"/>
<rect y="615.5" x="123.3" height="26" width="84.5" fill="#D6E1DB"/>
<path d="m218.3 656.3h-105.6c-4.1 0-7.5-3.4-7.5-7.5s3.4-7.5 7.5-7.5h105.7c4.1 0 7.5 3.4 7.5 7.5-0.1 4.2-3.4 7.5-7.6 7.5z" fill="#FBFCFB"/>
	<path d="m50.8 438c15.8-0.2 31.7 0.1 47.6-0.1 0.1 38.7 0 77.4 0 116-0.1 2.1 1.5 4 3.4 4.7 1.8 0.5 3.8 0.3 5.7 0.3h119.5c2.2 0.2 4.3-1.3 5.2-3.3 0.7-1.8 0.4-3.8 0.4-5.7v-112.2c15 0.2 30 0 45 0.1 1 0 1.8 0.4 2.7 0.8l-0.1 135.9c-0.1 2 0.2 4-0.2 5.9-0.6 1.7-2.7 2.2-4.3 2.1h-216.9c-1.8 0-3.7 0.2-5.5-0.2-1.7-0.5-2.6-2.3-2.5-4 0-46.7-0.1-93.5 0-140.3z" fill="#03B1B8"/>
<path d="m39 594.1h252.9c-0.1-43.2 0-86.7 0-129.9-0.1-1.8 0-3.6 0.2-5.5-0.5-7.6 0-15.2-0.3-22.9-1.7-5-6.3-9.2-11.7-9.6-15.8-0.1-31.6 0.1-47.4-0.1v11.6c15 0.2 30 0 45 0.1 1 0 1.8 0.4 2.7 0.8-0.2 17.7 0 35.3-0.1 53v82.9c-0.1 2 0.2 4-0.2 5.9-0.6 1.7-2.7 2.2-4.3 2.1h-216.9c-1.8 0-3.7 0.2-5.5-0.2-1.7-0.5-2.6-2.3-2.5-4 0.1-46.8-0.1-93.6 0.1-140.5 15.8-0.2 31.7 0.1 47.6-0.1 0.1-3.9-0.3-7.7-0.1-11.6-14.8 0.2-29.5 0-44.3 0.1-2.4 0-5-0.2-7.2 0.9-4.3 1.8-8.2 6-8 11 0 52.1-0.2 104 0 156z" fill="#3B4948"/>
			<path d="m98.5 407.6c-0.1-2.7 2.6-5 5.2-5h123.4c2.9-0.2 5.9 2.5 5.6 5.5v17.4 11.6 112.2c-0.1 1.9 0.3 3.9-0.4 5.7-0.9 2-2.9 3.4-5.2 3.3h-119.5c-1.9 0-3.8 0.2-5.7-0.3-1.9-0.7-3.5-2.6-3.4-4.7v-116c0.1-3.9-0.3-7.7-0.1-11.6 0.2-6.2-0.1-12.1 0.1-18.1z" fill="#F2865C"/>
	<circle cy="420.7" cx="129.1" r="4.6" fill="#E77961"/>
	<circle cy="420.7" cx="201.6" r="4.6" fill="#E77961"/>
	<path d="m128.2 418.4c1.9-0.7 4.2 1 3.9 3.1 0 8 0.1 16.1 0 24.1-0.2 6.7 1.4 13.6 5 19.3 6.7 11.2 20.4 17.8 33.3 15.6 6.9-0.8 13.3-4.3 18.3-9 6.2-6 10.2-14.4 10.3-23.1 0.1-9.3-0.1-18.6 0.1-27.8 0.3-2.6 4.3-3.3 5.3-0.8 0.8 5.8 0.3 11.7 0.3 17.6 0.2 5.6 0.1 11.2-0.4 16.7-1.5 8-5.4 15.6-11.2 21.3-5.3 5.1-12 8.9-19.2 10.3-2.6 0.4-5.1 0.7-7.7 0.9-7.5 0-15.1-2.1-21.4-6.2-8.2-5.2-14.5-13.6-16.9-23.1-1.7-5.7-1.4-11.7-1.4-17.5 0.1-6.3-0.2-12.5 0.2-18.8-0.2-1.1 0.5-2.1 1.5-2.6z" fill="#FBFCFB"/>
<path d="m533.9 628.6v-7.5-2.5-7.5-2.5-7.5-2.5-7.6-2.5-7.6c0-0.9-0.1-1.8-0.2-2.8l-0.1 0.1c-0.6-1.8-2.4-3-4.2-3.3h-2.5-7.6-2.5-22.5c0.1 7 0.6 14 1.7 20.9 0.1 0.7 0.2 1.3 0.3 2 0.4 2.2 0.8 4.3 1.2 6.5 0.1 0.7 0.3 1.3 0.4 2l1.5 6c0.2 0.8 0.4 1.5 0.6 2.3l0.1-0.1c0.5 1.8 1.1 3.6 1.7 5.4 0.3 0.8 0.5 1.6 0.8 2.3v-0.1c0.6 1.8 1.3 3.5 1.9 5.2 0.2 0.5 0.4 1 0.6 1.4h0.3l-0.1 0.4c0.5 1.8 1.5 3.5 2.2 5.3 0.3 0.6 0.5 1.1 0.8 1.7 0.8 1.7 1.7 3.4 2.5 5.1 0.3 0.5 0.6 1.1 0.9 1.6 0.9 1.6 1.8 3.2 2.7 4.9 0.3 0.5 0.6 1 0.8 1.5s0.6 0.8 1.2 0.7h12.1c2.8 0.2 5.3-2.3 5.2-5v-13.7c0.2-1 0.2-1.8 0.2-2.6z" fill="#EBE8D6"/>
			<path d="m488.7 572.5c0.1-2.1 2.4-3.2 4.3-3.2h36.1c5.3 0.1 9.8 4.6 10.2 9.8h23c12.1-0.2 24.2 1.4 35.6 5.5 8.2 3 16.2 7.6 21.6 14.6h34.8c6.7 0 13.1 4.4 15.3 10.8 1.5 2.5 1.6 5.4 1.1 8.2 14.4-5 28.9-10 43.3-15 4.2-1.4 8.9-2.3 13.2-0.8 3.8 1.3 6.4 4.9 7.4 8.7 1.4 5.5-1.9 11.2-6.6 13.9-18.1 9.7-36.3 19.4-54.6 28.8-8.2 4.2-16.4 8.4-24.8 12.3-10 4.8-21.6 4.8-32.4 3.2-6.4-0.9-12.4-3.1-18.5-5-19.4-6.2-38.8-12.3-58.2-18.4-0.5 3.6-2.7 7-6 8.6-2.7 1.4-5.8 1-8.7 1-3.5 0-7 0.1-10.6 0-2-0.1-2.7-2.1-3.6-3.5-14.5-23.9-22.2-51.7-21.9-79.5zm5.6 2.4c0.1 7 0.6 14 1.7 20.9 0.1 0.7 0.2 1.3 0.3 2 0.4 2.2 0.8 4.3 1.2 6.5 0.1 0.7 0.3 1.3 0.4 2l1.5 6c0.2 0.8 0.4 1.5 0.6 2.3l0.1-0.1c0.5 1.8 1.1 3.6 1.7 5.4 0.3 0.8 0.5 1.6 0.8 2.3v-0.1c0.6 1.8 1.3 3.5 1.9 5.2 0.2 0.5 0.4 1 0.6 1.4h0.3l-0.1 0.4c0.5 1.8 1.5 3.5 2.2 5.3 0.3 0.6 0.5 1.1 0.8 1.7 0.8 1.7 1.7 3.4 2.5 5.1 0.3 0.5 0.6 1.1 0.9 1.6 0.9 1.6 1.8 3.2 2.7 4.9 0.3 0.5 0.6 1 0.8 1.5s0.6 0.8 1.2 0.7h12.1c2.8 0.2 5.3-2.3 5.2-5v-13.7-2.5-7.5-2.5-7.5-2.5-7.5-2.5-7.6-2.5-7.6c0-0.9-0.1-1.8-0.2-2.8l-0.1 0.1c-0.6-1.8-2.4-3-4.2-3.3h-2.5-7.6-2.5c-7.3-0.1-14.8-0.1-22.3-0.1zm45 9.5v56.5c3.1 1 6.3 2 9.4 3 16.4 5.2 32.8 10.4 49.3 15.6 6.3 1.9 12.5 4.3 19.1 5.2 8.6 1.3 17.8 1.6 26.1-1.5 8-3.4 15.7-7.5 23.4-11.4 19.2-9.8 38.2-20 57.3-30.1 2.2-1 4.2-2.6 5.3-4.7 2.2-3.9-0.7-9.6-5.1-10.1-2.9-0.4-5.9 0.4-8.6 1.4-15.7 5.4-31.4 10.9-47 16.3-0.7 0.2-1.2 0.7-1.7 1.3-2.8 3.1-6.8 5-10.9 5.3-17.6 0.1-35.2 0-52.8 0-1.7 0.3-3.4-1.6-2.6-3.3 0.3-0.9 1.2-1.3 2-1.6 17.3 0.1 34.5 0 51.8 0.1 3.2 0.1 6.4-1.1 8.5-3.4 2.1-2.5 3.3-5.9 2.7-9.2-0.4-3.8-3.3-7-6.9-8.3-2.7-1.1-5.6-0.7-8.4-0.8h-31.7c-1.6 0.1-2.4-1.5-3.2-2.5-4.5-5.7-11-9.4-17.7-12-9.4-3.5-19.3-5.1-29.3-5.6-6.5-0.1-13 0-19.5 0-3.2-0.2-6.3-0.2-9.5-0.2z" fill="#0B1010"/>
	<g fill="#CAA082">
		<path d="m539.3 584.4h9.5c-0.1 2.6-0.1 5.2 0 7.7 0.2 3.3-0.2 6.7 0 10 0.2 3.4-0.2 6.7 0 10.1 0.2 3.3-0.2 6.7 0 10 0.2 3.2-0.2 6.4 0 9.5 0.2 4-0.1 8-0.1 12.1-3.1-1-6.3-2-9.4-3v-56.4z"/>
		<path d="m657.2 618.1c3.4-0.1 5.8-2.6 8.3-4.6 0.5 3.3-0.7 6.6-2.7 9.2-2.2 2.3-5.4 3.6-8.5 3.4-17.3 0-34.5 0.1-51.8-0.1 1.4-3.3 3-6.9 6.8-7.6 4.3-0.9 46.3-0.4 47.9-0.3z"/>
	</g>
		<path d="m548.8 584.4h19.5c9.9 0.4 19.9 2.1 29.3 5.6 6.7 2.6 13.2 6.3 17.7 12 0.8 1.1 1.6 2.7 3.2 2.5h31.7c2.8 0.1 5.8-0.3 8.4 0.8 3.5 1.3 6.5 4.5 6.9 8.3-2.4 2-4.9 4.5-8.3 4.6-4.1 0.6-8.3 0.4-12.5 0.3-4.2 0.5-8.4-0.3-12.6 0.1-2.9 0.3-5.8-0.4-8.7-0.1-4.4 0.5-8.9-0.6-13.3 0.4-3.8 0.6-6.3 3.9-7.7 7.3-0.8 0.3-1.7 0.7-2 1.6-0.8 1.6 0.9 3.6 2.6 3.3 17.6 0 35.2 0.1 52.8 0 4.1-0.2 8.2-2.2 10.9-5.3 0.5-0.5 1-1.1 1.7-1.3 15.7-5.4 31.4-10.9 47-16.3 2.8-0.9 5.7-1.7 8.6-1.4 4.5 0.5 7.4 6.2 5.1 10.1-1.1 2.2-3.1 3.7-5.3 4.7-19.1 10.1-38.1 20.2-57.3 30.1-7.7 3.9-15.4 8-23.4 11.4-8.3 3.2-17.5 2.8-26.1 1.5-6.6-0.9-12.8-3.2-19.1-5.2-16.4-5.2-32.8-10.4-49.3-15.6-0.1-4 0.2-8 0.1-12.1-0.1-3.2 0.2-6.4 0-9.5-0.2-3.3 0.2-6.7 0-10-0.2-3.4 0.2-6.7 0-10.1-0.2-3.3 0.2-6.7 0-10 0-2.6 0-5.2 0.1-7.7z" fill="#DEB08E"/>
				<path d="m586.4 425.7c8.8-1 18 0.4 26.1 4 7.1 3.2 13.4 8.1 18.3 14.1 0.5 0.6 1.1 1.2 1.9 0.9 1-1.1 1.9-2.3 3-3.4 7-7.6 16.5-12.9 26.6-15 10.6-2.2 21.8-0.7 31.5 3.9 10.1 4.8 18.5 13.2 23.4 23.3 4.3 8.8 5.8 18.9 4.6 28.5-2 13.8-8.3 26.8-16.5 38-8.8 11.9-19.6 22.2-31.1 31.5-10.8 8.6-22.4 16.4-34.2 23.6-5.4 3.7-12.9 3.6-18.4 0.3-16.8-10.3-33.1-21.8-47.2-35.6-10.1-10-19.2-21.5-25.1-34.5-2.7-6-4.8-12.3-6-18.7-1.8-8.6-1.4-17.6 1.2-26 3.4-10.8 10.5-20.3 19.9-26.6 6.4-4.4 14.1-7.3 22-8.3zm0.9 3.7c-12.5 1.2-24.2 7.8-31.9 17.7-6.7 8.4-10.2 19.2-9.8 30 0.1 4 1 7.9 1.8 11.8 1.1 4.8 2.7 9.6 4.8 14.1 1 2.4 2.2 4.7 3.4 6.9 5.2 9.4 12 17.8 19.4 25.5 14.2 14.5 30.8 26.4 48 37 4.3 2.8 10.2 2.8 14.6 0.3 10.8-6.5 21.3-13.6 31.3-21.3 11.9-9.3 23.1-19.5 32.2-31.5 2.3-3.2 4.8-6.3 6.6-9.9h0.1c1.3-2.1 2.4-4.2 3.5-6.4 1.4-2.8 2.6-5.7 3.6-8.6 2.7-7.7 4.4-16 3.5-24.2-1-9.7-5.1-19.1-11.7-26.3-7.5-8.4-18.3-13.9-29.5-15-9-1.1-18.3 0.6-26.4 4.9-5.6 2.9-10.6 7.1-14.6 12-1.4 1.7-3.8 2.4-5.9 1.6-1.9-0.8-2.9-2.8-4.4-4.2-9.6-10.5-24.4-16-38.6-14.4z" fill="#232D2B"/>
		<path d="m718.4 470.8c-1-9.7-5.1-19.1-11.7-26.3-7.5-8.4-18.3-13.9-29.5-15-9-1.1-18.3 0.6-26.4 4.9-5.6 2.9-10.6 7.1-14.6 12-1.4 1.7-3.8 2.4-5.9 1.6-1.9-0.8-2.9-2.8-4.4-4.2-9.7-10.5-24.4-16.1-38.6-14.5-12.5 1.2-24.2 7.8-31.9 17.7-6.7 8.4-10.2 19.2-9.8 30 0.1 4 1 7.9 1.8 11.8 1.1 4.8 2.7 9.6 4.8 14.1 1 2.4 2.2 4.7 3.4 6.9 5.2 9.4 12 17.8 19.4 25.5 14.2 14.5 30.8 26.4 48 37 4.3 2.8 10.2 2.8 14.6 0.3 10.8-6.5 21.3-13.6 31.3-21.3 11.9-9.3 23.1-19.5 32.2-31.5 2.3-3.2 4.8-6.3 6.6-9.9h0.1c1.3-2.1 2.4-4.2 3.5-6.4 1.4-2.8 2.6-5.7 3.6-8.6 2.7-7.7 4.5-15.9 3.5-24.1z" fill="#D86359"/>
		<path d="m554.4 484.3c-0.7-3-1-6-0.9-9.1-0.2-5.6 1.3-11.1 3.6-16.2 5.7-12 17.8-20.7 31-22 1.6-0.1 3.2-0.1 4.7-0.1 1 0 1.8 0.8 2.3 1.7 1 1.6 0.4 4-1.2 5-1.2 0.9-2.7 0.5-4.1 0.6-6.3 0.5-12.5 2.9-17.5 6.9-6 4.9-10.3 12-11.4 19.7-0.7 4-0.4 8.2 0.5 12.1 0.2 1.6-1 3.3-2.6 3.6-1.7 0.5-3.8-0.5-4.4-2.2z" fill="#fff"/>
	<g fill="#EAC09B">
		<path d="m1095.3 482c6.3-1.9 13-3.1 19.6-2.3 5.1 0.6 10 1.9 14.8 3.6 11.5 4.3 22.7 9.5 34.2 14 6.7 2.6 13.5 5 20.7 5.8 5.2 0.7 10.4-0.5 15.6-0.8-0.4 2.3-0.4 4.7 0 7 5.4 28.2 10 56.5 15.2 84.7-2.2 0.1-4.4 0.2-6.7 0.3-13.4-9.2-26.9-18.2-40.4-27.3-18.8-12.4-37.6-24.9-56.9-36.4-4.2-2.2-8.1-5.3-12.9-6.2-4.6-0.9-9.4-1.3-14-0.3-3 0.5-4.6 3.4-6.6 5.4-6.3 6.5-13.9 12.4-23 14.1-6.2 1.6-12.8-0.9-17.5-5-2-1.6-1.1-4.5-0.8-6.7 4.3 0.8 10 2.4 13.2-1.5 2.4-3.2 4.8-6.7 5.4-10.7 0.1-3.2-3.9-3.8-6.3-4.6 4.7-5.9 9.3-11.8 14.6-17.1 4.9-4.6 10.6-8.6 17.2-10.3 5.1-1.3 9.7-3.9 14.6-5.7z"/>
		<path d="m992.7 592.1c7 0.8 15.7 2.2 19.2 9.2-1.7 1.6-3.5 3.4-4.1 5.8-4.8 0.4-10.3-0.8-13.3-4.9-2.2-2.9-2-6.7-1.8-10.1z"/>
		<path d="m1012.8 602.1c4.7-0.5 9.2 1 12.9 3.8 4 2.5 6.1 6.9 8.4 10.9 2.7-1.8 5.4-4.2 8.9-4.2 3.5 0.1 7 1.7 9.4 4.4 3.6 4.1 5.8 9.1 7.6 14.2 2.8-1.6 5.6-3.7 9-3.3 4.4 0.5 8.4 3.2 10.9 6.8 3.1 4.6 5.6 9.5 8.8 14 1.2 1.7 3 2.6 5 3.1-6 4.7-14.4 6.9-21.6 4-5.8-2.3-9.6-7.4-13-12.3-5.9 0.2-12.3 0.2-17.3-3.3-3.3-2.3-5.4-6-6.8-9.7-0.1-4.5 0.1-9-0.5-13.4-1.7 3.3-2.3 7-1.5 10.6-6.8 0-14.1-1.4-19-6.3-3.2-3.1-4.6-7.5-5.3-11.8 1.3-2.6 2.7-5.1 4.1-7.5z"/>
	</g>
	<g fill="#CCA995">
		<path d="m1074.4 482.9c4.4-1.7 9.2-1.1 13.8-1.2 2.4 0 4.7 0 7.1 0.3-4.9 1.8-9.5 4.4-14.5 5.7-6.6 1.7-12.3 5.6-17.2 10.3-5.3 5.3-9.9 11.2-14.6 17.1-4.2 5.5-9.3 10.4-12.3 16.8-0.3 2.2-1.2 5 0.8 6.7 4.7 4.1 11.3 6.6 17.5 5 9.1-1.7 16.7-7.6 23-14.1 2-2 3.6-4.9 6.6-5.4 4.6-1 9.4-0.6 14 0.3 4.8 0.9 8.7 4 12.9 6.2 19.3 11.6 38.1 24.1 56.9 36.4 13.5 9 27.1 18 40.4 27.3 2.9 2.4 5.1 6.1 4.9 9.9-0.4 4.1-4.2 6.7-7.6 8.3-3.3 1.7-6.9 2.3-10.4 3.5-1.5 2.2-2.4 4.9-4.3 6.9-7.1 7.9-17.9 11.5-28.3 11.9-4.5 10.1-16.2 14.3-26.4 15.6-3 4.3-7.9 6.6-12.9 7.8-5.5 1.3-11.4 1.3-16.6-1.1-4.5-1.7-8.6-4.4-13.4-5.3-1.9-0.5-3.8-1.4-5-3.1-3.3-4.5-5.7-9.5-8.8-14-2.5-3.6-6.5-6.3-10.9-6.8-3.4-0.4-6.2 1.7-9 3.3-1.8-5.1-4-10.1-7.6-14.2-2.3-2.7-5.8-4.3-9.4-4.4-3.4 0-6.2 2.3-8.9 4.2-2.3-4-4.4-8.4-8.4-10.9-3.7-2.8-8.3-4.3-12.9-3.8-1.4 2.5-2.8 5-4.1 7.5-0.3-0.8-0.6-1.6-0.9-2.4 0.5-2.4 2.3-4.2 4.1-5.8-3.5-7-12.2-8.4-19.2-9.2-1.4-0.2-2.7-0.4-4.1-0.6 3.9-20.2 7.5-40.5 11.4-60.7 1.5-9.2 3.9-18.2 4.8-27.4 5 0.4 10.2 1.7 15-0.2 18.1-7 36.1-14.3 54.5-20.4z"/>
		<path d="m1033 627.7c-0.7-3.6-0.2-7.3 1.5-10.6 0.6 4.4 0.4 8.9 0.5 13.4-0.7-0.9-1.4-1.8-2-2.8z"/>
	</g>
		<path d="m946.2 485.9c2.1-2.2 5.4-2.9 8.2-2.2 8.8 2 17.6 4.1 26.4 6 3 0.5 5.8 2.1 7.4 4.8 1.2 2.5 1.3 5.4 0.7 8.1-6.5 33.6-12.6 67.3-19 101l-0.9 3.3c-1.9 4-6.8 5.6-10.9 4.2-8.5-2-17-3.9-25.5-5.9-3.4-0.6-6.3-3.1-7.3-6.4-1.2-3.2 0.1-6.5 0.5-9.6 5.8-32.3 12-64.4 17.7-96.7 0.4-2.3 0.9-4.9 2.7-6.6z" fill="#CC3045"/>
		<path d="m1250.4 483.8c4.6-1.4 9.8 2 10.3 6.8 6 35.1 12.3 70.2 18.4 105.3 0.5 3.3 1.7 6.9 0.1 10.1-1.3 3.1-4.2 5.1-7.4 5.8-8.8 2-17.5 4.3-26.3 6.3-3.9 1-8.2-0.9-9.8-4.6-2.3-9.6-3.6-19.4-5.5-29-4.9-27.2-9.6-54.5-14.7-81.7-0.5-2.5-0.3-5.2 0.8-7.5 1.6-2.9 4.6-4.5 7.8-5.1 8.7-2.1 17.5-4.3 26.3-6.4z" fill="#8AC551"/>
	<g fill="#EEDAC7">
		<path d="m988.2 494.6c4.1 0.8 8.4 0.8 12.2 2.5 2.4 1.2 4 3.7 4.4 6.3-0.9 9.3-3.3 18.3-4.8 27.4-3.9 20.2-7.5 40.5-11.4 60.7-1.5 4.9-0.7 11.2-5.2 14.7-4.2 3.3-9.7 1.3-14.5 0.8 0.4-1.1 0.7-2.2 0.9-3.3 6.5-33.6 12.5-67.4 19-101 0.8-2.7 0.6-5.6-0.6-8.1z"/>
		<path d="m1036.7 531.8c3-6.4 8.1-11.3 12.3-16.8 2.4 0.8 6.3 1.4 6.3 4.6-0.6 4-3 7.5-5.4 10.7-3.2 3.9-8.9 2.4-13.2 1.5z"/>
	</g>
		<path d="m1205.8 497.2c3.4-0.9 7-1.3 10.4-1.9-1.1 2.3-1.3 5-0.8 7.5 5.1 27.2 9.7 54.5 14.7 81.7 1.9 9.7 3.2 19.4 5.5 29-3.4 0.4-6.8 1.4-10.3 1-3.4-0.5-6.5-3.1-7.2-6.6-1-4.6-1.8-9.3-2.6-14-5.2-28.2-9.9-56.5-15.2-84.7-0.5-2.3-0.5-4.7 0-7 1-2.3 2.9-4.4 5.5-5z" fill="#DBEDEE"/>
			<path d="m1126.2 582h0.7c2.1 1 4 2.3 6 3.5 0.8 0.5 1.6 0.9 2.4 1.4 5.2 3.1 10.5 5.8 15.9 8.6 1.1 0.5 2.1 1.1 3.1 1.6 5.2 3 10.7 5.4 16.1 8.2 1 0.4 2 0.9 3 1.3 4.7 2.3 9.6 4.2 14.5 6.3 1.5 0.6 3.1 1.2 4.8 1.4l0.4 0.8c-0.6 0-1.1 0.1-1.7 0.1-2.7-1.2-5.5-1.9-8.3-2.9-1-0.3-2.1-0.7-3.1-1-13.7-4.8-26.5-11.5-38.7-19-5.2-3.4-10.5-6.5-15.1-10.3z" fill="#917053"/>
			<path d="m1110 606.3c2.1 1.1 4.1 2.3 6.2 3.4 10.4 5.1 20.6 10.7 30.8 16.1 3.6 1.8 7 4 10.8 5.5 0.9 0.4 1.8 0.7 2.7 1.1-0.1 0.2-0.2 0.7-0.3 0.9-14.7-5.2-28.5-12.6-41.6-20.7-2.3-1.5-4.5-3-7-4.3-0.7-0.6-1.2-1.3-1.6-2z" fill="#937354"/>
			<path d="m1093 627.2c0.4 0 1.1-0.1 1.4-0.1 3.6 1.9 7.5 3.4 11.1 5.3 5.2 2.3 10.1 5.1 15.3 7.5 4.7 2.6 9.4 5.1 14.4 7l-0.7 0.7c-5.2-1.9-10.4-3.8-15.5-6.1-0.4-0.2-0.8-0.4-1.3-0.6-2.5-1.2-4.9-2.6-7.4-3.7-0.7-0.4-1.4-0.7-2.1-1.1-5.2-2.8-10.3-5.6-15.2-8.9z" fill="#907354"/>
<circle cy="1038.4" cx="637.6" r="189.7" fill="#09C5C5"/>
			<path d="m718.2 998.2c5.3-0.6 10.8 0.2 15.6 2.4 4.3 1.9 8 4.8 10.9 8.5 0.3 0.3 0.7 0.7 1.2 0.5 0.6-0.7 1.1-1.4 1.8-2 4.2-4.6 9.9-7.7 15.9-9 6.3-1.3 13.1-0.4 18.9 2.4 6.1 2.9 11.1 7.9 14 14 2.6 5.3 3.5 11.3 2.8 17.1-1.2 8.3-5 16.1-9.9 22.8-5.3 7.1-11.8 13.3-18.7 18.9-6.5 5.2-13.4 9.9-20.5 14.2-3.2 2.2-7.7 2.2-11 0.2-10.1-6.2-19.9-13.1-28.3-21.4-6.1-6-11.5-12.9-15.1-20.7-1.6-3.6-2.9-7.4-3.6-11.2-1.1-5.1-0.8-10.6 0.7-15.6 2.1-6.4 6.3-12.2 11.9-15.9 4.1-2.9 8.6-4.7 13.4-5.2zm0.6 2.1c-7.5 0.7-14.5 4.7-19.1 10.6-4 5-6.1 11.5-5.9 18 0.1 2.4 0.6 4.7 1.1 7.1 0.7 2.9 1.6 5.7 2.9 8.4 0.6 1.4 1.3 2.8 2.1 4.2 3.1 5.6 7.2 10.7 11.7 15.3 8.5 8.7 18.4 15.8 28.8 22.2 2.6 1.7 6.1 1.7 8.8 0.2 6.5-3.9 12.8-8.1 18.8-12.8 7.1-5.6 13.8-11.7 19.3-18.9 1.4-1.9 2.9-3.8 3.9-5.9h0.1c0.8-1.2 1.4-2.5 2.1-3.8 0.8-1.7 1.6-3.4 2.2-5.2 1.6-4.6 2.7-9.6 2.1-14.5-0.6-5.8-3.1-11.4-7-15.7-4.5-5-11-8.3-17.7-9-5.4-0.7-11 0.4-15.8 2.9-3.4 1.8-6.3 4.2-8.7 7.2-0.8 1-2.3 1.5-3.5 0.9-1.2-0.5-1.8-1.7-2.6-2.5-6.3-6.3-15.1-9.6-23.6-8.7z" fill="#232D2B"/>
	<path d="m797.4 1025.2c-0.6-5.8-3.1-11.4-7-15.7-4.5-5-11-8.3-17.7-9-5.4-0.7-11 0.4-15.8 2.9-3.4 1.8-6.3 4.2-8.7 7.2-0.8 1-2.3 1.5-3.5 0.9-1.2-0.5-1.8-1.7-2.6-2.5-5.8-6.3-14.6-9.6-23.2-8.7-7.5 0.7-14.5 4.7-19.1 10.6-4 5-6.1 11.5-5.9 18 0.1 2.4 0.6 4.7 1.1 7.1 0.7 2.9 1.6 5.7 2.9 8.4 0.6 1.4 1.3 2.8 2.1 4.2 3.1 5.6 7.2 10.7 11.7 15.3 8.5 8.7 18.4 15.8 28.8 22.2 2.6 1.7 6.1 1.7 8.8 0.2 6.5-3.9 12.8-8.1 18.8-12.8 7.1-5.6 13.8-11.7 19.3-18.9 1.4-1.9 2.9-3.8 3.9-5.9h0.1c0.8-1.2 1.4-2.5 2.1-3.8 0.8-1.7 1.6-3.4 2.2-5.2 1.2-4.6 2.3-9.6 1.7-14.5z" fill="#D86359"/>
	<path d="m699 1033.3c-0.4-1.8-0.6-3.6-0.5-5.4-0.1-3.4 0.8-6.7 2.2-9.7 3.4-7.2 10.7-12.4 18.6-13.2 0.9 0 1.9-0.1 2.8 0 0.6 0 1.1 0.5 1.4 1 0.6 1 0.2 2.4-0.7 3-0.7 0.5-1.6 0.3-2.5 0.3-3.8 0.3-7.5 1.7-10.5 4.2-3.6 2.9-6.2 7.2-6.8 11.8-0.4 2.4-0.2 4.9 0.3 7.3 0.1 1-0.6 2-1.6 2.2-1.1 0.1-2.3-0.5-2.7-1.5z" fill="#fff"/>
				<path d="m499.8 1005.5c4.5-0.5 9 0.2 13.1 2 3.6 1.6 6.7 4.1 9.2 7.1 0.2 0.3 0.6 0.6 1 0.4 0.5-0.5 1-1.2 1.5-1.7 3.5-3.8 8.3-6.5 13.4-7.5 5.3-1.1 11-0.4 15.9 2 5.1 2.4 9.3 6.6 11.8 11.7 2.2 4.4 2.9 9.5 2.3 14.4-1 7-4.2 13.5-8.3 19.1-4.4 6-9.9 11.2-15.7 15.8-5.5 4.4-11.3 8.3-17.2 11.9-2.7 1.9-6.5 1.8-9.3 0.2-8.5-5.2-16.7-11-23.8-18-5.1-5.1-9.6-10.8-12.6-17.4-1.4-3-2.4-6.2-3-9.4-0.9-4.3-0.7-8.9 0.6-13.1 1.7-5.4 5.3-10.2 10-13.4 3.3-2.2 7.2-3.6 11.1-4.1zm0.5 1.8c-6.3 0.6-12.2 4-16.1 8.9-3.4 4.2-5.2 9.7-5 15.1 0 2 0.5 4 0.9 5.9 0.6 2.4 1.4 4.8 2.4 7.1 0.5 1.2 1.1 2.4 1.7 3.5 2.6 4.7 6 9 9.8 12.9 7.1 7.3 15.5 13.3 24.2 18.6 2.2 1.4 5.1 1.4 7.4 0.1 5.5-3.3 10.7-6.8 15.8-10.7 6-4.7 11.6-9.8 16.2-15.9 1.2-1.6 2.4-3.2 3.3-5h0.1c0.6-1 1.2-2.1 1.8-3.2 0.7-1.4 1.3-2.9 1.8-4.3 1.3-3.9 2.2-8.1 1.7-12.2-0.5-4.9-2.6-9.6-5.9-13.2-3.8-4.2-9.2-7-14.9-7.5-4.5-0.6-9.2 0.3-13.3 2.5-2.8 1.5-5.3 3.6-7.3 6-0.7 0.9-1.9 1.2-3 0.8-1-0.4-1.5-1.4-2.2-2.1-4.8-5.3-12.2-8.1-19.4-7.3z" fill="#232D2B"/>
		<path d="m566.4 1028.2c-0.5-4.9-2.6-9.6-5.9-13.2-3.8-4.2-9.2-7-14.9-7.5-4.5-0.6-9.2 0.3-13.3 2.5-2.8 1.5-5.3 3.6-7.3 6-0.7 0.9-1.9 1.2-3 0.8-1-0.4-1.5-1.4-2.2-2.1-4.9-5.3-12.3-8.1-19.5-7.3-6.3 0.6-12.2 4-16.1 8.9-3.4 4.2-5.2 9.7-5 15.1 0 2 0.5 4 0.9 5.9 0.6 2.4 1.4 4.8 2.4 7.1 0.5 1.2 1.1 2.4 1.7 3.5 2.6 4.7 6 9 9.8 12.9 7.1 7.3 15.5 13.3 24.2 18.6 2.2 1.4 5.1 1.4 7.4 0.1 5.5-3.3 10.7-6.8 15.8-10.7 6-4.7 11.6-9.8 16.2-15.9 1.2-1.6 2.4-3.2 3.3-5h0.1c0.6-1 1.2-2.1 1.8-3.2 0.7-1.4 1.3-2.9 1.8-4.3 1.4-3.9 2.2-8.1 1.8-12.2z" fill="#D86359"/>
		<path d="m483.7 1035c-0.3-1.5-0.5-3-0.4-4.6-0.1-2.8 0.6-5.6 1.8-8.2 2.9-6 9-10.4 15.6-11.1 0.8 0 1.6-0.1 2.4 0 0.5 0 0.9 0.4 1.2 0.8 0.5 0.8 0.2 2-0.6 2.5-0.6 0.5-1.4 0.3-2.1 0.3-3.2 0.3-6.3 1.4-8.8 3.5-3 2.4-5.2 6-5.7 9.9-0.4 2-0.2 4.1 0.3 6.1 0.1 0.8-0.5 1.7-1.3 1.8-1 0.4-2-0.1-2.4-1z" fill="#fff"/>
	<path opacity=".5" d="m566.4 1028.2c-0.5-4.9-2.6-9.6-5.9-13.2-3.8-4.2-9.2-7-14.9-7.5-4.5-0.6-9.2 0.3-13.3 2.5-2.8 1.5-5.3 3.6-7.3 6-0.7 0.9-1.9 1.2-3 0.8-1-0.4-1.5-1.4-2.2-2.1-4.9-5.3-12.3-8.1-19.5-7.3-6.3 0.6-12.2 4-16.1 8.9-3.4 4.2-5.2 9.7-5 15.1 0 2 0.5 4 0.9 5.9 0.6 2.4 1.4 4.8 2.4 7.1 0.5 1.2 1.1 2.4 1.7 3.5 2.6 4.7 6 9 9.8 12.9 7.1 7.3 15.5 13.3 24.2 18.6 2.2 1.4 5.1 1.4 7.4 0.1 5.5-3.3 10.7-6.8 15.8-10.7 6-4.7 11.6-9.8 16.2-15.9 1.2-1.6 2.4-3.2 3.3-5h0.1c0.6-1 1.2-2.1 1.8-3.2 0.7-1.4 1.3-2.9 1.8-4.3 1.4-3.9 2.2-8.1 1.8-12.2z" fill="#97999C"/>
				<path d="m611.2 1005.5c4.5-0.5 9 0.2 13.1 2 3.6 1.6 6.7 4.1 9.2 7.1 0.2 0.3 0.6 0.6 1 0.4 0.5-0.5 1-1.2 1.5-1.7 3.5-3.8 8.3-6.5 13.4-7.5 5.3-1.1 11-0.4 15.9 2 5.1 2.4 9.3 6.6 11.8 11.7 2.2 4.4 2.9 9.5 2.3 14.4-1 7-4.2 13.5-8.3 19.1-4.4 6-9.9 11.2-15.7 15.8-5.5 4.4-11.3 8.3-17.2 11.9-2.7 1.9-6.5 1.8-9.3 0.2-8.5-5.2-16.7-11-23.8-18-5.1-5.1-9.6-10.8-12.6-17.4-1.4-3-2.4-6.2-3-9.4-0.9-4.3-0.7-8.9 0.6-13.1 1.7-5.4 5.3-10.2 10-13.4 3.3-2.2 7.1-3.6 11.1-4.1zm0.5 1.8c-6.3 0.6-12.2 4-16.1 8.9-3.4 4.2-5.2 9.7-5 15.1 0 2 0.5 4 0.9 5.9 0.6 2.4 1.4 4.8 2.4 7.1 0.5 1.2 1.1 2.4 1.7 3.5 2.6 4.7 6 9 9.8 12.9 7.1 7.3 15.5 13.3 24.2 18.6 2.2 1.4 5.1 1.4 7.4 0.1 5.5-3.3 10.7-6.8 15.8-10.7 6-4.7 11.6-9.8 16.2-15.9 1.2-1.6 2.4-3.2 3.3-5h0.1c0.6-1 1.2-2.1 1.8-3.2 0.7-1.4 1.3-2.9 1.8-4.3 1.3-3.9 2.2-8.1 1.7-12.2-0.5-4.9-2.6-9.6-5.9-13.2-3.8-4.2-9.2-7-14.9-7.5-4.5-0.6-9.2 0.3-13.3 2.5-2.8 1.5-5.3 3.6-7.3 6-0.7 0.9-1.9 1.2-3 0.8-1-0.4-1.5-1.4-2.2-2.1-4.8-5.3-12.2-8.1-19.4-7.3z" fill="#232D2B"/>
		<path d="m677.7 1028.2c-0.5-4.9-2.6-9.6-5.9-13.2-3.8-4.2-9.2-7-14.9-7.5-4.5-0.6-9.2 0.3-13.3 2.5-2.8 1.5-5.3 3.6-7.3 6-0.7 0.9-1.9 1.2-3 0.8-1-0.4-1.5-1.4-2.2-2.1-4.9-5.3-12.3-8.1-19.5-7.3-6.3 0.6-12.2 4-16.1 8.9-3.4 4.2-5.2 9.7-5 15.1 0 2 0.5 4 0.9 5.9 0.6 2.4 1.4 4.8 2.4 7.1 0.5 1.2 1.1 2.4 1.7 3.5 2.6 4.7 6 9 9.8 12.9 7.1 7.3 15.5 13.3 24.2 18.6 2.2 1.4 5.1 1.4 7.4 0.1 5.5-3.3 10.7-6.8 15.8-10.7 6-4.7 11.6-9.8 16.2-15.9 1.2-1.6 2.4-3.2 3.3-5h0.1c0.6-1 1.2-2.1 1.8-3.2 0.7-1.4 1.3-2.9 1.8-4.3 1.4-3.9 2.3-8.1 1.8-12.2z" fill="#D86359"/>
		<path d="m595.1 1035c-0.3-1.5-0.5-3-0.4-4.6-0.1-2.8 0.6-5.6 1.8-8.2 2.9-6 9-10.4 15.6-11.1 0.8 0 1.6-0.1 2.4 0 0.5 0 0.9 0.4 1.2 0.8 0.5 0.8 0.2 2-0.6 2.5-0.6 0.5-1.4 0.3-2.1 0.3-3.2 0.3-6.3 1.4-8.8 3.5-3 2.4-5.2 6-5.7 9.9-0.4 2-0.2 4.1 0.3 6.1 0.1 0.8-0.5 1.7-1.3 1.8-1 0.4-2.1-0.1-2.4-1z" fill="#fff"/>
	<path opacity=".5" d="m677.7 1028.2c-0.5-4.9-2.6-9.6-5.9-13.2-3.8-4.2-9.2-7-14.9-7.5-4.5-0.6-9.2 0.3-13.3 2.5-2.8 1.5-5.3 3.6-7.3 6-0.7 0.9-1.9 1.2-3 0.8-1-0.4-1.5-1.4-2.2-2.1-4.9-5.3-12.3-8.1-19.5-7.3-6.3 0.6-12.2 4-16.1 8.9-3.4 4.2-5.2 9.7-5 15.1 0 2 0.5 4 0.9 5.9 0.6 2.4 1.4 4.8 2.4 7.1 0.5 1.2 1.1 2.4 1.7 3.5 2.6 4.7 6 9 9.8 12.9 7.1 7.3 15.5 13.3 24.2 18.6 2.2 1.4 5.1 1.4 7.4 0.1 5.5-3.3 10.7-6.8 15.8-10.7 6-4.7 11.6-9.8 16.2-15.9 1.2-1.6 2.4-3.2 3.3-5h0.1c0.6-1 1.2-2.1 1.8-3.2 0.7-1.4 1.3-2.9 1.8-4.3 1.4-3.9 2.3-8.1 1.8-12.2z" fill="#97999C"/>
			<path d="m688.7 512.8h0.6c5 0.1 10 1.3 14.5 3.5 6.1 3.1 11.2 8.2 14.3 14.4 2.3 4.5 3.5 9.5 3.5 14.5v0.6c-0.1 5-1.2 9.9-3.5 14.3-3.7 7.3-10.2 13.1-17.9 15.9-3.5 1.3-7.2 1.9-10.8 2h-0.7c-5.5-0.1-11-1.5-15.8-4.3-6.8-3.9-12.1-10.2-14.7-17.6-1.1-3.1-1.7-6.4-1.8-9.8v-1.2c0-5.1 1.3-10.1 3.6-14.6 3.5-7 9.7-12.5 16.9-15.4 3.7-1.5 7.7-2.3 11.8-2.3zm13.7 19.4l-18.7 18.7c-2.6-2.5-5.1-5.1-7.6-7.6-0.7-0.7-1.5-1.4-2.5-1.7-1.4-0.5-3.1-0.1-4.3 0.9-1.4 1.1-2 3.1-1.4 4.8 0.2 0.9 0.8 1.7 1.5 2.3l12.2 12.2c1.1 1.1 3.1 1.2 4.2 0l23.1-23.1c1-0.9 1.5-2.3 1.3-3.6-0.1-1.9-1.7-3.7-3.6-4.1-1.5-0.4-3.2 0.2-4.2 1.2z" fill="#89BF49"/>
		<path d="m702.4 532.2c1.1-1.1 2.7-1.6 4.2-1.2 1.9 0.4 3.4 2.1 3.6 4.1 0.1 1.3-0.4 2.7-1.3 3.6l-23.1 23.1c-1.1 1.1-3.1 1.1-4.2 0l-12.2-12.2c-0.7-0.6-1.3-1.4-1.5-2.3-0.5-1.7 0.1-3.6 1.4-4.8 1.2-1 2.8-1.3 4.3-0.9 1 0.3 1.8 1 2.5 1.7l7.6 7.6 18.7-18.7z" fill="#FDFDFD"/>
	<circle cy="100.5" cx="100.5" r="100.5" fill="#4763C6"/>
	<path d="m167 130h-133c-0.3 0.7-0.4 1.5-0.4 2.3v5.4c0 3.9 3.2 7.1 7 7.1h119.7c3.9 0 7-3.2 7-7.1v-5.4c0.1-0.8-0.1-1.6-0.3-2.3z" fill="#fff"/>
	<rect y="144.9" x="78.1" height="13.8" width="44.7" fill="#D6E1DB"/>
	<path d="m129.7 166.5h-58.5c-1.5 0-2.7-1.2-2.7-2.7v-2.5c0-1.5 1.2-2.7 2.7-2.7h58.5c1.5 0 2.7 1.2 2.7 2.7v2.5c0 1.5-1.2 2.7-2.7 2.7z" fill="#FBFCFB"/>
		<path d="m39.7 50.8c8.4-0.1 16.8 0.1 25.2-0.1v61.5c0 1.1 0.8 2.1 1.8 2.5 1 0.3 2 0.1 3 0.2h63.3c1.2 0.1 2.3-0.7 2.7-1.7 0.4-0.9 0.2-2 0.2-3v-59.4c7.9 0.1 15.9 0 23.8 0 0.5 0 1 0.2 1.4 0.4v72c0 1 0.1 2.1-0.1 3.1-0.3 0.9-1.4 1.1-2.3 1.1h-114.8c-1 0-2 0.1-2.9-0.1-0.9-0.3-1.4-1.2-1.3-2.1v-74.4z" fill="#7BCA7F"/>
	<path d="m33.5 133.5h133.9v-68.8c0-1 0-1.9 0.1-2.9-0.3-4 0-8.1-0.2-12.1-0.9-2.7-3.3-4.9-6.2-5.1-8.4 0-16.7 0.1-25.1 0v6.2c7.9 0.1 15.9 0 23.8 0 0.5 0 1 0.2 1.4 0.4-0.1 9.4 0 18.7 0 28.1v43.9c0 1 0.1 2.1-0.1 3.1-0.3 0.9-1.4 1.1-2.3 1.1h-114.8c-1 0-2 0.1-2.9-0.1-0.9-0.3-1.4-1.2-1.3-2.1v-74.4c8.4-0.1 16.8 0.1 25.2-0.1 0.1-2-0.1-4.1-0.1-6.1-7.8 0.1-15.6 0-23.5 0-1.3 0-2.6-0.1-3.8 0.5-2.3 1-4.4 3.2-4.2 5.8 0.1 27.6 0 55.1 0.1 82.6z" fill="#3B4948"/>
				<path d="m65 34.8c-0.1-1.5 1.4-2.7 2.8-2.6h65.3c1.6-0.1 3.1 1.3 3 2.9v9.2 6.2 59.4c0 1 0.2 2-0.2 3-0.5 1-1.6 1.8-2.7 1.7h-63.3c-1 0-2 0.1-3-0.2-1-0.4-1.8-1.4-1.8-2.5v-61.5c0.1-2-0.1-4.1-0.1-6.1 0.1-3.2-0.1-6.4 0-9.5z" fill="#F2865C"/>
		<circle cy="41.7" cx="81.2" r="2.5" fill="#E77961"/>
		<circle cy="41.7" cx="119.6" r="2.5" fill="#E77961"/>
		<path d="m80.7 40.5c1-0.4 2.2 0.5 2.1 1.6v12.8c-0.1 3.6 0.7 7.2 2.6 10.2 3.5 5.9 10.8 9.4 17.6 8.3 3.7-0.4 7-2.3 9.7-4.7 3.3-3.2 5.4-7.6 5.5-12.2v-14.7c0.1-1.4 2.3-1.8 2.8-0.4 0.4 3.1 0.2 6.2 0.2 9.3 0.1 3 0.1 5.9-0.2 8.9-0.8 4.2-2.8 8.3-5.9 11.3-2.8 2.7-6.3 4.7-10.2 5.4-1.4 0.2-2.7 0.4-4.1 0.5-4 0-8-1.1-11.3-3.3-4.4-2.8-7.7-7.2-9-12.2-0.9-3-0.7-6.2-0.7-9.3 0.1-3.3-0.1-6.6 0.1-10-0.1-0.7 0.3-1.3 0.8-1.5z" fill="#FBFCFB"/>
<circle cy="113.5" cx="553.5" r="100.5" fill="#62D592"/>
<circle cy="113.5" cx="-423.5" r="100.5" fill="#62D592"/>
	<g fill="#EAC09B">
		<path d="m549.8 74.2c3.4-1 6.9-1.6 10.4-1.2 2.7 0.3 5.3 1 7.8 1.9 6.1 2.3 12 5 18.1 7.4 3.5 1.4 7.2 2.6 11 3.1 2.8 0.4 5.5-0.2 8.3-0.4-0.2 1.2-0.2 2.5 0 3.7 2.8 14.9 5.3 29.9 8.1 44.8-1.2 0.1-2.4 0.1-3.5 0.2-7.1-4.9-14.3-9.6-21.4-14.4-10-6.5-19.9-13.2-30.1-19.3-2.2-1.2-4.3-2.8-6.8-3.3-2.4-0.5-5-0.7-7.4-0.2-1.6 0.3-2.4 1.8-3.5 2.9-3.3 3.5-7.4 6.6-12.2 7.5-3.3 0.8-6.8-0.5-9.3-2.7-1.1-0.9-0.6-2.4-0.4-3.5 2.3 0.4 5.3 1.3 7-0.8 1.3-1.7 2.5-3.5 2.9-5.7 0-1.7-2.1-2-3.3-2.4 2.5-3.1 4.9-6.3 7.7-9.1 2.6-2.5 5.6-4.5 9.1-5.4 2.5-0.8 4.9-2.2 7.5-3.1z"/>
		<path d="m495.5 132.4c3.7 0.4 8.3 1.2 10.1 4.9-0.9 0.9-1.9 1.8-2.1 3.1-2.5 0.2-5.4-0.4-7-2.6-1.2-1.5-1.1-3.5-1-5.4z"/>
		<path d="m506.1 137.7c2.5-0.3 4.9 0.5 6.9 2 2.1 1.3 3.2 3.7 4.5 5.8 1.4-1 2.9-2.2 4.7-2.2 1.9 0.1 3.7 0.9 5 2.3 1.9 2.2 3.1 4.8 4 7.5 1.5-0.9 3-1.9 4.8-1.7 2.3 0.2 4.5 1.7 5.8 3.6 1.6 2.4 3 5.1 4.7 7.4 0.6 0.9 1.6 1.4 2.6 1.6-3.2 2.5-7.6 3.7-11.5 2.1-3.1-1.2-5.1-3.9-6.9-6.5-3.1 0.1-6.5 0.1-9.2-1.8-1.7-1.2-2.9-3.2-3.6-5.1-0.1-2.4 0.1-4.7-0.3-7.1-0.9 1.7-1.2 3.7-0.8 5.6-3.6 0-7.4-0.8-10.1-3.4-1.7-1.7-2.4-4-2.8-6.3 0.7-1.1 1.5-2.5 2.2-3.8z"/>
	</g>
		<path d="m538.7 74.6c2.3-0.9 4.9-0.6 7.3-0.7 1.3 0 2.5 0 3.8 0.2-2.6 1-5 2.3-7.7 3-3.5 0.9-6.5 3-9.1 5.4-2.8 2.8-5.3 5.9-7.7 9.1-2.2 2.9-5 5.5-6.5 8.9-0.2 1.2-0.6 2.7 0.4 3.5 2.5 2.2 6 3.5 9.3 2.7 4.8-0.9 8.9-4 12.2-7.5 1.1-1 1.9-2.6 3.5-2.9 2.4-0.5 5-0.3 7.4 0.2 2.5 0.5 4.6 2.1 6.8 3.3 10.2 6.1 20.2 12.8 30.1 19.3 7.2 4.8 14.3 9.5 21.4 14.4 1.5 1.3 2.7 3.2 2.6 5.3-0.2 2.2-2.2 3.5-4 4.4-1.7 0.9-3.7 1.2-5.5 1.9-0.8 1.2-1.3 2.6-2.3 3.6-3.8 4.2-9.5 6.1-15 6.3-2.4 5.3-8.6 7.6-14 8.3-1.6 2.3-4.2 3.5-6.8 4.2-2.9 0.7-6.1 0.7-8.8-0.6-2.4-0.9-4.6-2.4-7.1-2.8-1-0.2-2-0.8-2.6-1.6-1.7-2.4-3-5-4.7-7.4-1.3-1.9-3.5-3.4-5.8-3.6-1.8-0.2-3.3 0.9-4.8 1.7-1-2.7-2.1-5.4-4-7.5-1.2-1.4-3.1-2.3-5-2.3-1.8 0-3.3 1.2-4.7 2.2-1.2-2.1-2.3-4.4-4.5-5.8-2-1.5-4.4-2.3-6.9-2-0.8 1.3-1.5 2.6-2.2 4-0.2-0.4-0.3-0.9-0.5-1.3 0.3-1.3 1.2-2.2 2.1-3.1-1.8-3.7-6.4-4.4-10.1-4.9-0.7-0.1-1.5-0.2-2.2-0.3 2.1-10.7 4-21.4 6-32.1 0.8-4.9 2.1-9.6 2.5-14.5 2.6 0.2 5.4 0.9 8-0.1 9.8-3.8 19.4-7.6 29.1-10.9z" fill="#FCC6AB"/>
		<path d="m516.8 151.3c-0.4-1.9-0.1-3.9 0.8-5.6 0.3 2.4 0.2 4.7 0.3 7.1-0.4-0.5-0.8-1-1.1-1.5z" fill="#CCA995"/>
		<path d="m470.8 76.2c1.1-1.2 2.8-1.5 4.4-1.1 4.7 1.1 9.3 2.1 14 3.2 1.6 0.3 3.1 1.1 3.9 2.5 0.6 1.3 0.7 2.9 0.4 4.3-3.5 17.8-6.6 35.7-10.1 53.5-0.1 0.6-0.3 1.2-0.5 1.8-1 2.1-3.6 2.9-5.8 2.2-4.5-1.1-9-2.1-13.5-3.1-1.8-0.3-3.3-1.6-3.9-3.4-0.6-1.7 0-3.4 0.3-5.1 3.1-17.1 6.3-34.1 9.4-51.2 0.2-1.3 0.5-2.7 1.4-3.6z" fill="#CC3045"/>
		<path d="m631.9 75.1c2.5-0.7 5.2 1.1 5.5 3.6 3.2 18.6 6.5 37.2 9.7 55.8 0.3 1.8 0.9 3.7 0 5.4-0.7 1.6-2.2 2.7-3.9 3.1-4.7 1.1-9.3 2.3-13.9 3.3-2.1 0.5-4.3-0.5-5.2-2.5-1.2-5.1-1.9-10.3-2.9-15.4-2.6-14.4-5.1-28.9-7.8-43.3-0.3-1.3-0.2-2.8 0.4-4 0.8-1.5 2.4-2.4 4.1-2.7 4.7-1 9.4-2.2 14-3.3z" fill="#8AC551"/>
	<g fill="#EEDAC7">
		<path d="m493.1 80.8c2.2 0.4 4.4 0.4 6.5 1.3 1.3 0.6 2.1 2 2.3 3.3-0.5 4.9-1.8 9.7-2.5 14.5-2.1 10.7-4 21.4-6 32.1-0.8 2.6-0.4 5.9-2.7 7.8-2.2 1.8-5.2 0.7-7.7 0.4 0.2-0.6 0.4-1.2 0.5-1.8 3.4-17.8 6.6-35.7 10.1-53.5 0.2-1.2 0.1-2.7-0.5-4.1z"/>
		<path d="m518.8 100.6c1.6-3.4 4.3-6 6.5-8.9 1.2 0.4 3.4 0.7 3.3 2.4-0.3 2.1-1.6 4-2.9 5.7-1.7 2-4.7 1.2-6.9 0.8z"/>
	</g>
		<path d="m608.3 82.2c1.8-0.5 3.7-0.7 5.5-1-0.6 1.2-0.7 2.7-0.4 4 2.7 14.4 5.1 28.9 7.8 43.3 1 5.1 1.7 10.3 2.9 15.4-1.8 0.2-3.6 0.7-5.5 0.5-1.8-0.3-3.4-1.7-3.8-3.5-0.5-2.5-0.9-4.9-1.4-7.4-2.8-14.9-5.2-29.9-8.1-44.8-0.2-1.2-0.3-2.5 0-3.7 0.6-1.4 1.7-2.5 3-2.8z" fill="#DBEDEE"/>
			<path d="m566.1 127.1h0.4c1.1 0.5 2.1 1.2 3.2 1.8 0.4 0.2 0.9 0.5 1.3 0.7 2.7 1.6 5.6 3.1 8.4 4.6 0.6 0.3 1.1 0.6 1.7 0.9 2.8 1.6 5.7 2.9 8.5 4.3 0.5 0.2 1.1 0.5 1.6 0.7 2.5 1.2 5.1 2.2 7.7 3.3 0.8 0.3 1.7 0.7 2.6 0.8 0.1 0.1 0.2 0.3 0.2 0.4-0.3 0-0.6 0-0.9 0.1-1.4-0.6-2.9-1-4.4-1.5-0.6-0.2-1.1-0.4-1.7-0.6-7.2-2.6-14-6.1-20.5-10-2.8-1.8-5.6-3.5-8.1-5.5z" fill="#987658"/>
			<path d="m557.6 140l3.3 1.8c5.5 2.7 10.9 5.6 16.3 8.5 1.9 1 3.7 2.1 5.7 2.9 0.5 0.2 1 0.4 1.4 0.6 0 0.1-0.1 0.4-0.2 0.5-7.8-2.8-15.1-6.6-22-10.9-1.2-0.8-2.4-1.6-3.7-2.3-0.3-0.4-0.6-0.8-0.8-1.1z" fill="#997758"/>
			<path d="m548.6 151h0.8c1.9 1 4 1.8 5.9 2.8 2.8 1.2 5.4 2.7 8.1 4 2.5 1.4 5 2.7 7.6 3.7l-0.4 0.4c-2.8-1-5.5-2-8.2-3.2-0.2-0.1-0.4-0.2-0.7-0.3-1.3-0.6-2.6-1.4-3.9-2-0.4-0.2-0.7-0.4-1.1-0.6-2.8-1.5-5.5-3-8.1-4.8z" fill="#967858"/>
	<circle cy="109" cx="327" r="100.5" fill="#47ACCA"/>
	<path d="m283.6 151.8v-4-1.3-4-1.3-4-1.3-4-1.3-4c0-0.5-0.1-1-0.1-1.5v0.1c-0.3-1-1.2-1.6-2.2-1.7h-1.3-4-1.3-11.9c0 3.7 0.3 7.4 0.9 11 0.1 0.4 0.1 0.7 0.2 1.1 0.2 1.2 0.4 2.3 0.7 3.4 0.1 0.4 0.2 0.7 0.2 1.1 0.3 1.1 0.5 2.1 0.8 3.2l0.3 1.2c0.3 1 0.6 1.9 0.9 2.9 0.1 0.4 0.3 0.8 0.4 1.2 0.3 0.9 0.7 1.8 1 2.8 0.1 0.3 0.2 0.5 0.3 0.7h0.2v0.2c0.3 1 0.8 1.9 1.1 2.8 0.1 0.3 0.3 0.6 0.4 0.9 0.4 0.9 0.9 1.8 1.3 2.7 0.2 0.3 0.3 0.6 0.5 0.9 0.5 0.9 1 1.7 1.5 2.6 0.2 0.3 0.3 0.5 0.4 0.8s0.3 0.4 0.6 0.4h6.4c1.5 0.1 2.8-1.2 2.8-2.7v-7.3c-0.1-0.7-0.1-1.2-0.1-1.6z" fill="#EBE8D6"/>
				<path d="m259.7 122.1c0-1.1 1.3-1.7 2.3-1.7h19.1c2.8 0 5.2 2.5 5.4 5.2h12.2c6.4-0.1 12.8 0.8 18.9 2.9 4.4 1.6 8.6 4 11.4 7.7h18.4c3.5 0 6.9 2.4 8.1 5.7 0.8 1.3 0.8 2.9 0.6 4.3 7.6-2.7 15.3-5.3 22.9-7.9 2.2-0.7 4.7-1.2 7-0.4 2 0.7 3.4 2.6 3.9 4.6 0.8 2.9-1 5.9-3.5 7.4-9.6 5.2-19.2 10.3-28.9 15.3-4.3 2.2-8.7 4.4-13.1 6.5-5.3 2.5-11.5 2.5-17.2 1.7-3.4-0.5-6.6-1.7-9.8-2.7-10.3-3.3-20.6-6.5-30.8-9.8-0.2 1.9-1.4 3.7-3.2 4.5-1.4 0.7-3.1 0.5-4.6 0.5-1.9 0-3.7 0.1-5.6 0-1 0-1.4-1.1-1.9-1.9-7.7-12.5-11.7-27.2-11.6-41.9zm3 1.3c0 3.7 0.3 7.4 0.9 11 0.1 0.4 0.1 0.7 0.2 1.1 0.2 1.2 0.4 2.3 0.7 3.4 0.1 0.4 0.2 0.7 0.2 1.1 0.3 1.1 0.5 2.1 0.8 3.2l0.3 1.2c0.3 1 0.6 1.9 0.9 2.9 0.1 0.4 0.3 0.8 0.4 1.2 0.3 0.9 0.7 1.8 1 2.8 0.1 0.3 0.2 0.5 0.3 0.7h0.2v0.2c0.3 1 0.8 1.9 1.1 2.8 0.1 0.3 0.3 0.6 0.4 0.9 0.4 0.9 0.9 1.8 1.3 2.7 0.2 0.3 0.3 0.6 0.5 0.9 0.5 0.9 1 1.7 1.5 2.6 0.2 0.3 0.3 0.5 0.4 0.8s0.3 0.4 0.6 0.4h6.4c1.5 0.1 2.8-1.2 2.8-2.7v-7.3-1.3-4-1.3-4-1.3-4-1.3-4-1.3-4c0-0.5-0.1-1-0.1-1.5v0.1c-0.3-1-1.2-1.6-2.2-1.7h-1.3-4-1.3c-4.1-0.3-8.1-0.3-12-0.3zm23.8 5v29.9c1.7 0.5 3.3 1.1 5 1.6 8.7 2.7 17.4 5.5 26.1 8.2 3.3 1 6.6 2.3 10.1 2.7 4.6 0.7 9.4 0.9 13.8-0.8 4.2-1.8 8.3-4 12.4-6 10.2-5.2 20.2-10.6 30.3-15.9 1.2-0.5 2.2-1.4 2.8-2.5 1.2-2.1-0.4-5.1-2.7-5.3-1.6-0.2-3.1 0.2-4.6 0.7-8.3 2.9-16.6 5.8-24.9 8.6-0.4 0.1-0.6 0.4-0.9 0.7-1.5 1.6-3.6 2.7-5.8 2.8-9.3 0.1-18.6 0-28 0-0.9 0.2-1.8-0.9-1.4-1.7 0.2-0.5 0.6-0.7 1.1-0.8 9.1 0.1 18.3 0 27.4 0 1.7 0.1 3.4-0.6 4.5-1.8 1.1-1.3 1.7-3.1 1.5-4.9-0.2-2-1.8-3.7-3.6-4.4-1.4-0.6-3-0.4-4.5-0.4h-16.8c-0.9 0.1-1.3-0.8-1.7-1.3-2.4-3-5.8-5-9.4-6.3-5-1.8-10.2-2.7-15.5-2.9h-10.3c-1.5-0.2-3.2-0.2-4.9-0.2z" fill="#0B1010"/>
		<g fill="#CAA082">
			<path d="m286.5 128.4h5c0 1.4-0.1 2.7 0 4.1 0.1 1.8-0.1 3.5 0 5.3s-0.1 3.6 0 5.3c0.1 1.8-0.1 3.5 0 5.3 0.1 1.7-0.1 3.4 0 5 0.1 2.1-0.1 4.3 0 6.4-1.7-0.5-3.3-1-5-1.6v-29.8z"/>
			<path d="m348.9 146.2c1.8 0 3.1-1.4 4.4-2.4 0.3 1.7-0.4 3.5-1.5 4.9-1.1 1.2-2.8 1.9-4.5 1.8h-27.4c0.7-1.8 1.6-3.7 3.6-4 2.3-0.6 24.6-0.3 25.4-0.3z"/>
		</g>
			<path d="m291.6 128.4h10.3c5.3 0.2 10.5 1.1 15.5 2.9 3.5 1.4 7 3.3 9.4 6.3 0.4 0.6 0.9 1.4 1.7 1.3h16.8c1.5 0 3-0.2 4.5 0.4 1.9 0.7 3.4 2.4 3.6 4.4-1.3 1.1-2.6 2.4-4.4 2.4-2.2 0.3-4.4 0.2-6.6 0.1-2.2 0.3-4.5-0.2-6.7 0.1-1.5 0.1-3.1-0.2-4.6 0-2.4 0.3-4.7-0.3-7.1 0.2-2 0.3-3.3 2.1-4.1 3.8-0.4 0.2-0.9 0.4-1.1 0.8-0.4 0.9 0.5 1.9 1.4 1.7h28c2.2-0.1 4.3-1.2 5.8-2.8 0.3-0.3 0.5-0.6 0.9-0.7 8.3-2.9 16.6-5.8 24.9-8.6 1.5-0.5 3-0.9 4.6-0.7 2.4 0.3 3.9 3.3 2.7 5.3-0.6 1.2-1.7 2-2.8 2.5-10.1 5.3-20.2 10.7-30.3 15.9-4.1 2.1-8.2 4.2-12.4 6-4.4 1.7-9.2 1.5-13.8 0.8-3.5-0.5-6.8-1.7-10.1-2.7-8.7-2.7-17.4-5.5-26.1-8.2 0-2.1 0.1-4.3 0-6.4-0.1-1.7 0.1-3.4 0-5-0.1-1.8 0.1-3.5 0-5.3s0.1-3.6 0-5.3c-0.1-1.8 0.1-3.5 0-5.3-0.1-1.2-0.1-2.6 0-3.9z" fill="#DEB08E"/>
					<path d="m311.4 44.4c4.7-0.6 9.5 0.2 13.8 2.1 3.8 1.7 7.1 4.3 9.7 7.5 0.2 0.3 0.6 0.6 1 0.5 0.5-0.6 1-1.2 1.6-1.8 3.7-4 8.7-6.8 14.1-7.9 5.6-1.2 11.6-0.4 16.7 2.1 5.4 2.6 9.8 7 12.4 12.3 2.3 4.6 3.1 10 2.4 15.1-1.1 7.3-4.4 14.2-8.8 20.1-4.7 6.3-10.4 11.7-16.5 16.7-5.7 4.6-11.8 8.7-18.1 12.5-2.8 2-6.8 1.9-9.7 0.2-8.9-5.5-17.5-11.5-25-18.9-5.4-5.3-10.1-11.4-13.3-18.3-1.4-3.2-2.5-6.5-3.2-9.9-1-4.5-0.7-9.3 0.6-13.8 1.8-5.7 5.6-10.7 10.5-14.1 3.6-2.4 7.6-3.9 11.8-4.4zm0.5 1.9c-6.6 0.6-12.8 4.2-16.9 9.4-3.5 4.5-5.4 10.2-5.2 15.9 0 2.1 0.5 4.2 0.9 6.3 0.6 2.6 1.4 5.1 2.5 7.5 0.5 1.3 1.2 2.5 1.8 3.7 2.8 5 6.3 9.4 10.3 13.5 7.5 7.7 16.3 14 25.4 19.6 2.3 1.5 5.4 1.5 7.7 0.1 5.7-3.5 11.3-7.2 16.6-11.3 6.3-4.9 12.2-10.3 17.1-16.7 1.2-1.7 2.5-3.4 3.5-5.2h0.1c0.7-1.1 1.3-2.2 1.8-3.4 0.7-1.5 1.4-3 1.9-4.6 1.4-4.1 2.3-8.5 1.8-12.8-0.5-5.1-2.7-10.1-6.2-13.9-4-4.4-9.7-7.4-15.6-7.9-4.8-0.6-9.7 0.3-14 2.6-3 1.5-5.6 3.7-7.7 6.3-0.7 0.9-2 1.3-3.1 0.8-1-0.4-1.5-1.5-2.3-2.2-5-5.6-12.8-8.6-20.4-7.7z" fill="#232D2B"/>
			<path d="m381.4 68.2c-0.5-5.1-2.7-10.1-6.2-13.9-4-4.4-9.7-7.4-15.6-7.9-4.8-0.6-9.7 0.3-14 2.6-3 1.5-5.6 3.7-7.7 6.3-0.7 0.9-2 1.3-3.1 0.8-1-0.4-1.5-1.5-2.3-2.2-5.1-5.6-12.9-8.5-20.5-7.7-6.6 0.6-12.8 4.2-16.9 9.4-3.5 4.5-5.4 10.2-5.2 15.9 0 2.1 0.5 4.2 0.9 6.3 0.6 2.6 1.4 5.1 2.5 7.5 0.5 1.3 1.2 2.5 1.8 3.7 2.8 5 6.3 9.4 10.3 13.5 7.5 7.7 16.3 14 25.4 19.6 2.3 1.5 5.4 1.5 7.7 0.1 5.7-3.5 11.3-7.2 16.6-11.3 6.3-4.9 12.2-10.3 17.1-16.7 1.2-1.7 2.5-3.4 3.5-5.2h0.1c0.7-1.1 1.3-2.2 1.8-3.4 0.7-1.5 1.4-3 1.9-4.6 1.4-4.1 2.4-8.4 1.9-12.8z" fill="#D86359"/>
			<path d="m294.5 75.4c-0.4-1.6-0.5-3.2-0.5-4.8-0.1-3 0.7-5.9 1.9-8.6 3-6.3 9.4-11 16.4-11.6 0.8 0 1.7-0.1 2.5 0 0.5 0 1 0.4 1.2 0.9 0.5 0.9 0.2 2.1-0.6 2.6-0.6 0.5-1.5 0.3-2.2 0.3-3.4 0.3-6.6 1.5-9.2 3.7-3.2 2.6-5.4 6.4-6 10.4-0.4 2.1-0.2 4.3 0.3 6.4 0.1 0.9-0.5 1.7-1.4 1.9-1 0.2-2.1-0.3-2.4-1.2z" fill="#fff"/>
				<path d="m365.6 90.4h0.3c2.6 0 5.3 0.7 7.7 1.9 3.2 1.6 5.9 4.4 7.6 7.6 1.2 2.4 1.8 5 1.9 7.7v0.3c0 2.6-0.7 5.3-1.9 7.6-1.9 3.9-5.4 7-9.5 8.4-1.8 0.7-3.8 1-5.7 1h-0.4c-2.9 0-5.8-0.8-8.4-2.3-3.6-2-6.4-5.4-7.8-9.3-0.6-1.7-0.9-3.4-1-5.2v-0.6c0-2.7 0.7-5.4 1.9-7.8 1.9-3.7 5.1-6.6 9-8.2 2-0.6 4.2-1 6.3-1.1zm7.3 10.4l-9.9 9.9c-1.4-1.3-2.7-2.7-4-4-0.4-0.4-0.8-0.8-1.3-0.9-0.8-0.2-1.6-0.1-2.3 0.5s-1 1.6-0.8 2.5c0.1 0.5 0.4 0.9 0.8 1.2l6.4 6.4c0.6 0.6 1.6 0.6 2.2 0l12.2-12.2c0.5-0.5 0.8-1.2 0.7-1.9-0.1-1-0.9-2-1.9-2.2-0.7-0.2-1.6 0.1-2.1 0.7z" fill="#89BF49"/>
			<path d="m372.9 100.8c0.6-0.6 1.4-0.8 2.2-0.7 1 0.2 1.8 1.1 1.9 2.2 0.1 0.7-0.2 1.4-0.7 1.9l-12.2 12.2c-0.6 0.6-1.7 0.6-2.2 0-2.2-2.1-4.3-4.3-6.4-6.4-0.4-0.3-0.7-0.7-0.8-1.2-0.3-0.9 0-1.9 0.8-2.5 0.6-0.5 1.5-0.7 2.3-0.5 0.5 0.1 0.9 0.5 1.3 0.9l4 4c3.2-3.3 6.5-6.6 9.8-9.9z" fill="#FDFDFD"/>
			<path d="m-334.7 62.2c9.4 13.8 15.4 30 17.3 46.6 0.1 0.6 0 1.3-0.8 1.5-10.7 5.1-21.4 10.3-32.1 15.4l-1.2-2.1-20.7-37.5c-0.4-0.7-0.8-1.5-1.2-2.2 13-7.2 25.8-14.5 38.7-21.7z" fill="#8AC551"/>
			<path d="m-529.7 112.6c1.3-17.1 7-33.8 16.2-48.2 13.3 7.1 26.6 14 39.9 21-0.4 0.7-0.7 1.5-1.1 2.2-6.6 12.7-13.1 25.4-19.7 38.1-0.4 0.7-0.7 1.4-1.1 2.1-11.3-5.1-22.8-10.2-34.2-15.2z" fill="#CC3045"/>
		<path d="m-381.1 90.5l9-4.5 20.7 37.5c-2.3 1.5-4.7 2.9-7 4.3-0.6-0.9-1.2-1.9-1.8-2.8-6.2-10.3-12.6-20.6-18.8-31-0.7-1.1-1.4-2.3-2.1-3.5z" fill="#DBEDEE"/>
		<path d="m-474.6 87.6c3 1.4 6.1 2.8 9.1 4.2-0.8 1.5-1.7 3-2.5 4.5-5.8 10.2-11.7 20.4-17.5 30.6-0.5 1-1.1 1.9-1.7 2.8-2.4-1.3-4.7-2.8-7.1-4.1 6.6-12.6 13.1-25.3 19.7-38z" fill="#EEDAC7"/>
	<g fill="#EBC5A0">
		<path d="m-465.6 97.3c12.1-3.3 24.7-5.2 37.3-4.2 5.8 0.5 11.7 1.1 17.2 3.3 1.9 1.9 4.5 3.1 6.3 5.2 2.5 2.2 4.7 4.7 6.2 7.6 1.1 4.3 0.6 9 2.6 13.1 1.2 3.5 3 7.2 1.8 11-0.9 3.5-5.1 4.9-8.3 3.9-5.2-1.9-8.9-6.8-10.1-12.1-0.7-1.9-0.4-4-0.6-5.9-3.8-0.4-7.1-2.4-10-4.8-3 2.3-5.5 5.2-8.4 7.6-7.5 7-15 13.9-22.5 20.9-2.9 2.4-5.4 5.3-8.3 7.7-8.7-6.8-16.4-14.9-23-23.7 5.8-10.2 11.6-20.4 17.5-30.6 0.6 0.4 1.4 1.2 2.3 1z"/>
		<path d="m-386.7 146.3c1-2.6 3-5.1 5.9-5.6 2.3-0.1 4.4 1.1 6.2 2.3 1.6 1.4 3.2 3.1 3.4 5.3 0.1 1.9-0.9 3.7-2 5.1-1.2 1.4-2.8 2.8-4.7 2.8-2.5-0.3-4.6-1.9-6.5-3.4-1.5-1.7-2.9-4-2.3-6.5z"/>
		<path d="m-442.7 149.5c0.9-0.9 2-2.1 3.4-1.5 0.1 0.3 0.2 0.9 0.3 1.2-1 1.1-2.3 2-3.4 3-2.5 2.1-4.9 4.3-7.4 6.2-0.6-0.3-1.1-0.5-1.7-0.8 2.9-2.6 6-5.2 8.8-8.1z"/>
		<path d="m-397.9 156.4c0.8-2.5 2.7-4.9 5.4-5.4 2.7-0.7 5 1.5 7.2 2.7 1.7 1.8 3.8 3.5 4.5 6 0.3 2.4-1 4.6-2.5 6.3-1.3 1.3-3.1 2.6-5 2.1-2.8-0.9-5-2.8-7.2-4.8-1.1-1.3-2.1-2.6-2.8-4.1-0.4-1 0.2-2 0.4-2.8z"/>
		<path d="m-428.7 157.7c0.6-0.6 1.9-0.9 2.3 0.1 0.2 0.8-0.6 1.2-1 1.7-3.1 2.6-6 5.3-9.1 8l-1.5-1.2c3.1-3 6.2-5.9 9.3-8.6z"/>
		<path d="m-409.5 169.6c0.1-4 3.2-8 7.4-7.9 1.9 0.5 3.6 1.6 5.3 2.7 1.9 1.6 4.1 3.5 4.5 6.1 0.1 2.4-1.3 4.7-3 6.3-1.2 1.1-2.9 2.1-4.7 1.6-2.8-0.9-5.1-2.7-7.1-4.7-0.9-1.2-2-2.5-2.4-4.1z"/>
		<path d="m-419.4 167c0.8-0.8 1.7-2.1 3-1.4 0.2 0.7 0.3 1.4-0.4 1.9-2.3 1.9-4.4 4.2-6.6 6.3-0.6-0.3-1.2-0.6-1.7-0.8 1.8-2.1 3.8-4 5.7-6z"/>
		<path d="m-418.5 178.4c0.4-2.6 2.1-5.2 4.8-5.8 2.1-0.6 3.9 1 5.6 2 1.5 1.2 3 2.5 3.7 4.4 0.4 1.7-0.4 3.5-1.4 4.9-1.1 1.5-3 2.9-4.9 2.3-2.3-0.7-4.2-2.4-5.9-4.1-0.8-1.1-1.8-2.2-1.9-3.7z"/>
	</g>
		<path d="m-384.1 95.7c1.8 0 3.5-0.8 5.1-1.6 6.3 10.3 12.6 20.6 18.8 31-1.6 1.3-3.3 2.5-4.1 4.5-0.6 1.7-1.6 3.3-2.7 4.8-2.3 3.1-4.9 6-7.6 8.8-1.8-1.2-3.9-2.4-6.2-2.3-2.9 0.5-4.9 3-5.9 5.6-0.7 2.4 0.8 4.8 2.3 6.6-0.2 0.2-0.7 0.6-0.9 0.8-2.2-1.2-4.5-3.4-7.2-2.7-2.7 0.5-4.6 2.9-5.4 5.4-0.2 0.9-0.8 1.9-0.3 2.8 0.7 1.5 1.7 2.9 2.8 4.1-0.5 0.4-0.9 0.8-1.4 1.2-1.6-1.1-3.3-2.2-5.3-2.7-4.2-0.1-7.4 3.9-7.4 7.9 0.3 1.6 1.5 2.8 2.4 4.1-0.4 0.3-0.7 0.6-1 1-1.7-1-3.5-2.6-5.6-2-2.6 0.6-4.4 3.3-4.8 5.8 0 1.4 1 2.6 1.8 3.7-2.2 1.7-4.1 3.9-6.6 5.2-3 1.5-6.9-1-7.1-4.3-0.1-1.2 0.4-2.4 1.2-3.3 1.8-2.1 3.7-4.1 5.7-6 2.2-2.1 4.3-4.3 6.6-6.3 0.7-0.4 0.6-1.2 0.4-1.9-1.3-0.7-2.2 0.6-3 1.4-1.9 2-3.9 3.9-5.8 5.9-3.4 3.4-6.8 6.9-10.4 10-2.2 1.9-5.6 1.9-7.9 0.1-1.5-1.1-2.6-2.8-2.7-4.7-0.1-1.6 1.1-2.8 2.1-3.9 2.4-2.5 4.9-4.9 7.5-7.1 3-2.6 6-5.4 9.1-8 0.4-0.5 1.2-0.9 1-1.7-0.4-0.9-1.7-0.7-2.3-0.1-3.2 2.8-6.3 5.6-9.3 8.5-3.5 3.3-7.1 6.6-10.6 9.9-1 1-2.4 1.7-3.9 1.4-2.5-0.4-4.6-2.3-5.9-4.5-1.2-2-1.4-4.7 0.3-6.5 2.6-2.9 5.5-5.4 8.4-8 2.6-2 4.9-4.2 7.4-6.2 1.2-1 2.4-1.9 3.4-3-0.1-0.3-0.2-0.9-0.3-1.2-1.4-0.6-2.5 0.6-3.4 1.5-2.9 2.9-6 5.4-8.9 8.2-2.6 2.4-5.3 4.7-7.9 7.1-1.3 1.1-2.9 2.1-4.7 1.8-2.3-0.3-3.9-2.4-4.7-4.5-0.7-1.9-0.8-4.4 0.7-5.9 1.8-1.9 3.6-3.8 5.6-5.5 2.9-2.4 5.4-5.3 8.3-7.7 7.5-7 15-13.9 22.5-20.9 2.9-2.5 5.4-5.3 8.4-7.6 2.9 2.4 6.2 4.4 10 4.8 0.2 2-0.1 4 0.6 5.9 1.3 5.3 5 10.1 10.1 12.1 3.2 1 7.4-0.5 8.3-3.9 1.2-3.7-0.6-7.5-1.8-11-2-4.1-1.6-8.8-2.6-13.1-1.5-2.9-3.7-5.5-6.2-7.6-1.8-2.1-4.3-3.3-6.3-5.2 3.6-0.5 7.2-0.3 10.7-0.5 5.7-0.3 11.2-0.3 16.6-0.5z" fill="#FDE5B9"/>
</svg>
