<?xml version="1.0" encoding="utf-8"?>
<!-- Generator: Adobe Illustrator 19.0.0, SVG Export Plug-In . SVG Version: 6.00 Build 0)  -->
<svg version="1.1" id="Layer_1" xmlns="http://www.w3.org/2000/svg" xmlns:xlink="http://www.w3.org/1999/xlink" x="0px" y="0px"
	 viewBox="-78.3 834.9 538.7 103.5" style="enable-background:new -78.3 834.9 538.7 103.5;" xml:space="preserve">
<style type="text/css">
	.st0{opacity:0.5;}
	.st1{fill:#051633;}
</style>
<g class="st0">
	<path class="st1" d="M35.8,854.7c0-1.1-0.6-1.6-1.6-1.6h-3.1v-2.7h3.5c2.9,0,4.1,1.2,4.1,3.9v2c0,1.6-0.1,2.9-0.1,2.9h0.1
		c1.2-3.3,6-9.6,14.9-9.6c9.2,0,11.7,5.5,11.7,13.8v18.2c0,1.1,0.6,1.6,1.6,1.6H70v2.7h-3.5c-2.9,0-4.1-1.2-4.1-4.1v-17.3
		c0-6.2-0.8-12-8.7-12c-6.7,0-12.6,4.7-14.3,11.3c-0.4,1.5-0.6,3.1-0.6,4.8V886h-3V854.7z"/>
	<path class="st1" d="M91.9,849.6c9.6,0,14.5,7.6,14.5,16.2c0,0.8-0.1,1.9-0.1,1.9H77.8c0,10.3,7,16.2,15.2,16.2
		c6.8,0,11-4.5,11-4.5l1.6,2.5c0,0-5,4.9-12.6,4.9c-10,0-18.3-7.2-18.3-18.5C74.7,856.3,82.9,849.6,91.9,849.6z M103.3,865
		c-0.4-8.7-5.5-12.6-11.4-12.6c-6.5,0-12.6,4.3-13.8,12.6H103.3z"/>
	<path class="st1" d="M156.9,835.4c7.3,0,18.4,3.1,18.4,10.2v3.5h-3.1v-2.8c0-5.1-8.9-7.9-15.3-7.9c-12,0-21.1,9.6-21.1,22.3
		c0,12.8,9.1,23.1,21.4,23.1c10.6,0,16.8-7.1,16.8-7.1l1.9,2.2c0,0-6.7,7.9-18.7,7.9c-14.3,0-24.5-11.6-24.5-26
		S143.1,835.4,156.9,835.4z"/>
	<path class="st1" d="M184.8,840.6c0-1.1-0.6-1.6-1.6-1.6h-3.1v-2.7h3.5c2.9,0,4.1,1.2,4.1,4.1v41.3c0,1.1,0.6,1.6,1.6,1.6h3.1v2.7
		h-3.5c-2.9,0-4.1-1.2-4.1-4.1V840.6z"/>
	<path class="st1" d="M201.1,854.7c0-1.1-0.6-1.6-1.6-1.6h-3.1v-2.7h3.5c2.9,0,4.1,1.2,4.1,4.1v27.1c0,1.1,0.6,1.6,1.6,1.6h3.1v2.7
		h-3.5c-2.9,0-4.1-1.2-4.1-4.1V854.7z M200.7,836.3h3.3v5.2h-3.3V836.3z"/>
	<path class="st1" d="M232.1,849.6c3.8,0,12.5,1.6,12.5,7.4v2.7h-3v-2.1c0-3.5-6.1-5.1-9.5-5.1c-8.3,0-15.2,6.2-15.2,15.8
		c0,9.4,6.9,15.6,15.2,15.6c7.8,0,11.8-5.1,11.8-5.1l1.6,2.5c0,0-4.6,5.5-13.4,5.5c-10,0-18.3-7.2-18.3-18.5
		C213.8,857,222.3,849.6,232.1,849.6z"/>
	<path class="st1" d="M253.8,840.6c0-1.1-0.6-1.6-1.6-1.6h-3.1v-2.7h3.5c2.9,0,4.1,1.2,4.1,4.1v24.1h4.1c1.4,0,3.3-0.6,4.3-1.8
		l10-12.2h4l-10.8,12.8c-1.8,2.1-2.7,2.4-2.7,2.4v0.1c0,0,1,0.4,2.1,2.5l7.5,13.3c0.7,1.3,1.3,1.6,3.4,1.6h1.7v2.7h-1.8
		c-3.8,0-4.7-0.6-6.5-3.8l-7.5-13.4c-0.8-1.4-2.6-1.6-4-1.6h-3.8V886h-3V840.6z"/>
	<path class="st1" d="M302.4,883.1h2.8c1,0,1.5-0.5,1.6-1.6l3.6-45.3h3l14.5,31.2c1.1,2.4,2.4,5.6,2.4,5.6h0.1c0,0,1.3-3.2,2.4-5.6
		l14.5-31.2h3l3.6,45.3c0.1,1.1,0.6,1.6,1.6,1.6h2.8v2.8h-3.3c-2.9,0-3.9-1.2-4.1-4.1l-2.7-33.8c-0.2-2.4-0.2-6.6-0.2-6.6h-0.1
		c0,0-1.4,4.2-2.6,6.6l-13.3,28.3h-3.1l-13.3-28.3c-1.1-2.3-2.6-6.7-2.6-6.7h-0.1c0,0,0,4.3-0.2,6.7l-2.7,33.8
		c-0.2,2.9-1.2,4.1-4.1,4.1h-3.3V883.1z"/>
	<path class="st1" d="M381.4,849.6c10.1,0,18.4,8,18.4,18.4c0,10.6-8.2,18.8-18.4,18.8c-10.1,0-18.4-8.2-18.4-18.8
		C363,857.7,371.3,849.6,381.4,849.6z M381.4,883.9c8.4,0,15.3-6.9,15.3-15.9c0-8.8-6.8-15.5-15.3-15.5c-8.4,0-15.3,6.7-15.3,15.5
		C366.1,877,373,883.9,381.4,883.9z"/>
	<path class="st1" d="M409.2,854.7c0-1.1-0.6-1.6-1.6-1.6h-3.1v-2.7h3.5c2.9,0,4.1,1.2,4.1,3.9v2.5c0,1.6-0.1,2.9-0.1,2.9h0.1
		c1.8-5.5,5.6-9.6,11.2-9.6c1.1,0,2.1,0.2,2.1,0.2v3c0,0-0.9-0.1-1.6-0.1c-5.5,0-9,4.7-10.6,9.9c-0.8,2.5-1.1,5.1-1.1,7.4V886h-3
		V854.7z"/>
	<path class="st1" d="M445.9,849.6c9.6,0,14.5,7.6,14.5,16.2c0,0.8-0.1,1.9-0.1,1.9h-28.5c0,10.3,7,16.2,15.2,16.2
		c6.8,0,11-4.5,11-4.5l1.6,2.5c0,0-5,4.9-12.6,4.9c-10,0-18.3-7.2-18.3-18.5C428.6,856.3,436.8,849.6,445.9,849.6z M457.2,865
		c-0.4-8.7-5.5-12.6-11.4-12.6c-6.5,0-12.6,4.3-13.8,12.6H457.2z"/>
	<g>
		<path class="st1" d="M-57.4,835.4c4-0.9,8.4-0.7,12.2,1c5.2,2.2,9.2,6.5,12.1,11.2c0.8,1.3,1.6,2.6,2.1,4c0.4,1.2-0.8,2.5-2,2.2
			c-1.1-0.2-1.4-1.4-1.8-2.2c-1.9-3.6-4.4-6.9-7.5-9.4c-2.6-2-5.7-3.4-9-3.7c-6-0.3-12.2,1.9-16.5,6c-3.5,3.2-5.8,7.7-6.6,12.3
			c-0.9,5.4,0,11.1,2.9,15.8c2.9,4.8,7.8,8.4,13.2,9.8c2.9,0.7,6,1,8.9,0.4c2.7-0.6,5.1-2.1,7.2-3.8c2.9-2.4,5.3-5.4,7.5-8.4
			c6.4-8.7,11.3-18.5,18.4-26.6c3.5-3.9,7.8-7.5,13-8.7c4.5-0.9,9.2-0.1,13.3,1.6c7,3,12.7,9.1,15,16.4c0.7,2,0.9,4.1,1.2,6.1v2.8
			c-0.3,3.6-1.2,7.2-3,10.4c-4.2,7.9-12.6,13.6-21.6,14c-4.2,0.3-8.5-0.8-12.2-2.8c-4.7-2.5-8.7-6.1-11.9-10.3
			c-0.5-0.6-1.1-1.4-0.8-2.2c0.3-1.3,2.1-1.8,3-0.7c3.5,4.8,8.1,9.1,13.8,11.3c4,1.6,8.4,1.7,12.5,0.6c5.4-1.3,10.2-4.8,13.2-9.4
			c5-7.5,4.8-18.1-0.5-25.4c-4.4-6.4-12.5-10-20.2-9.2c-4.6,0.7-8.4,3.7-11.4,7c-5,5.5-8.8,11.9-12.8,18.1
			c-3.9,6-7.8,12.2-13.2,17.1c-3.3,3-7.4,5.4-11.9,5.9c-6.6,0.5-13.2-1.9-18.2-6.1c-4.5-3.8-7.7-9.1-8.8-14.9
			c-0.2-1.1-0.3-2.2-0.5-3.4v-2.8c0.3-4.3,1.6-8.5,3.9-12.1C-70.6,841.3-64.4,836.8-57.4,835.4z"/>
	</g>
</g>
<g class="st0">
	<path class="st1" d="M45.3,916.7h-1.7v-2.8h11c1.2,0,1.7,0.5,1.7,1.7v2.8h-3v-1.1c0-0.4-0.2-0.6-0.6-0.6h-4.1v4.8h5.9v2.8h-5.9v4.3
		c0,0.4,0.2,0.6,0.6,0.6h4.2c0.4,0,0.6-0.2,0.6-0.6v-1.1h3v2.8c0,1.2-0.5,1.7-1.7,1.7H47c-1.2,0-1.7-0.5-1.7-1.7V916.7z"/>
	<path class="st1" d="M58.8,922.2c-0.1-0.3-0.4-0.5-0.7-0.5h-0.3v-2.8h1.9c1.1,0,1.6,0.3,1.9,1.2L64,927c0.3,0.8,0.5,1.9,0.5,1.9
		h0.1c0,0,0.2-1.1,0.5-1.9l2.5-6.9c0.3-0.9,0.9-1.2,1.9-1.2h1.7v2.8h-0.3c-0.4,0-0.6,0.1-0.7,0.5l-3.7,9.8h-3.9L58.8,922.2z"/>
	<path class="st1" d="M78.6,918.6c3.7,0,5.8,2.7,5.8,6.2c0,0.4-0.1,1.2-0.1,1.2h-9c0.3,2.3,1.9,3.5,3.9,3.5c2.1,0,3.7-1.5,3.7-1.5
		l1.4,2.3c0,0-2,2-5.2,2c-4.3,0-7-3.1-7-6.8C72,921.5,74.7,918.6,78.6,918.6z M81.1,923.8c-0.1-1.6-1.1-2.6-2.5-2.6
		c-1.7,0-2.8,1-3.2,2.6H81.1z"/>
	<path class="st1" d="M87.5,922.3c0-0.4-0.2-0.6-0.6-0.6h-1v-2.8h3c1.2,0,1.7,0.5,1.7,1.6v0.8c0,0.5-0.1,0.8-0.1,0.8h0.1
		c0.6-1.9,2.2-3.4,4.1-3.4c0.3,0,0.6,0.1,0.6,0.1v3.2c0,0-0.3-0.1-0.8-0.1c-1.4,0-3,0.8-3.6,2.7c-0.2,0.6-0.3,1.4-0.3,2.1v5.2h-3.2
		V922.3z"/>
	<path class="st1" d="M99.4,934.6c0.9,0,1.7-0.5,2.2-1.7l0.4-1l-4.4-9.8c-0.2-0.4-0.3-0.5-0.7-0.5h-0.4v-2.8h2.2
		c0.9,0,1.4,0.3,1.7,1.2l2.6,6.5c0.3,0.7,0.5,1.7,0.5,1.7h0.1c0,0,0.2-1.1,0.4-1.7l2.2-6.5c0.3-0.9,0.8-1.2,1.7-1.2h2.2v2.8h-0.4
		c-0.4,0-0.6,0.1-0.7,0.5l-4.7,11.8c-0.9,2.4-2.8,3.4-4.7,3.4c-2,0-3.3-1.3-3.3-1.3l1.3-2.3C97.6,933.7,98.4,934.6,99.4,934.6z"/>
	<path class="st1" d="M112.6,921.5h-1.7v-2.6h1.8v-3.6h3.2v3.6h3v2.6h-3v5.3c0,2.2,1.7,2.5,2.6,2.5c0.4,0,0.6-0.1,0.6-0.1v2.8
		c0,0-0.4,0.1-1,0.1c-1.8,0-5.4-0.5-5.4-4.9V921.5z"/>
	<path class="st1" d="M121.8,917.2c0-0.4-0.2-0.6-0.6-0.6h-1v-2.8h3.1c1.2,0,1.7,0.5,1.7,1.7v4.6c0,0.6-0.1,1.1-0.1,1.1h0.1
		c0.6-1.3,2.2-2.6,4.5-2.6c2.9,0,4.6,1.5,4.6,5v5.1c0,0.4,0.2,0.6,0.6,0.6h1v2.7h-3.1c-1.2,0-1.7-0.5-1.7-1.7v-6
		c0-1.6-0.4-2.7-2.1-2.7c-1.7,0-3,1.1-3.5,2.7c-0.2,0.5-0.2,1.1-0.2,1.7v6h-3.3V917.2z"/>
	<path class="st1" d="M138.4,922.3c0-0.4-0.2-0.6-0.6-0.6h-1v-2.8h3.1c1.2,0,1.7,0.5,1.7,1.7v8c0,0.4,0.2,0.6,0.6,0.6h1v2.7h-3.1
		c-1.2,0-1.7-0.5-1.7-1.7V922.3z M138.5,913.8h2.8v3h-2.8V913.8z"/>
	<path class="st1" d="M145.9,922.3c0-0.4-0.2-0.6-0.6-0.6h-1v-2.8h3c1.2,0,1.7,0.5,1.7,1.5v0.4c0,0.3-0.1,0.6-0.1,0.6h0.1
		c0.6-1.1,2-2.7,4.6-2.7c2.9,0,4.6,1.5,4.6,5v5.1c0,0.4,0.2,0.6,0.6,0.6h1v2.7h-3.1c-1.2,0-1.7-0.5-1.7-1.7v-6c0-1.6-0.4-2.7-2-2.7
		c-1.7,0-3,1.1-3.5,2.7c-0.2,0.5-0.3,1.1-0.3,1.7v6h-3.2V922.3z"/>
	<path class="st1" d="M166.9,918.6c3,0,4,1.8,4,1.8h0.1c0,0,0-0.2,0-0.3c0-0.6,0.4-1.2,1.4-1.2h3v2.8h-1c-0.3,0-0.6,0.2-0.6,0.5v9
		c0,4.5-3.5,6.2-6.9,6.2c-1.6,0-3.4-0.5-4.6-1.1l1-2.6c0,0,1.6,0.9,3.6,0.9c2,0,3.7-0.8,3.7-3.2v-0.6c0-0.3,0-0.7,0-0.7h-0.1
		c-0.8,1.1-1.9,1.7-3.6,1.7c-3.7,0-5.9-3-5.9-6.6C161.1,921.6,163.1,918.6,166.9,918.6z M170.7,925.2c0-3-1.5-3.8-3.3-3.8
		c-2,0-3,1.4-3,3.6c0,2.3,1.2,4,3.3,4C169.2,929,170.7,928.1,170.7,925.2z"/>
	<path class="st1" d="M185,922.3c0-0.4-0.2-0.6-0.6-0.6h-1v-2.8h3.1c1.2,0,1.7,0.5,1.7,1.7v8c0,0.4,0.2,0.6,0.6,0.6h1v2.7h-3.1
		c-1.2,0-1.7-0.5-1.7-1.7V922.3z M185.1,913.8h2.8v3h-2.8V913.8z"/>
	<path class="st1" d="M192.6,927.9c0,0,1.7,1.9,3.9,1.9c1,0,1.8-0.4,1.8-1.3c0-1.8-6.9-1.8-6.9-6c0-2.6,2.4-3.8,5.1-3.8
		c1.8,0,4.6,0.6,4.6,2.7v1.4h-2.9v-0.6c0-0.6-0.9-0.9-1.6-0.9c-1.2,0-1.9,0.4-1.9,1.2c0,2,6.9,1.6,6.9,6c0,2.5-2.2,4-5,4
		c-3.6,0-5.4-2.3-5.4-2.3L192.6,927.9z"/>
	<path class="st1" d="M217.1,918.6c1.7,0,4.7,0.7,4.7,2.9v1.5H219v-0.7c0-0.7-1.1-1-1.9-1c-2.3,0-3.9,1.7-3.9,4.1c0,2.7,2,4,4.1,4
		c2.2,0,3.9-1.8,3.9-1.8l1.4,2.3c0,0-1.9,2.4-5.5,2.4c-4.3,0-7.1-3-7.1-6.8C210,921.8,212.6,918.6,217.1,918.6z"/>
	<path class="st1" d="M230.9,918.6c4,0,7.2,2.8,7.2,6.8c0,4-3.2,6.8-7.2,6.8c-4,0-7.1-2.8-7.1-6.8
		C223.7,921.5,226.9,918.6,230.9,918.6z M230.9,929.5c2.1,0,3.9-1.6,3.9-4.1c0-2.4-1.8-4.1-3.9-4.1c-2.1,0-3.9,1.7-3.9,4.1
		C227,927.9,228.8,929.5,230.9,929.5z"/>
	<path class="st1" d="M241,922.3c0-0.4-0.2-0.6-0.6-0.6h-1v-2.8h3c1.2,0,1.7,0.5,1.7,1.5v0.4c0,0.3-0.1,0.6-0.1,0.6h0.1
		c0.6-1.1,2-2.7,4.6-2.7c2.9,0,4.6,1.5,4.6,5v5.1c0,0.4,0.2,0.6,0.6,0.6h1v2.7h-3.1c-1.2,0-1.7-0.5-1.7-1.7v-6c0-1.6-0.4-2.7-2-2.7
		c-1.7,0-3,1.1-3.5,2.7c-0.2,0.5-0.3,1.1-0.3,1.7v6H241V922.3z"/>
	<path class="st1" d="M257.5,922.3c0-0.4-0.2-0.6-0.6-0.6h-1v-2.8h3c1.2,0,1.7,0.5,1.7,1.5v0.4c0,0.3-0.1,0.6-0.1,0.6h0.1
		c0.6-1.1,2-2.7,4.6-2.7c2.9,0,4.6,1.5,4.6,5v5.1c0,0.4,0.2,0.6,0.6,0.6h1v2.7h-3.1c-1.2,0-1.7-0.5-1.7-1.7v-6c0-1.6-0.4-2.7-2-2.7
		c-1.7,0-3,1.1-3.5,2.7c-0.2,0.5-0.3,1.1-0.3,1.7v6h-3.2V922.3z"/>
	<path class="st1" d="M279.3,918.6c3.7,0,5.8,2.7,5.8,6.2c0,0.4-0.1,1.2-0.1,1.2h-9c0.3,2.3,1.9,3.5,3.9,3.5c2.1,0,3.7-1.5,3.7-1.5
		l1.4,2.3c0,0-2,2-5.2,2c-4.3,0-7-3.1-7-6.8C272.6,921.5,275.3,918.6,279.3,918.6z M281.7,923.8c-0.1-1.6-1.1-2.6-2.5-2.6
		c-1.7,0-2.8,1-3.2,2.6H281.7z"/>
	<path class="st1" d="M294,918.6c1.7,0,4.7,0.7,4.7,2.9v1.5h-2.9v-0.7c0-0.7-1.1-1-1.9-1c-2.3,0-3.9,1.7-3.9,4.1c0,2.7,2,4,4.1,4
		c2.2,0,3.9-1.8,3.9-1.8l1.4,2.3c0,0-1.9,2.4-5.5,2.4c-4.3,0-7.1-3-7.1-6.8C286.9,921.8,289.5,918.6,294,918.6z"/>
	<path class="st1" d="M302,921.5h-1.7v-2.6h1.8v-3.6h3.2v3.6h3v2.6h-3v5.3c0,2.2,1.7,2.5,2.6,2.5c0.4,0,0.6-0.1,0.6-0.1v2.8
		c0,0-0.4,0.1-1,0.1c-1.8,0-5.4-0.5-5.4-4.9V921.5z"/>
	<path class="st1" d="M316.6,918.6c3.7,0,5.8,2.7,5.8,6.2c0,0.4-0.1,1.2-0.1,1.2h-9c0.3,2.3,1.9,3.5,3.9,3.5c2.1,0,3.7-1.5,3.7-1.5
		l1.4,2.3c0,0-2,2-5.2,2c-4.3,0-7-3.1-7-6.8C309.9,921.5,312.6,918.6,316.6,918.6z M319,923.8c-0.1-1.6-1.1-2.6-2.5-2.6
		c-1.7,0-2.8,1-3.2,2.6H319z"/>
	<path class="st1" d="M330.1,918.6c2.8,0,3.8,1.6,3.8,1.6h0.1c0,0,0-0.3,0-0.8v-2.3c0-0.4-0.2-0.6-0.6-0.6h-1v-2.8h3.1
		c1.2,0,1.7,0.5,1.7,1.7v13.1c0,0.4,0.2,0.6,0.6,0.6h1v2.7h-3c-1.2,0-1.6-0.6-1.6-1.3c0-0.3,0-0.5,0-0.5h-0.1c0,0-1.1,2.1-4.1,2.1
		c-3.5,0-5.8-2.8-5.8-6.8C324.2,921.3,326.7,918.6,330.1,918.6z M334,925.5c0-2-1-4-3.2-4c-1.8,0-3.3,1.5-3.3,4
		c0,2.5,1.3,4.1,3.2,4.1C332.4,929.6,334,928.3,334,925.5z"/>
</g>
<text transform="matrix(1 0 0 1 49.6216 1021.0076)" class="st1" style="font-family:'Museo300-Regular'; font-size:25.6028px;">museo</text>
</svg>
