<?xml version="1.0" encoding="utf-8"?>
<!-- Generator: Adobe Illustrator 19.0.0, SVG Export Plug-In . SVG Version: 6.00 Build 0)  -->
<svg version="1.1" id="Layer_1" xmlns="http://www.w3.org/2000/svg" xmlns:xlink="http://www.w3.org/1999/xlink" x="0px" y="0px"
	 viewBox="-285.1 714.9 427.8 57.5" style="enable-background:new -285.1 714.9 427.8 57.5;" xml:space="preserve">
<style type="text/css">
	.st0{fill:#506365;}
	.st1{fill:url(#SVGID_1_);}
	.st2{fill:#FFFFFF;}
</style>
<g>
	<g>
		<path class="st0" d="M-255.7,740c0,5.1-1.3,9-3.7,11.6c-2.5,2.7-6.2,4-11,4c-4.8,0-8.4-1.3-10.9-4s-3.8-6.5-3.8-11.6
			c0-5,1.3-8.9,3.8-11.5c2.5-2.7,6.2-4,11-4c4.8,0,8.5,1.3,11,4S-255.7,734.9-255.7,740z M-276.6,740c0,5.9,2,8.8,6.1,8.8
			c2.1,0,3.6-0.7,4.6-2.1c1-1.4,1.5-3.6,1.5-6.6s-0.5-5.3-1.5-6.7s-2.5-2.2-4.5-2.2C-274.5,731.1-276.6,734.1-276.6,740z"/>
		<path class="st0" d="M-235.9,755.2v-12.8c0-1.6-0.2-2.7-0.7-3.5c-0.4-0.8-1.2-1.2-2.2-1.2c-1.4,0-2.4,0.5-3,1.6
			c-0.6,1.1-0.9,3-0.9,5.6v10.3h-8.1v-23.5h6.1l1,2.9h0.5c0.7-1.1,1.6-1.9,2.9-2.5c1.2-0.6,2.6-0.8,4.2-0.8c2.6,0,4.6,0.8,6.1,2.3
			c1.4,1.5,2.2,3.6,2.2,6.4v15.3L-235.9,755.2L-235.9,755.2z"/>
		<path class="st0" d="M-211,755.6c-3.9,0-6.9-1-9.1-3.1c-2.2-2.1-3.2-5-3.2-8.9c0-4,1-7,3-9.1c2-2.1,4.9-3.2,8.6-3.2
			c3.5,0,6.3,0.9,8.2,2.8c1.9,1.8,2.9,4.5,2.9,8v3.6h-14.5c0.1,1.3,0.5,2.3,1.4,3.1c0.9,0.7,2.1,1.1,3.7,1.1c1.4,0,2.7-0.1,3.9-0.4
			s2.5-0.7,3.9-1.4v5.8c-1.3,0.6-2.6,1.1-3.9,1.3C-207.5,755.4-209.1,755.6-211,755.6z M-211.5,736.8c-1,0-1.8,0.3-2.4,0.9
			c-0.6,0.6-1,1.5-1.1,2.8h7c0-1.1-0.3-2-1-2.7C-209.6,737.1-210.4,736.8-211.5,736.8z"/>
		<path class="st0" d="M-39.2,755.2l-6.2-21.8h-0.2c0.3,3.7,0.4,6.6,0.4,8.7v13.2h-7.3V725h10.9l6.3,21.5h0.3l6.2-21.5h10.9v30.3
			h-7.5V742c0-0.7,0-1.5,0-2.3s0.1-2.9,0.3-6.2h-0.2l-6.1,21.8h-7.8V755.2z"/>
		<path class="st0" d="M10.6,743.4c0,3.8-1,6.8-3.1,9s-5,3.2-8.7,3.2c-3.6,0-6.4-1.1-8.5-3.3c-2.1-2.2-3.2-5.2-3.2-8.9
			c0-3.8,1-6.8,3.1-8.9c2.1-2.1,5-3.2,8.7-3.2c2.3,0,4.3,0.5,6.1,1.5c1.8,1,3.1,2.4,4.1,4.2C10.1,738.8,10.6,740.9,10.6,743.4z
			 M-4.6,743.4c0,2,0.3,3.6,0.8,4.6c0.5,1.1,1.4,1.6,2.7,1.6c1.3,0,2.1-0.5,2.7-1.6c0.5-1.1,0.8-2.6,0.8-4.6s-0.3-3.5-0.8-4.5
			s-1.4-1.5-2.7-1.5c-1.2,0-2.1,0.5-2.7,1.5C-4.3,739.8-4.6,741.3-4.6,743.4z"/>
		<path class="st0" d="M29.4,731.3c0.7,0,1.4,0.1,2,0.2l0.5,0.1l-0.7,7.6c-0.7-0.2-1.6-0.2-2.8-0.2c-1.8,0-3.1,0.4-3.9,1.2
			s-1.2,2-1.2,3.5v11.5h-8.1v-23.5h6l1.3,3.7h0.4c0.7-1.2,1.6-2.2,2.8-3C26.9,731.6,28.1,731.3,29.4,731.3z"/>
		<path class="st0" d="M46.4,755.6c-3.9,0-6.9-1-9.1-3.1c-2.2-2.1-3.2-5-3.2-8.9c0-4,1-7,3-9.1c2-2.1,4.9-3.2,8.6-3.2
			c3.5,0,6.3,0.9,8.2,2.8c1.9,1.8,2.9,4.5,2.9,8v3.6H42.3c0.1,1.3,0.5,2.3,1.4,3.1c0.9,0.7,2.1,1.1,3.7,1.1c1.4,0,2.7-0.1,3.9-0.4
			s2.5-0.7,3.9-1.4v5.8c-1.3,0.6-2.6,1.1-3.9,1.3C49.9,755.4,48.3,755.6,46.4,755.6z M46,736.8c-1,0-1.8,0.3-2.4,0.9
			c-0.6,0.6-1,1.5-1.1,2.8h7c0-1.1-0.3-2-1-2.7S47,736.8,46,736.8z"/>
		<path class="st0" d="M60.3,751.7c0-1.3,0.4-2.3,1.1-2.9c0.7-0.6,1.8-1,3.3-1c1.4,0,2.4,0.3,3.1,1c0.7,0.7,1.1,1.7,1.1,2.9
			s-0.4,2.2-1.1,2.9c-0.8,0.7-1.8,1-3.1,1c-1.4,0-2.4-0.3-3.2-1S60.3,753,60.3,751.7z"/>
		<path class="st0" d="M96,743.4c0,3.8-1,6.8-3.1,9s-5,3.2-8.7,3.2c-3.6,0-6.4-1.1-8.5-3.3c-2.1-2.2-3.2-5.2-3.2-8.9
			c0-3.8,1-6.8,3.1-8.9c2.1-2.1,5-3.2,8.7-3.2c2.3,0,4.3,0.5,6.1,1.5s3.1,2.4,4.1,4.2C95.5,738.8,96,740.9,96,743.4z M80.8,743.4
			c0,2,0.3,3.6,0.8,4.6c0.5,1.1,1.4,1.6,2.7,1.6s2.1-0.5,2.7-1.6c0.5-1.1,0.8-2.6,0.8-4.6s-0.3-3.5-0.8-4.5s-1.4-1.5-2.7-1.5
			c-1.2,0-2.1,0.5-2.7,1.5C81.1,739.8,80.8,741.3,80.8,743.4z"/>
		<path class="st0" d="M114.8,731.3c0.7,0,1.4,0.1,2,0.2l0.5,0.1l-0.7,7.6c-0.7-0.2-1.6-0.2-2.8-0.2c-1.8,0-3.1,0.4-3.9,1.2
			c-0.8,0.8-1.2,2-1.2,3.5v11.5h-8.1v-23.5h6l1.3,3.7h0.4c0.7-1.2,1.6-2.2,2.8-3C112.4,731.6,113.6,731.3,114.8,731.3z"/>
		<path class="st0" d="M142.7,731.7v3.9l-3.2,1.2c0.4,0.8,0.7,1.7,0.7,2.8c0,2.5-0.9,4.5-2.7,5.9c-1.8,1.4-4.4,2.1-7.9,2.1
			c-0.9,0-1.6-0.1-2.1-0.2c-0.2,0.4-0.3,0.7-0.3,1c0,0.4,0.3,0.7,1,0.9c0.6,0.2,1.5,0.3,2.5,0.3h3.9c5.3,0,7.9,2.2,7.9,6.6
			c0,2.9-1.2,5.1-3.7,6.7c-2.4,1.6-5.9,2.4-10.3,2.4c-3.3,0-5.9-0.6-7.7-1.7c-1.8-1.1-2.7-2.7-2.7-4.8c0-2.8,1.7-4.6,5.2-5.4
			c-0.7-0.3-1.3-0.8-1.9-1.5c-0.5-0.7-0.8-1.3-0.8-2s0.2-1.4,0.6-1.9s1.2-1.2,2.5-2c-1.2-0.5-2.2-1.4-2.9-2.5c-0.7-1.1-1-2.5-1-4.2
			c0-2.6,0.9-4.5,2.6-5.9c1.7-1.4,4.2-2.1,7.5-2.1c0.4,0,1.2,0,2.2,0.1c1,0.1,1.8,0.2,2.3,0.3L142.7,731.7L142.7,731.7z M125,758.1
			c0,0.7,0.4,1.2,1.1,1.6c0.7,0.4,1.7,0.6,2.9,0.6c2,0,3.5-0.2,4.7-0.7s1.8-1.1,1.8-1.9c0-0.6-0.4-1.1-1.1-1.3
			c-0.7-0.3-1.7-0.4-3.1-0.4h-3.2c-0.9,0-1.6,0.2-2.2,0.6C125.3,757,125,757.5,125,758.1z M127.5,739.4c0,2.4,0.8,3.6,2.5,3.6
			c0.8,0,1.4-0.3,1.8-0.9c0.4-0.6,0.6-1.5,0.6-2.7c0-2.4-0.8-3.6-2.4-3.6C128.4,735.8,127.5,737,127.5,739.4z"/>
	</g>
</g>
<g id="XMLID_8_">
	
		<image style="overflow:visible;opacity:0.27;enable-background:new    ;" width="135" height="53" xlink:href="C224975.png"  transform="matrix(0.9911 0 0 0.9911 -193.3972 714.9366)">
	</image>
	<g>
		
			<linearGradient id="SVGID_1_" gradientUnits="userSpaceOnUse" x1="-128.1" y1="31.9" x2="-128.1" y2="79.4" gradientTransform="matrix(1 0 0 -1 0 795.4)">
			<stop  offset="0" style="stop-color:#37DB7D"/>
			<stop  offset="1" style="stop-color:#4EF193"/>
		</linearGradient>
		<path class="st1" d="M-68.4,763.5h-119.4c-2.8,0-5-2.3-5-5V721c0-2.8,2.3-5,5-5h119.4c2.8,0,5,2.3,5,5v37.5
			C-63.4,761.3-65.7,763.5-68.4,763.5z"/>
	</g>
</g>
<g>
	<g>
		<path class="st2" d="M-166.2,731.7c-1.9,0-3.5,0.8-4.6,2.4c-1.1,1.6-1.6,3.8-1.6,6.6c0,5.8,2.2,8.7,6.6,8.7c1.3,0,2.6-0.2,3.9-0.6
			c1.3-0.4,2.5-0.8,3.8-1.3v6.9c-2.5,1.1-5.4,1.7-8.6,1.7c-4.6,0-8.1-1.3-10.5-4c-2.4-2.7-3.7-6.5-3.7-11.5c0-3.1,0.6-5.9,1.8-8.3
			c1.2-2.4,2.9-4.2,5.1-5.5s4.8-1.9,7.8-1.9c3.3,0,6.4,0.7,9.4,2.1l-2.5,6.4c-1.1-0.5-2.2-1-3.4-1.3
			C-163.7,731.9-164.9,731.7-166.2,731.7z"/>
		<path class="st2" d="M-144.5,755.7h-8.1v-32.2h8.1V755.7z"/>
		<path class="st2" d="M-139.1,726.4c0-1.2,0.3-2.1,1-2.7c0.7-0.6,1.8-0.9,3.3-0.9s2.6,0.3,3.3,0.9c0.7,0.6,1,1.5,1,2.7
			c0,2.4-1.4,3.6-4.3,3.6S-139.1,728.8-139.1,726.4z M-130.8,755.7h-8.1v-23.5h8.1C-130.8,732.2-130.8,755.7-130.8,755.7z"/>
		<path class="st2" d="M-114.4,756.2c-3.8,0-6.7-1-8.7-3.1c-2-2.1-3-5-3-8.9c0-3.9,1.1-6.9,3.2-9.1c2.1-2.1,5.2-3.2,9.1-3.2
			c2.7,0,5.3,0.6,7.7,1.8l-2.4,6c-1-0.4-1.9-0.8-2.7-1c-0.8-0.3-1.7-0.4-2.6-0.4c-1.3,0-2.3,0.5-3,1.5c-0.7,1-1.1,2.5-1.1,4.3
			c0,3.8,1.4,5.6,4.2,5.6c2.4,0,4.7-0.7,6.8-2.1v6.4C-109,755.5-111.5,756.2-114.4,756.2z"/>
		<path class="st2" d="M-94.4,742.5c1-1.6,1.8-2.8,2.5-3.6l5.3-6.6h9l-8.1,10l8.7,13.5h-9.3l-5.1-8.4l-2.6,2v6.4h-8.1v-32.2h8.1
			v12.7c0,2.2-0.2,4.3-0.5,6.4h0.1V742.5z"/>
	</g>
</g>
<g id="XMLID_49_">
	<path d="M-73.4,751.8l7.1,20l0,0c0.1-0.1,2.8-5.3,3.3-6.3c5.8,6.6,5.8,6.7,5.9,6.7l0.2,0.1l0.3-0.2c2.3-1.7,2.3-1.9,2.2-2.1v-0.1
		c0,0-5.3-5.7-6.1-6.5l0,0c1.1-0.3,7-1.8,7.2-1.9l0,0l-20.4-10.8L-73.4,751.8z"/>
	<g>
		<path class="st2" d="M-73.5,751.8c1.3,3.6,2.6,7.2,3.8,10.8c1,2.9,1.7,6.5,3.3,9.2c0.1,0.1,0.2,0.1,0.3,0c0.7-1.3,1.4-2.7,2.1-4
			c0.6-1.2,0.5-1.7,1.5-1.5c0.9,0.3,2.2,2.4,2.8,3.1c0.8,0.9,1.7,2.4,2.9,3c0.1,0,0.1,0,0.2,0c2.3-1.7,3.3-1.8,1.5-3.8
			c-0.7-0.7-4.9-4.4-4.7-5.2c0.1-0.6,5.9-1.6,6.8-1.8c0.1,0,0.2-0.2,0.1-0.3c-2.5-2.2-6.7-3.5-9.6-5c-3.7-1.9-7.3-3.8-11-5.8
			c-0.1-0.1-0.3,0-0.3,0.2C-73.8,751.1-73.6,751.5-73.5,751.8c0.1,0.2,0.4,0.1,0.3-0.1c-0.4-1.1-0.6-0.8,0.6-0.2
			c1.2,0.6,2.5,1.3,3.7,1.9c3.5,1.8,7,3.6,10.4,5.5c1.3,0.7,2.5,1.4,3.8,2c0.2,0.1,0.9,0.3,1.1,0.6c0.4,0.6,0.2-0.5,0-0.1
			c-0.7,1.3-6.4,0.5-6.9,1.9c0,0.1,0,0.1,0,0.2c1.4,1.5,2.8,3,4.2,4.5c0.4,0.4,1.6,1.3,1.7,1.8c0.2,0.7-1.3,2.1-2,2.1
			c-1.8,0-5.2-5.3-6.3-6.6c-0.1-0.1-0.2-0.1-0.3,0c-0.6,1-3.3,6-3.1,6.1c-0.8-0.3-1.8-5.1-2.1-5.9c-1.6-4.6-3.3-9.3-4.9-13.9
			C-73.3,751.5-73.6,751.6-73.5,751.8z"/>
	</g>
</g>
</svg>
