<?xml version="1.0" encoding="utf-8"?>
<!-- Generator: Adobe Illustrator 19.0.0, SVG Export Plug-In . SVG Version: 6.00 Build 0)  -->
<svg version="1.1" id="Layer_1" xmlns="http://www.w3.org/2000/svg" xmlns:xlink="http://www.w3.org/1999/xlink" x="0px" y="0px"
	 viewBox="-114.3 1180.4 538.7 51.9" style="enable-background:new -114.3 1180.4 538.7 51.9;" xml:space="preserve">
<style type="text/css">
	.st0{fill:#FFFFFF;}
</style>
<g>
	<path class="st0" d="M-0.2,1200.2c0-1.1-0.6-1.6-1.6-1.6h-3.1v-2.7h3.5c2.9,0,4.1,1.2,4.1,3.9v2c0,1.6-0.1,2.9-0.1,2.9h0.1
		c1.2-3.3,6-9.6,14.9-9.6c9.2,0,11.7,5.5,11.7,13.8v18.2c0,1.1,0.6,1.6,1.6,1.6H34v2.7h-3.5c-2.9,0-4.1-1.2-4.1-4.1V1210
		c0-6.2-0.8-12-8.7-12c-6.7,0-12.6,4.7-14.3,11.3c-0.4,1.5-0.6,3.1-0.6,4.8v17.4h-3C-0.2,1231.5-0.2,1200.2-0.2,1200.2z"/>
	<path class="st0" d="M55.9,1195.1c9.6,0,14.5,7.6,14.5,16.2c0,0.8-0.1,1.9-0.1,1.9H41.8c0,10.3,7,16.2,15.2,16.2
		c6.8,0,11-4.5,11-4.5l1.6,2.5c0,0-5,4.9-12.6,4.9c-10,0-18.3-7.2-18.3-18.5C38.7,1201.8,46.9,1195.1,55.9,1195.1z M67.3,1210.5
		c-0.4-8.7-5.5-12.6-11.4-12.6c-6.5,0-12.6,4.3-13.8,12.6H67.3z"/>
	<path class="st0" d="M120.9,1180.9c7.3,0,18.4,3.1,18.4,10.2v3.5h-3.1v-2.8c0-5.1-8.9-7.9-15.3-7.9c-12,0-21.1,9.6-21.1,22.3
		c0,12.8,9.1,23.1,21.4,23.1c10.6,0,16.8-7.1,16.8-7.1l1.9,2.2c0,0-6.7,7.9-18.7,7.9c-14.3,0-24.5-11.6-24.5-26
		S107.1,1180.9,120.9,1180.9z"/>
	<path class="st0" d="M148.8,1186.1c0-1.1-0.6-1.6-1.6-1.6h-3.1v-2.7h3.5c2.9,0,4.1,1.2,4.1,4.1v41.3c0,1.1,0.6,1.6,1.6,1.6h3.1v2.7
		h-3.5c-2.9,0-4.1-1.2-4.1-4.1V1186.1z"/>
	<path class="st0" d="M165.1,1200.2c0-1.1-0.6-1.6-1.6-1.6h-3.1v-2.7h3.5c2.9,0,4.1,1.2,4.1,4.1v27.1c0,1.1,0.6,1.6,1.6,1.6h3.1v2.7
		h-3.5c-2.9,0-4.1-1.2-4.1-4.1V1200.2z M164.7,1181.8h3.3v5.2h-3.3V1181.8z"/>
	<path class="st0" d="M196.1,1195.1c3.8,0,12.5,1.6,12.5,7.4v2.7h-3v-2.1c0-3.5-6.1-5.1-9.5-5.1c-8.3,0-15.2,6.2-15.2,15.8
		c0,9.4,6.9,15.6,15.2,15.6c7.8,0,11.8-5.1,11.8-5.1l1.6,2.5c0,0-4.6,5.5-13.4,5.5c-10,0-18.3-7.2-18.3-18.5
		C177.8,1202.5,186.3,1195.1,196.1,1195.1z"/>
	<path class="st0" d="M217.8,1186.1c0-1.1-0.6-1.6-1.6-1.6h-3.1v-2.7h3.5c2.9,0,4.1,1.2,4.1,4.1v24.1h4.1c1.4,0,3.3-0.6,4.3-1.8
		l10-12.2h4l-10.8,12.8c-1.8,2.1-2.7,2.4-2.7,2.4v0.1c0,0,1,0.4,2.1,2.5l7.5,13.3c0.7,1.3,1.3,1.6,3.4,1.6h1.7v2.7h-1.8
		c-3.8,0-4.7-0.6-6.5-3.8l-7.5-13.4c-0.8-1.4-2.6-1.6-4-1.6h-3.8v18.9h-3L217.8,1186.1L217.8,1186.1z"/>
	<path class="st0" d="M266.4,1228.6h2.8c1,0,1.5-0.5,1.6-1.6l3.6-45.3h3l14.5,31.2c1.1,2.4,2.4,5.6,2.4,5.6h0.1c0,0,1.3-3.2,2.4-5.6
		l14.5-31.2h3l3.6,45.3c0.1,1.1,0.6,1.6,1.6,1.6h2.8v2.8H319c-2.9,0-3.9-1.2-4.1-4.1l-2.7-33.8c-0.2-2.4-0.2-6.6-0.2-6.6h-0.1
		c0,0-1.4,4.2-2.6,6.6l-13.3,28.3h-3.1l-13.3-28.3c-1.1-2.3-2.6-6.7-2.6-6.7h-0.1c0,0,0,4.3-0.2,6.7l-2.7,33.8
		c-0.2,2.9-1.2,4.1-4.1,4.1h-3.3v-2.8H266.4z"/>
	<path class="st0" d="M345.4,1195.1c10.1,0,18.4,8,18.4,18.4c0,10.6-8.2,18.8-18.4,18.8c-10.1,0-18.4-8.2-18.4-18.8
		C327,1203.2,335.3,1195.1,345.4,1195.1z M345.4,1229.4c8.4,0,15.3-6.9,15.3-15.9c0-8.8-6.8-15.5-15.3-15.5
		c-8.4,0-15.3,6.7-15.3,15.5C330.1,1222.5,337,1229.4,345.4,1229.4z"/>
	<path class="st0" d="M373.2,1200.2c0-1.1-0.6-1.6-1.6-1.6h-3.1v-2.7h3.5c2.9,0,4.1,1.2,4.1,3.9v2.5c0,1.6-0.1,2.9-0.1,2.9h0.1
		c1.8-5.5,5.6-9.6,11.2-9.6c1.1,0,2.1,0.2,2.1,0.2v3c0,0-0.9-0.1-1.6-0.1c-5.5,0-9,4.7-10.6,9.9c-0.8,2.5-1.1,5.1-1.1,7.4v15.5h-3
		v-31.3H373.2z"/>
	<path class="st0" d="M409.9,1195.1c9.6,0,14.5,7.6,14.5,16.2c0,0.8-0.1,1.9-0.1,1.9h-28.5c0,10.3,7,16.2,15.2,16.2
		c6.8,0,11-4.5,11-4.5l1.6,2.5c0,0-5,4.9-12.6,4.9c-10,0-18.3-7.2-18.3-18.5C392.6,1201.8,400.8,1195.1,409.9,1195.1z M421.2,1210.5
		c-0.4-8.7-5.5-12.6-11.4-12.6c-6.5,0-12.6,4.3-13.8,12.6H421.2z"/>
	<g>
		<path class="st0" d="M-93.4,1180.9c4-0.9,8.4-0.7,12.2,1c5.2,2.2,9.2,6.5,12.1,11.2c0.8,1.3,1.6,2.6,2.1,4c0.4,1.2-0.8,2.5-2,2.2
			c-1.1-0.2-1.4-1.4-1.8-2.2c-1.9-3.6-4.4-6.9-7.5-9.4c-2.6-2-5.7-3.4-9-3.7c-6-0.3-12.2,1.9-16.5,6c-3.5,3.2-5.8,7.7-6.6,12.3
			c-0.9,5.4,0,11.1,2.9,15.8c2.9,4.8,7.8,8.4,13.2,9.8c2.9,0.7,6,1,8.9,0.4c2.7-0.6,5.1-2.1,7.2-3.8c2.9-2.4,5.3-5.4,7.5-8.4
			c6.4-8.7,11.3-18.5,18.4-26.6c3.5-3.9,7.8-7.5,13-8.7c4.5-0.9,9.2-0.1,13.3,1.6c7,3,12.7,9.1,15,16.4c0.7,2,0.9,4.1,1.2,6.1v2.8
			c-0.3,3.6-1.2,7.2-3,10.4c-4.2,7.9-12.6,13.6-21.6,14c-4.2,0.3-8.5-0.8-12.2-2.8c-4.7-2.5-8.7-6.1-11.9-10.3
			c-0.5-0.6-1.1-1.4-0.8-2.2c0.3-1.3,2.1-1.8,3-0.7c3.5,4.8,8.1,9.1,13.8,11.3c4,1.6,8.4,1.7,12.5,0.6c5.4-1.3,10.2-4.8,13.2-9.4
			c5-7.5,4.8-18.1-0.5-25.4c-4.4-6.4-12.5-10-20.2-9.2c-4.6,0.7-8.4,3.7-11.4,7c-5,5.5-8.8,11.9-12.8,18.1
			c-3.9,6-7.8,12.2-13.2,17.1c-3.3,3-7.4,5.4-11.9,5.9c-6.6,0.5-13.2-1.9-18.2-6.1c-4.5-3.8-7.7-9.1-8.8-14.9
			c-0.2-1.1-0.3-2.2-0.5-3.4v-2.8c0.3-4.3,1.6-8.5,3.9-12.1C-106.6,1186.8-100.4,1182.3-93.4,1180.9z"/>
	</g>
</g>
</svg>
