<?xml version="1.0" encoding="utf-8"?>
<!-- Generator: Adobe Illustrator 19.0.0, SVG Export Plug-In . SVG Version: 6.00 Build 0)  -->
<svg version="1.1" id="Layer_1" xmlns="http://www.w3.org/2000/svg" xmlns:xlink="http://www.w3.org/1999/xlink" x="0px" y="0px"
	 viewBox="-203.1 833.3 104.4 51.7" style="enable-background:new -203.1 833.3 104.4 51.7;" xml:space="preserve">
<style type="text/css">
	.st0{fill:#FFFFFF;}
</style>
<g>
	<path class="st0" d="M-182.2,833.8c4-0.9,8.4-0.7,12.2,1c5.2,2.2,9.1,6.5,12.1,11.2c0.8,1.3,1.6,2.6,2.1,4c0.4,1.2-0.8,2.5-2,2.2
		c-1.1-0.2-1.4-1.4-1.8-2.2c-1.9-3.6-4.4-6.9-7.5-9.4c-2.6-2-5.7-3.4-9-3.7c-6-0.3-12.1,1.9-16.5,6c-3.5,3.2-5.8,7.6-6.6,12.3
		c-0.9,5.4,0,11.1,2.9,15.8c2.9,4.8,7.7,8.4,13.2,9.8c2.9,0.7,6,1,8.9,0.4c2.7-0.6,5.1-2.1,7.2-3.8c2.9-2.4,5.3-5.4,7.5-8.4
		c6.4-8.7,11.3-18.5,18.4-26.6c3.5-3.9,7.8-7.5,13-8.7c4.5-0.9,9.1-0.1,13.3,1.6c7,3,12.7,9.1,14.9,16.3c0.7,2,0.9,4.1,1.2,6.1v2.8
		c-0.3,3.6-1.2,7.2-3,10.4c-4.2,7.9-12.6,13.6-21.6,14c-4.2,0.3-8.5-0.8-12.2-2.8c-4.7-2.5-8.7-6.1-11.9-10.3
		c-0.5-0.6-1.1-1.4-0.8-2.2c0.3-1.3,2.1-1.8,2.9-0.7c3.5,4.8,8.1,9.1,13.8,11.3c4,1.6,8.4,1.7,12.5,0.6c5.4-1.3,10.2-4.8,13.2-9.4
		c5-7.5,4.8-18-0.5-25.3c-4.4-6.4-12.4-10-20.2-9.2c-4.6,0.7-8.4,3.7-11.4,7c-5,5.5-8.8,11.9-12.8,18.1c-3.9,6-7.8,12.2-13.1,17.1
		c-3.3,3-7.4,5.4-11.9,5.9c-6.5,0.5-13.2-1.9-18.1-6.1c-4.5-3.8-7.7-9.1-8.8-14.9c-0.2-1.1-0.3-2.2-0.5-3.4v-2.8
		c0.3-4.3,1.6-8.5,3.9-12.1C-195.4,839.7-189.2,835.3-182.2,833.8z"/>
</g>
</svg>
