<?xml version="1.0" encoding="utf-8"?>
<!-- Generator: Adobe Illustrator 19.0.0, SVG Export Plug-In . SVG Version: 6.00 Build 0)  -->
<svg version="1.1" id="Layer_1" xmlns="http://www.w3.org/2000/svg" xmlns:xlink="http://www.w3.org/1999/xlink" x="0px" y="0px"
	 viewBox="-101 193.1 407.5 407.9" style="enable-background:new -101 193.1 407.5 407.9;" xml:space="preserve">
<style type="text/css">
	.st0{fill:#FFFFFF;}
</style>
<g>
	<path class="st0" d="M278.4,198.7c4.9-2.8,10-6.6,16-5.3c7.8,1.1,13.5,9.4,11.8,17.1c-19.2,115.8-38.6,231.6-57.8,347.4
		c-0.5,3.7-1.8,7.5-4.7,10c-4.1,4.1-10.6,5-15.9,2.7c-34.3-13.9-68.5-28.1-102.8-41.9c-17.6,21.8-35.6,43.3-53.3,65.1
		c-2.6,3.3-5.8,6.5-10.2,7c-6.1,1.2-12.6-2.2-15.5-7.6c-1.6-2.9-1.7-6.2-1.8-9.4c0-24.7,0.1-49.4,0-74c-0.4-3.4,2.5-5.6,4.3-8
		c61.4-75.2,122.8-150.5,184.2-225.7c2.1-2.5,4.1-5,6-7.7c-1.3,0.9-2.6,1.8-3.8,2.8C155.8,339.7,76.7,408.1-2.4,476.6
		c-29.3-11.9-58.6-24-87.9-36c-3.3-1.4-7-2.9-8.9-6.2c-2.2-4.1-2.3-9.1-1.2-13.5c1-3.6,4.1-5.9,7.1-7.7
		C30.7,341.6,154.6,270.1,278.4,198.7z"/>
</g>
</svg>
