<?xml version="1.0" encoding="utf-8"?>
<!-- Generator: Adobe Illustrator 19.0.0, SVG Export Plug-In . SVG Version: 6.00 Build 0)  -->
<svg version="1.1" id="Layer_1" xmlns="http://www.w3.org/2000/svg" xmlns:xlink="http://www.w3.org/1999/xlink" x="0px" y="0px"
	 viewBox="0 0 42.8 42.8" style="enable-background:new 0 0 42.8 42.8;" xml:space="preserve">
<style type="text/css">
	.st0{fill:#FFFFFF;}
</style>
<g>
	<g>
		<path class="st0" d="M6.1,3.3c2.5-2,5.7-3.1,8.9-3.3c3.1-0.2,6.2,0.6,8.8,2.2c2.9,1.8,5.3,4.5,6.5,7.7c1.1,2.7,1.4,5.8,0.8,8.7
			c-0.4,2-1.1,3.9-2.2,5.5c4,4,8.1,8.1,12.1,12.1c0.4,0.5,1,0.9,1.3,1.4c0.7,1.2,0.5,2.8-0.4,3.8c-0.7,0.8-1.8,1.2-2.9,1.1
			c-0.7-0.1-1.4-0.4-2-0.9c-4.3-4.3-8.6-8.6-12.8-12.8c-2.3,1.5-5,2.4-7.8,2.5c-3.4,0.2-6.9-0.8-9.8-2.8c-2.6-1.8-4.6-4.4-5.7-7.3
			c-1.1-3-1.3-6.4-0.5-9.5C1.3,8.5,3.3,5.4,6.1,3.3z M14.5,4.5c-3,0.3-5.8,1.9-7.7,4.3c-1.7,2.2-2.6,5.1-2.3,7.9
			c0.2,2.4,1.2,4.8,2.8,6.6c1.5,1.8,3.7,3,5.9,3.5c2.4,0.5,5,0.3,7.2-0.8c2.9-1.3,5.1-3.9,6-6.9c0.6-2,0.6-4.3,0.1-6.3
			c-0.8-2.9-2.8-5.4-5.5-6.9C19.1,4.7,16.8,4.3,14.5,4.5z"/>
	</g>
</g>
</svg>
