<?xml version="1.0" encoding="utf-8"?>
<!-- Generator: Adobe Illustrator 19.0.0, SVG Export Plug-In . SVG Version: 6.00 Build 0)  -->
<svg version="1.1" id="Layer_1" xmlns="http://www.w3.org/2000/svg" xmlns:xlink="http://www.w3.org/1999/xlink" x="0px" y="0px"
	 viewBox="-134 332 342 130" style="enable-background:new -134 332 342 130;" xml:space="preserve">
<style type="text/css">
	.st0{display:none;}
	.st1{display:inline;fill:none;}
	.st2{opacity:0.25;}
	.st3{fill:#DBDCDD;}
	.st4{fill:#F4DBBE;}
	.st5{fill:#FFFFFF;}
</style>
<g id="Layer_1_1_" class="st0">
	<path class="st1" d="M-260,687.9"/>
</g>
<g id="Layer_2">
	<g>
		<g class="st2">
			<path d="M-161.9,764.2c0.3-0.5,0.6-1,1.8-2c0.8-0.6,2.6,0.4,1.6,2.2c-0.5,0.8-1.3,2.4-1.3,2.4s1.3,1.2,2.3,2.3
				c4.4-7.4,3.6-18.9-2.9-28.9c-8.2-12.8-22.5-18.3-31.8-12.3c-0.8,0.5-1.4,1-2.1,1.6c1.5,2,3.1,6,2.7,10.8c2.5-0.4,4.8-1.1,7-1.8
				c3.3,1,6.1,2.1,10.1,6.6c3.4,3.8,4.1,5.1,6.8,8.7C-164.9,757.8-162.1,763.9-161.9,764.2z"/>
			<path d="M-227.1,759.4c-2.6,2.2-4,4.7-5.4,8.4c-0.1,0.3-0.3,0.6-0.3,0.9l0,0c-1.9,0.7-3.9,2.3-4,5.3c-0.1,2.2,0.4,7.1,4.7,8.5
				c0.6,0.2,0.8,0.2,0.8-0.1l0,0c0.5-0.4,0-5.4,0.7-5.8c1.4-0.7-2.2,8.1,1,5.4c0.1-0.1,0.2-0.2,0.3-0.2c-0.1,0.5-0.1,0.9,0.3,0.7
				c0.2-0.1,0.4-0.2,0.6-0.3c0.1,0.3,0.5,0.5,1.7,0.5c1.4,0,2.3-1.7,1.3-3.3c1.2-1.9,1.7-4.2,1.6-6.2c0-0.4-0.1-0.8-0.2-1.1
				c1.5-0.6,3-1.3,4.4-2.1L-227.1,759.4z M-233.7,776.8c-0.3-2.4,0.4,0.7,1.1,3.2C-233.1,779.1-233.6,778-233.7,776.8z"/>
			<path d="M-199.9,719c-0.8-1.6-0.9-2.3-3.6-3.4c-0.1,0-1.1-0.2-1.3-0.2c-12.6,3.4-17.6,7.2-21,8.5c-0.1,0-0.3,0.1-0.4,0.1
				c-1.7,3.7-1.2,5.6-0.8,10.1c0.1,1.5,0.9,2.9,1,3.8c0.2,1.3,0.4,4.7,2.6,5.7s2.5,0.3,3.2,1.9c0.6,1.6,7.8,6.3,13.7,6.9
				c5.6,0.6,5.7,1,9.4-0.8c3.7-1.8,3.3-2.8,4.8-7.8c2.1-6.8-0.4-12.5-2.3-14.7C-196.9,726.7-198.1,722.7-199.9,719z"/>
			<path d="M-156.1,770.7c-0.5-0.9-3.6-3.9-3.6-3.9s0.8-1.6,1.3-2.4c1-1.8-0.9-2.8-1.6-2.2c-1.5,1.1-1.9,2-1.8,1.9l-2.3-4.6
				l-2.4-4.1l-11.4,9.1l7.8,7.1c0,0.4,0.1,0.9,0.4,1.4c0.7,1.3,2.1,2,3.3,2.9c1.2,0.9,2.8,0.7,4.2,0.3c1.4-0.3,2.3-2.1,2.8-3.1
				c0.3-0.6,0.2-0.7,1.2,0s1.7,1.2,2.3,0C-155.7,772.4-155.6,771.6-156.1,770.7z"/>
			<path d="M-146.8,785.9c-0.5-0.1-1.3-0.4-2.1-0.8l3.5-3.5l-11.3-7.8c-0.4,0.2-1-0.2-1.6-0.7c-1-0.7-0.9-0.6-1.2-0.1
				c-0.5,1-1.4,2.7-2.8,3.2c-1.4,0.5-2.9,0.5-4.2-0.3s-2.9-1.9-3.4-3.1c-0.2-0.4-0.3-1.1-0.3-1.1l-7.8-7.1l11.4-9.1
				c0,0-0.5-0.8-1.2-1.6c-2.7-3.6-3.4-4.9-6.8-8.7c-4-4.5-6.8-5.6-10.1-6.6c-2.2,0.7-4.5,1.4-7,1.8c-0.1,1.1-0.3,2.3-0.7,3.4
				c-1.5,4.9-1.1,5.9-4.8,7.8c-3.7,1.8-3.8,1.4-9.4,0.8c-0.7-0.1-1.5-0.2-2.3-0.4c-0.9,0.5-2.1,0.8-3.8,1.1c0.2-0.9,0.3-1.7,0.5-2.3
				c-1.7-0.7-3.3-1.5-4.6-2.4c-0.8,0.4-1.2,0.6-1.2,0.6l-10.5,8.4l9.8,13.9l3.7-2.8l4.7,19.2c0,0,9.2-1.2,8.6-1.2l10.2,24.4l9.9-4
				c0.2,0.4,0.3,0.7,0.4,1c1,3.2-3.4,4.8-5.4,5.9c-1.4,0.7-1.1,2.3,0.5,2.7c3.1,0.7,7.1-3.9,9.4-4.6c2.9-0.8,4.5-1.9,4.9-3.3
				c0.6-1.9-0.5-3.3-2.2-4.7l4.8-1.9l-6.6-13l15.8,7.4l5.5-5.5l2.2,1.2c0,0-0.4,5.3-4,7.2c-2.8,1.5,2.1,4,5.9-1.7
				c2.9-4.4,3-4.2,3.7-4.6C-144.1,791.5-141.9,786.9-146.8,785.9z"/>
			<path d="M-232.6,712l1.9-0.5l3.6,8.6c0.1-0.1,0.3-0.2,0.4-0.3c2.2-1.3,5.2-2.7,9.5-4.6c3.6-1.5,8.1-3.1,10.7-3.7l-4-8.3
				c1.1-0.6,1.7-1.1,2.9-1.6c3.6-1.5,3.6-5.2,2.2-8c-1.7-3.4-5.5-3.7-8.1-2.5c-3.7,1.6-4.4,5.7-4.7,6.5c0,0,0.5-3.4-1.4-5.9
				c-3.1-3.9-11.3-0.1-11.9,3.8c-0.5,2.9,2.5,4.2,2.5,4.2s0.1,1.8-1.6-0.2c-1.6-2.1-7.1-1.5-10.4,2.9
				C-243.7,706-240.6,713.7-232.6,712z"/>
			<path d="M-206.3,712c-2.5,0.6-7.2,2.2-10.7,3.7c-4,1.7-7.1,3.2-9.4,4.6c-1.1,0.6-1.7,1.4-1.5,2.1c0.2,0.6,0.9,1.2,1.6,1.2
				c0.1,0,0.3,0,0.4-0.1c0.9-0.4,2-0.9,3.3-1.6c3.4-1.8,8.6-4.5,17.8-6.9c1-0.3,1.5-0.9,1.4-1.6c-0.1-0.8-0.8-1.5-2-1.5
				C-205.8,711.9-206,711.9-206.3,712z"/>
			<path d="M-205.4,793.1L-205.4,793.1l-11.9-3.7l-10.7-3.3c0.5-2.4,0.7-4.5,0.7-4.5l-2.5,1l-0.2,3l-0.9,0.2l-0.1-3.2l-2.6-0.9
				l0.7,4.6l-6.2,1.6c-1.8-0.5-6-1.5-7.6,1.2c-0.2,0.3-0.3,0.6-0.4,0.9l0,0l-10.1,2.6l-0.1,4.9l26.2,12.3l12.2-5.5l13.3-6
				L-205.4,793.1L-205.4,793.1z"/>
			<path d="M-199.9,730.5c1.8-0.1,2.3-0.6,2.6-1.1c0.8-1.2,0.6-1.8-0.3-2c-1-0.2-2.7,1.1-3,2.1
				C-200.8,730.5-201.3,730.6-199.9,730.5z"/>
			<path d="M-212.3,734.6c-0.7,0.9-0.9,1.4,0.2,1.7c1.1,0.3,2.5,0.1,3.4-1.1c0.7-0.9,1-1.4-0.1-1.7
				C-209.9,733.3-211.5,733.4-212.3,734.6z"/>
			<path d="M-211.2,736.9c0.8,0,2-0.2,2.9-1.4c0.5-0.6,0.9-1.1,0.7-1.7c-0.2-0.5-0.7-0.7-1.1-0.7c-0.3-0.1-0.7-0.1-1.1-0.1
				c-0.7,0-2.1,0.2-2.9,1.3c-0.5,0.6-0.8,1.2-0.6,1.7c0.2,0.5,0.7,0.6,1.1,0.7C-211.9,736.8-211.6,736.9-211.2,736.9z M-209.8,733.9
				c0.3,0,0.6,0,0.9,0.1c0.3,0.1,0.4,0.1,0.4,0.1c0,0.1-0.2,0.4-0.5,0.8c-0.2,0.3-0.5,0.5-0.7,0.6c0.1-0.1,0.2-0.2,0.2-0.4
				c0.2-0.5-0.1-1-0.5-1.2C-210,733.9-209.9,733.9-209.8,733.9z M-212.4,735.7c0-0.1,0.2-0.4,0.5-0.8c0.2-0.2,0.4-0.4,0.6-0.5
				c0,0.1-0.1,0.1-0.1,0.2c-0.2,0.5,0.1,1.1,0.7,1.3c0.1,0,0.2,0,0.3,0c-0.2,0.1-0.5,0.1-0.7,0.1c-0.3,0-0.5,0-0.8-0.1
				C-212.3,735.7-212.4,735.7-212.4,735.7L-212.4,735.7z"/>
			<path d="M-201,729.4c-0.1,0.2-0.4,1-0.2,1.3c0.2,0.2,1,0.2,1.3,0.2c1.8-0.1,2.4-0.6,2.9-1.2c0.5-0.8,0.7-1.3,0.5-1.8
				c-0.1-0.4-0.5-0.6-1.1-0.8C-198.7,726.8-200.4,728-201,729.4z M-199.9,730.1c-0.2,0-0.4,0-0.5,0c0.1-0.1,0.1-0.3,0.2-0.6
				c0.1-0.4,0.4-0.7,0.7-1l-0.1,0.1c-0.1,0.5,0.2,1.1,0.7,1.2c0.1,0,0.2,0,0.3,0C-198.9,730-199.4,730.1-199.9,730.1z M-197.7,727.8
				c0.2,0.1,0.5,0.2,0.6,0.3c0,0.1,0.1,0.4-0.4,1.1c-0.1,0.1-0.2,0.2-0.3,0.3c0.1-0.1,0.1-0.2,0.2-0.4c0.1-0.5-0.2-1.1-0.7-1.2
				c-0.1,0-0.2,0-0.2,0c0.3-0.1,0.6-0.2,0.8-0.2C-197.8,727.8-197.8,727.8-197.7,727.8z"/>
			<path d="M-199.6,763.6c-0.9,0-1.7,0.8-1.7,1.7c0,0.9,0.8,1.7,1.7,1.7c0.9,0,1.7-0.8,1.7-1.7
				C-197.9,764.3-198.6,763.6-199.6,763.6z M-199.6,766c-0.4,0-0.7-0.3-0.7-0.7c0-0.4,0.3-0.7,0.7-0.7c0.4,0,0.7,0.3,0.7,0.7
				C-198.8,765.7-199.2,766-199.6,766z"/>
			<path d="M-195.8,773.8c-0.9,0-1.6,0.7-1.6,1.6c0,0.9,0.7,1.6,1.6,1.6c0.9,0,1.6-0.7,1.6-1.6
				C-194.2,774.5-194.9,773.8-195.8,773.8z M-195.8,776c-0.4,0-0.7-0.3-0.7-0.7c0-0.4,0.3-0.6,0.7-0.6c0.4,0,0.7,0.3,0.7,0.6
				C-195.1,775.7-195.4,776-195.8,776z"/>
			<path d="M-188.9,763.2c0.9,0,1.7-0.8,1.7-1.7s-0.8-1.7-1.7-1.7c-0.9,0-1.7,0.8-1.7,1.7S-189.8,763.2-188.9,763.2z M-188.9,760.7
				c0.4,0,0.7,0.3,0.7,0.7s-0.3,0.7-0.7,0.7c-0.4,0-0.7-0.3-0.7-0.7S-189.3,760.7-188.9,760.7z"/>
			<path d="M-185,772.9c0.9,0,1.6-0.7,1.6-1.6s-0.7-1.6-1.6-1.6s-1.6,0.7-1.6,1.6C-186.6,772.1-185.9,772.9-185,772.9z M-185,770.6
				c0.4,0,0.7,0.3,0.7,0.7s-0.3,0.7-0.7,0.7s-0.7-0.3-0.7-0.7S-185.4,770.6-185,770.6z"/>
			<path d="M-143.7,787.4c-1.1-2.7-3.8-2.2-3.8-2.2l0,0c-0.2-0.1-0.4-0.1-0.5-0.2l3.4-3.4l-11.3-7.7c0.1-0.2,0.2-0.3,0.2-0.4
				c0.3-0.7,0.7-1.7,0-3c-0.5-0.8-2.7-2.9-3.5-3.7c0.3-0.5,0.8-1.5,1.1-2.1c0.6-1,0.3-1.8,0.1-2.1c-0.3-0.6-1-0.9-1.6-0.9
				c-0.3,0-0.5,0.1-0.7,0.2c-0.9,0.5-1.3,1-1.5,1.5l-0.2-0.3c-0.8-1.7-2.6-5.2-4.5-8.1c0-0.2-0.1-0.5-0.1-0.7
				c-0.1-0.5-0.5-2.2-0.8-3.3c0.4,0.8,1,1.9,1.2,2.7c0.2,0.5,1.8,3.9,1.9,4.1l0.3-0.1c0,0-0.5-2.6-0.9-4.1c-0.1-0.4-0.6-2.3-1-3.7
				c1,2.1,1.2,2.8,1.5,3.5c0.2,0.6,1.9,4.8,2,4.9l0.3-0.1c-0.6-3.5-0.7-3.9-1.1-5.3l0,0c-0.1-0.5-0.4-1.5-0.7-2.6
				c-0.3-1-0.7-2.3-0.9-3.1c0.6,1.1,1.8,3.2,2.5,5.3c0.7,2.2,2,7.4,2,7.4h0.3c0,0-0.1-3.9-0.7-6.8c-0.7-3-1.7-6.8-2.1-8.4
				c0.8,1.1,2.4,3.6,3.4,7.6c0.5,2.1,1,5.5,1.1,6.7c0.3,3,0.5,3,0.6,3l0,0c0,0,0.1,0,0.2-0.2c0.9-5.5,1.3-13.6-5.4-20.7l-0.2,0.2
				c6.4,6.7,6.3,14.3,5.5,19.7c-0.1-0.7-0.2-1.6-0.3-2.1c-0.1-1.3-0.6-4.7-1.1-6.8c-1.4-5.5-3.9-8.3-3.9-8.3l-0.3,0.1
				c0,0.1,1.5,5.2,2.3,9.1c0.4,1.7,0.6,3.9,0.6,5.3c-0.4-1.7-1.2-4.6-1.7-6.1c-0.9-2.9-2.7-5.8-3-6.1l-0.1-0.1l-0.1,0.1
				c-0.2,0.1-0.2,0.1,1,4.1c0.3,1.1,0.6,2.2,0.7,2.6l0,0c0.3,1.2,0.4,1.7,0.8,3.9c-0.6-1.3-1.3-3.3-1.5-3.6
				c-0.3-0.8-0.6-1.7-2.3-5.2l-0.3,0.1c0,0,1.4,4.9,1.5,5.5c0.2,0.8,0.4,2,0.6,2.8c-0.5-1.1-1.2-2.6-1.3-2.9
				c-0.5-1.4-1.8-3.7-1.8-3.8l-0.3,0.1c0,0,0.8,3.6,1,4.4c-0.2-0.2-0.3-0.4-0.5-0.7c-0.6-0.8-1.1-1.5-1.5-2.1
				c-1.6-2.2-2.7-3.7-5.3-6.6c-1.9-2.1-3.6-3.5-5.1-4.5c0.8,0.1,1.8,0.2,1.8,0.2l0.1-0.3c-0.1,0-1.6-0.7-2.3-1
				c-0.3-0.1-1.1-0.4-1.8-0.6c0.4,0,0.7,0.1,0.9,0.1c0.2,0,0.4,0.1,0.9,0.1c0.9,0.1,3.2,0,3.3,0v-0.3c0,0-1.9-0.6-2.9-0.9
				c-0.5-0.1-2.2-0.5-3.3-0.8c0.9,0,2.2,0,3,0.1c0.5,0.1,4.3,0.2,4.5,0.2v-0.3c0,0-2.5-0.7-4-1.1c-0.4-0.1-2.3-0.5-3.8-0.8
				c2.4,0.1,3.1,0.2,3.8,0.3c0.6,0.1,5.1,0.4,5.3,0.4l0.1-0.3c-3.4-1-3.8-1.1-5.3-1.4c-0.9-0.2-4.5-1.3-6.1-1.8
				c1.3,0.1,3.8,0.5,5.8,0.8l0.4,0.1c2.3,0.4,7.3,1.1,7.3,1.1l0.1-0.3c0,0-3.4-1.9-6.2-2.6c-3.1-0.8-7.6-1.6-9.4-2
				c1.4-0.2,4.5-0.5,8.5,0.4c2,0.4,5.6,1.5,6.8,2c0.1,0,0.3,0.1,0.6,0.2c3.1,1.2,3.1,1.2,3.2,1l0.1-0.1l-0.1-0.1
				c-4.1-4.5-17.2-8-22.7-5l0.1,0.3c5.2-2.9,17.6,0.3,22,4.6c-0.7-0.2-1.9-0.7-2.6-1c-0.3-0.1-0.5-0.2-0.6-0.2
				c-1.2-0.5-4.8-1.6-6.9-2c-5.5-1.2-9.4-0.2-9.4-0.2v0.3c0.1,0,6.3,1.1,10.2,2.1c2,0.5,4.2,1.6,5.4,2.2c-1.5-0.2-4.8-0.7-6.5-1
				l-0.4-0.1c-3.7-0.6-6.4-1-6.8-0.9h-0.1v0.1c0,0.1,0,0.2,3.1,1.2c1.4,0.4,3.3,1,4,1.1c1.2,0.3,1.7,0.4,3.9,1
				c-1.4-0.1-3.5-0.3-3.9-0.3c-0.8-0.1-1.7-0.2-5.7-0.3v0.3c0,0,5,1,5.6,1.1c0.8,0.2,2,0.5,2.8,0.7c-1.2,0-2.9-0.1-3.2-0.1
				c-1.5-0.2-4.1-0.1-4.2-0.1v0.3c0,0,3.7,0.9,4.4,1.1c0.6,0.1,1.4,0.4,2,0.6c-0.8,0-1.8,0-2.3,0c-0.4,0-0.6-0.1-0.9-0.1
				c-0.4-0.1-0.8-0.1-2.3-0.2l-0.1,0.3c0,0,2.5,0.8,3.2,1c0.3,0.1,0.9,0.4,1.3,0.6c-0.5-0.1-1.1-0.1-1.5-0.2c-1.1-0.6-4-1.8-4-1.8
				c-0.1-0.1-3.5-1.6-5.8-2.1c-0.6-0.1-1.1-0.2-1.5-0.3c-0.5-3.1-1.8-5.6-3-6.9c-1.1-1.2-1.8-3-2.5-4.8c-0.6-1.5-1.3-3.1-2.2-4.5
				c-0.4-1.7-1.5-3.3-3-3.8c-0.5-0.2-0.9-0.3-1.4-0.4c0.7-0.6,0.9-1.4,0.8-2c-0.2-1.2-1.2-2.3-3-2.3c-0.3,0-0.5,0-0.8,0.1l-3.7-7.6
				c0.2-0.1,0.3-0.2,0.5-0.3c0.6-0.4,1.2-0.7,2-1.1c1.5-0.6,2.5-1.6,3-3c0.6-1.7,0.4-3.7-0.5-5.7c-1.1-2.2-3.1-3.4-5.6-3.4
				c-1.1,0-2.1,0.2-3.1,0.7c-2.2,1-3.4,2.8-4.1,4.3c-0.2-1.1-0.6-2.4-1.5-3.5c-0.9-1.2-2.4-1.8-4.1-1.8c-3.8,0-8.2,2.9-8.6,5.8
				c-0.2,1.1,0.1,2,0.6,2.8c-0.6-0.3-1.3-0.4-2.1-0.4c-2.2,0-5.4,1.1-7.8,4.2c-1.3,1.7-1.4,4.2-0.3,6.5c1.3,2.6,3.8,4.1,6.9,4.1
				c0.7,0,1.5-0.1,2.4-0.3l1.5-0.4l3.3,7.9c-1.4,1.1-1.3,2.2-1.2,2.7c0.2,0.9,1.1,1.7,2.1,1.9c-1.2,3.1-1,5.3-0.7,8.5
				c0.1,0.6,0.2,1.2,0.3,1.9c0,0.6,0.7,3.5,1.1,4.2c0,0.6,0,1.2,0.2,1.9c0.4,1.5,1.2,2.6,2.3,3.1c0.9,0.4,1.4,0.5,1.9,0.6
				c0.7,0.2,0.8,0.2,1.1,1c0.3,0.7,1.4,1.7,3,2.8c-0.3,0.1-0.5,0.2-0.5,0.2l-10.9,8.7l1.3,1.9c-2.5,2.3-3.9,4.8-5.2,8.2
				c-0.1,0.2-0.2,0.5-0.3,0.7c-2.1,0.9-4,2.6-4.1,5.6c0,1,0,5.5,3.1,7.9l0.6,3.8l-6.4,1.6c-0.8-0.2-1.9-0.4-3-0.4
				c-2,0-3.5,0.7-4.3,2c0,0.1-0.1,0.2-0.1,0.2l-10.5,2.7l0,0v5.9l26.6,12.5l0,0l11.7-5.3l0,0l1.9-0.9l12.1-5.5l0.3-0.1l0.5-6v-0.1
				l-22.6-6.7c0.2-1,0.3-1.8,0.4-2.5c0.1,0,0.2,0,0.4,0c0,0,0,0,0.1,0c0.9,0,1.6-0.5,2-1.3c0.3-0.6,0.3-1.5-0.2-2.4
				c1.1-1.9,1.6-4.2,1.5-6.3c0-0.3-0.1-0.5-0.1-0.8c1.3-0.5,2.5-1.1,3.7-1.8l1.1,1.5l3.5-2.6l4.6,18.9l0.4-0.1c0,0,3.6-0.7,8.2-1.1
				l10.2,24.5l9.9-4c0.1,0.2,0.1,0.4,0.2,0.5c0,0.1,0,0.1,0,0.2c-0.7,0.5-1,2.4-2.1,3.3c-1.4,1.3-3,1-3,1c-2.5,0.3-3.8,4.1-0.8,4.9
				s5.3-0.3,7.6-1.8c0.7-0.5,3.4-2.7,4.6-3.3c1.1-0.5,0.5,0.9,1.6,0.5c1.4-0.6,3.1-1.9,3.6-2.1c1.3-0.5-0.3-1.5-0.3-3
				c0.1-2.9-2.7-3.4-2.7-3.4s0,0,0,0.1c0-0.1-0.1-0.1-0.1-0.2l4.8-1.9l-6.2-12.3l14.8,6.9l5.5-5.5l0.9,0.5c-0.9,0.5-0.2,2.6-1,4.1
				c-0.9,1.7-2.4,2.1-2.4,2.1c-2.2,1.3-2,5.3,1.1,4.8c3.1-0.4,4.8-2.2,6.4-4.5c0.5-0.7,2.2-3.8,3-4.8c0.8-0.9,0.8,0.7,1.6-0.2
				c1-1.1,2.1-2.9,2.5-3.3C-141.3,789.1-143.1,788.8-143.7,787.4z M-161,763.9c0.2-0.4,0.4-0.8,1.2-1.2c0.3-0.1,0.9,0,1.1,0.4
				s0,0.9-0.1,1.2c-0.5,0.8-1.3,2.4-1.3,2.4l-0.2,0.3l0.3,0.2c0.9,0.8,3.1,3.1,3.6,3.8c0.4,0.7,0.4,1.2,0,2.1
				c-0.1,0.2-0.2,0.4-0.4,0.4s-0.6-0.3-1-0.5l-0.2-0.1c-0.1-0.1-0.1-0.1-0.2-0.2v-0.1v-0.1v-0.1c-0.1-0.5-0.5-1-1.5-2
				c-1.4-1.3-2.4-2.1-3.2-2.3c-0.7-0.2-1.2,0.1-1.5,0.6c-0.3,0.6-0.1,1.6,0.2,1.9c0,0.1,0.2,0.2,0.4,0.5c-0.7-0.4-1.4-0.8-1.9-0.8
				c-0.2,0-0.4,0-0.5,0.1c-0.4,0.2-0.6,0.6-0.7,1.1c-0.1,0.3,0,0.8,0.4,1.3c0.2,0.3,0.5,0.7,0.8,1c-0.7,0-1.3,0.1-1.6,0.5
				c-0.1,0.1-0.2,0.2-0.3,0.3c-0.7-0.5-1.4-1-1.8-1.7c-0.9-1.7,0.2-2.7,1.5-3.8c0.5-0.4,0.9-0.7,0.9-1c0.3-2.3,1.5-3.6,3.3-3.6
				c0.3,0,0.7,0,1,0.1C-161.6,764.9-161.3,764.3-161,763.9z M-164.3,774.2c0,0-1-1.1-1.6-1.9c-0.2-0.2-0.2-0.4-0.2-0.6
				s0.2-0.4,0.3-0.4c0.6,0,2.5,1.4,3.7,2.3l0.7-0.6c-0.5-0.6-2-2.8-2.2-3c-0.1-0.1-0.2-0.7,0-1c0-0.1,0.1-0.1,0.3,0
				c0.3,0.1,1.2,0.5,2.8,2c0.9,0.8,1.1,1.2,1.2,1.4c-0.4,0.9-1.5,2.9-2.5,3.6c-0.6,0.4-1.4,0.6-2.2,0.6c-1,0-1.9-0.3-2.5-0.8
				c-0.3-0.2-0.5-0.4-0.5-0.4c0.1-0.1,0.2-0.2,0.3-0.3c0,0,0.2-0.2,0.8-0.2c0.6,0,1.2,0.1,1.2,0.1l1.4,0.3L-164.3,774.2z
				 M-162.7,763.7c-0.3-0.1-0.6-0.1-0.9-0.1c-2.3,0-3.9,1.7-4.3,4.4c-0.1,0.1-0.4,0.3-0.6,0.5c-0.7,0.5-1.7,1.3-2.1,2.4l-6.7-6.2
				l10.4-8.3l4.1,7.1C-162.8,763.5-162.7,763.6-162.7,763.7z M-191.2,740.7c2.2-0.4,4.3-1,6.3-1.7c3.2,1,6,2.1,9.9,6.5
				c2.6,2.9,3.7,4.4,5.3,6.6c0.5,0.6,0.9,1.3,1.5,2.1c0.3,0.4,0.6,0.8,0.9,1.3l-11.5,9.2l8,7.4c0,0.4,0.2,0.9,0.4,1.4
				c0.1,0.1,0.1,0.2,0.2,0.3c-1.4,1.5-2.9,2.8-4.1,3.5c-0.1,0-0.2,0.1-0.3,0.1l-18.3-30.3c0.1-0.3,0.1-0.5,0.2-0.8
				c0.2-0.6,0.4-1.3,0.6-2.1C-191.5,742.9-191.3,741.8-191.2,740.7z M-175.3,777.7c-6.6,3.5-15.8,7.9-22.5,8.2c-0.2,0-0.5,0-0.7,0
				l-9.7-33.3c0.6,0.1,1.2,0.2,1.7,0.3c0.9,0.1,1.6,0.2,2.3,0.3c1.2,0.1,2.1,0.3,2.9,0.3c1.5,0,2.5-0.4,4.5-1.4
				c2.4-1.2,3.2-2.1,3.8-3.9L-175.3,777.7z M-192.7,743.7c-0.2,0.8-0.4,1.5-0.6,2.2c-0.9,3.2-1.1,3.9-4,5.3c-2,1-2.8,1.3-4,1.3
				c-0.7,0-1.6-0.1-2.8-0.2c-0.7-0.1-1.4-0.2-2.3-0.3c-0.4,0-0.8-0.1-1.3-0.2c0.5-0.4,1-0.8,1.5-1.4c1.9-2.2,2.5-3.5,3.5-5.9
				c0.1-0.2,0.2-0.4,0.2-0.6c1.2,0.8,2.7,1.3,3.7,0.6c1.1-0.7,1.3-2.3,1.3-3.5c0.6,0.1,1.3,0.1,1.9,0.1c1.2,0,2.3-0.1,3.4-0.3
				C-192.3,741.8-192.4,742.8-192.7,743.7z M-201.7,742.3c0.2-0.6,0.5-1.1,0.8-1.8c0.7,0.2,1.4,0.3,2.1,0.4
				C-199.6,741.8-200.7,742.2-201.7,742.3z M-230.4,710.9l-2.3,0.6c-3.7,0.8-6.7-0.5-8.1-3.3c-0.9-1.9-0.9-4.1,0.2-5.5
				c2.2-2.9,5.1-3.9,7-3.9c1.2,0,2.1,0.4,2.6,1c0.6,0.8,1.1,1.2,1.6,1.2c0.2,0,0.4-0.1,0.5-0.2c0.3-0.3,0.3-0.9,0.3-1v-0.3l-0.3-0.1
				c-0.1,0-2.7-1.2-2.3-3.7c0.4-2.4,4.4-5,7.7-5c1,0,2.4,0.3,3.4,1.5c1.8,2.3,1.3,5.5,1.3,5.5l0.9,0.2c0-0.1,0.1-0.3,0.2-0.5
				c0.4-1.3,1.3-4.4,4.3-5.8c0.9-0.4,1.8-0.6,2.7-0.6c1.2,0,3.5,0.4,4.7,2.9c0.8,1.7,1,3.5,0.5,4.9c-0.4,1.1-1.2,1.9-2.5,2.4
				c-0.9,0.4-1.5,0.7-2.2,1.1c-0.3,0.2-0.5,0.3-0.8,0.5l-0.4,0.2l4,8.2c-2.6,0.7-6.9,2.1-10.2,3.6c-4,1.7-7.1,3.2-9.5,4.6
				L-230.4,710.9z M-225.9,723.5c-0.1,0-0.3,0.1-0.4,0.1c-0.7,0-1.5-0.5-1.6-1.2c-0.2-0.7,0.3-1.5,1.5-2.1c2.4-1.3,5.4-2.8,9.4-4.6
				c3.6-1.6,8.3-3.1,10.7-3.7c0.3-0.1,0.5-0.1,0.8-0.1c1.2,0,1.9,0.8,2,1.5c0.1,0.8-0.4,1.4-1.4,1.6c-9.2,2.4-14.3,5.1-17.8,6.9
				C-223.9,722.6-225,723.1-225.9,723.5z M-219.8,745.4c-0.1-0.2-0.3-0.9-0.3-1c0.4-0.1,0.4-0.3,0.5-0.3c0-0.1,0.1-0.4-0.1-0.6
				c-0.3-0.3-0.6-0.2-0.8-0.1c-0.1,0-0.2,0.1-0.3,0.6c-0.3,0.1-0.7,0-0.7,0c-0.4-0.1-0.9-0.2-1.7-0.6c-0.8-0.4-1.5-1.3-1.8-2.5
				c-0.3-1.1-0.2-2.1,0.1-2.5v-0.1c0.3,0,0.7,0,1.2,0.1c4.1,0.8,5.5-0.8,4.5-3c-1.6,0.7-3.3,0.6-2.9-1.2c0.2-0.8,0.5-1.1,2.4-1.3
				c1.9-0.1,2.8-1.3,2.8-1.4c-0.5-0.2-1.4-0.5-1.6-1.1c-0.4-0.9-0.3-1.6,0.3-2.4c0.7-0.9,3.2-1.4,3.2,1.1c0.7,0.2,2.1,0,2.5-0.9
				c0.9-1.9,0.1-2.1-0.1-4.2c3.6,0.7,6,0.6,6.5,0.1s-2.6-0.8-2.2-3.3c3.9,2.2,5.5,0.6,6.7-0.3c0.4-0.2-0.6-0.2-1.6-0.2
				c-3.3-0.3-2.6-2.1-1.3-2.3c1-0.2,2.2-0.3,4.6,2c0.9,1.4,1.6,3,2.2,4.5c0.8,1.9,1.5,3.7,2.7,5.1c1.1,1.2,2.2,3.4,2.7,6.2
				c-0.6-0.1-1.1-0.1-1.6-0.1c-2.2,0-4.1,0.7-7.8,2.5c-3.8,1.8-7.7,5-8.9,7.3c-1.2,2.5-1.5,3-1.9,5
				C-216.2,748.6-219.4,746.2-219.8,745.4z M-233.5,786.6l0.5,3.5c-1.1-0.6-3.2-1.7-5.2-2.3L-233.5,786.6z M-228,799.5l-2-0.2
				l-0.2,1.2c-0.8-0.5-1.9-1.4-2-2.5c-0.1-1.9,0.4-2.9,0.9-3.4l0.2-0.1l0,0C-230,797-228.9,798.6-228,799.5z M-230.6,782.9
				c0.1,0,0.2,0,0.2,0l-0.2,2.2V782.9z M-231.9,790.8l-1.3-8.4c0.3,0.1,0.6,0.3,0.9,0.4c0.2,0.1,0.7,0.1,0.7,0.1l0.3,8.6
				L-231.9,790.8z M-246.4,789.3c0.6-1,1.8-1.5,3.4-1.5s3.3,0.5,4.1,0.7l0.3,0.1c2.6,0.7,5.4,2.4,5.9,2.7l1.1,1.5
				c-1.7-0.4-4.9-1.2-7.8-1.8c-0.9-0.2-1.9-0.3-3-0.3c-2.1,0-3.8,0.3-4.8,0.6C-247.1,790.8-246.9,790.1-246.4,789.3z M-242.4,791.7
				c0.1,0,0.2,0,0.3,0c1,0.7,3.1,1.3,3.8,1.4c0.2,0,1.9,0.3,4.3,0.1c0.8,0.2,1.5,0.4,2.1,0.5c-1.2,0.4-2.5,0.7-6.8,0.9
				c-3.3,0.2-7-0.5-8.2-1.6c-0.2-0.2-0.3-0.3-0.3-0.5C-245.9,791.8-244,791.7-242.4,791.7z M-249,797.1l-0.2,3.6l-7.8-3.6l-0.1-3.9
				l8.1,3.4C-249,796.8-249,797.1-249,797.1z M-256.5,792.4l8.6-2.2c-0.3,0.9-0.4,1.7-0.4,1.7v0.5c0,0.5,0.2,0.9,0.7,1.4
				s1.4,0.9,2.4,1.2l-2.1,0.5c-0.1,0-0.6,0.1-1.1,0.4L-256.5,792.4z M-244.4,799l-0.3,3.7l-3.5-1.6l0.2-4c0-0.1,0-0.4,0.1-0.5
				c0.3-0.2,0.7-0.3,0.8-0.3l4.1-0.9c1,0.2,2.1,0.2,3.2,0.2c0.4,0,0.8,0,1.1,0c0.6,0,1.1-0.1,1.5-0.1l-5.2,1.7
				c-0.2,0-1.1,0.3-1.5,0.6C-244.5,798.3-244.4,798.9-244.4,799z M-231.9,808.8l-12-5.6l0.3-4.2c0,0,0-0.1,0.1-0.2l11.6,4.8V808.8z
				 M-231.4,802.9l-11.2-4.7c0.2-0.1,0.3-0.1,0.4-0.1l9.5-3c-0.3,0.7-0.5,1.7-0.5,3c0.1,2.3,3,3.6,3.1,3.6l0.6,0.3l0.2-1.6l2.6,0.3
				l0.3-0.9c0,0-2-1.2-3.5-4.8l6.5,4.8L-231.4,802.9z M-230.1,791.6l0.6-8.7c0,0,0.8-0.2,0.9-0.2c0.1,0.1,0.3,0.2,0.5,0.2
				c-0.2,1.8-0.7,4.8-1.4,6.9C-229.7,790.4-229.9,791-230.1,791.6z M-222.8,798.9l-6.3-4.6l4.4,1.6c0.6,0.2,1.2,0.4,1.7,0.6
				c1.5,0.5,2.7,0.9,3.1,1.6c0.2,0.4,0.3,1.3,0.2,1.8v1.3l-1.1-0.7l-1.3,1.1v-1.8C-222,799.7-222,799.3-222.8,798.9z M-230.9,809
				v-5.3l8-3.2v3l2.3-2l0.9,0.6l0.1,1.6L-230.9,809z M-214.9,801.7l-3.8,1.7v-3.5c0.1-0.6,0-1.7-0.4-2.3c-0.6-1-1.9-1.4-3.6-2
				c-0.5-0.2-5.3-1.9-5.3-1.9l1.3-0.4l10.8,3.5c0.4,0.2,0.9,0.4,0.9,0.6c0,0.2,0.1,0.7,0.1,1V801.7z M-206.3,797.8l-7.7,3.5v-3
				c0-0.1,0-0.8-0.1-1.2c0,0,0,0,0-0.1l8.1-3.2L-206.3,797.8z M-206.2,792.9l-8.5,3.3c-0.3-0.2-0.6-0.3-0.9-0.4l-9.8-3.1l8.4-3
				L-206.2,792.9z M-219.5,789.1l1,0.3l-9,3.2l-2,0.6c0.1-0.4,0.3-0.9,0.5-1.4l7.9-3L-219.5,789.1z M-222.5,788.1l-6.2,2.4
				c0-0.1,0.1-0.2,0.1-0.3c0.4-1.1,0.7-2.4,0.9-3.6L-222.5,788.1z M-225.6,781.4c-0.2,0.5-0.6,0.7-1.1,0.7c-0.1,0-0.2,0-0.3,0
				c0-0.2,0-0.4,0.1-0.4c0.5-0.4,1-0.9,1.4-1.4C-225.4,780.8-225.5,781.2-225.6,781.4z M-227.8,781.2l-0.7,0.3
				c1.8-2,2.1-4.7,1.8-5.4c-0.1-0.4-0.4-0.4-0.5-0.4s-0.4,0.1-0.5,0.3c-0.1,0.2-1.9,5.3-2.1,5.6c-0.3,0.3-0.5,0.3-0.6,0.4
				c-0.1-0.5,0.2-2,0.3-2.9c0.3-1.6,0.5-2.4,0.1-2.9c-0.1-0.1-0.3-0.2-0.5-0.2c-0.1,0-0.2,0-0.4,0.1c-0.6,0.3-0.7,1.4-0.7,3.8
				c0,0.3,0,0.7,0,1.1c-0.2-0.3-1.1-3-1.3-3.7c-0.5-1.7-0.9-1.8-1.3-1.6c-0.2,0.1-0.2,0.4,0,1.2c0.2,1,1.5,4.4,1.7,4.8l-0.4-0.1
				c-3.5-1.9-3.5-6.6-3.5-7.6c0.2-5.4,6.7-5.5,7-5.5c1.4,0.1,4.7,1.6,5,4.8C-224.1,776.1-225.3,779.5-227.8,781.2z M-223.8,771.5
				c-1.1-2.5-3.8-3.9-5.5-4c-0.8,0-1.7,0.1-2.7,0.4c1.2-3.2,2.5-5.6,4.8-7.8l6.8,9.7C-221.5,770.4-222.7,771-223.8,771.5z
				 M-209.9,787.3l-4.8-19.4l-3.9,2.9l-9.2-13.1l10.1-8.1c0.1-0.1,0.5-0.2,1-0.5c1.2,0.8,2.7,1.5,4.2,2.1c-0.1,0.3-0.1,0.6-0.2,0.9
				l-0.3,1.4l0.5-0.1c1.4-0.3,2.4-0.5,3.3-0.9l9.8,33.4C-204.3,786.3-208.5,787-209.9,787.3z M-175.6,807.6c-3.1,1.7-4.2,1-5,0.7
				c0-0.2-0.1-0.3-0.1-0.5c-0.1-0.2-0.1-0.4-0.2-0.6l6.7-2.7c0.2,0.3,0.3,0.6,0.5,0.9C-174.2,806.2-174.8,807.2-175.6,807.6z
				 M-160.2,795.8l-16.7-7.8l7,13.8l-21.3,8.6l-9.8-23.3c1-0.1,2.1-0.2,3.2-0.2c7.4-0.3,17.3-5.2,24-8.9c1.3-0.7,2.8-2,4.3-3.5
				c0.5,0.5,1,0.9,1.6,1.2c0.1,0.3,0.4,0.5,0.8,0.8c0.8,0.6,1.9,1,3.1,1c1,0,1.9-0.2,2.7-0.7c1.1-0.6,2-2.2,2.6-3.2
				c0,0,0.1,0,0.1,0.1l0.2,0.1c0.6,0.4,1,0.7,1.5,0.7h0.1l10.7,7.3L-160.2,795.8z M-148.7,788.9c-1.5,1.8-2.6,2.3-3.4,2.5l-1.6-0.7
				l5-5c0.4,0.2,0.8,0.4,1.2,0.5C-147.6,787.1-148.1,788.1-148.7,788.9z"/>
			<path d="M-202.3,727.1c0.1,0,0.2-0.1,0.3-0.2c1.5-1.8,4-2.3,4.1-2.4c0.2-0.1,0.1-0.4,0.1-0.4c-0.2-0.3-0.9-0.8-1.8-0.8
				c-0.4,0-0.8,0.1-1.2,0.3c-1.4,0.8-2,2.6-1.8,3.2C-202.6,727-202.4,727.1-202.3,727.1z"/>
			<path d="M-208.4,729.3c0.5,0,0.9,0,1.6,0.6c1.1,1,0.4,6.5,3.2,7.9c1,0.5,2.2,0.2,3-0.4c1.3-0.9,1.2-2.7,0.7-4
				c-0.1-0.3-0.8-0.1-0.7,0.2c0.6,1.8,0,5.1-2.7,3.7c-1.5-0.8-1.9-3.5-2.1-5c-0.3-2.4-1.1-4.4-3.9-4.4h-0.1c-1.3,0-2.8,0.7-3.9,1.9
				c-0.8,0.9-1.2,1.9-1.1,2.8v0.1l0,0c0.1,0.1,0.1,0.1,0.2,0.1c0.2,0,0.4-0.2,1-0.8C-212.1,731.1-210.4,729.5-208.4,729.3z"/>
			<path d="M-111.5,738.8c0.4,0,0.8,0.1,1.2,0.4c0.4,0.2,0.7,0.6,0.8,1c0,0.2,0,0.4,0,0.5v0.5c1.4-0.4,2.7-0.6,3.9-0.7
				c1.3-0.1,2.5-0.2,3.9-0.2c1.4,0,2.8,0.1,4.4,0.4c1.6,0.3,3,0.8,4.3,1.4c1.3,0.7,2.4,1.6,3.3,2.8c0.9,1.2,1.3,2.6,1.3,4.4
				c0,1.3-0.2,2.5-0.7,3.8s-1,2.4-1.6,3.2c-1.9,2.6-4,4.9-6.5,6.9c-2.5,1.9-5.5,3.7-8.9,5.3c-0.8,0.4-1.8,0.8-2.8,1.2
				c-1.1,0.4-2.1,0.7-3.2,0.8c-0.2,0.3-0.5,0.5-0.8,0.6c-0.3,0.2-0.6,0.2-1,0.2c-0.1,0-0.3,0-0.5-0.1c-0.2-0.1-0.4-0.2-0.7-0.3
				c-0.2-0.2-0.4-0.3-0.6-0.6c-0.2-0.2-0.2-0.5-0.2-0.8c0-0.2,0-0.4,0.1-0.6c0,0,0-0.1,0-0.3c0-0.2,0-0.4,0.1-0.6
				c0-0.2,0.1-0.4,0.2-0.6c0.1-0.2,0.2-0.3,0.3-0.4c0.1-0.5,0.2-1.2,0.3-2.3s0.2-2.4,0.3-3.8c0.1-1.4,0.2-2.9,0.3-4.6
				c0.1-1.6,0.2-3.1,0.3-4.6c0.1-1.5,0.2-2.8,0.2-3.9c0.1-1.1,0.1-2,0.1-2.5c-0.2-0.2-0.2-0.5-0.2-0.8c0-0.2,0.1-0.5,0.2-0.9
				l0.1-1.1c0-0.2,0-0.5,0-0.8c0-0.3,0-0.6,0-0.9c0-0.7,0.2-1.2,0.6-1.6C-112.5,739-112,738.8-111.5,738.8 M-107.3,744.3
				c-0.3,0.1-0.7,0.2-1.1,0.3s-0.8,0.2-1.1,0.4c0,0.6-0.1,1.4-0.1,2.6c-0.1,1.2-0.1,2.5-0.2,4c-0.1,1.5-0.2,3-0.3,4.6
				c-0.1,1.6-0.2,3.1-0.3,4.5c-0.1,1.4-0.2,2.7-0.3,3.7c-0.1,1.1-0.2,1.8-0.3,2.3c1.4-0.3,2.8-0.9,4.3-1.6c1.5-0.8,3-1.6,4.4-2.6
				c1.4-0.9,2.7-1.9,3.9-2.9c1.2-1,2.1-1.9,2.8-2.8c0.4-0.5,0.8-1,1.2-1.6c0.4-0.6,0.7-1.2,1-1.8c0.3-0.6,0.5-1.3,0.7-2
				c0.2-0.7,0.3-1.3,0.3-2c0-1.1-0.2-2-0.7-2.8c-0.5-0.7-1.2-1.3-2-1.7s-1.8-0.7-2.9-0.9c-1.1-0.2-2.2-0.3-3.3-0.3
				c-0.9,0-1.7,0-2.6,0.1c-0.8,0.1-1.6,0.2-2.2,0.3L-107.3,744.3z"/>
			<path d="M-82.2,770.5c-1,0-1.9-0.2-2.8-0.6c-0.9-0.4-1.6-0.9-2.2-1.7c-0.6-0.8-1.1-1.7-1.4-2.8c-0.3-1.1-0.4-2.4-0.3-3.9
				c0.1-1.4,0.4-2.8,1-4.1c0.6-1.4,1.3-2.6,2.2-3.7c0.9-1.1,1.9-2,3.1-2.7c1.2-0.7,2.4-1,3.7-1c0.7,0,1.3,0.2,1.9,0.5
				c0.5,0.3,0.9,0.7,1.2,1.2c0.3,0.5,0.5,1,0.6,1.6c0.1,0.6,0.2,1.2,0.1,1.8c-0.1,1.3-0.5,2.5-1.2,3.5s-1.5,1.9-2.5,2.7
				s-2,1.4-3.2,1.8c-1.1,0.5-2.2,0.8-3.2,0.9c0.2,1.1,0.6,1.8,1.2,2.2c0.5,0.4,1.1,0.6,1.7,0.6c0.6,0,1.2-0.1,1.8-0.2
				c0.6-0.2,1.2-0.4,1.7-0.6c0.5-0.3,1-0.6,1.5-0.9c0.4-0.4,0.8-0.8,1-1.2c0.2-0.4,0.5-0.5,0.9-0.5s0.8,0.2,1.2,0.4
				c0.3,0.2,0.6,0.5,0.8,0.9s0.2,0.7,0,1.1c-0.5,0.8-1,1.4-1.8,2c-0.7,0.6-1.5,1.1-2.3,1.4c-0.8,0.4-1.6,0.7-2.5,0.9
				C-80.7,770.4-81.5,770.5-82.2,770.5 M-78.9,753.6c-0.6,0-1.3,0.2-1.9,0.6c-0.6,0.4-1.2,0.9-1.8,1.6c-0.6,0.7-1,1.4-1.5,2.2
				c-0.4,0.8-0.7,1.6-0.9,2.4c0.6-0.1,1.3-0.3,2.1-0.6c0.7-0.3,1.4-0.7,2.1-1.1c0.7-0.5,1.2-1,1.7-1.6c0.5-0.6,0.7-1.4,0.8-2.2
				c0.1-0.5,0-0.9-0.1-1C-78.6,753.7-78.7,753.6-78.9,753.6"/>
			<path d="M-60.5,739.6c0,1.2-0.3,2.7-0.9,4.3s-1.3,3.2-2.1,4.8c-0.1,0.7-0.2,1.3-0.3,2.1c-0.1,0.7-0.2,1.4-0.4,2.1
				c-0.3,1.3-0.5,2.5-0.7,3.8c-0.2,1.2-0.3,2.5-0.5,3.7c-0.2,1.2-0.2,2.4-0.2,3.7c0,1,0.1,2,0.2,3s0.4,2,0.7,3.1
				c0.1,0.2,0.1,0.3,0.1,0.3v0.2c0,0.5-0.2,0.9-0.5,1.2c-0.3,0.3-0.7,0.4-1.2,0.4c-0.7,0-1.2-0.3-1.7-1c-0.4-0.6-0.7-1.4-0.9-2.3
				c-0.2-0.9-0.3-1.8-0.4-2.8s-0.1-1.8-0.1-2.4c0-1.4,0.1-2.7,0.2-4s0.3-2.6,0.5-3.9c-0.5,0-0.9-0.1-1.3-0.4
				c-0.4-0.3-0.5-0.7-0.5-1.3c0-0.2,0-0.4,0.1-0.6c0.5-1,1.1-2,1.6-3s1-2,1.5-3c0.1-0.3,0.1-0.7,0.2-1c0-0.3,0.1-0.7,0.2-1
				c0.1-0.6,0.2-1.4,0.4-2.3c0.2-0.9,0.4-1.8,0.7-2.7c0.3-0.9,0.7-1.6,1.2-2.2c0.5-0.6,1.1-0.9,1.9-0.9c0.5,0,1,0.2,1.5,0.5
				S-60.5,738.8-60.5,739.6L-60.5,739.6L-60.5,739.6z"/>
			<path d="M-55.1,764.4c0,0.4,0,0.8,0,1.1c0,0.3,0.1,0.6,0.2,0.9c0.1,0.2,0.2,0.5,0.3,0.8c0.1,0.3,0.2,0.6,0.2,0.9
				c0,0.6-0.3,1.1-0.8,1.4c-0.5,0.3-1,0.5-1.6,0.5c-0.2,0-0.4,0-0.7-0.1c-0.3,0-0.5-0.2-0.8-0.5s-0.5-0.7-0.6-1.3
				c-0.2-0.6-0.2-1.4-0.2-2.5c0-0.2,0-0.7,0.1-1.7c0.1-0.9,0.1-2,0.2-3.1c0.1-1,0.1-1.9,0.2-2.8c0-0.9,0.1-1.5,0.1-1.8
				c0-0.7,0.1-1.3,0.1-2c0-0.7,0.1-1.3,0.2-1.8s0.3-1,0.6-1.3c0.3-0.3,0.6-0.5,1.1-0.5c0.7,0,1.2,0.2,1.7,0.6s0.7,1,0.7,1.7
				c0,0,0,0,0,0.2s0,0.4-0.1,0.7c-0.1,0.5-0.1,1.3-0.2,2.2c-0.1,0.9-0.2,1.9-0.3,2.9c-0.1,1-0.2,2-0.3,2.9
				C-55,763.2-55.1,763.9-55.1,764.4 M-55,747.1c-0.6,0-1.1-0.2-1.6-0.7s-0.8-1.2-0.8-2.2c0-0.7,0.2-1.2,0.5-1.4s0.9-0.4,1.6-0.4
				c0.6,0,1.1,0.2,1.5,0.5c0.5,0.3,0.7,1,0.7,1.9c0,0.8-0.2,1.4-0.7,1.7C-54.2,746.9-54.6,747.1-55,747.1"/>
			<path d="M-42.8,771c-0.5,0-1-0.2-1.4-0.6c-0.4-0.4-0.8-1-1-1.8c-0.4-1.7-0.8-3.4-1.3-4.9c-0.5-1.6-1-3.1-1.5-4.6
				c-0.2-0.7-0.5-1.4-0.7-2.1s-0.5-1.4-0.7-2.1c0-0.6,0.2-1.1,0.5-1.4c0.4-0.3,0.8-0.4,1.2-0.4c0.3,0,0.6,0,1,0.1
				c0.3,0,0.6,0.3,0.8,0.8l1.5,4.9c0.2,0.6,0.3,1,0.5,1.4s0.3,0.7,0.4,1s0.2,0.7,0.3,1.1c0.1,0.4,0.3,0.9,0.4,1.4
				c0.4-1.2,0.9-2.4,1.5-3.7c0.6-1.3,1.2-2.5,1.9-3.8c0.7-1.2,1.4-2.4,2.1-3.6c0.7-1.1,1.5-2.2,2.2-3.1c0.2-0.2,0.5-0.4,0.8-0.5
				s0.5-0.1,0.8-0.1c0.5,0,0.9,0.1,1.3,0.4s0.6,0.6,0.6,1.1c0,0.2,0,0.3-0.1,0.5c-0.1,0.2-0.2,0.3-0.3,0.5c-0.8,1.1-1.7,2.4-2.6,3.8
				c-0.9,1.4-1.7,2.9-2.5,4.5c-0.8,1.6-1.4,3.1-2,4.7c-0.6,1.6-1,3.1-1.2,4.5C-40.3,770.3-41.2,771-42.8,771"/>
			<path d="M-24.1,770.5c-1,0-1.9-0.2-2.8-0.6c-0.9-0.4-1.6-0.9-2.2-1.7c-0.6-0.8-1.1-1.7-1.4-2.8c-0.3-1.1-0.4-2.4-0.3-3.9
				c0.1-1.4,0.4-2.8,1-4.1c0.6-1.4,1.3-2.6,2.2-3.7c0.9-1.1,1.9-2,3.1-2.7c1.2-0.7,2.4-1,3.7-1c0.7,0,1.3,0.2,1.9,0.5
				c0.5,0.3,0.9,0.7,1.2,1.2c0.3,0.5,0.5,1,0.6,1.6s0.2,1.2,0.1,1.8c-0.1,1.3-0.5,2.5-1.2,3.5s-1.5,1.9-2.5,2.7s-2,1.4-3.2,1.8
				c-1.1,0.5-2.2,0.8-3.2,0.9c0.2,1.1,0.6,1.8,1.2,2.2c0.5,0.4,1.1,0.6,1.7,0.6s1.2-0.1,1.8-0.2c0.6-0.2,1.2-0.4,1.7-0.6
				c0.5-0.3,1-0.6,1.5-0.9c0.4-0.4,0.8-0.8,1-1.2c0.2-0.4,0.5-0.5,0.9-0.5s0.8,0.2,1.2,0.4c0.3,0.2,0.6,0.5,0.8,0.9
				c0.2,0.4,0.2,0.7,0,1.1c-0.5,0.8-1,1.4-1.8,2c-0.7,0.6-1.5,1.1-2.3,1.4c-0.8,0.4-1.6,0.7-2.5,0.9
				C-22.6,770.4-23.4,770.5-24.1,770.5 M-20.9,753.6c-0.6,0-1.3,0.2-1.9,0.6s-1.2,0.9-1.8,1.6c-0.6,0.7-1,1.4-1.5,2.2
				c-0.4,0.8-0.7,1.6-0.9,2.4c0.6-0.1,1.3-0.3,2.1-0.6c0.7-0.3,1.4-0.7,2.1-1.1c0.7-0.5,1.2-1,1.7-1.6c0.5-0.6,0.7-1.4,0.8-2.2
				c0.1-0.5,0-0.9-0.1-1C-20.5,753.8-20.7,753.6-20.9,753.6"/>
			<path d="M3.1,749.4c0.1,0.4,0.2,0.7,0.2,1c0,0.3-0.1,0.7-0.2,1c-0.1,0.3-0.4,0.6-0.8,0.8c-0.2,0.1-0.3,0.1-0.4,0.1H1.6
				c-0.1,0-0.2,0-0.3,0c-1.3,0.6-2.4,1.4-3.4,2.3c-0.9,1-1.7,2-2.3,3.3c-0.6,1.2-1.1,2.5-1.4,3.9c-0.3,1.4-0.5,2.8-0.5,4.2v1.7
				c0,0.4,0,0.8-0.1,1.2c0,0.4-0.1,0.7-0.3,1c-0.1,0.3-0.3,0.5-0.6,0.7c-0.3,0.2-0.6,0.3-1.1,0.3c-0.6,0-1.1-0.2-1.6-0.5
				c-0.2-0.2-0.4-0.5-0.6-1c-0.2-0.4-0.2-1.1-0.2-2l0,0c0-0.6,0.1-1.2,0.1-1.8s0-1.2,0-1.9c0-1.8-0.2-3.7-0.5-5.7
				c-0.3-1.9-0.8-3.7-1.6-5.2l0,0c-0.2-0.2-0.2-0.5,0-0.9c0.1-0.4,0.4-0.7,0.7-1c0.3-0.3,0.7-0.5,1.1-0.6c0.5-0.1,0.9,0.1,1.5,0.5
				c0.4,0.3,0.7,0.8,1,1.4c0.2,0.7,0.4,1.7,0.7,3c0,0.2,0,0.3,0,0.3c0,0.1,0.1,0.2,0.1,0.4c1-1.6,2.1-3.1,3.4-4.5s2.9-2.5,4.7-3.3
				c0.6-0.2,1.1-0.2,1.6,0C2.5,748.6,2.9,749,3.1,749.4"/>
			<path d="M4.8,770.4c-0.7,0-1.3-0.2-1.7-0.5c-0.5-0.4-0.8-0.8-1.1-1.4c-0.3-0.5-0.5-1.1-0.6-1.7s-0.2-1.2-0.2-1.7
				c0-1.2,0.1-2.2,0.2-3c0.2-0.9,0.4-1.7,0.7-2.6c0.2-0.6,0.6-1.5,1.1-2.6s1.1-2.1,1.8-3.1s1.5-1.9,2.3-2.6c0.9-0.8,1.7-1.1,2.6-1.1
				c0.7,0,1.3,0.2,1.7,0.7s0.6,1,0.6,1.4c0,0.6-0.2,1.1-0.5,1.4c-0.3,0.3-0.6,0.4-0.9,0.5c-0.3,0-0.6,0-0.7,0c-0.1,0-0.3,0-0.5,0
				c-0.4,0.1-0.8,0.4-1.4,0.9c-1.2,1.2-2.2,2.6-2.8,4.2s-0.9,3.2-0.9,5c0,0.6,0.1,1.1,0.3,1.5s0.4,0.6,0.5,0.6s0.3-0.1,0.7-0.3
				c0.4-0.2,0.9-0.6,1.4-1.1c0.6-0.5,1.2-1.3,1.8-2.2s1.2-2.1,1.7-3.5c0.2-0.7,0.4-1.3,0.5-1.8c0.1-0.6,0.1-1,0.2-1.5
				c0.2-1.2,0.4-2,0.6-2.6c0.3-0.5,0.8-0.8,1.7-0.8c0.4,0,0.8,0.1,1.1,0.4c0.3,0.2,0.4,0.7,0.4,1.4c0,0.6,0,1.1-0.1,1.6
				s-0.2,1-0.3,1.5c-0.2,0.8-0.4,1.6-0.4,2.2c-0.1,0.7-0.1,1.4-0.1,2.2c0,1.5,0.1,2.9,0.4,4.1c0.3,1.2,0.7,2.2,1.1,2.9
				c0.1,0.2,0.3,0.4,0.3,0.7c0.1,0.2,0.1,0.4,0.1,0.6c0,0.6-0.2,1-0.7,1.2c-0.4,0.2-0.9,0.3-1.3,0.3c-0.5,0-0.8-0.2-1.2-0.5
				c-0.3-0.3-0.6-0.8-0.9-1.4c-0.2-0.6-0.4-1.2-0.6-1.9c-0.2-0.7-0.3-1.4-0.4-2.1c-1.2,1.6-2.3,2.8-3.5,3.7
				C6.9,770,5.8,770.4,4.8,770.4"/>
			<path d="M22.4,772.5c-0.2,0.1-0.3,0.1-0.5,0.2s-0.3,0.1-0.5,0.1c-0.3,0-0.5-0.1-0.7-0.2c-0.2-0.2-0.4-0.4-0.5-0.6
				s-0.2-0.5-0.2-0.7s-0.1-0.4-0.1-0.5c0-0.4,0.1-0.8,0.3-1.2s0.5-0.7,0.8-0.7c0.3-0.1,0.6-0.1,0.8,0s0.5,0.1,0.8,0.1s0.5,0,0.7,0
				s0.5-0.1,0.9-0.3c0.3-0.1,0.8-0.3,1.4-0.5c0.6-0.2,1.2-0.5,1.8-0.9s1.1-0.7,1.6-1.2c0.4-0.4,0.7-0.8,0.7-1.2
				c0-0.3-0.2-0.5-0.6-0.7c-0.4-0.2-0.8-0.4-1.3-0.5c-0.5-0.2-0.9-0.3-1.2-0.3c-0.4-0.1-0.5-0.1-0.5-0.1c-0.7-0.2-1.4-0.4-2.3-0.6
				c-0.9-0.2-1.7-0.6-2.4-1c-0.8-0.4-1.4-0.9-1.9-1.6c-0.5-0.6-0.8-1.4-0.8-2.4c0-1.2,0.4-2.3,1.2-3.2c0.8-0.9,1.7-1.7,2.8-2.3
				s2.3-1.1,3.5-1.4c1.2-0.3,2.2-0.5,3-0.5c0.5,0,1,0.1,1.5,0.3c0.5,0.2,0.8,0.6,0.8,1.2c0,1.6-0.6,2.3-1.8,2.3
				c-0.2,0-0.5-0.1-0.6-0.2c-0.2-0.1-0.4-0.2-0.5-0.2c-0.7,0-1.5,0.1-2.2,0.3c-0.7,0.2-1.4,0.5-2,0.8c-0.6,0.3-1.1,0.7-1.4,1.1
				c-0.4,0.4-0.5,0.8-0.5,1.1c0,0.3,0.1,0.6,0.4,0.8c0.3,0.3,0.6,0.5,1,0.7c0.4,0.2,0.9,0.4,1.3,0.5c0.5,0.2,0.9,0.3,1.3,0.4
				c0.9,0.2,1.8,0.5,2.6,0.8s1.6,0.6,2.2,1c0.6,0.4,1.1,0.8,1.5,1.3s0.5,1.1,0.5,1.8c0,1.2-0.4,2.3-1.1,3.2
				c-0.8,0.9-1.7,1.7-2.8,2.4c-1.1,0.7-2.3,1.2-3.6,1.6C24.5,772,23.4,772.3,22.4,772.5"/>
			<path d="M38.8,770c-0.5,0-1-0.2-1.5-0.6c-0.5-0.4-0.8-1-0.8-1.8c-0.1-0.8,0-1.3,0.2-1.6c0.2-0.3,0.7-0.5,1.3-0.6
				c0.2,0,0.4,0,0.8,0c0.4,0,0.8,0.1,1.2,0.3c0.4,0.2,0.6,0.7,0.7,1.4c0.1,1,0,1.7-0.5,2.2C39.8,769.7,39.3,770,38.8,770"/>
			<path d="M47.1,769.5c-1.1,0-2-0.4-2.4-1.1c-0.5-0.7-0.7-1.8-0.7-3.3c0-1,0.1-2.1,0.3-3.2c0.2-1.2,0.5-2.3,0.9-3.5
				c0.4-1.2,0.8-2.3,1.4-3.3c0.5-1.1,1.1-2,1.7-2.8c0.6-0.8,1.3-1.5,1.9-2c0.7-0.5,1.3-0.7,2-0.7c0.5,0,1,0,1.4,0s0.8,0.1,1.2,0.2
				c0.4,0.1,0.8,0.3,1.2,0.6c0.4,0.3,0.8,0.7,1.2,1.2c0.2,0.3,0.4,0.6,0.4,1c0,0.5-0.2,1-0.6,1.3c-0.4,0.4-0.9,0.6-1.4,0.6
				c-0.3,0-0.5-0.1-0.7-0.2c-0.2-0.2-0.4-0.3-0.6-0.5c-0.1-0.1-0.2-0.2-0.3-0.3s-0.3-0.1-0.4-0.1c-0.2,0-0.5,0.1-0.8,0.3
				s-0.6,0.4-0.8,0.6c-1.3,1.2-2.3,2.7-3,4.5c-0.7,1.8-1.1,3.9-1.1,6.1l0,0c0.7-0.1,1.6-0.5,2.5-1.1c1-0.6,1.9-1.3,2.7-2.2
				c0.9-0.8,1.6-1.7,2.2-2.6c0.6-0.9,0.9-1.8,0.9-2.5c0-0.1,0-0.2,0-0.2s0-0.1,0-0.2s0-0.2,0-0.3v-0.4c0-0.3,0.2-0.7,0.7-1
				c0.5-0.3,1-0.5,1.5-0.5c0.7,0,1.2,0.3,1.4,0.9c0.3,0.6,0.4,1.3,0.3,2.1c0.2,1.7,0.4,3.2,0.6,4.7c0.1,1.5,0.2,2.9,0.2,4.3
				c0,1.2-0.1,2.5-0.2,4c-0.2,1.4-0.4,2.9-0.7,4.4s-0.7,2.9-1.2,4.2c-0.5,1.4-1,2.6-1.6,3.6c-0.6,1.1-1.2,1.9-2,2.5
				c-0.7,0.6-1.5,0.9-2.3,0.9c-0.2,0-0.4,0-0.6,0c-0.2,0-0.4-0.1-0.6-0.2c-0.2-0.1-0.3-0.2-0.5-0.4c-0.1-0.2-0.2-0.4-0.2-0.8
				c0-0.5,0.1-0.9,0.4-1.3c0.3-0.3,0.6-0.6,1-0.7c0.8-0.9,1.5-2,2-3.3c0.5-1.3,1-2.6,1.3-4c0.3-1.4,0.6-2.9,0.7-4.4
				c0.2-1.5,0.2-3.1,0.2-4.6v-0.9v-0.6c0-0.2,0-0.4,0-0.6s0-0.5-0.1-0.8c-0.4,0.5-0.7,0.9-0.9,1.2s-0.4,0.5-0.6,0.7
				c-0.2,0.2-0.3,0.4-0.4,0.5c-0.1,0.1-0.2,0.2-0.4,0.3c-0.4,0.4-0.9,0.8-1.5,1.2s-1.2,0.8-1.8,1.2c-0.7,0.4-1.3,0.7-2,0.9
				C48.4,769.4,47.8,769.5,47.1,769.5"/>
			<path d="M80.8,749.4c0.1,0.4,0.2,0.7,0.2,1c0,0.3-0.1,0.7-0.2,1c-0.1,0.3-0.4,0.6-0.8,0.8c-0.2,0.1-0.3,0.1-0.4,0.1h-0.5
				c-0.1,0-0.2,0-0.3,0c-1.3,0.6-2.4,1.4-3.4,2.3c-0.9,1-1.7,2-2.3,3.3c-0.6,1.2-1.1,2.5-1.4,3.9c-0.3,1.4-0.5,2.8-0.5,4.2v1.7
				c0,0.4,0,0.8-0.1,1.2c0,0.4-0.1,0.7-0.3,1c-0.1,0.3-0.3,0.5-0.6,0.7c-0.3,0.2-0.6,0.3-1.1,0.3c-0.6,0-1.1-0.2-1.6-0.5
				c-0.2-0.2-0.4-0.5-0.6-1c-0.2-0.4-0.2-1.1-0.2-2l0,0c0-0.6,0.1-1.2,0.1-1.8s0-1.2,0-1.9c0-1.8-0.2-3.7-0.5-5.7
				c-0.3-1.9-0.8-3.7-1.6-5.2l0,0c-0.2-0.2-0.2-0.5,0-0.9c0.1-0.4,0.4-0.7,0.7-1c0.3-0.3,0.7-0.5,1.1-0.6c0.5-0.1,0.9,0.1,1.5,0.5
				c0.4,0.3,0.7,0.8,1,1.4c0.2,0.7,0.4,1.7,0.7,3c0,0.2,0,0.3,0,0.3c0,0.1,0.1,0.2,0.1,0.4c1-1.6,2.1-3.1,3.4-4.5
				c1.3-1.4,2.9-2.5,4.7-3.3c0.6-0.2,1.1-0.2,1.6,0C80.3,748.6,80.5,749,80.8,749.4"/>
		</g>
		<g>
			<g>
				<g>
					<g>
						<path class="st3" d="M-162.9,762.6c0.3-0.5,0.6-1,1.8-2c0.8-0.6,2.6,0.4,1.6,2.2c-0.5,0.8-1.3,2.4-1.3,2.4s1.3,1.2,2.3,2.3
							c4.4-7.4,3.6-18.9-2.9-28.9c-8.2-12.8-22.5-18.3-31.8-12.3c-0.8,0.5-1.4,1-2.1,1.6c1.5,2,3.1,6,2.7,10.8
							c2.5-0.4,4.8-1.1,7-1.8c3.3,1,6.1,2.1,10.1,6.6c3.4,3.8,4.1,5.1,6.8,8.7C-165.9,756.2-163.1,762.3-162.9,762.6z"/>
						<g>
							<path class="st4" d="M-228.1,757.8c-2.6,2.2-4,4.7-5.4,8.4c-0.1,0.3-0.3,0.6-0.3,0.9l0,0c-1.9,0.7-3.9,2.3-4,5.3
								c-0.1,2.2,0.4,7.1,4.7,8.5c0.6,0.2,0.8,0.2,0.8-0.1l0,0c0.5-0.4,0-5.4,0.7-5.8c1.4-0.7-2.2,8.1,1,5.4
								c0.1-0.1,0.2-0.2,0.3-0.2c-0.1,0.5-0.1,0.9,0.3,0.7c0.2-0.1,0.4-0.2,0.6-0.3c0.1,0.3,0.5,0.5,1.7,0.5c1.4,0,2.3-1.7,1.3-3.3
								c1.2-1.9,1.7-4.2,1.6-6.2c0-0.4-0.1-0.8-0.2-1.1c1.5-0.6,3-1.3,4.4-2.1L-228.1,757.8z M-234.7,775.2
								c-0.3-2.4,0.4,0.7,1.1,3.2C-234.1,777.5-234.6,776.4-234.7,775.2z"/>
							<path class="st4" d="M-200.9,717.4c-0.8-1.6-0.9-2.3-3.6-3.4c-0.1,0-1.1-0.2-1.3-0.2c-12.6,3.4-17.6,7.2-21,8.5
								c-0.1,0-0.3,0.1-0.4,0.1c-1.7,3.7-1.2,5.6-0.8,10.1c0.1,1.5,0.9,2.9,1,3.8c0.2,1.3,0.4,4.7,2.6,5.7s2.5,0.3,3.2,1.9
								c0.6,1.6,7.8,6.3,13.7,6.9c5.6,0.6,5.7,1,9.4-0.8c3.7-1.8,3.3-2.8,4.8-7.8c2.1-6.8-0.4-12.5-2.3-14.7
								C-197.9,725.1-199.1,721.1-200.9,717.4z"/>
							<path class="st4" d="M-157.1,769.1c-0.5-0.9-3.6-3.9-3.6-3.9s0.8-1.6,1.3-2.4c1-1.8-0.9-2.8-1.6-2.2c-1.5,1.1-1.9,2-1.8,1.9
								l-2.3-4.6l-2.4-4.1l-11.4,9.1l7.8,7.1c0,0.4,0.1,0.9,0.4,1.4c0.7,1.3,2.1,2,3.3,2.9c1.2,0.9,2.8,0.7,4.2,0.3
								c1.4-0.3,2.3-2.1,2.8-3.1c0.3-0.6,0.2-0.7,1.2,0c1,0.7,1.7,1.2,2.3,0C-156.7,770.8-156.6,770-157.1,769.1z"/>
						</g>
						<g>
							<path class="st5" d="M-147.8,784.3c-0.5-0.1-1.3-0.4-2.1-0.8l3.5-3.5l-11.3-7.8c-0.4,0.2-1-0.2-1.6-0.7
								c-1-0.7-0.9-0.6-1.2-0.1c-0.5,1-1.4,2.7-2.8,3.2c-1.4,0.5-2.9,0.5-4.2-0.3c-1.3-0.8-2.9-1.9-3.4-3.1
								c-0.2-0.4-0.3-1.1-0.3-1.1l-7.8-7.1l11.4-9.1c0,0-0.5-0.8-1.2-1.6c-2.7-3.6-3.4-4.9-6.8-8.7c-4-4.5-6.8-5.6-10.1-6.6
								c-2.2,0.7-4.5,1.4-7,1.8c-0.1,1.1-0.3,2.3-0.7,3.4c-1.5,4.9-1.1,5.9-4.8,7.8c-3.7,1.8-3.8,1.4-9.4,0.8
								c-0.7-0.1-1.5-0.2-2.3-0.4c-0.9,0.5-2.1,0.8-3.8,1.1c0.2-0.9,0.3-1.7,0.5-2.3c-1.7-0.7-3.3-1.5-4.6-2.4
								c-0.8,0.4-1.2,0.6-1.2,0.6l-10.5,8.4l9.8,13.9l3.7-2.8l4.7,19.2c0,0,9.2-1.2,8.6-1.2l10.2,24.4l9.9-4c0.2,0.4,0.3,0.7,0.4,1
								c1,3.2-3.4,4.8-5.4,5.9c-1.4,0.7-1.1,2.3,0.5,2.7c3.1,0.7,7.1-3.9,9.4-4.6c2.9-0.8,4.5-1.9,4.9-3.3c0.6-1.9-0.5-3.3-2.2-4.7
								l4.8-1.9l-6.6-13l15.8,7.4l5.5-5.5l2.2,1.2c0,0-0.4,5.3-4,7.2c-2.8,1.5,2.1,4,5.9-1.7c2.9-4.4,3-4.2,3.7-4.6
								C-145.1,789.9-142.9,785.3-147.8,784.3z"/>
							<path class="st5" d="M-233.6,710.4l1.9-0.5l3.6,8.6c0.1-0.1,0.3-0.2,0.4-0.3c2.2-1.3,5.2-2.7,9.5-4.6
								c3.6-1.5,8.1-3.1,10.7-3.7l-4-8.3c1.1-0.6,1.7-1.1,2.9-1.6c3.6-1.5,3.6-5.2,2.2-8c-1.7-3.4-5.5-3.7-8.1-2.5
								c-3.7,1.6-4.4,5.7-4.7,6.5c0,0,0.5-3.4-1.4-5.9c-3.1-3.9-11.3-0.1-11.9,3.8c-0.5,2.9,2.5,4.2,2.5,4.2s0.1,1.8-1.6-0.2
								c-1.6-2.1-7.1-1.5-10.4,2.9C-244.7,704.4-241.6,712.1-233.6,710.4z"/>
							<path class="st5" d="M-207.3,710.4c-2.5,0.6-7.2,2.2-10.7,3.7c-4,1.7-7.1,3.2-9.4,4.6c-1.1,0.6-1.7,1.4-1.5,2.1
								c0.2,0.6,0.9,1.2,1.6,1.2c0.1,0,0.3,0,0.4-0.1c0.9-0.4,2-0.9,3.3-1.6c3.4-1.8,8.6-4.5,17.8-6.9c1-0.3,1.5-0.9,1.4-1.6
								c-0.1-0.8-0.8-1.5-2-1.5C-206.8,710.3-207,710.3-207.3,710.4z"/>
							<path class="st5" d="M-206.4,791.5L-206.4,791.5l-11.9-3.7l-10.7-3.3c0.5-2.4,0.7-4.5,0.7-4.5l-2.5,1l-0.2,3l-0.9,0.2
								l-0.1-3.2l-2.6-0.9l0.7,4.6l-6.2,1.6c-1.8-0.5-6-1.5-7.6,1.2c-0.2,0.3-0.3,0.6-0.4,0.9l0,0l-10.1,2.6l-0.1,4.9l26.2,12.3
								l12.2-5.5l13.3-6L-206.4,791.5L-206.4,791.5z"/>
							<path class="st5" d="M-200.9,728.9c1.8-0.1,2.3-0.6,2.6-1.1c0.8-1.2,0.6-1.8-0.3-2c-1-0.2-2.7,1.1-3,2.1
								C-201.8,728.9-202.3,729-200.9,728.9z"/>
							<path class="st5" d="M-213.3,733c-0.7,0.9-0.9,1.4,0.2,1.7s2.5,0.1,3.4-1.1c0.7-0.9,1-1.4-0.1-1.7
								C-210.9,731.7-212.5,731.8-213.3,733z"/>
						</g>
						<g>
							<path d="M-212.2,735.3c0.8,0,2-0.2,2.9-1.4c0.5-0.6,0.9-1.1,0.7-1.7c-0.2-0.5-0.7-0.7-1.1-0.7c-0.3-0.1-0.7-0.1-1.1-0.1
								c-0.7,0-2.1,0.2-2.9,1.3c-0.5,0.6-0.8,1.2-0.6,1.7c0.2,0.5,0.7,0.6,1.1,0.7C-212.9,735.2-212.6,735.3-212.2,735.3z
								 M-210.8,732.3c0.3,0,0.6,0,0.9,0.1c0.3,0.1,0.4,0.1,0.4,0.1c0,0.1-0.2,0.4-0.5,0.8c-0.2,0.3-0.5,0.5-0.7,0.6
								c0.1-0.1,0.2-0.2,0.2-0.4c0.2-0.5-0.1-1-0.5-1.2C-211,732.3-210.9,732.3-210.8,732.3z M-213.4,734.1c0-0.1,0.2-0.4,0.5-0.8
								c0.2-0.2,0.4-0.4,0.6-0.5c0,0.1-0.1,0.1-0.1,0.2c-0.2,0.5,0.1,1.1,0.7,1.3c0.1,0,0.2,0,0.3,0c-0.2,0.1-0.5,0.1-0.7,0.1
								c-0.3,0-0.5,0-0.8-0.1C-213.3,734.1-213.4,734.1-213.4,734.1L-213.4,734.1z"/>
							<path d="M-202,727.8c-0.1,0.2-0.4,1-0.2,1.3c0.2,0.2,1,0.2,1.3,0.2c1.8-0.1,2.4-0.6,2.9-1.2c0.5-0.8,0.7-1.3,0.5-1.8
								c-0.1-0.4-0.5-0.6-1.1-0.8C-199.7,725.2-201.4,726.4-202,727.8z M-200.9,728.5c-0.2,0-0.4,0-0.5,0c0.1-0.1,0.1-0.3,0.2-0.6
								c0.1-0.4,0.4-0.7,0.7-1l-0.1,0.1c-0.1,0.5,0.2,1.1,0.7,1.2c0.1,0,0.2,0,0.3,0C-199.9,728.4-200.4,728.5-200.9,728.5z
								 M-198.7,726.2c0.2,0.1,0.5,0.2,0.6,0.3c0,0.1,0.1,0.4-0.4,1.1c-0.1,0.1-0.2,0.2-0.3,0.3c0.1-0.1,0.1-0.2,0.2-0.4
								c0.1-0.5-0.2-1.1-0.7-1.2c-0.1,0-0.2,0-0.2,0c0.3-0.1,0.6-0.2,0.8-0.2C-198.8,726.2-198.8,726.2-198.7,726.2z"/>
							<path d="M-200.6,762c-0.9,0-1.7,0.8-1.7,1.7c0,0.9,0.8,1.7,1.7,1.7c0.9,0,1.7-0.8,1.7-1.7C-198.9,762.7-199.6,762-200.6,762z
								 M-200.6,764.4c-0.4,0-0.7-0.3-0.7-0.7c0-0.4,0.3-0.7,0.7-0.7c0.4,0,0.7,0.3,0.7,0.7C-199.8,764.1-200.2,764.4-200.6,764.4z"
								/>
							<path d="M-196.8,772.2c-0.9,0-1.6,0.7-1.6,1.6c0,0.9,0.7,1.6,1.6,1.6s1.6-0.7,1.6-1.6C-195.2,772.9-195.9,772.2-196.8,772.2z
								 M-196.8,774.4c-0.4,0-0.7-0.3-0.7-0.7c0-0.4,0.3-0.6,0.7-0.6c0.4,0,0.7,0.3,0.7,0.6C-196.1,774.1-196.4,774.4-196.8,774.4z"
								/>
							<path d="M-189.9,761.6c0.9,0,1.7-0.8,1.7-1.7s-0.8-1.7-1.7-1.7c-0.9,0-1.7,0.8-1.7,1.7S-190.8,761.6-189.9,761.6z
								 M-189.9,759.1c0.4,0,0.7,0.3,0.7,0.7s-0.3,0.7-0.7,0.7c-0.4,0-0.7-0.3-0.7-0.7S-190.3,759.1-189.9,759.1z"/>
							<path d="M-186,771.3c0.9,0,1.6-0.7,1.6-1.6c0-0.9-0.7-1.6-1.6-1.6s-1.6,0.7-1.6,1.6C-187.6,770.5-186.9,771.3-186,771.3z
								 M-186,769c0.4,0,0.7,0.3,0.7,0.7s-0.3,0.7-0.7,0.7s-0.7-0.3-0.7-0.7S-186.4,769-186,769z"/>
							<path d="M-144.7,785.8c-1.1-2.7-3.8-2.2-3.8-2.2l0,0c-0.2-0.1-0.4-0.1-0.5-0.2l3.4-3.4l-11.3-7.7c0.1-0.2,0.2-0.3,0.2-0.4
								c0.3-0.7,0.7-1.7,0-3c-0.5-0.8-2.7-2.9-3.5-3.7c0.3-0.5,0.8-1.5,1.1-2.1c0.6-1,0.3-1.8,0.1-2.1c-0.3-0.6-1-0.9-1.6-0.9
								c-0.3,0-0.5,0.1-0.7,0.2c-0.9,0.5-1.3,1-1.5,1.5l-0.2-0.3c-0.8-1.7-2.6-5.2-4.5-8.1c0-0.2-0.1-0.5-0.1-0.7
								c-0.1-0.5-0.5-2.2-0.8-3.3c0.4,0.8,1,1.9,1.2,2.7c0.2,0.5,1.8,3.9,1.9,4.1l0.3-0.1c0,0-0.5-2.6-0.9-4.1
								c-0.1-0.4-0.6-2.3-1-3.7c1,2.1,1.2,2.8,1.5,3.5c0.2,0.6,1.9,4.8,2,4.9l0.3-0.1c-0.6-3.5-0.7-3.9-1.1-5.3l0,0
								c-0.1-0.5-0.4-1.5-0.7-2.6c-0.3-1-0.7-2.3-0.9-3.1c0.6,1.1,1.8,3.2,2.5,5.3c0.7,2.2,2,7.4,2,7.4h0.3c0,0-0.1-3.9-0.7-6.8
								c-0.7-3-1.7-6.8-2.1-8.4c0.8,1.1,2.4,3.6,3.4,7.6c0.5,2.1,1,5.5,1.1,6.7c0.3,3,0.5,3,0.6,3l0,0c0,0,0.1,0,0.2-0.2
								c0.9-5.5,1.3-13.6-5.4-20.7l-0.2,0.2c6.4,6.7,6.3,14.3,5.5,19.7c-0.1-0.7-0.2-1.6-0.3-2.1c-0.1-1.3-0.6-4.7-1.1-6.8
								c-1.4-5.5-3.9-8.3-3.9-8.3l-0.3,0.1c0,0.1,1.5,5.2,2.3,9.1c0.4,1.7,0.6,3.9,0.6,5.3c-0.4-1.7-1.2-4.6-1.7-6.1
								c-0.9-2.9-2.7-5.8-3-6.1l-0.1-0.1l-0.1,0.1c-0.2,0.1-0.2,0.1,1,4.1c0.3,1.1,0.6,2.2,0.7,2.6l0,0c0.3,1.2,0.4,1.7,0.8,3.9
								c-0.6-1.3-1.3-3.3-1.5-3.6c-0.3-0.8-0.6-1.7-2.3-5.2l-0.3,0.1c0,0,1.4,4.9,1.5,5.5c0.2,0.8,0.4,2,0.6,2.8
								c-0.5-1.1-1.2-2.6-1.3-2.9c-0.5-1.4-1.8-3.7-1.8-3.8l-0.3,0.1c0,0,0.8,3.6,1,4.4c-0.2-0.2-0.3-0.4-0.5-0.7
								c-0.6-0.8-1.1-1.5-1.5-2.1c-1.6-2.2-2.7-3.7-5.3-6.6c-1.9-2.1-3.6-3.5-5.1-4.5c0.8,0.1,1.8,0.2,1.8,0.2l0.1-0.3
								c-0.1,0-1.6-0.7-2.3-1c-0.3-0.1-1.1-0.4-1.8-0.6c0.4,0,0.7,0.1,0.9,0.1c0.2,0,0.4,0.1,0.9,0.1c0.9,0.1,3.2,0,3.3,0v-0.3
								c0,0-1.9-0.6-2.9-0.9c-0.5-0.1-2.2-0.5-3.3-0.8c0.9,0,2.2,0,3,0.1c0.5,0.1,4.3,0.2,4.5,0.2v-0.3c0,0-2.5-0.7-4-1.1
								c-0.4-0.1-2.3-0.5-3.8-0.8c2.4,0.1,3.1,0.2,3.8,0.3c0.6,0.1,5.1,0.4,5.3,0.4l0.1-0.3c-3.4-1-3.8-1.1-5.3-1.4
								c-0.9-0.2-4.5-1.3-6.1-1.8c1.3,0.1,3.8,0.5,5.8,0.8l0.4,0.1c2.3,0.4,7.3,1.1,7.3,1.1l0.1-0.3c0,0-3.4-1.9-6.2-2.6
								c-3.1-0.8-7.6-1.6-9.4-2c1.4-0.2,4.5-0.5,8.5,0.4c2,0.4,5.6,1.5,6.8,2c0.1,0,0.3,0.1,0.6,0.2c3.1,1.2,3.1,1.2,3.2,1l0.1-0.1
								l-0.1-0.1c-4.1-4.5-17.2-8-22.7-5l0.1,0.3c5.2-2.9,17.6,0.3,22,4.6c-0.7-0.2-1.9-0.7-2.6-1c-0.3-0.1-0.5-0.2-0.6-0.2
								c-1.2-0.5-4.8-1.6-6.9-2c-5.5-1.2-9.4-0.2-9.4-0.2v0.3c0.1,0,6.3,1.1,10.2,2.1c2,0.5,4.2,1.6,5.4,2.2c-1.5-0.2-4.8-0.7-6.5-1
								l-0.4-0.1c-3.7-0.6-6.4-1-6.8-0.9h-0.1v0.1c0,0.1,0,0.2,3.1,1.2c1.4,0.4,3.3,1,4,1.1c1.2,0.3,1.7,0.4,3.9,1
								c-1.4-0.1-3.5-0.3-3.9-0.3c-0.8-0.1-1.7-0.2-5.7-0.3v0.3c0,0,5,1,5.6,1.1c0.8,0.2,2,0.5,2.8,0.7c-1.2,0-2.9-0.1-3.2-0.1
								c-1.5-0.2-4.1-0.1-4.2-0.1v0.3c0,0,3.7,0.9,4.4,1.1c0.6,0.1,1.4,0.4,2,0.6c-0.8,0-1.8,0-2.3,0c-0.4,0-0.6-0.1-0.9-0.1
								c-0.4-0.1-0.8-0.1-2.3-0.2l-0.1,0.3c0,0,2.5,0.8,3.2,1c0.3,0.1,0.9,0.4,1.3,0.6c-0.5-0.1-1.1-0.1-1.5-0.2
								c-1.1-0.6-4-1.8-4-1.8c-0.1-0.1-3.5-1.6-5.8-2.1c-0.6-0.1-1.1-0.2-1.5-0.3c-0.5-3.1-1.8-5.6-3-6.9c-1.1-1.2-1.8-3-2.5-4.8
								c-0.6-1.5-1.3-3.1-2.2-4.5c-0.4-1.7-1.5-3.3-3-3.8c-0.5-0.2-0.9-0.3-1.4-0.4c0.7-0.6,0.9-1.4,0.8-2c-0.2-1.2-1.2-2.3-3-2.3
								c-0.3,0-0.5,0-0.8,0.1l-3.7-7.6c0.2-0.1,0.3-0.2,0.5-0.3c0.6-0.4,1.2-0.7,2-1.1c1.5-0.6,2.5-1.6,3-3c0.6-1.7,0.4-3.7-0.5-5.7
								c-1.1-2.2-3.1-3.4-5.6-3.4c-1.1,0-2.1,0.2-3.1,0.7c-2.2,1-3.4,2.8-4.1,4.3c-0.2-1.1-0.6-2.4-1.5-3.5
								c-0.9-1.2-2.4-1.8-4.1-1.8c-3.8,0-8.2,2.9-8.6,5.8c-0.2,1.1,0.1,2,0.6,2.8c-0.6-0.3-1.3-0.4-2.1-0.4c-2.2,0-5.4,1.1-7.8,4.2
								c-1.3,1.7-1.4,4.2-0.3,6.5c1.3,2.6,3.8,4.1,6.9,4.1c0.7,0,1.5-0.1,2.4-0.3l1.5-0.4l3.3,7.9c-1.4,1.1-1.3,2.2-1.2,2.7
								c0.2,0.9,1.1,1.7,2.1,1.9c-1.2,3.1-1,5.3-0.7,8.5c0.1,0.6,0.2,1.2,0.3,1.9c0,0.6,0.7,3.5,1.1,4.2c0,0.6,0,1.2,0.2,1.9
								c0.4,1.5,1.2,2.6,2.3,3.1c0.9,0.4,1.4,0.5,1.9,0.6c0.7,0.2,0.8,0.2,1.1,1c0.3,0.7,1.4,1.7,3,2.8c-0.3,0.1-0.5,0.2-0.5,0.2
								l-10.9,8.7l1.3,1.9c-2.5,2.3-3.9,4.8-5.2,8.2c-0.1,0.2-0.2,0.5-0.3,0.7c-2.1,0.9-4,2.6-4.1,5.6c0,1,0,5.5,3.1,7.9l0.6,3.8
								l-6.4,1.6c-0.8-0.2-1.9-0.4-3-0.4c-2,0-3.5,0.7-4.3,2c0,0.1-0.1,0.2-0.1,0.2l-10.5,2.7l0,0v5.9l26.6,12.5l0,0l11.7-5.3l0,0
								l1.9-0.9l12.1-5.5l0.3-0.1l0.5-6v-0.1l-22.6-6.7c0.2-1,0.3-1.8,0.4-2.5c0.1,0,0.2,0,0.4,0c0,0,0,0,0.1,0c0.9,0,1.6-0.5,2-1.3
								c0.3-0.6,0.3-1.5-0.2-2.4c1.1-1.9,1.6-4.2,1.5-6.3c0-0.3-0.1-0.5-0.1-0.8c1.3-0.5,2.5-1.1,3.7-1.8l1.1,1.5l3.5-2.6l4.6,18.9
								l0.4-0.1c0,0,3.6-0.7,8.2-1.1l10.2,24.5l9.9-4c0.1,0.2,0.1,0.4,0.2,0.5c0,0.1,0,0.1,0,0.2c-0.7,0.5-1,2.4-2.1,3.3
								c-1.4,1.3-3,1-3,1c-2.5,0.3-3.8,4.1-0.8,4.9c3,0.8,5.3-0.3,7.6-1.8c0.7-0.5,3.4-2.7,4.6-3.3c1.1-0.5,0.5,0.9,1.6,0.5
								c1.4-0.6,3.1-1.9,3.6-2.1c1.3-0.5-0.3-1.5-0.3-3c0.1-2.9-2.7-3.4-2.7-3.4s0,0,0,0.1c0-0.1-0.1-0.1-0.1-0.2l4.8-1.9l-6.2-12.3
								l14.8,6.9l5.5-5.5l0.9,0.5c-0.9,0.5-0.2,2.6-1,4.1c-0.9,1.7-2.4,2.1-2.4,2.1c-2.2,1.3-2,5.3,1.1,4.8c3.1-0.4,4.8-2.2,6.4-4.5
								c0.5-0.7,2.2-3.8,3-4.8c0.8-0.9,0.8,0.7,1.6-0.2c1-1.1,2.1-2.9,2.5-3.3C-142.3,787.5-144.1,787.2-144.7,785.8z M-162,762.3
								c0.2-0.4,0.4-0.8,1.2-1.2c0.3-0.1,0.9,0,1.1,0.4c0.2,0.4,0,0.9-0.1,1.2c-0.5,0.8-1.3,2.4-1.3,2.4l-0.2,0.3l0.3,0.2
								c0.9,0.8,3.1,3.1,3.6,3.8c0.4,0.7,0.4,1.2,0,2.1c-0.1,0.2-0.2,0.4-0.4,0.4s-0.6-0.3-1-0.5l-0.2-0.1c-0.1-0.1-0.1-0.1-0.2-0.2
								V771v-0.1v-0.1c-0.1-0.5-0.5-1-1.5-2c-1.4-1.3-2.4-2.1-3.2-2.3c-0.7-0.2-1.2,0.1-1.5,0.6c-0.3,0.6-0.1,1.6,0.2,1.9
								c0,0.1,0.2,0.2,0.4,0.5c-0.7-0.4-1.4-0.8-1.9-0.8c-0.2,0-0.4,0-0.5,0.1c-0.4,0.2-0.6,0.6-0.7,1.1c-0.1,0.3,0,0.8,0.4,1.3
								c0.2,0.3,0.5,0.7,0.8,1c-0.7,0-1.3,0.1-1.6,0.5c-0.1,0.1-0.2,0.2-0.3,0.3c-0.7-0.5-1.4-1-1.8-1.7c-0.9-1.7,0.2-2.7,1.5-3.8
								c0.5-0.4,0.9-0.7,0.9-1c0.3-2.3,1.5-3.6,3.3-3.6c0.3,0,0.7,0,1,0.1C-162.6,763.3-162.3,762.7-162,762.3z M-165.3,772.6
								c0,0-1-1.1-1.6-1.9c-0.2-0.2-0.2-0.4-0.2-0.6c0-0.2,0.2-0.4,0.3-0.4c0.6,0,2.5,1.4,3.7,2.3l0.7-0.6c-0.5-0.6-2-2.8-2.2-3
								c-0.1-0.1-0.2-0.7,0-1c0-0.1,0.1-0.1,0.3,0c0.3,0.1,1.2,0.5,2.8,2c0.9,0.8,1.1,1.2,1.2,1.4c-0.4,0.9-1.5,2.9-2.5,3.6
								c-0.6,0.4-1.4,0.6-2.2,0.6c-1,0-1.9-0.3-2.5-0.8c-0.3-0.2-0.5-0.4-0.5-0.4c0.1-0.1,0.2-0.2,0.3-0.3c0,0,0.2-0.2,0.8-0.2
								c0.6,0,1.2,0.1,1.2,0.1l1.4,0.3L-165.3,772.6z M-163.7,762.1c-0.3-0.1-0.6-0.1-0.9-0.1c-2.3,0-3.9,1.7-4.3,4.4
								c-0.1,0.1-0.4,0.3-0.6,0.5c-0.7,0.5-1.7,1.3-2.1,2.4l-6.7-6.2l10.4-8.3l4.1,7.1C-163.8,761.9-163.7,762-163.7,762.1z
								 M-192.2,739.1c2.2-0.4,4.3-1,6.3-1.7c3.2,1,6,2.1,9.9,6.5c2.6,2.9,3.7,4.4,5.3,6.6c0.5,0.6,0.9,1.3,1.5,2.1
								c0.3,0.4,0.6,0.8,0.9,1.3l-11.5,9.2l8,7.4c0,0.4,0.2,0.9,0.4,1.4c0.1,0.1,0.1,0.2,0.2,0.3c-1.4,1.5-2.9,2.8-4.1,3.5
								c-0.1,0-0.2,0.1-0.3,0.1l-18.3-30.3c0.1-0.3,0.1-0.5,0.2-0.8c0.2-0.6,0.4-1.3,0.6-2.1C-192.5,741.3-192.3,740.2-192.2,739.1z
								 M-176.3,776.1c-6.6,3.5-15.8,7.9-22.5,8.2c-0.2,0-0.5,0-0.7,0l-9.7-33.3c0.6,0.1,1.2,0.2,1.7,0.3c0.9,0.1,1.6,0.2,2.3,0.3
								c1.2,0.1,2.1,0.3,2.9,0.3c1.5,0,2.5-0.4,4.5-1.4c2.4-1.2,3.2-2.1,3.8-3.9L-176.3,776.1z M-193.7,742.1
								c-0.2,0.8-0.4,1.5-0.6,2.2c-0.9,3.2-1.1,3.9-4,5.3c-2,1-2.8,1.3-4,1.3c-0.7,0-1.6-0.1-2.8-0.2c-0.7-0.1-1.4-0.2-2.3-0.3
								c-0.4,0-0.8-0.1-1.3-0.2c0.5-0.4,1-0.8,1.5-1.4c1.9-2.2,2.5-3.5,3.5-5.9c0.1-0.2,0.2-0.4,0.2-0.6c1.2,0.8,2.7,1.3,3.7,0.6
								c1.1-0.7,1.3-2.3,1.3-3.5c0.6,0.1,1.3,0.1,1.9,0.1c1.2,0,2.3-0.1,3.4-0.3C-193.3,740.2-193.4,741.2-193.7,742.1z
								 M-202.7,740.7c0.2-0.6,0.5-1.1,0.8-1.8c0.7,0.2,1.4,0.3,2.1,0.4C-200.6,740.2-201.7,740.6-202.7,740.7z M-231.4,709.3
								l-2.3,0.6c-3.7,0.8-6.7-0.5-8.1-3.3c-0.9-1.9-0.9-4.1,0.2-5.5c2.2-2.9,5.1-3.9,7-3.9c1.2,0,2.1,0.4,2.6,1
								c0.6,0.8,1.1,1.2,1.6,1.2c0.2,0,0.4-0.1,0.5-0.2c0.3-0.3,0.3-0.9,0.3-1v-0.3l-0.3-0.1c-0.1,0-2.7-1.2-2.3-3.7
								c0.4-2.4,4.4-5,7.7-5c1,0,2.4,0.3,3.4,1.5c1.8,2.3,1.3,5.5,1.3,5.5l0.9,0.2c0-0.1,0.1-0.3,0.2-0.5c0.4-1.3,1.3-4.4,4.3-5.8
								c0.9-0.4,1.8-0.6,2.7-0.6c1.2,0,3.5,0.4,4.7,2.9c0.8,1.7,1,3.5,0.5,4.9c-0.4,1.1-1.2,1.9-2.5,2.4c-0.9,0.4-1.5,0.7-2.2,1.1
								c-0.3,0.2-0.5,0.3-0.8,0.5l-0.4,0.2l4,8.2c-2.6,0.7-6.9,2.1-10.2,3.6c-4,1.7-7.1,3.2-9.5,4.6L-231.4,709.3z M-226.9,721.9
								c-0.1,0-0.3,0.1-0.4,0.1c-0.7,0-1.5-0.5-1.6-1.2c-0.2-0.7,0.3-1.5,1.5-2.1c2.4-1.3,5.4-2.8,9.4-4.6c3.6-1.6,8.3-3.1,10.7-3.7
								c0.3-0.1,0.5-0.1,0.8-0.1c1.2,0,1.9,0.8,2,1.5c0.1,0.8-0.4,1.4-1.4,1.6c-9.2,2.4-14.3,5.1-17.8,6.9
								C-224.9,721-226,721.5-226.9,721.9z M-220.8,743.8c-0.1-0.2-0.3-0.9-0.3-1c0.4-0.1,0.4-0.3,0.5-0.3c0-0.1,0.1-0.4-0.1-0.6
								c-0.3-0.3-0.6-0.2-0.8-0.1c-0.1,0-0.2,0.1-0.3,0.6c-0.3,0.1-0.7,0-0.7,0c-0.4-0.1-0.9-0.2-1.7-0.6c-0.8-0.4-1.5-1.3-1.8-2.5
								c-0.3-1.1-0.2-2.1,0.1-2.5v-0.1c0.3,0,0.7,0,1.2,0.1c4.1,0.8,5.5-0.8,4.5-3c-1.6,0.7-3.3,0.6-2.9-1.2
								c0.2-0.8,0.5-1.1,2.4-1.3c1.9-0.1,2.8-1.3,2.8-1.4c-0.5-0.2-1.4-0.5-1.6-1.1c-0.4-0.9-0.3-1.6,0.3-2.4
								c0.7-0.9,3.2-1.4,3.2,1.1c0.7,0.2,2.1,0,2.5-0.9c0.9-1.9,0.1-2.1-0.1-4.2c3.6,0.7,6,0.6,6.5,0.1s-2.6-0.8-2.2-3.3
								c3.9,2.2,5.5,0.6,6.7-0.3c0.4-0.2-0.6-0.2-1.6-0.2c-3.3-0.3-2.6-2.1-1.3-2.3c1-0.2,2.2-0.3,4.6,2c0.9,1.4,1.6,3,2.2,4.5
								c0.8,1.9,1.5,3.7,2.7,5.1c1.1,1.2,2.2,3.4,2.7,6.2c-0.6-0.1-1.1-0.1-1.6-0.1c-2.2,0-4.1,0.7-7.8,2.5c-3.8,1.8-7.7,5-8.9,7.3
								c-1.2,2.5-1.5,3-1.9,5C-217.2,747-220.4,744.6-220.8,743.8z M-234.5,785l0.5,3.5c-1.1-0.6-3.2-1.7-5.2-2.3L-234.5,785z
								 M-229,797.9l-2-0.2l-0.2,1.2c-0.8-0.5-1.9-1.4-2-2.5c-0.1-1.9,0.4-2.9,0.9-3.4l0.2-0.1l0,0C-231,795.4-229.9,797-229,797.9z
								 M-231.6,781.3c0.1,0,0.2,0,0.2,0l-0.2,2.2V781.3z M-232.9,789.2l-1.3-8.4c0.3,0.1,0.6,0.3,0.9,0.4c0.2,0.1,0.7,0.1,0.7,0.1
								l0.3,8.6L-232.9,789.2z M-247.4,787.7c0.6-1,1.8-1.5,3.4-1.5s3.3,0.5,4.1,0.7l0.3,0.1c2.6,0.7,5.4,2.4,5.9,2.7l1.1,1.5
								c-1.7-0.4-4.9-1.2-7.8-1.8c-0.9-0.2-1.9-0.3-3-0.3c-2.1,0-3.8,0.3-4.8,0.6C-248.1,789.2-247.9,788.5-247.4,787.7z
								 M-243.4,790.1c0.1,0,0.2,0,0.3,0c1,0.7,3.1,1.3,3.8,1.4c0.2,0,1.9,0.3,4.3,0.1c0.8,0.2,1.5,0.4,2.1,0.5
								c-1.2,0.4-2.5,0.7-6.8,0.9c-3.3,0.2-7-0.5-8.2-1.6c-0.2-0.2-0.3-0.3-0.3-0.5C-246.9,790.2-245,790.1-243.4,790.1z
								 M-250,795.5l-0.2,3.6l-7.8-3.6l-0.1-3.9l8.1,3.4C-250,795.2-250,795.5-250,795.5z M-257.5,790.8l8.6-2.2
								c-0.3,0.9-0.4,1.7-0.4,1.7v0.5c0,0.5,0.2,0.9,0.7,1.4s1.4,0.9,2.4,1.2l-2.1,0.5c-0.1,0-0.6,0.1-1.1,0.4L-257.5,790.8z
								 M-245.4,797.4l-0.3,3.7l-3.5-1.6l0.2-4c0-0.1,0-0.4,0.1-0.5c0.3-0.2,0.7-0.3,0.8-0.3l4.1-0.9c1,0.2,2.1,0.2,3.2,0.2
								c0.4,0,0.8,0,1.1,0c0.6,0,1.1-0.1,1.5-0.1l-5.2,1.7c-0.2,0-1.1,0.3-1.5,0.6C-245.5,796.7-245.4,797.3-245.4,797.4z
								 M-232.9,807.2l-12-5.6l0.3-4.2c0,0,0-0.1,0.1-0.2l11.6,4.8V807.2z M-232.4,801.3l-11.2-4.7c0.2-0.1,0.3-0.1,0.4-0.1l9.5-3
								c-0.3,0.7-0.5,1.7-0.5,3c0.1,2.3,3,3.6,3.1,3.6l0.6,0.3l0.2-1.6l2.6,0.3l0.3-0.9c0,0-2-1.2-3.5-4.8l6.5,4.8L-232.4,801.3z
								 M-231.1,790l0.6-8.7c0,0,0.8-0.2,0.9-0.2c0.1,0.1,0.3,0.2,0.5,0.2c-0.2,1.8-0.7,4.8-1.4,6.9
								C-230.7,788.8-230.9,789.4-231.1,790z M-223.8,797.3l-6.3-4.6l4.4,1.6c0.6,0.2,1.2,0.4,1.7,0.6c1.5,0.5,2.7,0.9,3.1,1.6
								c0.2,0.4,0.3,1.3,0.2,1.8v1.3l-1.1-0.7l-1.3,1.1v-1.8C-223,798.1-223,797.7-223.8,797.3z M-231.9,807.4v-5.3l8-3.2v3l2.3-2
								l0.9,0.6l0.1,1.6L-231.9,807.4z M-215.9,800.1l-3.8,1.7v-3.5c0.1-0.6,0-1.7-0.4-2.3c-0.6-1-1.9-1.4-3.6-2
								c-0.5-0.2-5.3-1.9-5.3-1.9l1.3-0.4l10.8,3.5c0.4,0.2,0.9,0.4,0.9,0.6s0.1,0.7,0.1,1V800.1z M-207.3,796.2l-7.7,3.5v-3
								c0-0.1,0-0.8-0.1-1.2c0,0,0,0,0-0.1l8.1-3.2L-207.3,796.2z M-207.2,791.3l-8.5,3.3c-0.3-0.2-0.6-0.3-0.9-0.4l-9.8-3.1l8.4-3
								L-207.2,791.3z M-220.5,787.5l1,0.3l-9,3.2l-2,0.6c0.1-0.4,0.3-0.9,0.5-1.4l7.9-3L-220.5,787.5z M-223.5,786.5l-6.2,2.4
								c0-0.1,0.1-0.2,0.1-0.3c0.4-1.1,0.7-2.4,0.9-3.6L-223.5,786.5z M-226.6,779.8c-0.2,0.5-0.6,0.7-1.1,0.7c-0.1,0-0.2,0-0.3,0
								c0-0.2,0-0.4,0.1-0.4c0.5-0.4,1-0.9,1.4-1.4C-226.4,779.2-226.5,779.6-226.6,779.8z M-228.8,779.6l-0.7,0.3
								c1.8-2,2.1-4.7,1.8-5.4c-0.1-0.4-0.4-0.4-0.5-0.4s-0.4,0.1-0.5,0.3c-0.1,0.2-1.9,5.3-2.1,5.6c-0.3,0.3-0.5,0.3-0.6,0.4
								c-0.1-0.5,0.2-2,0.3-2.9c0.3-1.6,0.5-2.4,0.1-2.9c-0.1-0.1-0.3-0.2-0.5-0.2c-0.1,0-0.2,0-0.4,0.1c-0.6,0.3-0.7,1.4-0.7,3.8
								c0,0.3,0,0.7,0,1.1c-0.2-0.3-1.1-3-1.3-3.7c-0.5-1.7-0.9-1.8-1.3-1.6c-0.2,0.1-0.2,0.4,0,1.2c0.2,1,1.5,4.4,1.7,4.8l-0.4-0.1
								c-3.5-1.9-3.5-6.6-3.5-7.6c0.2-5.4,6.7-5.5,7-5.5c1.4,0.1,4.7,1.6,5,4.8C-225.1,774.5-226.3,777.9-228.8,779.6z
								 M-224.8,769.9c-1.1-2.5-3.8-3.9-5.5-4c-0.8,0-1.7,0.1-2.7,0.4c1.2-3.2,2.5-5.6,4.8-7.8l6.8,9.7
								C-222.5,768.8-223.7,769.4-224.8,769.9z M-210.9,785.7l-4.8-19.4l-3.9,2.9l-9.2-13.1l10.1-8.1c0.1-0.1,0.5-0.2,1-0.5
								c1.2,0.8,2.7,1.5,4.2,2.1c-0.1,0.3-0.1,0.6-0.2,0.9l-0.3,1.4l0.5-0.1c1.4-0.3,2.4-0.5,3.3-0.9l9.8,33.4
								C-205.3,784.7-209.5,785.4-210.9,785.7z M-176.6,806c-3.1,1.7-4.2,1-5,0.7c0-0.2-0.1-0.3-0.1-0.5c-0.1-0.2-0.1-0.4-0.2-0.6
								l6.7-2.7c0.2,0.3,0.3,0.6,0.5,0.9C-175.2,804.6-175.8,805.6-176.6,806z M-161.2,794.2l-16.7-7.8l7,13.8l-21.3,8.6l-9.8-23.3
								c1-0.1,2.1-0.2,3.2-0.2c7.4-0.3,17.3-5.2,24-8.9c1.3-0.7,2.8-2,4.3-3.5c0.5,0.5,1,0.9,1.6,1.2c0.1,0.3,0.4,0.5,0.8,0.8
								c0.8,0.6,1.9,1,3.1,1c1,0,1.9-0.2,2.7-0.7c1.1-0.6,2-2.2,2.6-3.2c0,0,0.1,0,0.1,0.1l0.2,0.1c0.6,0.4,1,0.7,1.5,0.7h0.1
								l10.7,7.3L-161.2,794.2z M-149.7,787.3c-1.5,1.8-2.6,2.3-3.4,2.5l-1.6-0.7l5-5c0.4,0.2,0.8,0.4,1.2,0.5
								C-148.6,785.5-149.1,786.5-149.7,787.3z"/>
							<path d="M-203.3,725.5c0.1,0,0.2-0.1,0.3-0.2c1.5-1.8,4-2.3,4.1-2.4c0.2-0.1,0.1-0.4,0.1-0.4c-0.2-0.3-0.9-0.8-1.8-0.8
								c-0.4,0-0.8,0.1-1.2,0.3c-1.4,0.8-2,2.6-1.8,3.2C-203.6,725.4-203.4,725.5-203.3,725.5z"/>
							<path d="M-209.4,727.7c0.5,0,0.9,0,1.6,0.6c1.1,1,0.4,6.5,3.2,7.9c1,0.5,2.2,0.2,3-0.4c1.3-0.9,1.2-2.7,0.7-4
								c-0.1-0.3-0.8-0.1-0.7,0.2c0.6,1.8,0,5.1-2.7,3.7c-1.5-0.8-1.9-3.5-2.1-5c-0.3-2.4-1.1-4.4-3.9-4.4h-0.1
								c-1.3,0-2.8,0.7-3.9,1.9c-0.8,0.9-1.2,1.9-1.1,2.8v0.1l0,0c0.1,0.1,0.1,0.1,0.2,0.1c0.2,0,0.4-0.2,1-0.8
								C-213.1,729.5-211.4,727.9-209.4,727.7z"/>
						</g>
					</g>
				</g>
				<g>
					<path class="st5" d="M-112.5,737.2c0.4,0,0.8,0.1,1.2,0.4c0.4,0.2,0.7,0.6,0.8,1c0,0.2,0,0.4,0,0.5v0.5
						c1.4-0.4,2.7-0.6,3.9-0.7c1.3-0.1,2.5-0.2,3.9-0.2c1.4,0,2.8,0.1,4.4,0.4c1.6,0.3,3,0.8,4.3,1.4c1.3,0.7,2.4,1.6,3.3,2.8
						c0.9,1.2,1.3,2.6,1.3,4.4c0,1.3-0.2,2.5-0.7,3.8s-1,2.4-1.6,3.2c-1.9,2.6-4,4.9-6.5,6.9c-2.5,1.9-5.5,3.7-8.9,5.3
						c-0.8,0.4-1.8,0.8-2.8,1.2c-1.1,0.4-2.1,0.7-3.2,0.8c-0.2,0.3-0.5,0.5-0.8,0.6c-0.3,0.2-0.6,0.2-1,0.2c-0.1,0-0.3,0-0.5-0.1
						c-0.2-0.1-0.4-0.2-0.7-0.3c-0.2-0.2-0.4-0.3-0.6-0.6c-0.2-0.2-0.2-0.5-0.2-0.8c0-0.2,0-0.4,0.1-0.6c0,0,0-0.1,0-0.3
						c0-0.2,0-0.4,0.1-0.6c0-0.2,0.1-0.4,0.2-0.6c0.1-0.2,0.2-0.3,0.3-0.4c0.1-0.5,0.2-1.2,0.3-2.3s0.2-2.4,0.3-3.8
						c0.1-1.4,0.2-2.9,0.3-4.6c0.1-1.6,0.2-3.1,0.3-4.6c0.1-1.5,0.2-2.8,0.2-3.9c0.1-1.1,0.1-2,0.1-2.5c-0.2-0.2-0.2-0.5-0.2-0.8
						c0-0.2,0.1-0.5,0.2-0.9l0.1-1.1c0-0.2,0-0.5,0-0.8c0-0.3,0-0.6,0-0.9c0-0.7,0.2-1.2,0.6-1.6
						C-113.5,737.4-113,737.2-112.5,737.2 M-108.3,742.7c-0.3,0.1-0.7,0.2-1.1,0.3s-0.8,0.2-1.1,0.4c0,0.6-0.1,1.4-0.1,2.6
						c-0.1,1.2-0.1,2.5-0.2,4c-0.1,1.5-0.2,3-0.3,4.6c-0.1,1.6-0.2,3.1-0.3,4.5c-0.1,1.4-0.2,2.7-0.3,3.7c-0.1,1.1-0.2,1.8-0.3,2.3
						c1.4-0.3,2.8-0.9,4.3-1.6c1.5-0.8,3-1.6,4.4-2.6c1.4-0.9,2.7-1.9,3.9-2.9c1.2-1,2.1-1.9,2.8-2.8c0.4-0.5,0.8-1,1.2-1.6
						c0.4-0.6,0.7-1.2,1-1.8c0.3-0.6,0.5-1.3,0.7-2c0.2-0.7,0.3-1.3,0.3-2c0-1.1-0.2-2-0.7-2.8c-0.5-0.7-1.2-1.3-2-1.7
						s-1.8-0.7-2.9-0.9c-1.1-0.2-2.2-0.3-3.3-0.3c-0.9,0-1.7,0-2.6,0.1c-0.8,0.1-1.6,0.2-2.2,0.3L-108.3,742.7z"/>
					<path class="st5" d="M-83.2,768.9c-1,0-1.9-0.2-2.8-0.6c-0.9-0.4-1.6-0.9-2.2-1.7c-0.6-0.8-1.1-1.7-1.4-2.8
						c-0.3-1.1-0.4-2.4-0.3-3.9c0.1-1.4,0.4-2.8,1-4.1c0.6-1.4,1.3-2.6,2.2-3.7c0.9-1.1,1.9-2,3.1-2.7c1.2-0.7,2.4-1,3.7-1
						c0.7,0,1.3,0.2,1.9,0.5c0.5,0.3,0.9,0.7,1.2,1.2c0.3,0.5,0.5,1,0.6,1.6c0.1,0.6,0.2,1.2,0.1,1.8c-0.1,1.3-0.5,2.5-1.2,3.5
						s-1.5,1.9-2.5,2.7c-1,0.8-2,1.4-3.2,1.8c-1.1,0.5-2.2,0.8-3.2,0.9c0.2,1.1,0.6,1.8,1.2,2.2c0.5,0.4,1.1,0.6,1.7,0.6
						c0.6,0,1.2-0.1,1.8-0.2c0.6-0.2,1.2-0.4,1.7-0.6c0.5-0.3,1-0.6,1.5-0.9c0.4-0.4,0.8-0.8,1-1.2c0.2-0.4,0.5-0.5,0.9-0.5
						s0.8,0.2,1.2,0.4c0.3,0.2,0.6,0.5,0.8,0.9c0.2,0.4,0.2,0.7,0,1.1c-0.5,0.8-1,1.4-1.8,2c-0.7,0.6-1.5,1.1-2.3,1.4
						c-0.8,0.4-1.6,0.7-2.5,0.9C-81.7,768.8-82.5,768.9-83.2,768.9 M-79.9,752c-0.6,0-1.3,0.2-1.9,0.6c-0.6,0.4-1.2,0.9-1.8,1.6
						c-0.6,0.7-1,1.4-1.5,2.2c-0.4,0.8-0.7,1.6-0.9,2.4c0.6-0.1,1.3-0.3,2.1-0.6c0.7-0.3,1.4-0.7,2.1-1.1c0.7-0.5,1.2-1,1.7-1.6
						s0.7-1.4,0.8-2.2c0.1-0.5,0-0.9-0.1-1C-79.6,752.1-79.7,752-79.9,752"/>
					<path class="st5" d="M-61.5,738c0,1.2-0.3,2.7-0.9,4.3c-0.6,1.6-1.3,3.2-2.1,4.8c-0.1,0.7-0.2,1.3-0.3,2.1
						c-0.1,0.7-0.2,1.4-0.4,2.1c-0.3,1.3-0.5,2.5-0.7,3.8c-0.2,1.2-0.3,2.5-0.5,3.7s-0.2,2.4-0.2,3.7c0,1,0.1,2,0.2,3s0.4,2,0.7,3.1
						c0.1,0.2,0.1,0.3,0.1,0.3v0.2c0,0.5-0.2,0.9-0.5,1.2c-0.3,0.3-0.7,0.4-1.2,0.4c-0.7,0-1.2-0.3-1.7-1c-0.4-0.6-0.7-1.4-0.9-2.3
						s-0.3-1.8-0.4-2.8c-0.1-1-0.1-1.8-0.1-2.4c0-1.4,0.1-2.7,0.2-4c0.1-1.3,0.3-2.6,0.5-3.9c-0.5,0-0.9-0.1-1.3-0.4
						c-0.4-0.3-0.5-0.7-0.5-1.3c0-0.2,0-0.4,0.1-0.6c0.5-1,1.1-2,1.6-3c0.5-1,1-2,1.5-3c0.1-0.3,0.1-0.7,0.2-1c0-0.3,0.1-0.7,0.2-1
						c0.1-0.6,0.2-1.4,0.4-2.3c0.2-0.9,0.4-1.8,0.7-2.7c0.3-0.9,0.7-1.6,1.2-2.2s1.1-0.9,1.9-0.9c0.5,0,1,0.2,1.5,0.5
						C-61.7,736.7-61.5,737.2-61.5,738L-61.5,738L-61.5,738z"/>
					<path class="st5" d="M-56.1,762.8c0,0.4,0,0.8,0,1.1c0,0.3,0.1,0.6,0.2,0.9c0.1,0.2,0.2,0.5,0.3,0.8c0.1,0.3,0.2,0.6,0.2,0.9
						c0,0.6-0.3,1.1-0.8,1.4s-1,0.5-1.6,0.5c-0.2,0-0.4,0-0.7-0.1c-0.3,0-0.5-0.2-0.8-0.5c-0.3-0.3-0.5-0.7-0.6-1.3
						c-0.2-0.6-0.2-1.4-0.2-2.5c0-0.2,0-0.7,0.1-1.7c0.1-0.9,0.1-2,0.2-3.1c0.1-1,0.1-1.9,0.2-2.8c0-0.9,0.1-1.5,0.1-1.8
						c0-0.7,0.1-1.3,0.1-2s0.1-1.3,0.2-1.8s0.3-1,0.6-1.3c0.3-0.3,0.6-0.5,1.1-0.5c0.7,0,1.2,0.2,1.7,0.6c0.5,0.4,0.7,1,0.7,1.7
						c0,0,0,0,0,0.2c0,0.2,0,0.4-0.1,0.7c-0.1,0.5-0.1,1.3-0.2,2.2s-0.2,1.9-0.3,2.9c-0.1,1-0.2,2-0.3,2.9
						C-56,761.6-56.1,762.3-56.1,762.8 M-56,745.5c-0.6,0-1.1-0.2-1.6-0.7s-0.8-1.2-0.8-2.2c0-0.7,0.2-1.2,0.5-1.4
						c0.3-0.2,0.9-0.4,1.6-0.4c0.6,0,1.1,0.2,1.5,0.5c0.5,0.3,0.7,1,0.7,1.9c0,0.8-0.2,1.4-0.7,1.7C-55.2,745.3-55.6,745.5-56,745.5
						"/>
					<path class="st5" d="M-43.8,769.4c-0.5,0-1-0.2-1.4-0.6s-0.8-1-1-1.8c-0.4-1.7-0.8-3.4-1.3-4.9c-0.5-1.6-1-3.1-1.5-4.6
						c-0.2-0.7-0.5-1.4-0.7-2.1c-0.2-0.7-0.5-1.4-0.7-2.1c0-0.6,0.2-1.1,0.5-1.4c0.4-0.3,0.8-0.4,1.2-0.4c0.3,0,0.6,0,1,0.1
						c0.3,0,0.6,0.3,0.8,0.8l1.5,4.9c0.2,0.6,0.3,1,0.5,1.4c0.2,0.4,0.3,0.7,0.4,1c0.1,0.3,0.2,0.7,0.3,1.1c0.1,0.4,0.3,0.9,0.4,1.4
						c0.4-1.2,0.9-2.4,1.5-3.7c0.6-1.3,1.2-2.5,1.9-3.8c0.7-1.2,1.4-2.4,2.1-3.6c0.7-1.1,1.5-2.2,2.2-3.1c0.2-0.2,0.5-0.4,0.8-0.5
						c0.3-0.1,0.5-0.1,0.8-0.1c0.5,0,0.9,0.1,1.3,0.4c0.4,0.3,0.6,0.6,0.6,1.1c0,0.2,0,0.3-0.1,0.5s-0.2,0.3-0.3,0.5
						c-0.8,1.1-1.7,2.4-2.6,3.8s-1.7,2.9-2.5,4.5s-1.4,3.1-2,4.7s-1,3.1-1.2,4.5C-41.3,768.7-42.2,769.4-43.8,769.4"/>
					<path class="st5" d="M-25.1,768.9c-1,0-1.9-0.2-2.8-0.6s-1.6-0.9-2.2-1.7c-0.6-0.8-1.1-1.7-1.4-2.8c-0.3-1.1-0.4-2.4-0.3-3.9
						c0.1-1.4,0.4-2.8,1-4.1c0.6-1.4,1.3-2.6,2.2-3.7c0.9-1.1,1.9-2,3.1-2.7s2.4-1,3.7-1c0.7,0,1.3,0.2,1.9,0.5
						c0.5,0.3,0.9,0.7,1.2,1.2c0.3,0.5,0.5,1,0.6,1.6c0.1,0.6,0.2,1.2,0.1,1.8c-0.1,1.3-0.5,2.5-1.2,3.5s-1.5,1.9-2.5,2.7
						c-1,0.8-2,1.4-3.2,1.8c-1.1,0.5-2.2,0.8-3.2,0.9c0.2,1.1,0.6,1.8,1.2,2.2c0.5,0.4,1.1,0.6,1.7,0.6s1.2-0.1,1.8-0.2
						c0.6-0.2,1.2-0.4,1.7-0.6c0.5-0.3,1-0.6,1.5-0.9c0.4-0.4,0.8-0.8,1-1.2c0.2-0.4,0.5-0.5,0.9-0.5s0.8,0.2,1.2,0.4
						c0.3,0.2,0.6,0.5,0.8,0.9c0.2,0.4,0.2,0.7,0,1.1c-0.5,0.8-1,1.4-1.8,2c-0.7,0.6-1.5,1.1-2.3,1.4c-0.8,0.4-1.6,0.7-2.5,0.9
						C-23.6,768.8-24.4,768.9-25.1,768.9 M-21.9,752c-0.6,0-1.3,0.2-1.9,0.6c-0.6,0.4-1.2,0.9-1.8,1.6c-0.6,0.7-1,1.4-1.5,2.2
						c-0.4,0.8-0.7,1.6-0.9,2.4c0.6-0.1,1.3-0.3,2.1-0.6c0.7-0.3,1.4-0.7,2.1-1.1c0.7-0.5,1.2-1,1.7-1.6s0.7-1.4,0.8-2.2
						c0.1-0.5,0-0.9-0.1-1S-21.7,752-21.9,752"/>
					<path class="st5" d="M2.1,747.8c0.1,0.4,0.2,0.7,0.2,1s-0.1,0.7-0.2,1c-0.1,0.3-0.4,0.6-0.8,0.8c-0.2,0.1-0.3,0.1-0.4,0.1H0.6
						c-0.1,0-0.2,0-0.3,0c-1.3,0.6-2.4,1.4-3.4,2.3c-0.9,1-1.7,2-2.3,3.3c-0.6,1.2-1.1,2.5-1.4,3.9s-0.5,2.8-0.5,4.2v1.7
						c0,0.4,0,0.8-0.1,1.2c0,0.4-0.1,0.7-0.3,1c-0.1,0.3-0.3,0.5-0.6,0.7c-0.3,0.2-0.6,0.3-1.1,0.3c-0.6,0-1.1-0.2-1.6-0.5
						c-0.2-0.2-0.4-0.5-0.6-1c-0.2-0.4-0.2-1.1-0.2-2l0,0c0-0.6,0.1-1.2,0.1-1.8s0-1.2,0-1.9c0-1.8-0.2-3.7-0.5-5.7
						c-0.3-1.9-0.8-3.7-1.6-5.2l0,0c-0.2-0.2-0.2-0.5,0-0.9c0.1-0.4,0.4-0.7,0.7-1c0.3-0.3,0.7-0.5,1.1-0.6c0.5-0.1,0.9,0.1,1.5,0.5
						c0.4,0.3,0.7,0.8,1,1.4c0.2,0.7,0.4,1.7,0.7,3c0,0.2,0,0.3,0,0.3c0,0.1,0.1,0.2,0.1,0.4c1-1.6,2.1-3.1,3.4-4.5
						c1.3-1.4,2.9-2.5,4.7-3.3c0.6-0.2,1.1-0.2,1.6,0C1.5,747,1.9,747.4,2.1,747.8"/>
					<path class="st5" d="M3.8,768.8c-0.7,0-1.3-0.2-1.7-0.5c-0.5-0.4-0.8-0.8-1.1-1.4c-0.3-0.5-0.5-1.1-0.6-1.7
						c-0.1-0.6-0.2-1.2-0.2-1.7c0-1.2,0.1-2.2,0.2-3c0.2-0.9,0.4-1.7,0.7-2.6c0.2-0.6,0.6-1.5,1.1-2.6c0.5-1.1,1.1-2.1,1.8-3.1
						s1.5-1.9,2.3-2.6c0.9-0.8,1.7-1.1,2.6-1.1c0.7,0,1.3,0.2,1.7,0.7s0.6,1,0.6,1.4c0,0.6-0.2,1.1-0.5,1.4s-0.6,0.4-0.9,0.5
						c-0.3,0-0.6,0-0.7,0c-0.1,0-0.3,0-0.5,0c-0.4,0.1-0.8,0.4-1.4,0.9C6,754.6,5,756,4.4,757.6c-0.6,1.6-0.9,3.2-0.9,5
						c0,0.6,0.1,1.1,0.3,1.5c0.2,0.4,0.4,0.6,0.5,0.6s0.3-0.1,0.7-0.3s0.9-0.6,1.4-1.1c0.6-0.5,1.2-1.3,1.8-2.2s1.2-2.1,1.7-3.5
						c0.2-0.7,0.4-1.3,0.5-1.8c0.1-0.6,0.1-1,0.2-1.5c0.2-1.2,0.4-2,0.6-2.6c0.3-0.5,0.8-0.8,1.7-0.8c0.4,0,0.8,0.1,1.1,0.4
						c0.3,0.2,0.4,0.7,0.4,1.4c0,0.6,0,1.1-0.1,1.6s-0.2,1-0.3,1.5c-0.2,0.8-0.4,1.6-0.4,2.2c-0.1,0.7-0.1,1.4-0.1,2.2
						c0,1.5,0.1,2.9,0.4,4.1c0.3,1.2,0.7,2.2,1.1,2.9c0.1,0.2,0.3,0.4,0.3,0.7c0.1,0.2,0.1,0.4,0.1,0.6c0,0.6-0.2,1-0.7,1.2
						c-0.4,0.2-0.9,0.3-1.3,0.3c-0.5,0-0.8-0.2-1.2-0.5c-0.3-0.3-0.6-0.8-0.9-1.4c-0.2-0.6-0.4-1.2-0.6-1.9
						c-0.2-0.7-0.3-1.4-0.4-2.1c-1.2,1.6-2.3,2.8-3.5,3.7C5.9,768.4,4.8,768.8,3.8,768.8"/>
					<path class="st5" d="M21.4,770.9c-0.2,0.1-0.3,0.1-0.5,0.2c-0.2,0.1-0.3,0.1-0.5,0.1c-0.3,0-0.5-0.1-0.7-0.2
						c-0.2-0.2-0.4-0.4-0.5-0.6c-0.1-0.2-0.2-0.5-0.2-0.7c0-0.2-0.1-0.4-0.1-0.5c0-0.4,0.1-0.8,0.3-1.2s0.5-0.7,0.8-0.7
						c0.3-0.1,0.6-0.1,0.8,0c0.2,0.1,0.5,0.1,0.8,0.1s0.5,0,0.7,0s0.5-0.1,0.9-0.3c0.3-0.1,0.8-0.3,1.4-0.5c0.6-0.2,1.2-0.5,1.8-0.9
						c0.6-0.4,1.1-0.7,1.6-1.2c0.4-0.4,0.7-0.8,0.7-1.2c0-0.3-0.2-0.5-0.6-0.7c-0.4-0.2-0.8-0.4-1.3-0.5c-0.5-0.2-0.9-0.3-1.2-0.3
						c-0.4-0.1-0.5-0.1-0.5-0.1c-0.7-0.2-1.4-0.4-2.3-0.6c-0.9-0.2-1.7-0.6-2.4-1c-0.8-0.4-1.4-0.9-1.9-1.6
						c-0.5-0.6-0.8-1.4-0.8-2.4c0-1.2,0.4-2.3,1.2-3.2c0.8-0.9,1.7-1.7,2.8-2.3c1.1-0.6,2.3-1.1,3.5-1.4s2.2-0.5,3-0.5
						c0.5,0,1,0.1,1.5,0.3s0.8,0.6,0.8,1.2c0,1.6-0.6,2.3-1.8,2.3c-0.2,0-0.5-0.1-0.6-0.2c-0.2-0.1-0.4-0.2-0.5-0.2
						c-0.7,0-1.5,0.1-2.2,0.3c-0.7,0.2-1.4,0.5-2,0.8s-1.1,0.7-1.4,1.1c-0.4,0.4-0.5,0.8-0.5,1.1c0,0.3,0.1,0.6,0.4,0.8
						c0.3,0.3,0.6,0.5,1,0.7s0.9,0.4,1.3,0.5c0.5,0.2,0.9,0.3,1.3,0.4c0.9,0.2,1.8,0.5,2.6,0.8c0.8,0.3,1.6,0.6,2.2,1
						c0.6,0.4,1.1,0.8,1.5,1.3s0.5,1.1,0.5,1.8c0,1.2-0.4,2.3-1.1,3.2c-0.8,0.9-1.7,1.7-2.8,2.4s-2.3,1.2-3.6,1.6
						C23.5,770.4,22.4,770.7,21.4,770.9"/>
					<path class="st5" d="M37.8,768.4c-0.5,0-1-0.2-1.5-0.6s-0.8-1-0.8-1.8c-0.1-0.8,0-1.3,0.2-1.6c0.2-0.3,0.7-0.5,1.3-0.6
						c0.2,0,0.4,0,0.8,0c0.4,0,0.8,0.1,1.2,0.3c0.4,0.2,0.6,0.7,0.7,1.4c0.1,1,0,1.7-0.5,2.2C38.8,768.1,38.3,768.4,37.8,768.4"/>
					<path class="st5" d="M46.1,767.9c-1.1,0-2-0.4-2.4-1.1c-0.5-0.7-0.7-1.8-0.7-3.3c0-1,0.1-2.1,0.3-3.2c0.2-1.2,0.5-2.3,0.9-3.5
						s0.8-2.3,1.4-3.3c0.5-1.1,1.1-2,1.7-2.8c0.6-0.8,1.3-1.5,1.9-2c0.7-0.5,1.3-0.7,2-0.7c0.5,0,1,0,1.4,0s0.8,0.1,1.2,0.2
						s0.8,0.3,1.2,0.6c0.4,0.3,0.8,0.7,1.2,1.2c0.2,0.3,0.4,0.6,0.4,1c0,0.5-0.2,1-0.6,1.3c-0.4,0.4-0.9,0.6-1.4,0.6
						c-0.3,0-0.5-0.1-0.7-0.2c-0.2-0.2-0.4-0.3-0.6-0.5c-0.1-0.1-0.2-0.2-0.3-0.3s-0.3-0.1-0.4-0.1c-0.2,0-0.5,0.1-0.8,0.3
						c-0.3,0.2-0.6,0.4-0.8,0.6c-1.3,1.2-2.3,2.7-3,4.5s-1.1,3.9-1.1,6.1l0,0c0.7-0.1,1.6-0.5,2.5-1.1c1-0.6,1.9-1.3,2.7-2.2
						c0.9-0.8,1.6-1.7,2.2-2.6c0.6-0.9,0.9-1.8,0.9-2.5c0-0.1,0-0.2,0-0.2s0-0.1,0-0.2c0-0.1,0-0.2,0-0.3v-0.4c0-0.3,0.2-0.7,0.7-1
						s1-0.5,1.5-0.5c0.7,0,1.2,0.3,1.4,0.9c0.3,0.6,0.4,1.3,0.3,2.1c0.2,1.7,0.4,3.2,0.6,4.7c0.1,1.5,0.2,2.9,0.2,4.3
						c0,1.2-0.1,2.5-0.2,4c-0.2,1.4-0.4,2.9-0.7,4.4s-0.7,2.9-1.2,4.2c-0.5,1.4-1,2.6-1.6,3.6c-0.6,1.1-1.2,1.9-2,2.5
						c-0.7,0.6-1.5,0.9-2.3,0.9c-0.2,0-0.4,0-0.6,0c-0.2,0-0.4-0.1-0.6-0.2c-0.2-0.1-0.3-0.2-0.5-0.4c-0.1-0.2-0.2-0.4-0.2-0.8
						c0-0.5,0.1-0.9,0.4-1.3c0.3-0.3,0.6-0.6,1-0.7c0.8-0.9,1.5-2,2-3.3s1-2.6,1.3-4s0.6-2.9,0.7-4.4c0.2-1.5,0.2-3.1,0.2-4.6v-0.9
						v-0.6c0-0.2,0-0.4,0-0.6c0-0.2,0-0.5-0.1-0.8c-0.4,0.5-0.7,0.9-0.9,1.2c-0.2,0.3-0.4,0.5-0.6,0.7c-0.2,0.2-0.3,0.4-0.4,0.5
						c-0.1,0.1-0.2,0.2-0.4,0.3c-0.4,0.4-0.9,0.8-1.5,1.2c-0.6,0.4-1.2,0.8-1.8,1.2c-0.7,0.4-1.3,0.7-2,0.9
						C47.4,767.8,46.8,767.9,46.1,767.9"/>
					<path class="st5" d="M79.8,747.8c0.1,0.4,0.2,0.7,0.2,1s-0.1,0.7-0.2,1c-0.1,0.3-0.4,0.6-0.8,0.8c-0.2,0.1-0.3,0.1-0.4,0.1
						h-0.5c-0.1,0-0.2,0-0.3,0c-1.3,0.6-2.4,1.4-3.4,2.3c-0.9,1-1.7,2-2.3,3.3c-0.6,1.2-1.1,2.5-1.4,3.9c-0.3,1.4-0.5,2.8-0.5,4.2
						v1.7c0,0.4,0,0.8-0.1,1.2c0,0.4-0.1,0.7-0.3,1c-0.1,0.3-0.3,0.5-0.6,0.7s-0.6,0.3-1.1,0.3c-0.6,0-1.1-0.2-1.6-0.5
						c-0.2-0.2-0.4-0.5-0.6-1c-0.2-0.4-0.2-1.1-0.2-2l0,0c0-0.6,0.1-1.2,0.1-1.8s0-1.2,0-1.9c0-1.8-0.2-3.7-0.5-5.7
						c-0.3-1.9-0.8-3.7-1.6-5.2l0,0c-0.2-0.2-0.2-0.5,0-0.9c0.1-0.4,0.4-0.7,0.7-1s0.7-0.5,1.1-0.6c0.5-0.1,0.9,0.1,1.5,0.5
						c0.4,0.3,0.7,0.8,1,1.4c0.2,0.7,0.4,1.7,0.7,3c0,0.2,0,0.3,0,0.3c0,0.1,0.1,0.2,0.1,0.4c1-1.6,2.1-3.1,3.4-4.5
						c1.3-1.4,2.9-2.5,4.7-3.3c0.6-0.2,1.1-0.2,1.6,0C79.3,747,79.5,747.4,79.8,747.8"/>
				</g>
			</g>
		</g>
	</g>
</g>
</svg>
