<?xml version="1.0" encoding="UTF-8"?>
<!-- Generator: Adobe Illustrator 17.1.0, SVG Export Plug-In . SVG Version: 6.00 Build 0)  -->
<!DOCTYPE svg PUBLIC "-//W3C//DTD SVG 1.1//EN" "http://www.w3.org/Graphics/SVG/1.1/DTD/svg11.dtd">
<svg version="1.1" id="Layer_1" xmlns="http://www.w3.org/2000/svg" xmlns:xlink="http://www.w3.org/1999/xlink" x="0px" y="0px" width="116.3px" height="35px" viewBox="0 0 116.3 35" enable-background="new 0 0 116.3 35" xml:space="preserve">
<g>
	<path fill="#333333" d="M70.3,13.1V6.7h-7.1v6.3h-3.3v5.1c-0.2-1.3-0.7-2.3-1.7-3.3c-1.4-1.5-3.4-2.3-5.8-2.3   c-2.3,0-4.2,0.7-5.5,2.1c-0.3,0.3-0.6,0.7-0.9,1.1v-2.7h-7.1v7.2c-1.4-4.8-5.8-8-11.6-8c-5.4,0-9.6,2.8-11.3,7v-5.7   c-1.6-0.8-2.9-1.2-4.8-1.2C4.8,12.4,0,17.3,0,23.8c0,6.3,4.8,11.1,11,11.1c1.8,0,3.2-0.3,4.9-1.2V28c1.7,4.3,5.9,7.1,11.3,7.1   c5.8,0,10.2-3.2,11.6-8v7.2H46V22.9c0-2.8,1.4-4.3,3.7-4.3c1.2,0,2.4,0.7,2.8,1.6c0.4,0.9,0.5,1,0.5,3.4v10.7h7.1V20.8   c0-0.6,0-1-0.1-1.5h3.1v14.9h7.1V19.3h5v-6.2H70.3z M12.3,28.8c-2.8,0-4.9-2.1-4.9-5.1c0-3,2-5.1,4.9-5.1c1.2,0,2.2,0.3,3.5,1.2   c-0.4,1.2-0.6,2.5-0.6,3.8c0,1.4,0.2,2.7,0.6,3.9C14.7,28.4,13.6,28.8,12.3,28.8z M27.3,28.4c-2.5,0-4.6-2.1-4.6-4.8   c0-2.7,2.1-4.8,4.6-4.8c2.5,0,4.6,2.1,4.6,4.8C31.8,26.3,29.8,28.4,27.3,28.4z"/>
	<path fill="#333333" d="M76.2,13.1h7.1v21.2h-7.1V13.1z M79.7,9.1c-2.3,0-4.2-1.9-4.2-4.2c0-2.3,1.9-4.2,4.2-4.2s4.2,1.9,4.2,4.2   C83.9,7.2,82,9.1,79.7,9.1"/>
	<g>
		<path fill="#333333" d="M112.1,9.1c2.3,0,4.2-1.9,4.2-4.2s-1.9-4.2-4.2-4.2c-2.3,0-4.2,1.9-4.2,4.2S109.7,9.1,112.1,9.1z"/>
		<path fill="#333333" d="M108.5,13.1h-8.7l-7.4,7.6V0h-7.1v34.2h7.1v-8.6l7.8,8.6h10l0,0h5.5V13.1L108.5,13.1L108.5,13.1z     M99.5,22.8l9.1-8.8v18.4L99.5,22.8z"/>
	</g>
</g>
</svg>